<svg xmlns="http://www.w3.org/2000/svg">
<defs>
<font id="DarumadropOne-Regular" horiz-adv-x="0" >
  <font-face 
    font-family="Darumadrop One"
    font-weight="400"
    font-stretch="normal"
    units-per-em="1000"
    panose-1="0 0 0 0 0 0 0 0 0 0"
    ascent="880"
    descent="-120"
    x-height="440"
    cap-height="611"
    bbox="11 -279 1044 860"
    underline-thickness="50"
    underline-position="-175"
    unicode-range="U+000D-FE44"
  />
<missing-glyph horiz-adv-x="797" 
d="M757 292q-20 -19 -36 -42t-33 -46q-11 -15 -25 -27.5t-27 -25.5q-1 -4 -6 -7q-13 -16 -25 -31t-27 -29q-13 -13 -30 -23t-33 -23q-25 -21 -50 -43l-50 -44q-10 2 -18 2.5t-18 1.5q-4 6 -10 13.5t-14 11.5q-25 16 -47.5 36t-48.5 36q-17 11 -28.5 26.5t-22.5 31.5
q-34 19 -62 44t-47 59q-7 13 -17 24t-25 18q-11 7 -17 21q2 13 10.5 21t18 15.5t13.5 17.5q7 17 18.5 30t20.5 29q12 1 22 3q8 16 15 32.5t20 28.5t37 14q5 10 11 19.5t13 20.5q7 4 15.5 8.5t16.5 8.5q3 5 5.5 12.5t5.5 14.5q14 11 29.5 22t23.5 28q9 3 16 5l14 4
q13 10 21.5 24t24.5 24q22 -7 42 -20.5t39 -27.5q28 -22 55 -46t46 -55q5 -7 10.5 -13t10.5 -12q22 -22 40.5 -46.5t37.5 -49.5q10 -14 22 -26.5t23 -25.5q8 -9 14 -19t6 -25zM565 370q-5 37 -17 69.5t-29 63.5q-23 5 -44.5 10t-42.5 9q-25 -4 -49 -12.5t-48 -18.5
q-43 -19 -56 -62q-3 -15 -7.5 -29.5t-9.5 -31.5q3 -5 5 -10t4 -11q14 2 26.5 -3.5t24.5 -5.5q20 3 35 15q7 21 16.5 42t31.5 34q24 -1 43 -15q10 -12 12.5 -25t-5.5 -27q-11 -7 -22 -15t-25 -13q-11 -4 -21.5 -12.5t-16.5 -20.5q-9 -17 -14.5 -35t-4.5 -37q8 -21 32 -25
q13 6 28.5 3t30.5 5q11 12 13.5 26.5t3.5 28.5q19 -4 33.5 4t26.5 18q20 14 31 35.5t15 45.5zM462 109q-4 7 -10 14t-17 12h-24q-45 1 -65 -43q-17 -38 19 -68l16 -4t18 0q15 10 31.5 20.5t29.5 26.5q1 9 3 19.5t-1 22.5z" />
    <glyph glyph-name="fi" unicode="fi" horiz-adv-x="532" 
d="M457 218q1 -4 0.5 -10t-2.5 -11q-2 -7 -2.5 -14.5t2.5 -14.5l-7 -14q0 -1 -0.5 -3t-0.5 -4q5 -12 1 -22q-1 -2 -1 -4.5v-4.5q1 -10 0.5 -19t-2.5 -19q-1 -20 3 -41q1 -3 2 -5t1 -4q2 -12 -5 -19q-4 -3 -8 -14q-5 -12 -16 -11q-11 2 -22.5 2h-22.5q-7 -1 -13.5 1t-13.5 3
t-12.5 -2t-13.5 -1q-1 12 1 25t2 25q0 8 2 16.5t3 16.5q0 6 -1 13t1 15q3 8 2.5 17t-2.5 17q0 6 0.5 12.5t-5.5 10.5q-2 11 -6 20.5t-4 19.5q-1 5 -2 9t-6 6q-23 6 -47 6.5t-47 -0.5q-4 -3 -5 -4.5t-2 -3.5q-2 -5 -4.5 -10l-4.5 -9q1 -6 1 -11.5t1 -11.5q0 -4 0.5 -9.5
t0.5 -10.5q2 -5 -0.5 -21.5t-4.5 -22.5l-3 -3t-3 -4l-1 -4q1 -7 1.5 -13t1.5 -14q0 -4 -3 -6.5t-5 -6.5q12 -18 9 -39q0 -11 -9 -17q-5 0 -11 1t-11 1q-8 2 -16 0q-12 -4 -23.5 -4t-23.5 1q-4 -2 -8.5 -4t-9.5 -4q-9 4 -18 6.5t-17 6.5q-6 6 -6 13q3 15 3 32q0 7 2 13.5
t0 13.5q2 8 2 14v13q-1 6 1 12t2 13q0 6 2 12t3 12q5 16 6 29q4 39 6 79q0 7 1 14.5t0 14.5q-1 6 -0.5 12t2.5 13q1 3 1 10q0 13 0.5 25.5t-2.5 24.5q-4 14 1 29q2 7 5 15l-5 18q2 1 1 9.5t-1 9.5q-1 3 1.5 7.5t-3.5 8.5q-1 7 0 14t-1 14q-1 3 -0.5 6.5t1.5 6.5q7 18 2 40
q-1 5 3 6l8 13l-3 9l-3 35q2 3 3.5 6.5t2.5 6.5q-3 3 -6 5.5t-6 5.5q2 14 10 21t18 12q8 0 17 2.5t17 -1.5q4 -1 5.5 0t2.5 2l1 2h4l3 1q8 2 12 3.5t11 3.5q10 0 22 -3q4 0 8 0.5t8 -1.5q16 -4 32 -5t32 -1h23q4 -1 8.5 -2.5t8.5 -6.5q3 -13 3 -28.5t-1 -31.5
q0 -12 -4.5 -23t-6.5 -21q-5 -7 -13 -8t-13 -8q-3 0 -6 -1l-6 -2q-2 0 -4.5 0.5t-6.5 0.5q-3 -1 -11 -5q-7 4 -14 5q-2 -4 -7 -4.5t-10 -2.5q-6 -4 -11 -10t-10 -11q-2 -14 -3 -27t0 -34t4 -59q5 -5 10 -10.5t9 -10.5q3 -7 5.5 -13.5t9.5 -11.5q6 2 12.5 3t12.5 2h23
q11 0 21 2t20 0q9 2 17.5 2.5t17.5 3.5q8 2 17 2.5t18 0.5l26 -9q7 0 13 2.5t12 -0.5q5 -1 5.5 -4.5t1.5 -5.5q2 -3 3.5 -5.5t3.5 -6.5q1 -8 1 -17t2 -17q1 -1 0.5 -3t-0.5 -3q0 -5 0.5 -10t0.5 -9q-1 -5 -1.5 -11t0.5 -11q2 -5 1.5 -10t-0.5 -10q-1 -3 0 -6t2 -7zM490 527
q2 -18 1 -35.5t-2 -34.5q-9 -14 -19 -25q-13 -5 -26 -12t-30 -7q-4 1 -11 1.5t-14 1.5q-5 6 -10.5 13t-11.5 11q-6 5 -10 12t-11 11q-3 15 -1 35q5 8 9 16t11 15q3 5 6.5 10t4.5 10q2 7 8 11.5t13 6.5q4 1 8 1.5t8 -0.5q5 -1 9.5 -1.5t11.5 -1.5q14 -7 29.5 -14t26.5 -24z
" />
    <glyph glyph-name="fl" unicode="fl" horiz-adv-x="590" 
d="M550 57q-5 -9 -7 -14q-4 -9 -3 -16.5t-5 -14.5q-18 -10 -36 -7l-8 -4l-8 -4h-59q-12 2 -20 8t-18 9q-9 2 -17 8t-16 10q-11 7 -15 23l-9 22q-7 11 -11 24t-3 27q1 11 1.5 22.5t-0.5 22.5q0 4 1.5 7.5t2.5 6.5l-6 8q-1 5 2 8.5t3 8.5q0 4 -1 9.5t-2 10.5q-1 6 -2 11.5
t-2 11.5q2 5 3.5 8t3.5 5q-2 2 -3.5 5t-2.5 4q-6 11 -12 12.5t-17 -4.5q-1 -1 -3.5 -2t-4.5 -2q-4 1 -7.5 2t-8.5 2q-14 -5 -28 -7t-28 -1q-7 0 -10 -1q-5 -1 -10 -5.5t-5 -9.5q0 -10 -1.5 -19t0.5 -19q2 -3 -1 -9q-2 -11 1 -20q2 -6 0 -12t-1 -13q1 -4 1 -7.5v-8.5
q1 -10 1.5 -19t-4.5 -17q3 -16 3 -21.5t-5 -20.5q-1 -15 0.5 -30t-3.5 -30q-4 -7 -11 -6t-13 -4q-1 -1 -1.5 -3t-1.5 -4l-2 -2t-2 -1h-17t-17 2q-4 1 -7.5 1.5t-5.5 -0.5q-8 -2 -15.5 0.5t-14.5 6.5q-1 2 -2 5t-1 5q0 11 -1 21t-1 20q0 8 0.5 16t-3.5 15q-1 5 -1 9t-1 7
q-3 21 -3 42t-2 41q-1 18 -1.5 35.5t-5.5 34.5q2 15 0.5 30t2.5 28q2 5 2 11v12v57q1 8 0.5 16.5t1.5 16.5q3 12 4 24.5t1 25.5q0 7 0.5 13.5t-0.5 13.5q0 18 3 34q2 6 2.5 12.5t1.5 13.5q0 13 1 25.5t3 25.5q1 3 -1 9q-2 11 6 14q13 7 25 20q3 2 6 2.5t6 1.5q2 2 7 2
q11 0 22 -1t22 3q9 -1 17.5 -1t17.5 1q10 -4 19 -1.5t19 3.5l17 -7q9 0 16.5 3t14.5 4q11 -11 11 -23.5t4 -22.5q-1 -10 -1.5 -18.5t-1.5 -16.5q-1 -7 -1.5 -14t-2.5 -15q0 -2 -3 -5q-4 -1 -9 -1h-10q-4 0 -7.5 0.5t-8.5 1.5q-8 2 -17 1.5t-18 -1.5q-8 0 -15.5 -1t-14.5 -4
q-6 -22 -8.5 -42t1.5 -47q1 -5 1 -10v-10q0 -2 -1 -4.5t0 -4.5q5 -9 2.5 -18.5t-2.5 -19.5q2 -2 6 -2q19 2 37 -3q8 -3 15 -2.5t17 2.5q10 6 22.5 10t25.5 7q8 2 15.5 5t13.5 9q2 1 4 5q0 5 -0.5 9.5t-0.5 9.5q2 7 5 15q1 2 1 5v4q-1 13 2 26t5 26q2 11 3 23t1 24
q0 9 0.5 19t2.5 20q8 7 15 14.5t14 14.5q10 2 19 4.5t18 4.5q17 4 35 -5q4 -19 4 -41v-39q1 -15 1 -30t-5 -30q-1 -5 -1.5 -10t-1.5 -10q-1 -7 -1 -15.5t-2 -16.5q-1 -7 -1 -14v-15q2 -23 1 -39t-7 -39q-1 -2 0 -5.5t2 -5.5q-2 -5 -4.5 -10.5t-4.5 -10.5q2 -5 4 -9.5t3 -8.5
l-2 -6t0 -6v-11.5t-2 -10.5q-6 -15 -2 -28v-7q-3 -10 -2 -20t4 -21q-4 -4 -5 -9q2 -5 6 -11q0 -7 -1 -14t5 -14q5 -5 13 -8q5 -1 8.5 -4.5t7.5 -5.5q7 -4 14 -7q5 -2 8 -3t7 -3q11 0 20 -1t18 -4q9 -7 11 -19q1 -4 2 -9z" />
    <glyph glyph-name=".notdef" horiz-adv-x="797" 
d="M757 292q-20 -19 -36 -42t-33 -46q-11 -15 -25 -27.5t-27 -25.5q-1 -4 -6 -7q-13 -16 -25 -31t-27 -29q-13 -13 -30 -23t-33 -23q-25 -21 -50 -43l-50 -44q-10 2 -18 2.5t-18 1.5q-4 6 -10 13.5t-14 11.5q-25 16 -47.5 36t-48.5 36q-17 11 -28.5 26.5t-22.5 31.5
q-34 19 -62 44t-47 59q-7 13 -17 24t-25 18q-11 7 -17 21q2 13 10.5 21t18 15.5t13.5 17.5q7 17 18.5 30t20.5 29q12 1 22 3q8 16 15 32.5t20 28.5t37 14q5 10 11 19.5t13 20.5q7 4 15.5 8.5t16.5 8.5q3 5 5.5 12.5t5.5 14.5q14 11 29.5 22t23.5 28q9 3 16 5l14 4
q13 10 21.5 24t24.5 24q22 -7 42 -20.5t39 -27.5q28 -22 55 -46t46 -55q5 -7 10.5 -13t10.5 -12q22 -22 40.5 -46.5t37.5 -49.5q10 -14 22 -26.5t23 -25.5q8 -9 14 -19t6 -25zM565 370q-5 37 -17 69.5t-29 63.5q-23 5 -44.5 10t-42.5 9q-25 -4 -49 -12.5t-48 -18.5
q-43 -19 -56 -62q-3 -15 -7.5 -29.5t-9.5 -31.5q3 -5 5 -10t4 -11q14 2 26.5 -3.5t24.5 -5.5q20 3 35 15q7 21 16.5 42t31.5 34q24 -1 43 -15q10 -12 12.5 -25t-5.5 -27q-11 -7 -22 -15t-25 -13q-11 -4 -21.5 -12.5t-16.5 -20.5q-9 -17 -14.5 -35t-4.5 -37q8 -21 32 -25
q13 6 28.5 3t30.5 5q11 12 13.5 26.5t3.5 28.5q19 -4 33.5 4t26.5 18q20 14 31 35.5t15 45.5zM462 109q-4 7 -10 14t-17 12h-24q-45 1 -65 -43q-17 -38 19 -68l16 -4t18 0q15 10 31.5 20.5t29.5 26.5q1 9 3 19.5t-1 22.5z" />
    <glyph glyph-name=".null" 
 />
    <glyph glyph-name="nonmarkingreturn" horiz-adv-x="333" 
 />
    <glyph glyph-name="CR" unicode="&#xd;" horiz-adv-x="575" 
 />
    <glyph glyph-name="space" unicode=" " horiz-adv-x="230" 
 />
    <glyph glyph-name="exclam" unicode="!" horiz-adv-x="275" 
d="M215 365q0 -11 0.5 -22t-2.5 -22q-4 -13 -6 -26t-5 -26q-3 -3 -6.5 -7t-6.5 -8q-8 -2 -15 -3.5t-14 -4.5q-7 -2 -15.5 -1.5t-16.5 0.5q-7 0 -14 -0.5t-15 -0.5q-3 -1 -6 -0.5t-6 0.5q-7 2 -10 8q-2 5 -5 8.5t-8 9.5q-1 7 -1.5 14.5t-0.5 14.5q0 6 -2 12.5t1 12.5
q-4 8 -1 16t1 15q-3 8 -1 15t2 14q-1 15 -0.5 29.5t0.5 28.5v41t2 43q2 5 0.5 10t-1.5 11q0 5 1.5 10t1.5 9q0 5 -1 8.5t-2 7.5q2 2 4 5l4 6q-3 4 -4 8q-4 5 -4 12q0 13 12 13q2 1 5 0.5t5 -0.5q4 0 6 1q0 3 2 11q3 1 5 2t4 1h81q3 0 6 -2q2 -1 4 -3q1 -4 2.5 -7.5t1.5 -8.5
q-1 -12 1 -23.5t0 -23.5q-1 -4 0 -8.5t2 -7.5q2 -10 1.5 -21t-4.5 -22q3 -8 5 -17t0 -20q0 -2 0.5 -5.5t1.5 -6.5q3 -13 3.5 -25.5t1.5 -25.5q0 -4 -0.5 -9.5t-1.5 -12.5q2 -5 5 -12t3 -15zM235 100q-3 -5 -5.5 -10.5t-6.5 -10.5l-3 -20q0 -2 -1 -3.5t-2 -3.5
q-11 -12 -16 -34q-4 -7 -10 -10.5t-14 -5.5l-24 -8h-20q-5 0 -10.5 -0.5t-13.5 -1.5q-1 0 -4 1t-5 2q-2 2 -5.5 2.5t-7.5 1.5q-4 5 -7.5 11t-10.5 10l-2 2q-6 13 -15 24.5t-12 27.5q1 2 2 5.5t-1 5.5q0 9 -1 13q3 8 6 17t7 18q6 8 12 15l12 14q24 17 51 32q10 -1 13 0t12 8
q5 0 9 1t8 -4q2 -1 3 -2.5t2 -2.5h1l2 -1l3 -3q4 -6 10 -6t10 -6q5 -6 10 -10.5t10 -9.5l3 -6v-14q2 -4 4.5 -8t4.5 -9q0 -4 1 -10t1 -11z" />
    <glyph glyph-name="quotedbl" unicode="&#x22;" horiz-adv-x="321" 
d="M281 643q0 -6 0.5 -12.5t-2.5 -12.5q-3 -10 -4 -19.5t-6 -17.5q-3 -6 -5.5 -12.5t-4.5 -13.5q-6 -5 -15 -8q-12 0 -23.5 4t-22.5 9q-3 1 -5 4t-3 5q-6 11 -8.5 22.5t0.5 23.5q2 11 2.5 22.5t1.5 22.5q0 21 3 42q3 6 6 10.5t4 8.5q2 4 2.5 7.5t5.5 7.5h8.5t8.5 1
q8 -3 15.5 -6.5t14.5 -7.5q19 -7 21 -30q1 -24 6 -50zM132 667q0 -5 -1 -9.5t-2 -8.5q-2 -4 -3 -8t-3 -8q5 -13 3.5 -26.5t-3.5 -26.5q-1 -7 -2.5 -13.5t-3.5 -12.5q-7 -4 -11 -4.5t-19 0.5q-2 -2 -4 -3t-4 -3q-5 -1 -9 0.5t-9 2.5h-8.5t-7.5 2q-4 11 -5 19.5t0 18.5
q1 4 2 9t2 9v7q-3 11 -1 22.5t-2 22.5q3 7 5 15q0 3 0.5 6t1.5 6l11 7q0 4 -3 6t-1 6q7 -1 14 0.5t13 2.5l11 -11q4 6 8 10q7 1 14 2.5t14 2.5q8 -8 8.5 -12t-5.5 -15q-1 -4 0 -8t0 -8z" />
    <glyph glyph-name="numbersign" unicode="#" horiz-adv-x="672" 
d="M630 425q-1 -7 -2.5 -15.5t-3.5 -18.5q-1 -7 -2.5 -15t0.5 -16q-5 -16 -14 -33q-1 -2 -3.5 -3.5t-6.5 -3.5q-2 2 -5 4t-5 4h-11.5t-10.5 1q-4 0 -8.5 0.5t-7.5 -1.5q-6 -4 -11.5 -2t-10.5 2q-6 -2 -8.5 -7t-6.5 -9q-1 -11 -4.5 -22t-8.5 -21q-1 -2 -2 -5.5t-2 -7.5
q-4 -10 3 -18t15 -10q5 -1 10 -1t10 -2q9 -1 18.5 -2.5t19.5 -4.5q7 -2 5 -12q-1 -3 -1.5 -5t-1.5 -4q-3 -5 -5 -10.5t-5 -10.5q2 -18 -3 -34.5t-11 -32.5q-6 -4 -13 -4t-13 1q-6 2 -11 7q-3 -2 -5.5 -4t-4.5 -2q-15 1 -26 -4.5t-22 -13.5q0 -1 -0.5 -1.5t-0.5 -1.5
q-4 -7 -4 -13.5t-2 -13.5q-10 -13 -13 -19t-10 -27q0 -2 1 -4.5t1 -5.5q0 -4 -2 -5q-4 -7 -8.5 -13.5t-8.5 -12.5q-7 -2 -13.5 0.5t-12.5 -0.5q-11 -3 -23 0q-10 3 -19.5 6t-17.5 10l-2 6q5 15 6.5 30.5t2.5 29.5q0 11 2 21t6 20q1 2 0.5 3.5t-0.5 3.5q-5 2 -10.5 4.5
t-11.5 5.5q-3 -1 -7.5 -1.5t-9.5 -1.5q-13 -3 -26 -4t-26 0q-14 0 -19 -14l-8 -24t-7 -24q-4 -14 -7.5 -27t-6.5 -26q-6 -15 -17 -13l-44 7q-6 1 -11 4t-10 4q-12 5 -18 3v-1l-1 1h1q-2 14 2 26l8 24q3 3 6 6.5t6 7.5q-3 8 -3 17q1 5 2 9.5t2 8.5q2 10 5 19t6 19l-3 3t-4 3
q-3 2 -7 2.5t-8 2.5q-12 5 -21 5q-15 3 -28 10q-4 2 -5.5 5.5t-3.5 6.5q-3 3 -6 5.5t-5 6.5q6 27 10 41t10 30q5 2 11 2.5t11 2.5q3 -1 7 -2l8 -2q6 3 12.5 1.5t12.5 -0.5q5 1 10 2.5t10 2.5q6 2 12 9q2 4 4 7t3 7q1 11 6 20.5t10 19.5q-1 4 -1 7.5t-1 7.5q0 2 -1 4.5
t-2 3.5q-2 1 -3 2.5t-3 1.5q-14 2 -27 3.5t-27 3.5q-5 1 -11 1t-11 1q-3 0 -4.5 1.5t-3.5 2.5q0 5 1.5 10.5t2.5 9.5l11 7q-1 2 -2 4.5t-2 4.5q4 12 7 24.5t4 26.5q1 7 3 13.5t4 12.5q3 6 8.5 7.5t10.5 2.5q10 2 20 2t19 -3q11 -2 22.5 -1.5t21.5 -1.5q4 0 10 2q4 1 7 3t7 3
q9 7 14 16.5t7 19.5q2 9 7.5 17t7.5 18q1 9 4.5 17t6.5 17q3 3 4.5 6.5t2.5 5.5q8 7 16 5q5 0 9 -0.5t8 -1.5q3 1 5.5 2t5.5 2q8 2 12 2q5 -1 9.5 -2t8.5 -2q12 -8 12 -23q1 -19 -3 -38q-3 -13 -5.5 -25t-4.5 -26l-7 -20q-1 -3 -1 -5.5t-2 -5.5q0 -3 3 -6.5t7 -3.5
q6 -2 9 -1q12 4 24 4t24 1q2 0 3 1.5t3 2.5q8 8 10 18t7 19q5 8 6.5 17.5t5.5 19.5q2 10 4.5 20t4.5 20l9 9q3 3 6 5q12 1 23.5 -4t22.5 -8q7 -1 13 -6t10 -11q1 -3 1.5 -6t0.5 -7t-0.5 -8.5t-1.5 -9.5q-2 -6 -3.5 -12t-0.5 -14q3 -13 0 -25.5t-8 -24.5v-4q2 -1 4 -2.5
t3 -1.5q14 -3 27.5 -5t26.5 -2q5 0 10 -0.5t10 -0.5l3 -4.5t2 -3.5q2 -2 3.5 -4.5t2.5 -5.5zM405 319q-1 2 -2.5 3.5t-3.5 2.5q-10 -1 -19 -1t-19 -2q-8 -1 -17.5 -0.5t-18.5 1.5q-3 1 -7 1t-6 1q-14 -3 -19 -13q-3 -4 -4 -8q-4 -11 -7.5 -22.5t-8.5 -22.5q-4 -5 -4.5 -10.5
t-2.5 -10.5q3 -9 11 -11q5 -2 10 -3t11 -3q8 2 10 3h13q11 1 22.5 1h22.5q3 2 6.5 2t4.5 1q13 13 14.5 18t-1.5 22q3 6 6.5 12.5t7.5 11.5q-4 8 -2 14.5t3 12.5z" />
    <glyph glyph-name="dollar" unicode="$" horiz-adv-x="506" 
d="M459 191q-1 -2 -1 -6q4 -13 2.5 -25t-3.5 -24q-4 -5 -9 -10.5t-10 -11.5q0 -1 -0.5 -3.5t-0.5 -4.5q3 -11 -6 -17q-3 -3 -7 -5.5t-8 -5.5q-8 -19 -15 -25t-31 -20q-3 -4 -6.5 -8t-5.5 -8q-7 -2 -13.5 -3.5t-12.5 -5.5q-4 -2 -9.5 -3t-10.5 -3q-3 -3 -4.5 -6.5t-3.5 -7.5
q-4 -6 -8 -13q-2 -13 -4 -25.5t-6 -25.5q-11 -1 -21 -0.5t-20 4.5q-4 2 -7.5 1.5t-8.5 0.5h-34q-8 5 -8 11q0 10 1.5 21.5t-1.5 20.5l-2 4t-3 4q-1 1 -7 -1.5t-8 -1.5q-16 -3 -32 -4t-33 0q-4 3 -4.5 7t-0.5 8q1 7 0 13.5t1 13.5q2 5 0 10q-4 5 -1.5 10t0.5 10t0 9.5t2 9.5
q1 12 4.5 18t19.5 7q8 0 14 4t13 6q8 3 16 3q3 1 7 1h6q5 2 7 5t3 5q1 4 1 7v6q-1 14 0 28t5 27q-1 9 -1.5 17.5t-2.5 15.5q0 6 -8 10q-1 1 -3.5 1.5t-4.5 1.5q-4 1 -7.5 1.5t-5.5 1.5q-5 5 -11.5 8t-13.5 5q-9 2 -16.5 5.5t-15.5 7.5q-4 18 -7 23t-17 18l-14 24
q-4 6 -8 12.5t-8 13.5q-2 5 -3 11.5t-3 13.5q5 32 9 60q4 6 7.5 11.5t5.5 11.5q5 14 15 26.5t20 23.5q5 5 8 6q20 11 37.5 23t36.5 20l3 1.5l3 1.5q6 6 18 13q5 2 10.5 4.5t9.5 3.5q8 14 8 28.5t2 27.5q2 5 4.5 6.5t5.5 2.5q8 3 14.5 4t13.5 1q12 -1 23 0q5 1 11 1.5t12 1.5
q11 0 20 -10q2 -4 3.5 -8.5t2.5 -9.5q2 -11 6 -22.5t5 -22.5q2 -11 12 -13q5 -1 9 -1t8 -1h23l19 -20q4 -2 8.5 -2t6.5 -5q-1 -20 -2.5 -41t-6.5 -43q-1 -2 -4 -5.5t-5 -5.5q-6 -1 -8 0q-19 13 -43 13q-6 -1 -12 -0.5t-13 1.5q-13 -6 -15 -19q0 -7 -1.5 -15t-3.5 -16
q-1 -3 0.5 -6.5t2.5 -7.5l-2 -12t-2 -13q-1 -6 -1.5 -12t-1.5 -14q2 -8 4 -16.5t9 -15.5q4 -1 7.5 -2.5t6.5 -3.5q17 -9 39 -14l32 -20h1.5t1.5 -1q1 -7 6 -10.5t9 -8.5q2 -4 5.5 -8.5t5.5 -7.5q3 -10 1.5 -18.5t-1.5 -16.5q2 -4 4.5 -8t0.5 -9zM215 388v52q0 11 -11 13
q-16 -5 -19.5 -7t-11.5 -9l-8.5 -8.5t-9.5 -8.5q-10 -22 -1 -43q2 -6 4 -9q3 -9 11 -14q5 -1 9.5 -3.5t10.5 -2.5q5 3 17 7q9 20 9 33zM360 161q-4 13 -9.5 24.5t-12.5 22.5q-10 7 -17 9q-5 3 -8 -3q-1 -1 -2.5 -3.5t-1.5 -4.5l-2 -14l-2 -14q-1 -1 -2.5 -3t-2.5 -5
q-3 -4 -3 -11v-6q1 -7 0 -15t5 -15q5 -2 11 -5t12 -2q11 1 19 12q5 8 9.5 15.5t6.5 17.5z" />
    <glyph glyph-name="percent" unicode="%" horiz-adv-x="769" 
d="M306 462q0 -4 -2 -16q-1 -4 -2.5 -7.5t-1.5 -8.5q0 -4 0.5 -7.5t1.5 -8.5q-3 -10 -6.5 -21t-7.5 -22q-5 -6 -11 -12.5t-12 -13.5q-4 -4 -9.5 -7.5t-10.5 -8.5q-7 -1 -15 -3t-16 -3q-10 -1 -18.5 -2.5t-17.5 -1.5q-5 1 -9.5 0.5t-9.5 -0.5l-8 -2t-6 -2q-4 2 -7.5 4.5
t-8.5 2.5h-3t-3 1q-4 6 -11 9.5t-13 10.5q-21 32 -40 66q-4 5 -6 11.5t-4 13.5q-1 9 -2.5 18.5t-3.5 18.5q-3 18 0 35q1 5 2.5 10t2.5 10q4 8 7.5 17t7.5 17q11 13 25.5 22t25.5 22q7 2 11 3t8 3q11 4 25 4q8 0 14.5 0.5t13.5 3.5q9 -1 17.5 -2.5t17.5 -3.5q5 -1 8.5 -2
t6.5 -4q7 -6 12.5 -12.5t11.5 -12.5q8 -9 15 -17.5t10 -19.5q10 -10 11.5 -21.5t5.5 -22.5q2 -3 2 -7.5v-8.5q1 -5 1.5 -10t0.5 -12zM578 475q-1 -11 -4 -22t-9 -21q-4 -6 -6 -13l-4 -14q-4 -16 -18 -24l-1.5 -6t-1.5 -5q-11 -7 -16 -15q-4 -3 -6 -7t-5 -9q-2 -4 -5 -7.5
t-6 -7.5q-12 -9 -21.5 -21.5t-20.5 -23.5q-3 -7 -9.5 -12.5t-13.5 -10.5q-1 -3 -2.5 -6.5t-3.5 -6.5q-5 -14 -18 -27t-19 -29q-6 -14 -17 -27q-7 -9 -12.5 -18.5t-12.5 -18.5q-4 -4 -8 -14q-1 -4 -2.5 -8.5t-3.5 -9.5q-15 -18 -27 -39q-20 -32 -52 -45q-3 0 -3 1
q-13 7 -25 14t-23 14q-9 6 -17.5 13.5t-15.5 16.5q-4 5 -7.5 9.5t-7.5 8.5q-3 8 -0.5 14t6.5 11q-3 17 7 27q4 7 10 8q9 5 16 10.5t14 12.5q6 6 12.5 12t11.5 11q6 17 8.5 22t12.5 16q6 14 14 28q2 7 5.5 12t7.5 10q9 8 16 16.5t18 13.5q2 0 4 5q6 9 14.5 17t16.5 15
q16 13 22 30q3 8 11 17q4 6 7 14q2 16 13 24q4 8 10 14.5t9 15.5q17 13 31.5 27t22.5 34q11 -1 18.5 1.5t14.5 5.5q7 -3 10 -8t7 -9q4 -2 9.5 -4.5t10.5 -6.5q5 -2 10.5 -4.5t10.5 -4.5q10 -4 13 -16zM232 460q-2 8 -2.5 15t-0.5 14q0 20 -19 29q-10 5 -21 5q-6 -2 -8 -2
q-9 -2 -16.5 -2.5t-12.5 -6.5l-17 -14q-4 -4 -4.5 -12t-0.5 -15q0 -6 -4 -10t-2 -11q13 -5 17 -16q2 -4 4 -6.5t3 -4.5q5 -2 8.5 -4t6.5 -4q8 -3 14.5 -4t13.5 1q5 0 13 2q7 1 10.5 4.5t6.5 8.5q2 8 5.5 17t5.5 16zM728 123l-2 -8t-3 -9q-4 -17 -11 -33t-14 -33
q-5 -10 -12 -18.5t-18 -13.5q-8 -4 -15 -9t-12 -9q-16 -6 -31 -11t-29 -10q-2 1 -4 1.5t-4 1.5q-5 3 -13 0q-7 -1 -15.5 0t-15.5 5q-7 5 -15.5 6.5t-16.5 4.5q-11 11 -17.5 23.5t-12.5 25.5q-6 11 -10 22.5t-9 23.5q-1 7 -1 15v16q-1 7 -3.5 14.5t1.5 18.5q2 8 8.5 19
t7.5 23q4 3 6 5.5t4 3.5q13 8 23 16.5t21 17.5q5 2 9.5 3.5t7.5 3.5q11 7 24 9.5t26 3.5h9.5t8.5 1q8 4 16 12q4 -2 7.5 -4.5t6.5 -4.5l8 -2t7 -2q5 -4 8.5 -8t7.5 -7q5 -4 10.5 -6.5t10.5 -5.5q5 -7 9 -14.5t8 -15.5q4 -1 6.5 -1.5t6.5 -1.5q2 -6 4.5 -12t4.5 -12v-11
t1 -11q1 -6 3 -11.5t3 -11.5zM631 114q-1 11 -5.5 21.5t-13.5 19.5q-18 4 -28 5t-18 -2t-23 -11q-1 -4 -2.5 -8t-3.5 -9q-1 -7 -2.5 -13.5t-3.5 -14.5v-9q2 -3 3 -8.5t4 -12.5q2 -1 5 -2l6 -2q7 -1 13.5 -3t13.5 -3q6 -1 11.5 -1h11.5q3 0 9 2q4 5 7.5 8.5t6.5 7.5
q-1 10 3.5 17.5t5.5 17.5z" />
    <glyph glyph-name="ampersand" unicode="&#x26;" horiz-adv-x="592" 
d="M547 75v-0.5t-1 -0.5l-2 -8t-2 -7q-4 -3 -8 -5t-6 -6q-3 -2 -5 -5.5t-4 -5.5q-4 -4 -9.5 -6t-9.5 -7q-3 -4 -8 -7t-10 -8q-4 -4 -7 -8t-5 -9q-7 -1 -12 3q-4 4 -9 8t-10 9q-2 4 -5.5 10t-6.5 13q-7 6 -14.5 8t-15.5 5q-3 -1 -5 -2t-4 -3q-4 -3 -11 -10q-5 -2 -10 -4.5
t-10 -4.5q-4 -6 -7.5 -10.5t-5.5 -8.5q-7 -4 -14 -8.5t-13 -8.5q-7 -5 -18 -11q-11 -9 -24 -11t-27 -2q-11 0 -23 1t-23 4q-7 1 -14.5 3.5t-14.5 4.5q-9 4 -17.5 6t-17.5 0h-3.5t-4.5 1q-21 3 -32 17q-7 11 -15.5 21.5t-18.5 20.5q-7 8 -10 17t-5 19q0 20 -3 38q-2 8 0 16
q2 13 4.5 25t2.5 25q0 4 2 8q2 7 7 14q13 18 16 35q5 4 8.5 7.5l6.5 6.5v8q6 7 12 14.5t13 12.5q5 3 6.5 6.5t3.5 12.5q-5 7 -10.5 15t-10.5 16q-1 4 -4.5 7t-7.5 7t-8 9t-8 9q-2 11 -4.5 22t-4.5 22q-1 8 -1.5 15.5t-0.5 14.5q-2 5 0 10t2 10t1 9q0 11 5 18q8 14 8 28
q7 8 13.5 17t15.5 16q5 6 9 15q7 13 18 10h3q3 2 4 6t3 5q1 2 3 4q6 4 12 7t11 7q4 2 7.5 2t7.5 3q2 2 5.5 2h7.5q10 0 18 4q10 4 19 4.5t18 -1.5q11 -2 20.5 -2.5t18.5 -5.5q8 0 16 -3t15 -4q11 -1 18 -6t14 -12q4 -5 7.5 -9.5t7.5 -9.5q8 -9 16 -18.5t15 -19.5
q2 -5 4 -9.5t4 -9.5q6 -9 8.5 -18t-1.5 -20q0 -1 -0.5 -2.5t-0.5 -2.5q2 -5 0.5 -9t-0.5 -9q0 -4 0.5 -7t-0.5 -7q-1 -6 -3 -12.5t-1 -13.5q0 -10 -8 -20q-4 -6 -8 -11.5t-11 -9.5q-3 -4 -5 -8t-4 -9q-2 -4 -5 -6.5t-6 -6.5l-18 -22l-18 -22q-5 -5 0 -11q2 -2 4 -5t5 -5
q0 -1 0.5 -3t0.5 -4q1 -1 1 -2.5t1 -3.5q10 -13 23 -21t28 -16q8 2 13 8t12 8q1 3 1 5.5t1 5.5q0 1 0.5 1t0.5 1q5 5 6.5 12t5.5 12q5 5 10.5 9.5t9.5 8.5q2 2 4 4.5t4 5.5q4 7 11 8q10 4 15 -3q1 -2 5 -6q16 -20 26 -44q4 -7 9.5 -13t9.5 -12q2 -3 4 -7q0 -6 -4 -12
l-20 -22t-21 -21q-7 -7 -3 -15q6 -9 13 -17.5t14 -18.5q6 -4 7 -8q5 -10 10 -19t6 -21zM306 432v4q-1 7 -2.5 14.5t-2.5 14.5q-4 4 -7 8t-8 8q-3 3 -5.5 8t-6.5 8q-1 0 -2 0.5t-2 0.5q-6 1 -12.5 0t-13.5 2q-8 0 -15.5 -1t-15.5 -6q-7 -3 -13 -9q-11 -13 -15.5 -28t0.5 -32
l0.5 -0.5t0.5 -1.5q3 -4 6 -7l6 -6q1 -4 1.5 -7.5t1.5 -5.5q6 -5 11.5 -10t12.5 -8q4 0 6 -4q5 -4 9 -4t8 1q12 6 19 15q5 9 12 13.5t13 9.5q4 6 7 12t7 11zM317 125q-2 5 -7 7.5t-9 6.5q-2 5 -5 10t-5 9q-4 4 -7 8t-7 8q-9 5 -17.5 11.5t-13.5 16.5q-5 9 -17 14
q-5 0 -10.5 -0.5t-10.5 -0.5q-11 -5 -14.5 -13.5t-8.5 -16.5v-9q-1 -4 -4 -7.5t-5 -8.5q-9 -16 -9.5 -21.5t4.5 -23.5q2 -2 2.5 -5t1.5 -5q1 -5 3 -7l10 -8t9 -8q8 -2 13.5 -7t12.5 -7h20t20 3q2 9 7.5 10t12.5 2q4 5 10 8t8 9q4 7 9.5 12t6.5 13z" />
    <glyph glyph-name="quotesingle" unicode="'" horiz-adv-x="201" 
d="M155 627q-1 -8 -5 -13.5t-6 -13.5q-3 -7 -4.5 -13.5t-2.5 -11.5q-5 -6 -10 -10.5t-5 -11.5q-7 -4 -13 -0.5t-11 5.5q-4 -2 -6.5 -3.5t-5.5 -3.5q-3 1 -7 2l-8 2q-4 -1 -8.5 -2t-9.5 -3q-3 3 -7 5q0 8 4 11.5t5 9.5q0 5 -3 10t0 11q1 3 0.5 6.5t-1.5 6.5q-6 21 4 34v41
q0 10 2.5 19.5t6.5 17.5q2 3 3.5 4.5t2.5 3.5q8 -1 15.5 -3t15.5 -1q11 1 21.5 -2t20.5 -5q1 0 2 -1.5t2 -3.5q2 -10 4 -21.5t0 -22.5q-1 -4 1 -9.5t1 -11.5q-1 -5 0 -11t2 -11z" />
    <glyph glyph-name="parenleft" unicode="(" horiz-adv-x="334" 
d="M290 -13q-1 -7 -4.5 -13t-7.5 -12q-2 -5 -5 -10t-6 -11q-4 -1 -9 -1.5t-10 -2.5q-3 -2 -6.5 -4t-8.5 -4q-9 3 -18 5q-4 2 -8 2t-8 1q-5 2 -10 0.5t-10 -0.5q-4 1 -8.5 2t-9.5 2q-6 2 -12 2t-11 1q-10 5 -20 11t-21 12q-2 2 -0.5 6.5t0.5 8.5l-11 6q-1 3 -1 7t-2 5
q-5 6 -8.5 12.5t-6.5 12.5q-7 12 0 23q-1 5 -2.5 9.5t-2.5 9.5q-1 3 -0.5 7.5t0.5 8.5q0 9 -2.5 18t-5.5 17q-2 8 -4 15t-2 14q0 6 -1 9q-4 11 -3.5 21.5t1.5 20.5q3 14 3 26v28t-1 29q0 3 -0.5 7.5t-1.5 8.5q0 4 -0.5 9t-0.5 10q0 9 0.5 17.5t-1.5 18.5q-1 4 0 8l2 8
q2 5 1.5 11t-1.5 11q1 7 5 12.5t2 12.5q2 4 5.5 6.5t4.5 3.5q3 5 1.5 9t-0.5 11q0 5 2 13t3 17q2 11 7 20t11 18q8 11 15 20t13 19q11 5 20 10.5t19 10.5q4 1 8 5q7 9 16.5 14t19.5 9q8 -1 17.5 -1.5t19.5 -1.5q4 2 9.5 4t10.5 4q1 -1 4 -1q3 -3 7.5 -5.5t8.5 -4.5
q1 -4 1 -7.5t1 -6.5q0 -4 0.5 -8t-0.5 -8q0 -8 3 -15t1 -14t-2.5 -13t-0.5 -14q-1 -8 -2.5 -16t-6.5 -16q-1 -1 -3.5 -1.5t-4.5 -1.5q-10 -1 -18.5 -3t-18.5 -2q-20 1 -34 -14q-4 -5 -9 -8.5t-10 -8.5q-3 -7 -6.5 -14t-6.5 -15q1 -7 1.5 -14.5t1.5 -15.5q0 -12 -4.5 -21.5
t-6.5 -22.5q1 -10 1.5 -21t-3.5 -22q-1 -4 -1.5 -7.5t-0.5 -8.5q0 -7 1.5 -13t5.5 -12q2 -2 3 -4.5t2 -5.5t1.5 -7t-0.5 -9q-3 -8 -2 -17t-2 -18q3 -4 5.5 -9.5t5.5 -10.5q0 -7 0.5 -14.5t0.5 -16.5q2 -4 5 -9t5 -10t2.5 -11t1.5 -11l12 -14t12 -15q4 -1 8.5 -3t8.5 -4
q4 -1 8 -3.5t8 -4.5q5 2 8 3.5t6 2.5q7 -2 14.5 -3t14.5 -3q1 -2 1.5 -4.5t1.5 -4.5q1 -1 1 -4v-14t1 -15q0 -7 1.5 -13.5t2.5 -11.5z" />
    <glyph glyph-name="parenright" unicode=")" horiz-adv-x="312" 
d="M269 323q-1 -9 -1.5 -19t-1.5 -22q1 -1 1 -4t1 -8q-1 -3 -3 -7.5t-4 -9.5v-6q2 -17 1 -34.5t-3 -34.5q-1 -8 0 -17t1 -17q0 -3 0.5 -5.5t-0.5 -5.5q-3 -12 -3 -24t-5 -24q-1 -1 -1 -6q-4 -30 -11 -47t-25 -44q-4 -3 -8.5 -6.5t-9.5 -6.5q-3 -2 -5 -4t-6 -3
q-10 -4 -19 -9.5t-17 -11.5q-1 -1 -2.5 -1.5t-3.5 -1.5q-4 0 -9 1.5t-10 -0.5q-14 -4 -29 -5t-29 -1q-4 0 -8 2.5t-7 5.5q-5 9 -1 18q2 8 1 14t-4 13q1 5 2.5 9t2.5 11q-6 7 -9 19q-1 3 -0.5 5.5t0.5 3.5q7 5 13.5 7t13.5 5q8 2 13.5 4.5t6.5 10.5q12 7 20 17t18 18
q6 6 10 13t6.5 13.5t6.5 14.5q-2 8 -2 16q1 3 2.5 6.5t2.5 7.5q6 8 4 19q-1 8 -2 16.5t-1 15.5q2 8 0 16.5t-3 15.5q-1 11 -1.5 23.5t-3.5 22.5q2 13 -0.5 25t-4.5 24q4 17 2 32t-4 31q-2 5 -4 8t-5 7q-1 2 -1.5 5t-2.5 4q-8 6 -14 14t-13 15q-10 13 -26 18q-8 2 -15.5 4.5
t-15.5 4.5q-3 13 -0.5 24.5t2.5 22.5q0 10 0.5 20.5t1.5 21.5q2 2 4 3.5t4 1.5q17 4 35 6.5t37 0.5h26q5 -3 11 -6l12 -6q5 -2 11 -2.5t10 -5.5q-1 -2 -2 -5.5t-1 -5.5q-1 -3 0.5 -5t2.5 -5q8 -2 15 -7l2 -2t1 -3q5 -10 10 -19.5t12 -17.5q9 -10 12 -27q2 -13 5.5 -25.5
t5.5 -25.5v-6q-1 -20 5 -39q2 -5 2 -11v-12q0 -9 -1 -17.5t2 -18.5z" />
    <glyph glyph-name="asterisk" unicode="*" horiz-adv-x="442" 
d="M400 459q-8 -10 -16 -19.5t-11 -22.5q-13 -3 -23.5 1t-20.5 11q-24 17 -47 29q-10 -1 -12 -12q-1 -7 1 -14t-1 -15q-1 -6 -3 -11l-4 -10q-7 -4 -14 -8.5t-14 -9.5q-10 3 -18 7.5t-19 0.5q-5 6 -4.5 13t-1.5 14q-1 7 -1 14.5t-5 14.5q-4 5 -5 11.5t-3 12.5q-16 -2 -30 -6
t-34 -15q-12 -6 -24.5 -10t-26.5 -6q-2 0 -5.5 0.5t-6.5 0.5q-7 17 -8 22.5t0 23.5q6 3 12.5 6t12.5 7q5 5 8.5 10t7.5 8q13 9 26.5 13.5t22.5 15.5q2 6 -0.5 10t-7.5 7l-36 28t-40 24l-0.5 1t-1.5 4q4 16 14 29t15 28q7 5 11.5 2.5t7.5 -4.5q10 -7 15 -14
q11 -11 22.5 -21.5t28.5 -13.5q5 -1 7.5 -5.5t8.5 -3.5q7 4 8 11q2 5 3 11t1 12q0 20 4 39.5t9 40.5q12 4 24.5 3t25.5 -1q6 -4 11.5 -8t10.5 -9q0 -12 -1 -23.5t5 -22.5q4 -5 2.5 -11t-2.5 -11q-2 -11 11 -16q19 6 36 16.5t35 18.5q7 -2 10 -7.5t7 -8.5q5 -4 9 -8.5t8 -9.5
q-9 -8 -16.5 -16.5t-16.5 -15.5q-10 -8 -21 -17.5t-20 -19.5q-4 -6 -11 -9t-9 -11q5 -7 11.5 -7.5t11.5 -4.5q6 -3 12.5 -6.5t12.5 -8.5q5 -5 11 -7.5t14 -1.5q4 -4 8.5 -7.5t9.5 -8.5q2 -5 4.5 -11t4.5 -12z" />
    <glyph glyph-name="plus" unicode="+" horiz-adv-x="480" 
d="M437 286q0 -2 -1 -3q-4 -10 -4 -20.5t-2 -21.5q0 -1 -0.5 -1.5t-0.5 -1.5q-5 -7 -14 -8l-12 -2t-12 -4q-12 -3 -25 0q-7 1 -13.5 1.5t-12.5 -1.5q-4 -1 -9 -1t-10 1t-13 1q-5 0 -10 -4t-7 -8q0 -3 -1 -5t0 -4q0 -13 -1.5 -25t0.5 -24q2 -8 0 -16q-2 -12 -4.5 -23.5
t-5.5 -22.5q-5 -8 -18 -10q-7 1 -15.5 2t-16.5 2q-8 4 -13.5 9.5t-16.5 6.5q-4 -1 -9.5 -3t-10.5 -5q-5 -2 -8 3q-2 4 -1 5q4 10 4.5 19.5t0.5 18.5q0 17 0.5 34t0.5 34v6t-1 7l-5 5q-4 2 -9 2q-16 0 -30 9q-4 2 -8 4.5t-8 4.5q-9 -1 -16.5 -4.5t-15.5 -2.5t-15.5 1.5
t-14.5 3.5q-4 2 -6 6.5t-4 8.5q1 4 2 7.5t2 7.5q1 3 2 7.5t2 8.5q-7 16 1 33q1 5 1.5 8.5t1.5 7.5l15 23q6 2 12 2.5t11 -0.5q13 -2 26 -2.5t26 3.5q2 1 6 0.5t8 -0.5q5 4 9.5 7.5t8.5 7.5q4 5 1 9.5t-2 9.5q2 5 3.5 10.5t2.5 10.5t1.5 10t0.5 9q6 13 11 25.5t7 25.5
q4 9 15 12q34 3 67 0q10 -4 10 -12v-7.5t-1 -8.5q-1 -4 -2 -9t-2 -8q4 -17 5.5 -26t1 -17t-2.5 -25q-1 -5 -4.5 -10t-3.5 -11q0 -1 0.5 -1.5t0.5 -1.5l12 -8t13 -8q1 0 2.5 -1t2.5 -1q8 -1 16 -2.5t15 -2.5q8 -1 15 -0.5t14 -0.5h18t18 -2q3 0 7 -1.5t6 -1.5q5 -5 6.5 -10
t2.5 -10q2 -7 2 -15t1 -16z" />
    <glyph glyph-name="comma" unicode="," horiz-adv-x="215" 
d="M173 30q1 -4 -1.5 -7.5t-4.5 -7.5q2 -13 -2 -26.5t-12 -24.5q-16 -24 -38 -39q-15 -5 -31 0q-10 5 -10 12v6.5t1 5.5q2 8 4.5 14.5t3.5 12.5q-4 9 -11.5 10.5t-12.5 7.5q-3 3 -3.5 7t-0.5 8l-10 7q-1 3 -2.5 6t-1.5 6v27q6 18 18 36q4 5 8.5 10t10.5 6q5 2 9.5 4.5
t9.5 3.5q10 -1 21 -4t21 -5q11 -5 18 -14t14 -16q5 -16 2 -30q-3 -8 0 -16z" />
    <glyph glyph-name="hyphen" unicode="-" horiz-adv-x="370" 
d="M328 314q-1 -5 -2.5 -10.5t-2.5 -11.5q-1 -10 0.5 -19t0.5 -18q-1 -2 -1.5 -4.5t-2.5 -4.5q-2 -4 -4.5 -7t-4.5 -7h-10q-25 5 -53 3q-11 -1 -21 -1t-20 3q-7 2 -13 1t-12 0q-7 2 -14.5 1.5t-14.5 0.5t-13 1h-12q-5 0 -7 -1q-16 -4 -32 -2t-30 2q-6 4 -10.5 7.5t-5.5 10.5
q2 5 0 11.5t1 12.5q-2 7 0.5 13t1.5 13q2 9 0 11t-2 15v13t7 8q4 0 16 -1.5l24 -3t16 -2.5h13t13 -1h12q8 -1 27.5 -1t28.5 1q6 0 9 1q23 0 45.5 0.5t44.5 1.5q7 0 17 -5q2 -1 3.5 -4l2.5 -5q7 -9 5 -22z" />
    <glyph glyph-name="period" unicode="." horiz-adv-x="230" 
d="M184 61q-1 -7 -2 -14.5t-3 -14.5q-1 -11 -4.5 -21.5t-11.5 -18.5q-2 -3 -4 -5.5t-4 -4.5q-4 -4 -9 -6.5t-13 -4.5q-7 0 -15 -0.5t-18 -0.5q-17 0 -28 13q-4 5 -8.5 11t-9.5 12q-1 6 -3 12t-3 12q-2 12 -1 23t8 21l2 2l2 2q8 8 17.5 14.5t21.5 9.5q3 1 8 1.5t9 1.5
q5 0 10 0.5t11 1.5q17 -9 29.5 -19t18.5 -27z" />
    <glyph glyph-name="slash" unicode="/" horiz-adv-x="500" 
d="M458 539q-3 -10 -11 -18q-2 -3 -7 -7q-8 -16 -17 -31l-18 -30q-1 -2 -1 -6q-2 -13 -8 -23.5t-12 -22.5q-2 -1 -4.5 -2t-4.5 -3q-1 -2 -3 -4t-2 -4q1 -7 -2 -13t-2 -13q1 -4 -2 -8.5t-6 -7.5q-5 -4 -9.5 -8.5t-6.5 -10.5q-7 -16 -21 -25q-7 -4 -11 -12t-6 -16
q-1 -3 -1.5 -5.5t-1.5 -5.5q-8 -7 -14 -16t-11 -20q0 -5 1 -10q-1 -2 -3.5 -5.5t-3.5 -6.5q-3 -8 -9 -13q-1 -4 -3 -7.5t-4 -7.5q-1 -6 -1.5 -12.5t-2.5 -11.5q-4 -4 -7 -6.5t-6 -5.5q-1 -4 -3.5 -9.5t-4.5 -10.5q-4 -4 -7 -8.5t-6 -9.5v-6.5t1 -5.5q-2 -6 -7.5 -9
t-10.5 -10q-3 -9 -6 -20.5t-7 -25.5q-11 -12 -19 -28.5t-20 -28.5q-8 -5 -14 0q-3 5 -10 5q-5 1 -7.5 3.5t-5.5 6.5q-6 2 -12.5 4.5t-12.5 6.5t-12.5 6.5t-13.5 6.5q-5 3 -9 6t-6 8q-1 2 -1 2.5v0.5q2 8 3.5 16t2.5 15q13 19 22 37.5t16 37.5q3 7 6.5 13t8.5 12q1 2 3 4l3 3
q7 10 14.5 19.5t14.5 19.5t11 21.5t11 21.5q3 6 4 15q4 14 9 29t6 30q4 6 6 12t6 11q7 11 12.5 22.5t6.5 24.5q4 11 13 23q9 14 9 33l7 10q2 8 5 14.5t5 12.5q2 5 4 9.5t4 8.5q8 4 11 12t10 11q5 0 5 5q1 10 8 15.5t8 15.5q0 4 -0.5 7.5t-0.5 7.5q2 12 9 16q12 8 22 23
q1 2 4 5q8 3 15 2l14 -2q7 -4 15 -8t15 -9q8 -4 14.5 -11t13.5 -13q8 -2 16 -5t17 -5q4 -2 3 -6t0 -8q2 -4 2 -7.5t1 -6.5z" />
    <glyph glyph-name="zero" unicode="0" horiz-adv-x="673" 
d="M630 335q-1 -4 -1.5 -8.5t-1.5 -9.5q-1 -4 -2.5 -8.5t-0.5 -9.5q2 -17 -1 -33.5t-5 -33.5q-3 -7 -1.5 -16t-3.5 -17q0 -12 -3.5 -23.5t-6.5 -23.5v-2q-2 -3 -4 -5q-5 -7 -11 -13t-11 -14q-4 -7 -7 -14t-8 -15q-13 -11 -25.5 -23.5t-24.5 -25.5q-1 -1 -2 -3t-2 -5l-2 -6
q-4 -1 -7 -2.5t-6 -3.5q-3 -3 -6 -5.5t-5 -6.5q-9 -1 -16.5 -3.5t-15.5 -4.5q-9 -1 -16.5 -4.5t-16.5 -3.5q-8 0 -11 -4q-7 -4 -15.5 -6.5t-16.5 -4.5q-4 1 -7 2t-8 1q-10 0 -20 0.5t-19 2.5q-5 2 -10.5 2h-10.5q-8 0 -18 -2q-6 2 -11.5 4t-10.5 4l-8 -2t-7 -2
q-9 -1 -15.5 3.5t-13.5 8.5q-7 1 -15.5 2t-16.5 2q-1 4 0.5 7t2.5 4q2 5 0 9q-1 1 -5 3h-3l-10 -6q-1 1 -3 1t-3 1q-4 6 -10 10.5t-14 5.5l-10 10t-10 9q-11 9 -9 26v2q-10 16 -12.5 21t-5.5 20q-1 4 0.5 7.5t-0.5 7.5q-4 4 -8.5 4.5t-7.5 2.5q-4 4 -4 9t-1 11
q-1 1 -2.5 3.5t-3.5 4.5q-13 14 -13 37q-1 14 -2.5 28.5t-5.5 28.5q1 3 2.5 5t3.5 6q2 3 -0.5 6.5t-2.5 9.5q0 7 0.5 16t0.5 16q5 13 9 24.5t8 22.5q2 2 2.5 4.5t1.5 3.5q6 7 8 15.5t6 15.5q0 10 6 17t7 15q3 4 5.5 6.5l5.5 5.5q3 5 6.5 9.5t5.5 11.5q4 8 10 16.5t12 15.5
q6 9 20 14q3 2 6.5 3t7.5 2q2 5 3 9t5 7q5 4 9 8.5t9 8.5q5 3 9.5 5t6.5 6q18 5 34.5 11t31.5 17q8 -1 16.5 -2t17.5 -2q5 2 11 3.5t11 2.5q5 0 10 -0.5t9 1.5q13 7 24 1q2 -2 5.5 -4.5t5.5 -4.5q11 -5 23 -6.5t25 -3.5q4 2 8.5 3t9.5 2q3 -3 5.5 -6t5.5 -6l4 -3q2 2 5 3
t5 2q12 0 16 -8l17 -21q2 -2 2.5 -5.5t1.5 -5.5l12 -8t12 -7h15q1 -4 3 -8v-13q0 -1 1 -1.5l1 -0.5q2 -1 3 -3.5t2 -3.5q9 -4 15 -11.5t14 -11.5q2 -21 8.5 -41t15.5 -37q2 -10 3.5 -17t1.5 -15t0.5 -15t2.5 -15zM458 297q-1 6 -2 12.5t-2 13.5q-2 5 -4.5 10t-4.5 10
q-1 4 -1.5 9.5t-1.5 9.5q-4 5 -7 9.5t-8 5.5q-5 2 -8.5 5.5l-6.5 6.5q-8 6 -15 12.5t-16 10.5q-3 1 -4 3t-3 4q-7 5 -14 11q-13 -2 -24 4q-3 -1 -5.5 -2t-5.5 -3q-2 1 -5.5 1.5t-6.5 1.5q-14 -5 -24 -13.5t-18 -19.5q-22 -18 -38 -48q-1 -20 -7 -40.5t-6 -42.5
q2 -13 9.5 -25t8.5 -26q0 -3 -1 -7t0 -11q2 -4 4.5 -10.5t5.5 -13.5q8 -7 14 -16t17 -13q15 -2 30.5 -1t29.5 2q12 1 23.5 5.5t20.5 14.5q2 2 4.5 3.5t4.5 3.5q8 6 16 11.5t15 12.5q11 8 17 19t12 21v20q2 3 3.5 6t2.5 6q0 3 -1 5.5t-1 6.5q0 3 1.5 7t1.5 8z" />
    <glyph glyph-name="one" unicode="1" horiz-adv-x="519" 
d="M432 95q-1 -7 -2.5 -15.5t-2.5 -16.5q-1 -10 -2 -19.5t0 -20.5l1 -1.5t-1 -4.5q-1 -6 -3.5 -9t-4.5 -7v-4t-1 -5q-4 -4 -9.5 -7.5t-10.5 -7.5q-9 -1 -10 -2.5t-9 0.5q-3 0 -4 -1q0 -1 -2 -1.5t-3 -0.5t-2 -0.5t-3 -0.5q-3 0 -6 -1t-5 -2q-5 -1 -7.5 -2t-7.5 -2
q-5 0 -10.5 0.5t-11.5 -0.5q-5 -1 -10.5 0.5t-10.5 2.5q-2 0 -4 1t-5 1q-2 0 -5.5 -1t-5.5 -1q-3 1 -5.5 2t-6.5 2q-2 1 -5 1.5t-7 1.5q-13 -2 -23.5 -4.5t-21.5 -4.5q-10 2 -16 8t-11 12q-7 2 -13 -0.5t-12 -4.5q-5 -1 -10.5 -2t-10.5 -2q-6 0 -12 -0.5t-12 1.5q-1 2 -2 3
t-1 3q-3 20 -14 32q-1 2 -1.5 3.5t-2.5 2.5q-1 6 2.5 12t1.5 12l-4 24l10 21q0 3 -1 7.5t-1 9.5q2 2 3 5t2 5q11 0 18 3q5 1 9.5 2t9.5 2q6 -2 11 -2q16 2 25 11v9.5t1 9.5q1 3 1.5 6.5t1.5 7.5q7 21 7 46q0 13 3 26q3 9 3 17.5v15.5q-1 14 -0.5 26.5t1.5 25.5q0 5 0.5 10
t1.5 9q2 5 1 10t-1 11l4 6t3 7q0 2 -0.5 6t-0.5 8q2 6 4 12.5t4 13.5q-1 9 -5 13t-11 5q-7 0 -14.5 2t-14.5 3q-29 -4 -60 -15h-5q-10 9 -10 22q-1 6 0.5 12t-1.5 12q3 4 5 7.5t3 5.5q2 4 1 7t0 6q0 2 1.5 4t2.5 5q-1 2 -2.5 5.5t-3.5 7.5q1 4 2 8.5t2 9.5q-2 5 -4 8.5
t-4 7.5q2 5 1 10.5t0 11.5q2 1 3.5 2t3.5 2q17 9 35.5 15.5t37.5 13.5l6 2t7 1q11 0 22.5 2.5t22.5 5.5t23 3q7 0 13.5 0.5t13.5 0.5h8.5t6.5 -1q9 -2 17 -3.5t17 -1.5q4 0 7.5 -0.5t7.5 -0.5q11 -1 21.5 -3.5t21.5 -4.5q5 -3 5 -9q0 -27 1 -53.5t-5 -53.5q2 -15 -3 -27.5
t-10 -25.5q0 -7 -1 -14.5t-1 -15.5q2 -10 0 -21t-5 -21q1 -4 1.5 -7t0.5 -8q0 -4 -1 -6q-5 -7 -6.5 -16t-2.5 -18q-1 -3 -0.5 -6.5t-0.5 -5.5q-2 -6 0.5 -11.5t1.5 -10.5t-3 -10.5t-3 -10.5v-9q1 -6 1 -12t1 -12v-13t-1 -13q-1 -12 0 -17t8 -19l-2 -8t-3 -9q2 -8 5 -14
q5 -4 10 -1t10 1q6 -3 12.5 -6.5t13.5 -3.5q6 -3 12 -6.5t11 -8.5q0 -3 0.5 -5t0.5 -5z" />
    <glyph glyph-name="two" unicode="2" horiz-adv-x="524" 
d="M481 439q2 -20 -4 -39q-2 -7 -3.5 -14.5t-3.5 -15.5q-1 -7 -4.5 -15t-3.5 -17q-1 -19 -12 -37q-12 -16 -18 -35q-2 -10 -6.5 -17.5t-10.5 -15.5q-7 -11 -16.5 -21t-17.5 -21q-5 -5 -11.5 -11t-15.5 -14q-5 -6 -9 -18t-11 -23q-1 -2 0.5 -4.5t3.5 -2.5q4 -1 7.5 -1.5
t7.5 -0.5h45q13 -6 27 -8.5t27 -4.5q5 -2 9.5 -5.5t8.5 -5.5l3 -18.5t5 -43t-3 -42.5q-6 -6 -14 -7t-11 -9q-14 -1 -26.5 -1.5t-25.5 -2.5q-4 2 -9 3.5t-11 4.5q-4 -1 -9 -3l-10 -4q-13 -5 -26.5 -5t-27.5 1q-4 0 -7 2t-7 3q-4 3 -7.5 5.5t-6.5 4.5q-7 0 -12.5 -2.5
t-11.5 -3.5q-7 -2 -12.5 1.5t-11.5 3.5q-7 0 -14.5 -1t-15.5 0q-7 0 -14.5 -2.5t-15.5 -0.5q-7 2 -14.5 -0.5t-17.5 -0.5q-6 1 -14 8q-13 1 -27 1.5t-28 1.5l-2 2q-2 1 -4 5q-1 4 -1.5 7.5t-1.5 8.5q0 5 0.5 10t0.5 10q1 6 -1 10.5t-2 9.5q0 6 -2 11t-3 10q5 11 10 23t7 25
q2 1 4 2.5t4 2.5q16 3 30 10t25 20q2 2 5 3.5t6 3.5q28 15 51 41q4 4 6.5 7t5.5 7q8 11 17.5 22.5t21.5 19.5q2 2 4 3.5t2 2.5q4 11 11 18t13 14q6 8 12.5 14.5t11.5 14.5q4 5 5.5 11.5t3.5 12.5q5 10 5 20t-2 19q-2 8 -4.5 14t-4.5 12q-3 6 -8.5 7t-9.5 4t-7.5 5.5
t-6.5 5.5q-11 3 -19 0q-4 -2 -8.5 -0.5t-9.5 0.5q-4 -1 -8.5 -2.5t-9.5 -2.5q-4 -1 -7.5 -3.5t-8.5 -4.5q-1 -3 -2.5 -4.5t-2.5 -3.5q-1 -3 -1 -5t-1 -4q-10 -9 -19.5 -17.5t-14.5 -20.5q-4 -3 -8.5 -4.5t-8.5 -3.5q-1 1 -2.5 1t-3.5 1q-3 0 -5 3q-24 24 -54 43q-9 5 -10 11
q-4 13 -10 23.5t-11 20.5q-4 12 3 17q1 2 4 5q7 5 11.5 10.5t8.5 12.5q8 14 17.5 26.5t20.5 24.5q3 2 6 5t6 5l4.5 4.5t4.5 5.5q6 3 13 5.5t16 5.5q5 5 11.5 10t13.5 12q5 1 10 1.5t10 1.5l10 4t10 3q12 4 27 1q10 -2 19.5 -2.5t19.5 -5.5q4 -2 8 0q11 2 20 1.5t18 3.5
q7 -3 13 -4.5t12 -3.5q7 -4 13.5 -9.5t14.5 -9.5q16 -6 27 -19q5 -6 10.5 -10.5t9.5 -12.5q1 -3 3.5 -5t3.5 -5l9 -9q4 -3 6.5 -7t6.5 -9q5 -19 9 -38.5t6 -36.5z" />
    <glyph glyph-name="three" unicode="3" horiz-adv-x="532" 
d="M491 177q-9 -28 -3 -56q-8 -23 -13 -34t-11 -20.5t-19 -27.5q-5 -3 -10.5 -7.5t-11.5 -9.5q-4 -7 -14 -17q-9 -7 -19 -13.5t-21 -13.5q-7 -2 -16 -5t-17 -10q-10 -7 -20 -8q-5 -1 -10.5 -0.5t-11.5 0.5q-1 -1 -3.5 -3t-5.5 -4q-13 -1 -27 -0.5t-28 4.5q-2 1 -9 1
q-12 0 -23.5 4t-22.5 8q-9 3 -16 7t-15 6q-6 3 -11 6t-9 8t-9.5 7.5t-9.5 5.5q-3 4 -5.5 8t-4.5 7q-4 3 -7.5 3.5t-6.5 1.5q-7 0 -11 3.5t-8 7.5q-5 7 -10 14.5t-9 15.5q-2 1 -2 3q8 11 15 21.5t15 19.5q5 5 9.5 10.5t8.5 10.5q8 11 18 15q5 3 10.5 0.5t10.5 -0.5
q4 -5 8.5 -9t10.5 -6q13 -5 26.5 -9.5t26.5 -5.5q2 0 4.5 -1.5t3.5 -2.5q13 2 26 1.5t26 0.5q5 0 9 -1t10 -3q4 2 9.5 2.5t9.5 1.5q6 3 11 6.5t10 7.5q2 4 2 5q5 32 3 62q-6 8 -11 15.5t-13 12.5q-10 5 -20 5.5t-19 1.5q-12 5 -22.5 7.5t-21.5 6.5q-15 5 -30 1h-5q-5 2 -6 8
t-3 10l-11 18l11 10l-4 24v21q0 7 6 11l7.5 2.5t8.5 2.5q14 3 23 10q16 12 39 15q2 0 3 0.5l3 1.5q8 5 15 14q5 9 10.5 17t7.5 18l-7 34l-4 4t-5 4q-8 5 -17.5 8.5t-19.5 3.5q-4 0 -7.5 1t-8.5 1q-16 -6 -31.5 -15.5t-32.5 -16.5q-8 2 -13 8.5t-14 4.5q-19 17 -31.5 37.5
t-21.5 43.5q2 6 3.5 13t2.5 13q3 15 16 16q2 0 4 1q3 2 7 5.5t8 6.5q3 3 6 3q12 3 25 10q8 6 17 11t17 9q8 1 16 1.5t15 0.5q9 0 17.5 -0.5t16.5 -2.5q14 -5 27 -2q5 2 9.5 2h9.5l10 6q14 -3 26.5 -7.5t26.5 -3.5q5 -1 9.5 -3t8.5 -4q24 -7 44 -26q3 -4 7 -7.5t8 -6.5
q3 -1 6.5 -1t5.5 -2q5 -4 9 -10t8 -11q4 -9 6.5 -18.5t3.5 -18.5q1 -10 3.5 -18.5t4.5 -17.5q8 -24 0 -49q-2 -11 -7.5 -21.5t-9.5 -20.5q-1 -2 -2.5 -4t-2.5 -4q-5 -4 -10.5 -8t-8.5 -10t-8.5 -8.5t-10.5 -7.5q-11 -11 -21 -14q-2 -4 -1.5 -6t1.5 -4q2 -1 3 -2.5t2 -2.5
q7 -5 13 -11t9 -13q2 -1 4 -3t3 -2q16 -7 25 -19.5t15 -28.5q2 -6 4 -12.5t4 -14.5q0 -2 -0.5 -4.5t-0.5 -6.5l4 -14t4 -16z" />
    <glyph glyph-name="four" unicode="4" horiz-adv-x="612" 
d="M567 201q0 -3 -1.5 -5.5t-6.5 -10.5q-11 -5 -22.5 -8t-24.5 -2q-24 2 -45 -8q-4 -3 -9 -4l-10 -2q-8 -8 -9 -17q-1 -8 -0.5 -16t-2.5 -16q2 -9 1 -17.5t-3 -16.5q0 -3 1 -7t2 -9q-1 -10 -3.5 -20t0.5 -21q1 -5 -2 -12q0 -3 -0.5 -6t-1.5 -6q0 -6 2 -12q-3 -6 -6.5 -12
t-8.5 -13q-4 -4 -9 -4q-10 -1 -19.5 -2.5t-19.5 -2.5q-3 0 -6.5 0.5t-5.5 -0.5q-15 -4 -28.5 0t-27.5 6q-1 3 -2 4.5t-1 2.5q-4 12 -6.5 23.5t-5.5 22.5q6 35 1 67t-13 62q-1 7 0.5 13.5t-1.5 13.5q-4 5 -10.5 7t-11.5 5q-25 5 -49.5 5t-48.5 -6q-5 0 -6 1l-41 14
q-10 -2 -20 0t-19 2q-3 0 -6 0.5t-7 3.5q-2 2 -2 7q-1 8 -1 15v15v25.5t-5 25.5q-1 17 -2.5 34.5t5.5 34.5q3 8 4.5 15t5.5 14q6 11 9 25q3 11 6.5 21t3.5 21q4 17 9.5 33.5t13.5 31.5q5 10 10 19.5t9 19.5q2 8 5.5 16t6.5 16q5 10 7.5 13t12.5 13q2 6 5 11.5t5 10.5
q9 3 17.5 2.5t17.5 -1.5q3 -1 7 -3.5t8 -5.5q17 -13 39 -15l12 -13q8 -9 5 -17q-4 -11 -6.5 -23t-8.5 -23q-4 -22 -12 -45q-2 -6 -5.5 -11.5t-4.5 -12.5t-4 -12q-11 -20 -18 -42.5t-18 -44.5q-1 -5 1.5 -10.5t7.5 -6.5q6 -1 12 -1t12 -2q11 5 23 2t23 -2l21 -3q6 2 10 6
q3 14 5 27t1 27q0 11 1.5 21.5t-1.5 20.5q-1 5 0 10.5t2 11.5q4 4 6.5 7t6.5 7q2 2 4 5.5t4 7.5q11 3 22.5 2t22.5 -2q13 -7 27 -8t27 -4q9 -8 9 -22q2 -13 0 -27q-6 -25 -1 -51q1 -4 1 -7.5v-7.5q2 -2 4 -5l4 -6v-27l2 -2t3 -1q6 -2 12 -3.5t11 -3.5q11 2 22.5 4.5
t23.5 4.5q8 -8 17 -16.5t17 -14.5q8 -10 9.5 -21t2.5 -22q2 -13 2.5 -27t-1.5 -28z" />
    <glyph glyph-name="five" unicode="5" horiz-adv-x="499" 
d="M454 209q5 -21 0.5 -41t-10.5 -40q-1 -5 -4 -8q-2 -5 -4.5 -9.5t-4.5 -9.5q-1 -5 -4 -9t-5 -9q-1 -5 -4 -10.5t-6 -10.5q-3 -4 -5.5 -8t-5.5 -9l-10 -17q-7 -4 -14 -7q-9 -4 -12 -7t-13 -14q-21 -10 -42 -19.5t-45 -11.5q-3 -3 -5 -5.5t-5 -4.5q-18 -3 -37 -7t-40 -1
q-1 1 -3 1t-4 1q-36 15 -74 21q-5 1 -12 4l-2 2q-1 5 -1 10.5t-1 12.5q4 14 10 30q1 8 1 14.5t1 13.5q4 10 9 18.5t11 17.5q11 -2 21 -3.5t19 -4.5h44q14 -1 26.5 2t23.5 9q4 2 7.5 4.5t7.5 3.5q2 5 4.5 9t4.5 8q3 5 5.5 10.5t5.5 12.5v26q-2 11 -7.5 21.5t-12.5 20.5
q-7 14 -17 20q-4 1 -6.5 3.5l-5.5 5.5q-5 6 -15 8q-10 0 -21.5 0.5t-22.5 -0.5q-10 0 -21.5 -2t-23.5 -4q-3 0 -6.5 1.5t-9.5 2.5q-4 0 -10 -1.5t-12 -2.5q-4 0 -9 0.5t-8 3.5q-5 3 -11.5 6.5t-10.5 8.5q-7 16 1 34q-1 5 -1.5 11t-0.5 11q0 10 -1.5 19t-3.5 19q-4 10 -3 20
t3 20t4 19.5t2 19.5q0 5 1 9.5t2 8.5q1 20 6.5 41t9.5 40q4 13 4 26t1 26q2 2 3 4t3 3q1 5 1 10t1 9q1 6 8 10q5 -1 11 -1.5t10 -1.5q9 1 16 6t16 8h22q5 -1 9 -4.5t11 -2.5q14 0 23 -3q8 -1 13.5 1t11.5 3q8 -3 15 -5t16 0q2 0 3 -2q14 -6 28 2q25 -3 49 -9t48 -11
q3 -1 5.5 -2t5.5 -3q0 -2 0.5 -4.5t-0.5 -4.5q-5 -6 -7 -12.5t-2 -13.5v-35v-14t-2 -14q0 -10 -8 -17q-17 0 -34.5 -3t-35.5 -5q-7 -1 -13.5 -3t-14.5 -4l-8 -2t-7 0q-8 3 -16.5 1t-16.5 0q-4 2 -8 2.5t-9 0.5q-4 0 -6.5 -2t-4.5 -4q-3 -14 -6.5 -27.5t-5.5 -27.5
q-1 -6 -1.5 -12t-0.5 -11q0 -3 1 -5t2 -5q4 -1 7 -2t7 -2q1 -1 7 -1q5 2 15 7q6 -1 12.5 -1.5t13.5 -1.5q8 -1 14.5 -0.5t12.5 -1.5q7 -1 13.5 -0.5t13.5 0.5q19 -8 36 -18t32 -19l17 -15q6 -2 7 -4q8 -10 14 -22t12 -23q2 -5 3 -11l2 -12q2 -6 3 -12t2 -13l9 -10
q0 -1 -0.5 -3t0.5 -5z" />
    <glyph glyph-name="six" unicode="6" horiz-adv-x="541" 
d="M499 231v-7t-2 -8q-4 -12 -5 -25t-1 -27q-1 -4 -3 -8l-4 -8l-2 -6t-1 -5q0 -16 -8.5 -27.5t-13.5 -23.5q0 -2 -2 -2q-11 -7 -18.5 -18.5t-17.5 -20.5q-13 -14 -28 -24t-32 -18q-5 -2 -11 -4t-11 -2q-6 -1 -10 -4.5t-9 -5.5q-5 -1 -11 -3t-11 -4q-3 -1 -6 -1t-7 -2l-27 7
q-8 -1 -16.5 -3t-16.5 -4q-9 4 -19 6.5t-20 4.5q-3 2 -6 3t-5 2q-5 4 -10.5 7.5t-12.5 5.5q-6 2 -12 5.5t-11 5.5q-3 1 -4.5 2t-3.5 2q-7 5 -13.5 10.5t-12.5 11.5q-4 4 -9 10t-7 13l-2 6t-2 5q-10 13 -14.5 28t-7.5 30q-6 13 -2 26q4 19 -5 39q-1 2 -1 3.5v1.5
q-4 17 -2.5 32.5t-1.5 31.5l8 30t8 31q9 11 11 14.5t6 16.5q2 9 5 16q12 33 24 63q4 10 9 18t9 17q5 10 11.5 18t8.5 18q7 7 13 14.5t13 15.5q2 4 3.5 9t3.5 10q2 3 5.5 6t5.5 7q11 14 23 25t25 21q5 3 11 7q3 2 6.5 3t7.5 2q2 2 5.5 4.5t5.5 5.5q3 0 6 0.5t6 1.5
q11 3 13 17q0 10 11 6q2 -1 5 -2t4 -4q5 -6 8 -11.5t7 -10.5q10 -7 19 -14.5t18 -15.5q6 -4 10.5 -9.5t8.5 -11.5q7 -7 8 -12q-2 -5 -3 -5q-17 -7 -25 -24q-2 -2 -3.5 -5t-3.5 -4q-12 -8 -21 -19l-18 -22q-2 -3 -5 -5t-8 -6q-1 -3 -3.5 -7t-4.5 -9q-5 -7 -13 -17
q-1 -1 -1 -3.5t-1 -4.5q-3 -6 2 -8q3 -1 5.5 -2.5t5.5 -2.5q13 -3 26 -6.5t26 -2.5q15 -10 25 -11q10 -10 19.5 -19t18.5 -18q19 -6 34 -16q12 -10 20.5 -24.5t15.5 -28.5l1.5 -3t0.5 -3q2 -13 5 -27.5t5 -30.5q1 -1 3 -3.5t3 -6.5zM343 235q-3 4 -5.5 8.5t-5.5 8.5l-2 4
t-3 3q-8 4 -12 12q-6 11 -19 13q-7 1 -13.5 0.5t-13.5 -2.5q-12 -6 -26 -1h-7q-17 -12 -28 -22q-7 -15 -7 -20.5t4 -23.5q-2 -2 -2.5 -4t-2.5 -3q-1 -1 -3.5 -3t-2.5 -6q-1 -7 3 -14q6 -9 12.5 -18t12.5 -17q10 -4 18.5 -7t17.5 -5q5 2 9 4.5t9 2.5q8 0 16 3t15 4q9 1 18 12
q4 9 8.5 19t6.5 21q6 15 3 31z" />
    <glyph glyph-name="seven" unicode="7" horiz-adv-x="564" 
d="M520 518q-1 -4 -4 -9t-5 -10q0 -4 0.5 -7t1.5 -8q-7 -21 -6 -41q-1 -3 -2.5 -5t-3.5 -4q-1 -2 -1 -6q1 -5 1.5 -10.5t-2.5 -10.5q-4 -6 -2.5 -12.5t2.5 -11.5q-1 -11 -5 -21.5t-4 -21.5q0 -3 -5 -10q-6 -6 -9 -13.5t-5 -15.5q-1 -9 -4 -17q-6 -12 -6 -26q0 -6 -2 -11.5
t-2 -11.5q-1 -6 -2.5 -11.5t-3.5 -11.5q-5 -13 -10 -26.5t-10 -26.5q-4 -11 -7.5 -22.5t-4.5 -23.5q-1 -4 -2 -8.5t-3 -9.5q-4 -9 -5.5 -19t-2.5 -21q-6 -11 -11 -22.5t-16 -19.5q-6 -28 -32 -37q-6 -3 -15 -1q-24 6 -44 15q-17 11 -37 3q-6 2 -13 3.5t-11 9.5q2 9 4.5 20
t6.5 21q2 7 6.5 13.5t6.5 14.5q2 6 3 12.5t4 12.5q2 6 3.5 12.5t4.5 13.5q2 5 1.5 10t-0.5 10q8 19 14 38.5t12 38.5q-1 7 -0.5 14t1.5 15q2 7 2 13.5t1 12.5l10 28q3 9 7 17q8 15 12 32t9 33q1 2 0.5 5.5t-0.5 6.5q2 4 5 7t4 7q2 5 1 8t-3 7q-1 0 -2 0.5l-1 0.5
q-1 0 -1.5 0.5t-1.5 0.5q-11 0 -22 4t-22 3q-10 -1 -20 0.5t-21 3.5q-1 1 -2.5 1.5t-2.5 1.5q-4 7 -14 5q-5 -1 -9.5 -3t-9.5 -3q-8 -1 -11 -3t-12 -11q-3 -5 -1.5 -11t-1.5 -12q-1 -2 0.5 -5t2.5 -6q3 -12 2 -21q-2 -9 -1.5 -17.5t-1.5 -18.5q-2 -7 -2.5 -15t-1.5 -17
q-1 -2 -1 -5.5t-1 -5.5t-2.5 -3.5t-2.5 -3.5q-6 -3 -12 -2t-11 -2h-5q-7 5 -13.5 3.5t-13.5 -3.5q-13 4 -30 1q-6 3 -12.5 1.5t-12.5 -3.5q-4 2 -8 3.5t-6 2.5q-10 3 -8 15v2q5 15 4.5 29t-4.5 27q-1 8 -2.5 15.5t2.5 14.5q1 5 0 12t-1 13.5t1 13.5l9 10q-1 2 -4 3.5l-5 2.5
q0 8 2 15.5t-1 14.5q-1 3 0 6q3 7 1 13.5t-3 14.5q2 9 5 19.5t4 22.5q0 8 5 13q13 15 18 29q6 3 8 3q18 -2 37 0t37 5q7 2 14 3.5t14 -0.5q3 -1 6 -0.5t6 1.5q10 2 18.5 2t17.5 -5q2 -1 4.5 -1.5t5.5 -2.5l14 -2t14 -3q2 1 4.5 2.5t6.5 2.5q3 -1 6.5 -1.5t7.5 -0.5
q8 3 17 6.5t19 7.5l9 -4.5t11 -3.5q4 0 8 -4q4 -1 8 -5q7 1 14.5 0t14.5 -5q12 6 24 7.5t23 -9.5h13.5t13.5 -2q3 -1 7 -2t6 -2q13 -5 20 -13q4 -7 6.5 -15t5.5 -16q1 -2 1.5 -4t0.5 -5v-12z" />
    <glyph glyph-name="eight" unicode="8" horiz-adv-x="530" 
d="M486 446q5 -17 -3 -38q-4 -11 -9.5 -22.5t-11.5 -23.5l-5.5 -5.5t-6.5 -8.5q-3 -2 -5.5 -4.5t-5.5 -4.5q-13 -6 -19 -17q-5 -7 -14 -15q-5 -2 -6 -6q-3 -3 -3 -8q1 -1 2 -3l2 -4q4 -1 7.5 -2t5.5 -2q5 -3 4.5 -7t3.5 -10q5 -5 11 -12.5t12 -14.5q2 -7 1 -12.5t5 -10.5
q2 -6 6.5 -12t5.5 -13q3 -4 5 -9t1 -11q-1 -4 2 -7t4 -8q3 -13 1 -29q-1 -6 -1 -12t-1 -12q-3 -6 -5.5 -12.5t-5.5 -13.5q-1 -4 -3 -7.5t-5 -7.5q-7 -10 -8 -18q-3 -9 -13 -18q-14 -10 -27.5 -21.5t-27.5 -21.5q-3 -2 -6 -4.5t-5 -5.5q-2 -7 -6 -13q0 -3 -4 -3
q-4 1 -7.5 2.5t-7.5 2.5q-9 -1 -19 -1.5t-20 -3.5q-4 -1 -9.5 -1h-10.5q-8 0 -17 1t-17 -1q-15 0 -27 -4q-1 -1 -4.5 -1.5t-5.5 -0.5q-9 0 -14 5q-3 3 -8 0q-2 0 -6 -2q-18 2 -31 12q1 0 -2 5q1 0 -4.5 2.5t-4.5 2.5l-13 4q-7 5 -13 10t-12 9q-4 4 -3 8.5t0 9.5q-2 2 -5 4
l-6 4q-4 6 -7.5 14.5t-9.5 14.5q-6 7 -11.5 13t-11.5 13q-2 8 -4 16.5t-4 17.5q1 9 1 18.5t2 19.5q1 2 0.5 6t-1.5 8q2 8 3.5 16.5t3.5 16.5l10 18t8 18q5 13 13 24.5t18 19.5q2 1 2.5 3t1.5 3q0 3 -2 5q-8 15 -18 26q-7 7 -11.5 15.5t-9.5 15.5l-10 21q-1 5 -3 9.5t-3 9.5
v6q-6 16 -4.5 30.5t5.5 29.5q1 1 3 6q-6 12 2 24l8 14t5 14q14 11 24 25.5t18 29.5l11 6q1 4 1 6.5t1 5.5q3 7 11 7q3 0 4 1q2 2 3.5 4t3.5 5q3 2 6.5 4t7.5 4q3 3 6.5 6t5.5 6q10 8 19 3h2q7 1 13.5 2.5t12.5 2.5q8 1 15.5 3t13.5 6q7 0 13 0.5t11 0.5q12 0 20 -4
q16 -10 38 -12q8 -1 15 -2.5t14 -0.5q3 1 9 -2q4 -1 9 -2.5t9 -3.5q1 -3 4 -6q0 -1 2 -5q6 -1 12 -3t10 -8q3 -5 4.5 -10.5t-0.5 -11.5h16q3 -4 5 -8l3 -6q4 -4 8 -5.5t7 -3.5q6 -6 11 -12.5t8 -14.5q1 -4 -0.5 -8t0.5 -9q3 -7 7 -14q-1 -5 -2 -11t-2 -11q1 -4 4.5 -8
t4.5 -9zM339 448q-1 8 -3 14.5t-8 11.5q-4 2 -6.5 6t-6.5 8q-10 3 -18.5 11t-21.5 10q-5 -1 -10.5 -1.5t-10.5 -1.5q-10 -2 -15 -7q-9 -7 -17 -13.5t-13 -17.5q-1 -7 -1.5 -14.5t-1.5 -14.5q2 -9 2 -19v-21q0 -3 4 -7q8 -1 17 -4t16 -6q5 -2 9 -3l8 -2q6 -1 12.5 -1.5
t13.5 -1.5q6 2 12 4.5t11 7.5q6 12 13 25l14 26q0 2 0.5 5t0.5 6zM328 132q0 24 -3 46l-6 14l-7 14q-7 3 -13 7t-15 8q-7 -3 -14.5 -2.5t-15.5 -1.5t-17 -2t-17 -1q-5 -3 -7 -7q-4 -7 -9.5 -12.5t-10.5 -11.5q-2 -4 -5 -6.5t-5 -6.5q-1 -7 -3 -14t-3 -12q0 -6 3 -10t4 -9
q2 -3 3.5 -7t2.5 -8q14 -10 27.5 -18.5t29.5 -15.5h15q4 0 7 0.5t6 0.5q14 5 24.5 13t20.5 18q3 3 4.5 6.5t2.5 7.5q0 2 0.5 5t0.5 5z" />
    <glyph glyph-name="nine" unicode="9" horiz-adv-x="532" 
d="M489 384v-4t-1 -5q-4 -11 -4.5 -23t-1.5 -25q-1 -15 -4 -30t-9 -29q-1 -5 -2.5 -10.5t-3.5 -10.5q-1 -14 -11 -27q-2 -4 -5 -5q-8 -11 -11.5 -17t-4.5 -12.5t-4 -19.5q-7 -10 -15 -22l-16 -24q-1 -4 -2 -9l-2 -10q-1 -6 -3.5 -11.5t-4.5 -11.5q-1 -5 -4.5 -10.5
t-5.5 -10.5q-7 -10 -13 -25q-4 -7 -8.5 -14.5t-12.5 -15.5q-1 -1 -1.5 -2t-1.5 -2q-5 -4 -8 -10.5t-9 -11.5q-5 -4 -10 -9.5t-10 -10.5q-4 1 -8.5 2t-9.5 2q-4 -1 -9.5 -2t-11.5 -3l-12 4t-13 4l-10 8t-10 6q-4 4 -8.5 6t-9.5 5t-11 5t-10 8q5 9 10.5 18t11.5 19q3 5 3 10
l2 3v1l1 1q6 5 9 10.5t7 12.5q5 11 10.5 22t6.5 23q-1 3 -1 7t-1 8q0 7 4.5 12.5t6.5 11.5q-6 1 -11.5 1.5t-10.5 1.5q-7 3 -14 5.5t-14 6.5q-13 9 -27.5 15.5t-30.5 10.5l-3 3q-7 6 -14 12.5t-12 14.5q-1 4 -4 7t-5 6q-16 17 -26 38q-1 2 -2.5 3.5t-2.5 3.5
q-8 8 -13.5 18.5t-10.5 20.5q-1 11 -1.5 23t-0.5 23q0 23 2 44t6 43q2 5 3 10.5t2 10.5q7 11 10.5 21.5t9.5 19.5q5 7 7 15.5t5 15.5l3.5 3.5t4.5 2.5q8 3 15 7l14 8q11 6 21.5 12.5t23.5 10.5q2 2 5.5 6t7.5 8q1 0 2.5 0.5l4.5 1.5q12 5 24 7.5t25 2.5q9 2 17 4t17 3
q8 2 14 -3.5t11 -5.5q6 -1 10 1t6 4q3 -1 5.5 -2.5t4.5 -3.5q9 2 15 3q14 -7 23 -13q6 -4 11 -9l10 -10q10 -6 20.5 -11.5t20.5 -12.5q5 -4 10 -9.5t10 -11.5q5 -8 10 -18t6 -21l6 -8t7 -9q0 -4 0.5 -7.5t0.5 -8.5q2 -4 5 -9.5t5 -10.5q1 -3 1 -7q3 -16 3 -31.5v-32.5z
M350 394l-3.5 14t-3.5 12q-4 14 -12 31q-3 7 -10 10q-3 2 -6 2.5t-6 1.5h-12t-12 -2q-7 -1 -14 2t-15 2q-7 -3 -15 -5.5t-14 -4.5q-19 -13 -29.5 -27t-12.5 -34q3 -11 6.5 -22.5t12.5 -21.5q3 -3 3 -8q2 -9 8 -13t14 -7q9 -3 18.5 -6.5t19.5 -5.5q8 0 16.5 0.5t15.5 1.5
q5 5 10.5 7.5t10.5 6.5q6 3 9.5 8.5t7.5 11.5z" />
    <glyph glyph-name="colon" unicode=":" horiz-adv-x="250" 
d="M208 420q-1 -16 -6 -37q-7 -12 -13 -23t-13 -22q-4 -1 -7.5 -3.5t-8.5 -4.5q-9 -4 -18 -7t-18 -7q-4 1 -7.5 2.5t-8.5 2.5q-4 3 -9 1.5t-8 2.5q-7 2 -11.5 5t-11.5 6q-4 1 -4.5 4t0.5 5l-8 24q-1 5 -1.5 10.5t-0.5 11.5q0 8 2 18q0 11 3 23q8 16 18.5 31t30.5 21
q6 -1 12.5 -2t12.5 -2q5 0 11 -1t11 -1q12 -9 25.5 -16t23.5 -23q1 -2 2 -7t2 -12zM209 197q-2 -9 -5.5 -17.5t-5.5 -18.5q-6 -24 -30 -39q-4 -3 -8.5 -5t-8.5 -4q-32 -18 -65 -4q-7 3 -12.5 6.5t-9.5 10.5q-1 4 -4.5 7t-5.5 5q-5 5 -8 12l-6 14q4 15 7 30t7 31q2 5 5.5 10
t6.5 9l5 6q11 5 21 9.5t21 8.5q9 2 18.5 3.5t20.5 -0.5q6 -3 12 -8t13 -8q5 -1 6.5 -5t2.5 -7q13 -10 16 -23q3 -5 4.5 -10.5t2.5 -12.5z" />
    <glyph glyph-name="semicolon" unicode=";" horiz-adv-x="258" 
d="M206 446q6 -27 -11 -48q-2 -4 -5 -7.5t-4 -8.5q-3 -22 -28 -35q-4 0 -8.5 -0.5t-9.5 -0.5h-48q-4 0 -7 0.5t-6 1.5q-22 7 -27 29q-2 6 -3 12.5t-2 11.5q3 20 5 38.5t9 35.5q2 2 4 3t3 2q2 1 3 2t3 2l7 14q3 3 4 3q11 5 25 7q9 2 18.5 3.5t18.5 -3.5q11 -3 20 -3
q4 0 12 -2q3 -5 5.5 -10t6.5 -10q2 -4 5 -7.5t5 -7.5q2 -5 3 -11t2 -11zM206 184q-1 -6 -3 -12.5t-4 -11.5q-4 -9 -7 -17.5t-6 -16.5q-1 -4 -2 -10t-3 -14q-4 -6 -10 -11.5t-12 -11.5q-16 -7 -27.5 -2.5t-21.5 16.5q0 2 0.5 4.5t1.5 4.5q0 2 2 6q11 24 7 27.5t-23 10.5
q-12 3 -21 9q-5 5 -11 7t-10 7q2 7 -2 11.5t-6 8.5q1 5 2 9.5t2 9.5q0 7 2 9q7 11 10 24.5t12 27.5q2 2 6 5.5t8 7.5q7 3 13 5.5t11 4.5q50 9 86 -27q1 -3 2 -6.5t2 -5.5q8 -17 7.5 -34.5t-5.5 -34.5z" />
    <glyph glyph-name="less" unicode="&#x3c;" horiz-adv-x="363" 
d="M320 401q-4 -7 -12 -9.5t-16 -9.5q-6 -10 -16 -20q-5 -5 -8.5 -10.5t-8.5 -9.5q-8 -10 -17 -19t-18 -17q-25 -22 -42 -53l-6 -12t-3 -14q1 -3 2 -6.5t3 -5.5q7 -7 11 -16l8 -18q3 -3 6.5 -6t6.5 -6q12 -8 20 -18t16.5 -19t15.5 -18q5 -4 9 -8t8 -7q4 -1 7 -4.5t6 -5.5
q0 -10 0.5 -15.5t7.5 -14.5l4 -12v-10q-8 -12 -18 -21.5t-25 -13.5q-4 -1 -7.5 -4.5t-8.5 -5.5q-4 -1 -7.5 -1t-14.5 1q-4 5 -8 10.5t-8 10.5l-13 13l-4 4t-5 3q-3 2 -6.5 3.5t-5.5 4.5q-4 8 -11.5 12.5t-15.5 10.5q-2 5 -5 11t-5 12q-10 10 -21.5 19t-22.5 19
q-4 6 -6.5 13.5t-7.5 15.5q-19 21 -34 46q-5 14 2 22q8 12 15 24.5t14 24.5q12 23 26.5 44t30.5 40q6 8 11 14.5t11 12.5q5 3 7.5 8.5t5.5 9.5q5 9 8.5 17.5t7.5 18.5q16 11 26.5 25t25.5 27q3 0 6.5 1t6.5 1t6 -0.5t5 -0.5q2 -2 4 -3t3 -2q14 -16 27 -31.5t26 -31.5
q4 -10 1 -20z" />
    <glyph glyph-name="equal" unicode="=" horiz-adv-x="334" 
d="M292 445q-1 -4 -1 -7.5t-1 -7.5q-1 -10 -2.5 -20.5t-3.5 -20.5q-5 -7 -11.5 -11.5t-12.5 -9.5l-10 -11q-6 -3 -12 -3q-13 -1 -27 -2t-27 -5q-5 2 -11 3.5t-11 2.5q-4 2 -8.5 3.5t-9.5 2.5q-5 2 -10.5 3t-10.5 5q-1 -1 -4 -2t-5 -3h-17q-5 0 -10 -0.5t-10 -0.5
q-11 0 -18 7q-5 4 -8.5 9t-2.5 13q3 12 5.5 24.5t5.5 24.5q2 8 3.5 15.5t0.5 14.5q4 5 7.5 7t7.5 4q3 0 6.5 -1t7.5 -1q8 4 16.5 7.5t17.5 4.5q4 -1 7 -3t6 -2q13 -1 27 -1.5t27 -0.5q3 0 6 0.5t7 0.5q5 -1 10.5 -4t10.5 -5q14 -2 24 5q11 -3 20 -5t17 -8q2 -1 2.5 -3.5
t1.5 -4.5v-14zM256 163q3 -10 2.5 -21t-8.5 -24q-7 -3 -12 -6.5t-10 -5.5q-3 -1 -5.5 -1t-5.5 -2q-7 -1 -14 -0.5t-14 -1.5q-11 -4 -23 -4h-26q-19 11 -40.5 14.5t-43.5 5.5q-11 8 -12 16q1 6 2 12.5t2 10.5q0 6 -1 8q-3 10 -4.5 20.5t0.5 20.5q0 5 0.5 9.5t0.5 9.5q4 4 9 5
t11 1t11 2q11 5 20 4.5t18 -3.5q35 5 68 6q12 -3 29 -3h15t14 -1q3 -3 5.5 -4.5t3.5 -3.5q17 -17 7 -37q-1 -2 -4.5 -4.5t-5.5 -4.5q-3 -4 1 -8q2 -3 4.5 -5t5.5 -5z" />
    <glyph glyph-name="greater" unicode="&#x3e;" horiz-adv-x="346" 
d="M302 218q-4 -7 -8.5 -13.5t-9.5 -14.5q-11 -23 -30 -38q-10 -9 -18 -18t-13 -21q-14 -16 -27.5 -33t-27.5 -34q-5 -6 -10.5 -11t-9.5 -12q-1 -4 -7 -8q-7 -6 -13 -11.5t-13 -11.5q-2 1 -5 2t-5 3q-5 4 -10 8.5t-11 8.5q-9 5 -15.5 11.5t-11.5 13.5q-4 5 -7.5 11t-8.5 12
q2 7 4.5 14.5t3.5 14.5q11 8 20.5 17.5t16.5 19.5q6 3 11.5 6t11.5 5q4 5 7.5 10t8.5 10q5 4 10 8.5t10 8.5q5 8 8.5 15.5t7.5 14.5q5 8 10.5 14t9.5 16q-3 16 -15 33q-13 20 -26.5 39.5t-29.5 37.5q-9 11 -16.5 23t-15.5 23q-6 9 -11.5 18t-10.5 17q-2 10 6 18q3 2 5 4t4 3
q8 6 16 11.5t16 12.5q8 3 18 6t19 7q8 -2 9.5 -7.5t2.5 -10.5q5 -2 10.5 -4.5t10.5 -6.5q8 -7 16.5 -16t18.5 -19q5 -13 11 -26.5t9 -28.5q7 -10 15 -17.5t18 -15.5q3 -4 5 -9.5t5 -10.5q9 -10 14.5 -22.5t11.5 -24.5q12 -24 5 -52z" />
    <glyph glyph-name="question" unicode="?" horiz-adv-x="535" 
d="M488 451q-1 -7 -3 -14l-4 -14q-2 -5 -4 -10.5t-4 -10.5q-2 -4 -2.5 -9t-1.5 -10q-7 -5 -9 -13t-5 -16q-5 -6 -10 -11.5t-11 -12.5q-5 -1 -10.5 -3.5t-10.5 -4.5q-6 -4 -12.5 -5.5t-14.5 -3.5q-5 -1 -9.5 -2.5t-9.5 -2.5q-15 -5 -23 -16q-3 -7 -2.5 -14t-1.5 -15
q-1 -6 -1.5 -12.5t-1.5 -12.5q-1 -7 -1 -14.5t-5 -13.5q-3 -3 -4 -3q-16 -3 -31 -10q-6 -4 -13.5 -5t-14.5 -1q-9 1 -18 1t-18 3q-4 2 -8.5 0.5t-9.5 2.5q-1 1 -2.5 3t-2.5 4q-1 11 -2 22.5t0 22.5q2 11 2 22t-4 22q-1 6 0 13q3 9 3.5 18t0.5 19q3 2 5 4l3 3q8 5 16.5 7.5
t14.5 8.5q2 1 4 1q13 2 23 10t19 15q5 2 9 3l8 2q3 3 5 7.5t7 6.5q4 2 6 4q13 11 14 28q1 13 -0.5 25t-6.5 25q-10 18 -31 28q-5 0 -11.5 -0.5t-12.5 -1.5q-4 2 -9 3t-10 3q-1 -1 -1.5 -0.5t-1.5 -1.5q-10 -3 -19 -7.5t-17 -11.5q-11 -11 -25 -22q-3 -10 -6 -19.5t-7 -19.5
q-2 -7 -6 -12.5t-6 -10.5q-5 -5 -11 -7t-11 -3h-13q-4 1 -8.5 2t-7.5 0q-13 0 -22 -4q-10 -4 -20.5 -3.5t-20.5 1.5q-1 1 -2 2.5t-2 2.5q-1 7 -2 13t-4 12l-2 12t-3 12q3 8 6.5 15.5t4.5 15.5q0 3 2.5 6t3.5 6q2 4 4 8.5t2 9.5q1 9 8 21q2 2 3 5.5t4 4.5q8 5 11 14t10 14
q2 1 3 2l2 2q6 2 9.5 6t5.5 9q2 3 3 5.5t3 6.5q5 2 10 4.5l9 4.5q5 2 10 6t9 8q4 2 6 2q11 5 23 11t25 12q15 -1 31.5 3.5t32.5 8.5q8 -3 15 -5q17 5 23.5 5t28.5 -2q14 -8 27.5 -18t24.5 -23q2 -2 5.5 -4t4.5 -4q5 -7 10.5 -14.5t10.5 -13.5q6 -6 12 -11.5t11 -11.5
q2 -3 4 -6.5t4 -6.5q5 -8 10.5 -16.5t11.5 -19.5q3 -16 2.5 -34t-2.5 -36zM355 41q-2 -8 -5 -16t-5 -17q-7 -7 -16.5 -15.5t-20.5 -16.5q-10 -1 -19.5 -2t-19.5 -5q-8 -3 -18 -2.5t-20 1.5q-12 7 -21.5 17t-16.5 21q-4 7 -10 12.5t-12 11.5q-1 14 -1 27.5t4 26.5q2 6 2.5 12
t1.5 13q5 6 10.5 12.5t10.5 13.5q37 17 74 23q10 -3 19 -5t17 -5q11 -9 20 -20t17 -22q5 -7 7 -15t2 -16v-34z" />
    <glyph glyph-name="at" unicode="@" horiz-adv-x="670" 
d="M628 343q-1 -15 -1 -29t-4 -29l-4 -26t-7 -27q-1 -6 -1.5 -12.5t-2.5 -13.5l-4 -6t-6 -6q-10 -7 -19 -14.5t-19 -15.5q-6 -4 -12 -9.5t-11 -11.5q-18 -24 -46 -27q-5 -1 -11 -1.5t-11 -1.5q-12 0 -24 7q-24 21 -40 44q-13 5 -25 3.5t-23 -3.5q-13 -1 -23 -4t-18 -10
q-6 -1 -11 0t-9 2q-8 5 -16.5 7.5t-16.5 3.5q-6 5 -11 8.5t-9 7.5q-5 5 -10 9.5t-12 10.5q0 1 -1 4t-3 5q-3 7 -9.5 12.5t-7.5 14.5q-1 8 -5.5 14t-4.5 17q1 8 1.5 19t-1.5 24q-3 14 2 27t12 25q3 6 7.5 12t11.5 10h12q4 2 5 3q5 4 9.5 7.5t8.5 7.5q20 21 50 34q6 1 12.5 1
h13.5q4 0 12 -2q10 -5 19 -5q4 0 9 -0.5t11 -0.5q8 -4 16.5 -9.5t18.5 -7.5q8 0 12 6t11 10q2 -1 6 -2t8 -3q8 -3 14 -11q5 -7 8.5 -12.5t6.5 -10.5q3 -10 1.5 -19.5t-2.5 -17.5q-3 -7 -7.5 -13.5t-6.5 -15.5q-1 -10 -5 -18l-8 -16q-2 -8 -3 -15.5t-3 -16.5q1 -2 1.5 -5.5
t1.5 -7.5q9 -28 36 -25q3 2 12 2q2 2 4.5 5t5.5 6q5 6 11 13t11 15q5 5 9 10.5t9 8.5v61q-2 5 -5 10t-5 10q-1 3 -1 8v9q2 11 3 18q-2 5 -4.5 10l-4.5 9q-1 3 -4.5 6t-5.5 6q-1 5 -2.5 9.5t-2.5 9.5q-4 5 -8.5 8.5t-6.5 10.5q-1 3 -5 6q-7 8 -15 16t-17 15q-8 7 -19 11
q-4 1 -8 1.5t-8 1.5q-13 1 -25.5 5t-23.5 8q-7 -2 -14 -0.5t-14 2.5t-13 2.5t-10 5.5q-7 -2 -13.5 -4.5t-12.5 -4.5q-9 -3 -20 -8q-11 -8 -23 -12q-7 -3 -13 -9q-7 -4 -13.5 -7.5t-15.5 -8.5q-8 -7 -17 -18t-14 -26q-2 -6 -9 -12q-7 -5 -11.5 -13t-8.5 -16q-3 -10 -7 -19
t-8 -19q-1 -5 -3 -10.5t-6 -10.5q-6 -10 -6 -22v-8.5t-1 -9.5q-4 -15 -1 -32q1 -4 0.5 -8t-1.5 -9q2 -4 5.5 -10t5.5 -11q5 -9 4 -16q0 -4 2.5 -6t2.5 -6q0 -6 4 -10q4 -3 3.5 -7t1.5 -8q3 -5 6.5 -9t9.5 -6l3 -1.5l3 -1.5l8 -14q2 -1 3.5 -2t4.5 -2q21 -5 33 -24
q11 -14 28 -21q14 -6 27.5 -12t28.5 -11q10 -3 20 -4.5t20 -3.5q4 0 7 1l6 2t6.5 1h5.5q5 0 9 -1.5t8 0.5q8 2 17 2t17 3q16 9 33 -4q2 0 2 -0.5t1 -0.5q12 -19 14 -24.5t0 -17.5q-2 -1 -4.5 -3.5t-5.5 -4.5q-9 -4 -17 -11t-19 -9q-4 1 -8 1.5t-9 0.5q-9 -4 -19.5 -8
t-21.5 -6q-4 0 -6.5 -0.5t-6.5 -0.5h-32q-7 -1 -13.5 -0.5t-13.5 3.5q-4 2 -9.5 2t-10.5 1q-11 8 -23 13.5t-25 9.5q-5 2 -9.5 3.5t-8.5 5.5q-3 3 -7.5 4t-8.5 5q-6 6 -12 9q-11 5 -17 14q-4 5 -9.5 7t-8.5 8q-4 12 -22 17q-1 3 -1.5 6t-2.5 6q-4 4 -9 8t-7 11q-1 5 -11 7
q-1 1 -3.5 2t-5.5 3q-6 14 -12.5 28t-10.5 30q-1 6 -6 12q-4 6 -3 11q0 10 -5 15q-4 5 -6 11.5t-1 13.5q-2 9 -3 20t-3 21l4 9q-1 5 -2 11l-2 12q2 4 3.5 6.5t2.5 5.5q3 12 7.5 23t4.5 23q0 8 5 16q2 3 4.5 6t5.5 6q2 8 4 14.5t4 13.5q2 8 5.5 16t10.5 14q2 2 4.5 6t4.5 8
q2 3 4.5 6.5t4.5 5.5q10 6 17 20q4 8 10 14t13 12l12 8l12 8h12q7 3 11 10h1l1 1l2 1q4 4 15 2q5 -1 10.5 1.5t9.5 6.5q2 4 4.5 5.5t4.5 2.5q6 4 11.5 7.5t10.5 7.5q6 -1 12 -2.5t13 0.5q8 4 16 3.5t15 1.5q8 1 16 -2q5 -1 8 -1t11 1l14 -2t16 -2q14 2 25 6q16 -3 30 -8
t29 -14l21 -22q2 -1 4 -3l3 -3q10 -4 17.5 -10.5t15.5 -12.5q9 -17 18.5 -34.5t22.5 -34.5q4 -4 7 -8t7 -9q11 -10 15 -24q2 -9 5 -17t5 -17q5 -15 6 -31q1 -3 1 -6.5v-5.5zM376 328q-1 2 -2 5t-3 5q-8 7 -19 9.5t-21 9.5h-6q-9 -10 -21.5 -17.5t-22.5 -17.5
q-11 -16 -11 -32t8 -32q15 -11 36 -19l16 2t14 4q11 11 15.5 24t10.5 25q1 2 1.5 3.5t1.5 2.5z" />
    <glyph glyph-name="A" unicode="A" horiz-adv-x="684" 
d="M642 43q2 -5 -3 -14q-8 -1 -16.5 0.5t-16.5 3.5q-13 -5 -17.5 -7t-8.5 -1.5t-16 0.5q-3 -1 -5.5 -3t-6.5 -4l-0.5 -0.5t-1.5 -0.5q-10 0 -20 -0.5t-19 -0.5q-6 6 -7.5 9t-4.5 14q-2 6 -9 14q-10 11 -20.5 30t-16.5 32l-5 5q-4 0 -6 -2q-16 -10 -30 -3q-9 2 -17.5 2h-17.5
q-7 1 -14 0t-15 -1q-6 0 -12.5 0.5t-12.5 0.5q-8 -1 -16.5 -3t-16.5 -6q-7 -4 -14.5 -5t-15.5 -2q-11 0 -21.5 -2.5t-21.5 -5.5q-3 -1 -6.5 -2.5t-5.5 -5.5q0 -5 -0.5 -10.5t-0.5 -11.5q-3 -9 -4 -19q-4 -14 -12.5 -24t-17.5 -20q-4 0 -7.5 0.5t-7.5 0.5q-3 0 -6.5 -0.5
t-7.5 -1.5q-11 -1 -23 3q-1 1 -1.5 0.5t-2.5 -0.5h-5l-2 1q-1 2 -2.5 1.5t-6.5 0.5q-6 2 -11 2h-7t-8 1q-2 1 -6 1.5t-9 2.5q-3 1 -4.5 0.5t-4.5 0.5l-3 1h-2l-2 1q2 14 4.5 27.5t9.5 26.5q2 4 3 7t1 7l3 17q3 5 6 11t6 10q2 6 0.5 12t2.5 11q3 5 3.5 10t4.5 8q4 8 7.5 15.5
t5.5 15.5q1 1 1 4q3 21 17 36q-1 4 -1 7.5v5.5q2 6 7 11l9 9q5 6 9 12t5 13q4 15 11 28t17 25q6 8 10.5 17.5t9.5 19.5q4 8 7.5 17t4.5 18q8 10 11 15.5t5.5 13t6.5 23.5q2 2 5.5 3.5t4.5 5.5q0 4 5 6q8 5 11 14q3 8 8.5 14.5t10.5 12.5q5 5 6 10q5 14 13.5 25.5t14.5 23.5
q5 4 9 4.5t8 0.5h3q10 -4 21 -6q7 -1 13 -1h10h6t6 -1q13 -4 27 -4t27 -1q17 -12 29 -23t19 -38q1 -1 3 -2t3 -3l4 -2t4 -3q2 -4 3.5 -8.5t3.5 -9.5q2 -4 5 -8.5t7 -9.5q2 -10 6.5 -20t3.5 -23l7 -10q0 -5 0.5 -10.5t0.5 -11.5q5 -3 5.5 -8t1.5 -11q3 -4 6 -8.5t6 -8.5
q2 -7 4 -13.5t3 -12.5q-1 -4 -1.5 -8t-1.5 -8q2 -10 7.5 -17.5t10.5 -15.5q5 -19 9.5 -38.5t6.5 -39.5q11 -14 13.5 -30t6.5 -33q2 -7 2 -13.5t1 -13.5q2 -6 9 -15.5t11 -14.5q0 -10 1 -20.5t5 -20.5zM401 254q-1 7 -5 12.5t-2 12.5q-4 7 -4 17t2 11q-1 2 -1 6q-4 5 -7.5 9
t-6.5 9q0 -1 -4 3q-5 1 -8 6q-1 3 -2.5 6t-4.5 4q-4 0 -6 -2.5t-6 -4.5q-4 -1 -7.5 -2t-7.5 -2q-7 -6 -9 -16v-12q-4 -7 -8.5 -12t-6.5 -11q-3 -14 -9 -25q0 -7 -3 -12.5t-5 -11.5q-1 -1 -1 -6q0 -6 7 -6q4 0 8 0.5t8 0.5l5 -2.5l5 -2.5q15 2 28.5 6t26.5 9q6 5 13 7t11 9z
" />
    <glyph glyph-name="B" unicode="B" horiz-adv-x="543" 
d="M503 136q0 -5 -1 -9.5t-1 -9.5q-5 -11 -8.5 -21.5t-0.5 -24.5q-3 -16 -9.5 -31t-20.5 -27q-5 -3 -10 -5t-10 -5q-4 -3 -9 -4.5t-10 -4.5q-11 -7 -23 -11.5t-23 -11.5q-1 0 -2.5 -1t-3.5 0q-8 1 -16 -2.5t-19 -3.5h-7.5t-9.5 1q-20 0 -29 -9q-16 -3 -29 1l-26 8
q-9 -1 -21 -3q-14 2 -25.5 4.5t-24.5 4.5q-1 0 -3.5 -0.5t-5.5 -1.5q-8 2 -17.5 4.5t-19.5 4.5q-3 3 -6 5.5t-5 4.5q-2 -1 -6 -1q-9 -3 -17 -7q-5 -2 -10 5q-10 15 -10 31v19q3 8 5 13t5 9q-2 9 -7 14.5t-8 11.5q-1 5 -1 10.5t-2 9.5q-6 28 3 56q-4 10 -6 20q-3 11 -5 21.5
t-2 20.5v22.5t-5 22.5q-2 7 0 13q2 7 2.5 13t-0.5 12q-1 3 -1.5 6t-0.5 5q2 10 3.5 18.5t2.5 17.5q2 9 1 18t1 19q3 5 3.5 10.5t0.5 12.5q1 5 0.5 10t-0.5 10v22.5t-1 22.5q0 21 -3 45q2 5 3.5 10t-0.5 11q-1 9 -2 19t2 20q1 5 0 9t-3 8q6 6 8 9q3 5 4 12q5 2 9 3l8 2
q5 -1 9.5 -1.5t10.5 -1.5q11 2 23 4.5t25 5.5q9 -1 19.5 -2t20.5 -6q6 1 12 1.5t12 1.5q10 1 19.5 0.5t18.5 -5.5q20 -8 44 -10q6 -2 13 -2.5t15 -0.5l17 -10q10 -1 19.5 -3t19.5 0q8 -1 14.5 -6t15.5 -6q9 0 22 -5q7 -6 14 -17q2 -2 3.5 -4.5t4.5 -4.5q18 -11 28 -28.5
t14 -37.5q2 -7 2 -15.5v-17.5q0 -5 0.5 -11.5t1.5 -11.5q2 -13 -1 -25.5t-7 -25.5q-4 -9 -9.5 -18t-12.5 -17q-2 -1 -4 -2.5t-4 -2.5q-6 -2 -7 -4q-6 -10 -16 -16.5t-18 -14.5q0 -2 -1 -4t-1 -4q-2 -6 4 -11q2 -1 5.5 -1.5t6.5 -1.5q3 -3 5.5 -6t6.5 -7q2 -2 5 -4.5t6 -4.5
q3 -6 5.5 -12t5.5 -13q2 -3 2.5 -6t1.5 -5q11 -13 16.5 -29t12.5 -31q2 -3 2 -6.5t1 -6.5q2 -4 2 -8v-7zM344 394q5 13 0 23q-5 14 -13 33q-4 5 -8.5 10t-9.5 10q-19 5 -38 9.5t-39 3.5q-11 0 -15 1t-16 7q-6 -1 -10 -9q-1 -13 -2.5 -28t-3.5 -30q-1 -3 -0.5 -6.5t0.5 -8.5
q0 -7 0.5 -14.5t0.5 -15.5q2 -3 4 -7t5 -7q0 -2 5 -4q9 5 12.5 5.5t14.5 -0.5q8 -5 15 -11q7 0 14 -0.5t14 -0.5t13.5 1t13.5 -2q8 5 17 10.5t19 13.5q2 5 4 9t3 8zM376 153v23q-4 10 -9.5 18t-12.5 15q-6 3 -11 5t-9 4q-15 8 -30.5 10.5t-30.5 2.5q-13 0 -25 -0.5t-24 -0.5
q-9 -4 -18 -12q-6 -3 -7 -10q1 -5 2.5 -11.5t2.5 -13.5q0 -6 -0.5 -12.5t2.5 -14.5q1 -2 0 -5.5t-2 -5.5q-1 -1 -2 -3.5t-2 -4.5q2 -3 5 -3t3 -5q-1 -4 -3.5 -8t-2.5 -8v-4q2 -1 3 -2t2 -1q28 -15 55 -7q10 2 14 2q7 -1 12.5 -2t11.5 -2q8 3 16 6.5t12 10.5q2 2 8 4
q27 11 40 35z" />
    <glyph glyph-name="C" unicode="C" horiz-adv-x="601" 
d="M559 505q-1 -6 -3 -12l-4 -12q-1 -4 -1 -12q-3 -3 -5.5 -6.5t-6.5 -8.5q0 -4 -2 -12l-8 -6t-9 -6q-1 -4 -3 -7.5t-4 -8.5q-11 -10 -19.5 -22t-19.5 -23q-6 -2 -12 4t-12.5 11.5t-14.5 9.5q-3 2 -4 3l-3 3q-4 0 -8.5 2t-8.5 3q-5 1 -9 4l-8 6l-11 12q-10 -2 -18.5 2
t-18.5 8q-7 -1 -14 -1t-15 -1q-7 -4 -14 -9l-14 -10q-9 -7 -17.5 -12.5t-19.5 -7.5q-1 0 -3 -1.5t-4 -2.5q-4 -4 -8.5 -10t-8.5 -11q-5 -15 -8 -27q1 -4 1.5 -7t1.5 -6q0 -6 -6 -11q-3 -4 -6.5 -6.5t-5.5 -8.5l7 -11q1 -4 -2.5 -8t-5.5 -9q0 -1 -1 -1t-1 -1q2 -7 3.5 -15.5
t2.5 -16.5q10 -8 17.5 -17t14.5 -19q5 -6 10.5 -11t10.5 -10q10 -5 20.5 -9.5t20.5 -6.5q8 -1 14.5 -4.5t15.5 -6.5q9 0 20 -0.5t22 -0.5q7 0 9 1q11 3 21 3.5t20 3.5q11 2 21.5 3t20.5 2q2 0 5.5 2t6.5 0q4 -4 6 -8t5 -9q-1 -3 -1 -7.5v-9.5q22 -37 33 -85
q-15 -11 -29.5 -22.5t-30.5 -24.5q-7 -3 -15.5 -3.5t-13.5 -8.5q-4 2 -7.5 3t-5.5 2q-4 -1 -5 -4t-3 -5q-6 3 -11 6q-1 -1 -4.5 -2t-5.5 -2q-10 -2 -19 -4.5t-19 -2.5q-7 0 -16 -0.5t-17 -1.5q-2 0 -5 0.5t-7 1.5q-13 4 -17 6t-17 10q-8 1 -11.5 -5.5t-8.5 -6.5h-12l-16 6
t-17 4q-7 1 -12.5 3.5t-12.5 4.5q-7 6 -14.5 12.5t-15.5 10.5q-7 3 -13.5 8.5t-11.5 11.5q-4 6 -9 9.5t-9 8.5q-7 11 -17 20q-5 5 -8.5 10.5t-8.5 10.5q-3 14 -5.5 28t-4.5 29q-2 2 -4.5 6.5t-6.5 8.5q-1 8 -3 17.5t-7 17.5q1 4 3 10v5q-8 22 -5 42q2 14 3.5 29.5t2.5 30.5
q3 2 5.5 4t5.5 4q-12 19 0 42q-5 10 -5 16v6q4 4 7 8t7 8q8 7 14 17q3 5 5.5 11t1.5 11q8 5 16.5 7.5t13.5 8.5q1 1 2 4q0 3 -0.5 7t-0.5 9q3 4 5 11q7 4 12 6t10 5q2 2 3.5 4t2.5 4q10 16 25 23q6 2 12 5t11 5q3 2 5.5 4.5t5.5 4.5q7 2 15 5q7 3 14.5 6t15.5 4q7 2 13.5 5
t12.5 4q5 2 8.5 -0.5t7.5 -4.5h21q5 2 7 5.5t6 4.5q14 3 21 4t18 0.5t33 -2.5q5 -1 8.5 -4t8.5 -4q7 0 13.5 -1.5t13.5 -3.5q9 -7 19 -12.5t23 -6.5q6 -10 15.5 -16t19.5 -11q9 -5 17 -12t15 -15q0 -2 0.5 -4.5t-0.5 -4.5z" />
    <glyph glyph-name="D" unicode="D" horiz-adv-x="611" 
d="M570 319q2 -7 -1 -14t-1 -15q0 -4 -2 -8q0 -2 -1 -3.5t-1 -2.5q1 -16 0.5 -21.5t-5.5 -21.5q1 -4 1.5 -9.5t1.5 -11.5q-1 -7 -5 -18q-3 2 -5.5 3t-4.5 2q-6 2 -6 -5t2.5 -12.5t6.5 -10.5q-2 -8 -3.5 -17t-3.5 -19q-5 -9 -11 -18.5t-16 -14.5q-1 -5 -2 -8.5t-3 -8.5
q-9 -7 -18 -14.5t-15 -15.5q-5 -4 -9 -3t-8 0q-7 -5 -13.5 -10t-13.5 -10q-7 -4 -13 -9t-13 -10h-15q-5 -4 -9 -6.5t-9 -5.5q-3 0 -4.5 -0.5t-3.5 0.5q-10 1 -14 -0.5t-16 -6.5q-9 -3 -18 -6.5t-18 -7.5q-11 5 -22.5 5h-23.5q-6 4 -12 7q-4 2 -6.5 3t-6.5 2h-5.5t-7.5 -2
q-2 -1 -5 -3t-5 -5q-19 3 -39 5.5t-40 6.5q-8 2 -15.5 4.5t-15.5 4.5l-12 -2t-13 -3q-16 -2 -23 14q0 2 -0.5 4t-0.5 3q2 11 4 21t3 19q0 2 4 6v4q-4 3 -7.5 6t-6.5 6l-1 90v1h7q-1 2 -3 3.5t-4 2.5l3 9t4 13q2 6 -0.5 10t-3.5 8q2 4 4 7.5t3 7.5q-1 5 -3 9l-4 8
q-1 5 0.5 10.5t1.5 9.5q2 5 1 10t-1 12q-3 11 -9 24q3 6 5 12l4 12l-3 14q2 8 4.5 16.5t3.5 15.5q-4 15 -3.5 29.5t0.5 29.5q0 8 5 18q2 2 2.5 4.5t1.5 3.5q-5 10 -6 15q0 6 2 12.5t-3 11.5q-3 11 -2 20.5t3 19.5q5 5 8.5 10.5t7.5 11.5q5 1 10.5 2.5t9.5 0.5q16 -3 34 5
q5 3 10.5 2t11.5 -3l38 6t37 8q5 2 10 1t12 -1l18 8q5 -1 10 -2.5t10 -3.5q6 1 12 3t13 3q4 -2 8 -5t8 -5q11 1 20.5 4t19.5 4q4 -4 6 -8.5t6 -7.5q4 -5 11.5 -4.5t10.5 6.5q2 5 6.5 4t9.5 -9q6 0 12 1t13 1q5 -3 8.5 -5.5t7.5 -6.5t8 -7.5t9 -6.5q6 -3 8 -9q4 -6 9.5 -11.5
l10.5 -10.5q8 -9 24 -14q2 -1 4.5 -2t3.5 -2q2 -8 4.5 -15.5t3.5 -15.5q-1 -9 -3 -15q2 -9 8 -14.5t11 -11.5q14 -22 14 -51q0 -10 1 -19.5t-1 -18.5q-1 -8 1.5 -16t0.5 -16zM422 338q-2 5 -5.5 10.5t-5.5 11.5q-3 6 -5 12.5t-4 13.5q-16 2 -27.5 10t-22.5 16h-15
q-10 8 -19 14.5t-19 13.5q-17 2 -33.5 0.5t-30.5 1.5q-9 -3 -15.5 -4.5t-12.5 -3.5q-6 -4 -8 -6q-3 -15 -2 -30l2 -30q4 -6 1.5 -11.5t-1.5 -10.5q1 -3 1.5 -6t1.5 -8q-2 -6 -2.5 -12.5t-1.5 -14.5q0 -16 -3 -30q3 -5 5 -9.5t4 -9.5q-3 -9 -6.5 -18.5t-5.5 -17.5
q0 -5 0.5 -10t-0.5 -10q-1 -12 -6 -24l4 -7q6 -15 24 -11q11 0 18 3q7 2 13.5 0.5t13.5 -0.5q8 2 17.5 5.5t17.5 6.5q5 1 9 2t8 0q9 -1 19 0l20 2q2 2 6 3.5t7 3.5q15 7 26 23q5 7 8.5 15.5t7.5 15.5q8 17 12 33.5t2 34.5q-1 4 -0.5 8t1.5 8l2 8t0 8z" />
    <glyph glyph-name="E" unicode="E" horiz-adv-x="486" 
d="M442 481q-6 -5 -14 -5h-15.5t-12.5 -3l-17 3q-4 -1 -7 -1.5t-8 -1.5q-3 0 -11 2q-12 2 -21 -1q-12 -4 -27 -3q-9 2 -18.5 -0.5t-17.5 -4.5q-4 1 -7.5 1.5t-5.5 1.5q-6 -1 -11.5 -4t-11.5 -7q-3 -4 -5.5 -9.5t-6.5 -10.5q-1 -12 -1 -24.5t-1 -23.5q-1 -8 -5.5 -12.5
t-4.5 -10.5q3 -8 11 -9q6 -2 13 -2.5t14 -1.5l16 6t15 6h19t16 1q3 0 6 0.5t6 1.5q14 6 28 6t28 -2q10 -3 13 -15q0 -2 0.5 -4.5t1.5 -5.5q-1 -3 -2 -7t-1 -9q1 -16 -0.5 -32t-0.5 -33q1 -7 -1.5 -14t-5.5 -12l-3 -2q-6 -1 -10.5 0.5t-9.5 1.5q-6 0 -10 -3t-9 -5
q-7 -1 -14.5 -1t-15.5 1q-4 2 -8.5 0t-8.5 -4q-9 1 -17.5 2.5t-16.5 5.5h-12t-13 -1q-13 -1 -27 0q-11 2 -20 -6q-2 -1 -4 -5.5t-1 -7.5q4 -8 4.5 -17t0.5 -17q1 -3 2 -5l2 -4q-1 -2 -2.5 -4t-2.5 -4q-4 -10 5 -12q12 -3 24.5 -6t25.5 -5q3 1 7 2t7 1q14 0 28.5 2.5
t28.5 2.5q3 0 7 0.5t8 -0.5q8 -3 17 -4t18 -1q6 0 11.5 -0.5t11.5 -1.5q8 -2 8 -8q-1 -5 -3.5 -10.5t-4.5 -9.5q-1 -7 2 -11t4 -8q-1 -10 -2.5 -19t-6.5 -16q0 -6 3 -9t4 -7q-2 -2 -3.5 -5.5t-3.5 -7.5q2 -8 3.5 -17t-4.5 -17q-3 -1 -6.5 -3.5t-7.5 -1.5q-10 2 -19.5 0
t-18.5 -3q-7 -1 -13 -4t-12 -5q-10 -2 -20 -3t-21 -3l-14 3q-9 -1 -21 -3l-27 6q-4 3 -7.5 6.5t-8.5 5.5q-1 1 -3.5 0.5t-2.5 -1.5q0 -10 -11 -13q-5 2 -11 3t-11 2t-11 0.5t-11 -0.5q-12 0 -23.5 3t-23.5 13q-1 3 -3 6t-4 7q-4 2 -7.5 5t-7.5 5l-11 6q-4 6 -4 11.5t-1 10.5
t-1.5 10.5t-1.5 11.5q2 12 2.5 24t-0.5 25q-1 11 0.5 22.5t5.5 22.5q-1 4 -2.5 7t-1.5 7q0 5 2 10t0 10q0 2 1.5 3t2.5 2q3 7 -2 8q-10 3 -10 10q2 6 1 12t-1 13q0 5 1 10t-1 10q0 1 -0.5 3t0.5 3q5 11 3.5 21t-4.5 20q4 9 5 17.5t1 17.5v27q1 3 1 6.5t1 5.5q8 22 -1 46
q-1 2 -1 6q2 6 4.5 11.5t3.5 11.5q2 8 4.5 17t3.5 17v7q-1 5 -0.5 10.5t-0.5 10.5t-0.5 10t0.5 9t-0.5 6.5t-1.5 5.5q2 7 8 11t7 10q12 8 24.5 10.5t23.5 8.5t23 7t23 5q7 -2 13.5 -4t13.5 -4q4 0 8.5 0.5t8.5 1.5q7 -1 13 -3t13 -1q11 3 21 0q5 0 9 -0.5t8 -1.5q15 11 32 6
q8 -3 16 -2t16 -2q8 -2 15.5 -1.5t14.5 0.5q9 2 18 0q8 -2 17.5 -3t17.5 -1q5 0 14 -7q14 -55 5 -108z" />
    <glyph glyph-name="F" unicode="F" horiz-adv-x="520" 
d="M480 492q0 -8 -7 -10q-12 -1 -22.5 -7.5t-21.5 -9.5q-13 1 -25 -1t-26 1q-2 -2 -5 -4l-6 -4q-4 0 -9 -1t-10 -1h-25q-8 0 -16 -0.5t-16 0.5q-9 0 -16 -3.5t-15 -3.5q-4 0 -7 -0.5t-6 -1.5q-7 2 -13.5 3.5t-13.5 -5.5q-5 -17 -8.5 -35t-5.5 -35q-3 -18 0 -34q1 -2 1.5 -4
t1.5 -4h30q7 -3 14.5 -7t15.5 -9q2 -1 5.5 -1.5t7.5 -1.5q3 -1 7 -2t8 -3q7 0 13 4t13 5h5q5 0 9.5 -1t8.5 0q13 3 26 0.5t25 -2.5q8 0 15.5 -3t14.5 -7q4 -34 3.5 -68.5t-1.5 -68.5q0 -4 -3 -5t-6 0q-2 1 -4.5 2t-6.5 2h-58q-9 1 -16.5 0t-15.5 0t-16 1.5t-17 1.5
q-7 1 -15 1t-17 1q-5 0 -10.5 2t-10.5 3q-7 -1 -10.5 -5t-8.5 -8q-1 -2 -2.5 -5.5t-3.5 -6.5q1 -3 1 -7q5 -6 6.5 -13.5t1.5 -15.5q0 -12 1.5 -24t-0.5 -24q0 -10 0.5 -20t4.5 -19q1 -2 1 -7q-6 -14 -16 -27q-10 -7 -19.5 -9.5t-20.5 -7.5q-4 1 -8.5 1h-9.5q-4 -1 -13 -7
h-34q-8 0 -16.5 -0.5t-18.5 -0.5t-14 9q-1 4 -1 9t-1 11q-3 5 -5 9.5t-4 8.5q-1 6 -1.5 12t-1.5 11q3 9 5.5 17t5.5 17q-4 23 -5 47.5t3 49.5q0 5 -1.5 11t1.5 13q6 11 0 21q-1 7 -1.5 14t1.5 14q2 3 2 7v8q1 5 -1 11t-1 12q2 5 2.5 10.5t0.5 11.5q0 7 1 14t3 13
q-1 7 -1.5 12.5t-1.5 11.5q5 11 5.5 22.5t0.5 23.5v16t1 15q1 8 1.5 15.5t0.5 14.5q0 2 -0.5 4.5t0.5 4.5q4 8 3.5 15.5t0.5 14.5q0 6 0.5 12.5t1.5 12.5q-1 5 -3 11t-3 10q1 5 2.5 10t1.5 10q1 12 16 16q18 6 38 9q7 0 11 4q4 2 9 2q6 -1 12.5 0t13.5 2q8 5 18 5q19 1 38 5
t38 5q10 1 19 1.5t19 -2.5q8 -1 16 -1.5t16 -0.5q4 0 8 0.5t8 0.5q14 1 21 0.5t14 -1.5t21 -4q7 -1 13.5 -1.5t12.5 -2.5q11 -5 24 -7q5 -1 8 -3.5t5 -4.5q4 -16 0 -31q3 -9 6 -21q0 -1 -0.5 -4.5t-0.5 -5.5q0 -5 1 -6q2 -4 4 -8.5t3 -8.5q2 -3 2 -6v-6z" />
    <glyph glyph-name="G" unicode="G" horiz-adv-x="607" 
d="M562 210q-1 -4 -3.5 -12t-4.5 -17q-1 -4 -1.5 -7.5t-0.5 -6.5q-1 -5 -1 -9.5v-7.5q-7 -13 -13.5 -25.5t-9.5 -26.5q-4 -16 -13 -29.5t-17 -27.5q-4 -4 -7 -7.5t-6 -7.5q-11 -4 -21 -9.5t-18 -13.5q-1 -1 -3.5 -2t-4.5 -2q-11 -4 -22 -9l-22 -10l-27 4q-7 -1 -14 -3.5
t-13 -4.5q-7 1 -11 7q-3 2 -6 4.5t-8 0.5q-6 -1 -10 3t-9 6q-3 -1 -5.5 -1.5l-7.5 -1.5l-16 4q-9 0 -17 -3q-5 2 -10 5t-12 3t-13.5 2.5t-13.5 3.5q-6 1 -11.5 2t-10.5 2q-4 2 -6 5l-4 6q-4 2 -6 2q-3 3 -7 4.5t-9 2.5q-7 3 -12 7.5t-10 8.5q-7 8 -12.5 15.5t-13.5 14.5
l-5 10q-5 6 -8.5 10t-11.5 8h-12q-1 0 -2 2t0 3q1 4 2 8.5t2 8.5q0 5 -2.5 9t-4.5 9q-1 21 -6.5 40.5t-11.5 39.5v29q3 3 5.5 7t4.5 7q-1 5 -1.5 10t0.5 10q0 6 -1 12.5t-2 13.5q0 1 1 4.5t1 7.5q1 3 1.5 6.5t-0.5 7.5q-2 8 -1 15.5t2 16.5q2 7 4 13.5t1 13.5q0 6 2 8
q5 6 6 13t2 13q5 9 11.5 18.5t15.5 16.5l6 8t6 7q18 18 28 39q4 3 7.5 5t7.5 5q1 3 4 4q4 20 26 26q2 0 5.5 0.5t7.5 1.5q3 2 7.5 5.5t8.5 5.5q3 4 8 6.5t10 4.5q6 1 11 4.5t10 5.5q12 2 21 -1q20 -7 37 3q7 4 14.5 4.5t12.5 5.5q11 -4 21 -7l20 -4q10 -2 20 -5.5t19 -6.5
l20 -8t18 -9q4 -2 7.5 -2.5t6.5 -2.5q5 -2 9 -3.5t7 -3.5q3 -4 5.5 -8t6.5 -8q2 -2 5 -3.5t6 -3.5q7 -4 11.5 -9.5t4.5 -13.5q0 -4 3.5 -7t4.5 -8q-5 -10 -8 -19q-4 -13 -16 -20q-1 -1 -1.5 -2.5t-1.5 -3.5q2 -11 -3 -19t-12 -16v-7.5t-5 -4.5q-1 1 -5 -1.5t-5 -4.5
q-1 -4 -5.5 -5.5t-7.5 0.5q-5 6 -14 6l-1 1q-1 1 -2 2.5t-2 1.5q-6 2 -10 2q-15 0 -25 16q-1 2 -4 5q-13 5 -25 10.5t-26 7.5q-10 -1 -19 -0.5t-20 -3.5l-13 -13q-7 -3 -13.5 -4.5t-12.5 -3.5q-5 -4 -11 -5.5t-12 -6.5q-3 -2 -8 -10v-11q-6 -3 -11 -3q-2 -4 -2.5 -7.5
t-0.5 -7.5q0 -14 -4 -26q-1 -7 -2 -15t-3 -16q-1 -1 -0.5 -3.5t0.5 -4.5q2 -5 1 -6q-1 -7 -2 -14.5t1 -14.5t3 -14t2 -15q2 -4 2.5 -8t1.5 -9q4 -6 9 -11q-1 -4 -1 -8.5t-1 -9.5q1 -8 6 -14.5t8 -14.5q5 -4 11 -6.5t9 -8.5q8 -6 15.5 -12t14.5 -13q4 -1 7.5 -2t7.5 -3l22 4
t23 5q3 0 6 -0.5t7 -1.5q3 0 6.5 0.5t4.5 2.5q4 3 6.5 6.5t6.5 6.5q3 2 6 3.5t5 3.5q6 7 10 14l8 14q0 6 -1.5 12t-3.5 11q-2 9 -13 11q-8 2 -11 1q-14 -4 -27.5 -3t-26.5 -1q-4 3 -11 5q-3 4 -1 6q3 7 5 13t1 13q0 16 3 31t6 29q6 10 18 10q10 2 20 4.5t19 7.5q9 1 18 0.5
t17 -4.5q13 -1 25.5 -2.5t25.5 -0.5q2 -1 4.5 -2t3.5 -3q3 3 9 7q5 -2 10 -5t9 -5q2 -1 5.5 -1t6.5 -1q8 -4 15.5 -10t14.5 -8q9 -9 7.5 -17.5t-7.5 -15.5q0 -6 -0.5 -12t0.5 -12l2.5 -10t-0.5 -17z" />
    <glyph glyph-name="H" unicode="H" horiz-adv-x="652" 
d="M613 535q-1 -4 -1 -7v-6t0.5 -6.5t-0.5 -6.5q-1 -6 0 -11t-1 -10q-1 -2 -2 -3.5t-1 -3.5q2 -18 -2 -35t-7 -35l7 -21q-1 -6 -3.5 -12t-4.5 -13q1 -6 1.5 -12.5t1.5 -13.5q-2 -6 -3 -13t1 -14q4 -11 2.5 -22.5t-0.5 -22.5v-3t-1 -3q-3 -7 -3 -15.5t1 -16.5q2 -10 2.5 -19
t5.5 -18q1 -8 1 -17t1 -17q-2 -4 -5 -8.5t-5 -8.5q-1 -8 -1 -15.5t4 -15.5q1 -1 1.5 -8.5t1.5 -15t1 -8.5q8 -10 0 -21q-1 -2 -2.5 -4t-2.5 -5q2 -7 4 -13.5t3 -13.5q2 -9 -1 -13t-9 -9q-1 -1 -4 -1.5t-5 -2.5q-4 0 -6 -1q-4 -1 -7.5 -1.5t-8.5 -1.5l-11 7q-4 1 -11.5 -2.5
t-13.5 1.5q-1 3 -9 5.5t-7 -0.5v-1l-9 -3.5t-14 -6.5q-8 1 -19.5 8t-16.5 7q-4 5 -4.5 9t-0.5 9q1 5 2 9.5t2 9.5q5 10 0 24q-2 7 -4.5 13.5t-3.5 13.5q-1 3 -1 11t-2 10q-1 7 -0.5 14t-3.5 14q-3 10 1 21q2 4 2.5 7.5t1.5 5.5q2 12 -2 18q-10 17 -21 25q-7 1 -15 2t-16 1
q-1 0 -4 0.5t-7 1.5q-15 3 -28.5 0t-30.5 -4q-11 0 -21 8q-1 -1 -4 -2.5t-5 -3.5q-10 6 -23 9q-6 2 -12.5 2.5t-14.5 1.5q-8 -2 -10 -14v-9q2 -13 1 -26t-6 -25v-5t-1 -5q3 -4 5 -8.5t4 -8.5q-3 -10 -9 -21q1 -7 1.5 -14t1.5 -14q1 -2 2 -4.5t2 -4.5q11 -17 -3 -32
q-1 -1 -1 -2t-2 -3v-9t-1 -11q0 -4 -3 -10q0 -1 -1.5 -2t-3.5 -3q-14 -5 -25 -8q-16 -2 -26.5 0.5t-26.5 8.5q-11 -2 -22.5 -2.5t-24.5 3.5q-5 2 -11.5 6t-13.5 8q-7 3 -13.5 6t-12.5 5q-3 9 -1 16q2 6 3.5 13t3.5 13q5 13 5 25q-4 5 1 13q4 8 2.5 17t-0.5 17q-4 14 -2 28.5
t4 27.5q1 8 3 14t0 12q2 8 7 12.5t5 10.5q1 8 -1.5 13.5t-3.5 12.5q0 3 0.5 7.5t0.5 8.5v9t1 7q2 8 -0.5 16t-1.5 17q0 2 -1 4t-2 5q-1 8 0 17t1 17q0 9 -1 17t0 15q0 2 0.5 2.5t0.5 1.5q2 1 4.5 0t3.5 0q5 11 2 21.5t-4 20.5q3 5 3 12.5t-3 8.5q0 7 -0.5 14t-1.5 14
q-1 8 -3 15t-1 15l4 12t6 12q4 1 9.5 2t10.5 4q5 2 8 5t7 4q8 1 14.5 -2t12.5 -4q14 -1 22 2t20 12q5 -3 10.5 -6t9.5 -6q5 -2 8.5 -4t7.5 -4q8 -5 8 -15q1 -7 1 -13t1 -12q0 -8 0.5 -16t3.5 -16q1 -4 1 -8t1 -8q1 -13 0.5 -35.5t-5.5 -34.5q-1 -3 -1 -7q5 -7 11.5 -5
t12.5 2q11 -5 17 -11t17 -12q11 5 20.5 4.5t21.5 3.5h47q26 0 51 6q5 2 9.5 2.5t8.5 1.5l4 2t3 2q2 7 -1 22.5t-3 21.5q-1 5 -2.5 11t-1.5 11q2 11 0.5 21t-1.5 20q0 5 -0.5 11t-1.5 11q-6 21 -1 45q16 14 41 17q11 3 21.5 0.5t20.5 -4.5q5 2 11 4.5t14 6.5h15.5t16.5 1
q8 0 12 1.5t13 2.5q1 -1 4.5 -8t3.5 -11q-1 -1 1.5 -10.5t1.5 -16.5q0 -6 1 -11.5t1 -10.5z" />
    <glyph glyph-name="I" unicode="I" horiz-adv-x="422" 
d="M378 544q3 -7 3.5 -15t-4.5 -16q-2 -4 -1.5 -7.5t0.5 -8.5q-2 -3 -5 -5.5t-5 -6.5q-2 -2 -3.5 -5t-5.5 -5q-5 1 -12 1h-13q-15 0 -27 -8q-4 -4 -8 -5.5t-8 -3.5q-6 -6 -4 -12v-19q1 -9 2.5 -17.5t0.5 -18.5q-1 -2 0 -5.5t2 -5.5q-1 -4 -2.5 -6.5t-2.5 -6.5q1 -4 2 -7.5
t2 -7.5q0 -5 -1 -7q-2 -6 -3.5 -12t-3.5 -12q-3 -7 -1 -13t-1 -12q0 -21 -2 -41t-3 -40q0 -26 9 -53q4 -9 13 -9q2 1 4.5 3t5.5 3q3 0 5 -2q8 -9 18 -12q16 -4 9 -16q-3 -7 -2.5 -15t-0.5 -16q-2 -22 -2 -44.5t3 -45.5q0 -11 -1.5 -14.5t-12.5 -11.5h-3q-8 1 -15.5 2
t-14.5 2q-19 -3 -34 -3q-7 -1 -13.5 -3.5t-14.5 -1.5q-8 2 -16 0t-16 -2q-4 2 -7.5 3t-8.5 3q-24 -4 -48 -5t-49 -2q-5 7 -10 12.5t-9 11.5q-2 7 -7.5 12t-10.5 9q-1 10 -4 19q-2 8 0 16q3 5 2 10q-2 9 -0.5 18.5t3.5 18.5v12q8 2 16 3.5t16 -0.5q4 2 7 4.5t7 5.5l10 -4
t11 -4q10 6 23 16q2 6 2 9v22.5t1 22.5v3q-4 10 -3 19t0 19v13q2 23 1.5 45.5t-1.5 45.5l7 13l-2 10l-2 10q1 5 2.5 9t2.5 9q0 4 -1 6q-5 12 -4 22v15q0 4 -2 6.5t-2 6.5q1 2 1 9l-2 12t-3 12q-5 5 -11 3.5t-11 -0.5q-5 2 -11 2h-13q-7 4 -15.5 3.5t-16.5 2.5q-4 5 -3.5 12
t-2.5 10q-2 4 0 10.5t0 11.5q4 5 1 7t0 8q3 5 3 11.5t4 10.5q2 2 1.5 6.5t0.5 8.5q2 2 9 2.5t8 2.5q4 5 9.5 7t11.5 5q2 0 5 0.5t7 0.5h17t17 1q8 2 16 3.5t17 2.5q9 2 18 -1q13 -4 32 1q4 1 7 2t5 2q7 -1 12.5 -2t9.5 -1q3 0 6.5 1t5.5 1q10 0 18.5 -0.5t17.5 -2.5
q19 -3 34 -2q5 1 8.5 0.5t4.5 -0.5q7 -1 10.5 -4.5l5.5 -5.5q16 -16 7 -33q-1 -1 -1 -7q1 -2 1.5 -4.5t1.5 -6.5z" />
    <glyph glyph-name="J" unicode="J" horiz-adv-x="553" 
d="M513 469q0 -7 -0.5 -15.5t-0.5 -16.5q0 -10 -3 -18q-1 -5 -3.5 -11t-2.5 -11q0 -8 -1 -15.5t-1 -15.5q0 -14 -0.5 -27.5t-0.5 -27.5q-1 -7 -1 -14.5t-1 -17.5q-3 -4 -6.5 -9t-7.5 -10q-2 -7 -0.5 -11.5t1.5 -8.5q-1 -8 -2 -15t-3 -15q-2 -7 -4 -13.5t-2 -13.5
q0 -4 -1.5 -6.5t-2.5 -6.5q-5 -15 -9.5 -30t-9.5 -31q-2 -3 -2.5 -7t-1.5 -9q-3 -4 -7 -8t-6 -9q-4 -4 -6 -9.5t-6 -10.5q-5 -9 -13 -18q-7 -11 -14 -23t-14 -23q-8 -3 -12.5 -9t-9.5 -11l-18 -8t-20 -9l-14 2t-15 2q-7 -3 -15.5 -6t-17.5 -7q-4 2 -7 5t-7 6q-7 2 -12.5 -1
t-12.5 -5q-6 0 -12 0.5t-14 0.5q-4 3 -8.5 7t-8.5 8q-8 11 -20.5 18.5t-25.5 14.5q-1 2 -3.5 3t-3.5 3q-6 8 -14.5 13t-15.5 12q-7 10 -12 20.5t-7 23.5q-2 7 -4.5 13t-4.5 13q-3 11 -9 17q-5 8 -3 15q1 5 -1.5 9t-4.5 8q1 2 2 4.5t1 6.5q6 4 2 10q-1 4 -4 6.5t-5 6.5
q-2 2 -2.5 4.5t-1.5 4.5l7 24q3 1 5.5 3t3.5 2q11 1 22 5t21 9q5 2 10.5 3.5t10.5 4.5q10 5 20.5 4t20.5 0q3 0 7 -4q2 -9 3 -17.5t5 -17.5q2 -7 4.5 -14.5t6.5 -15.5q5 -7 8 -14t5 -15q7 -7 14 -14.5t15 -14.5q1 -2 2.5 -1.5t4.5 -1.5q6 8 17 14q7 1 13.5 1.5t11.5 1.5
q20 6 24 21q2 6 7 12q2 2 2 6t1 8q2 2 4 5t5 6q0 5 0.5 10t1.5 9q3 3 5 6.5t4 5.5q2 3 2 7q2 11 2 22.5t4 21.5q2 2 2 5v5q-1 11 0 22.5t4 21.5q3 11 2 22.5t-2 23.5l-8 13q-1 5 1 10.5t-1 10.5q-3 8 -1 20l5 5t6 5q-1 5 -5 7t-5 11q0 3 1.5 9.5t-1.5 13.5q3 8 2 17t0 17
q2 10 1.5 20t-3.5 19q-1 5 -1 11t-1 11q5 5 8.5 10.5t7.5 10.5t6.5 11t4.5 12q2 1 4.5 2t3.5 1q10 2 19.5 4t17.5 8q5 2 10.5 3.5t11.5 3.5q7 -3 15 -5.5t15 -6.5q5 1 8.5 2.5t7.5 1.5q6 1 13 0q4 -4 8 -6q1 -3 1.5 -6t0.5 -6q1 -11 1.5 -21t4.5 -20q-1 -7 -4 -17
q3 -9 4.5 -18.5t5.5 -18.5v-2q1 -13 2 -25t0 -24z" />
    <glyph glyph-name="K" unicode="K" horiz-adv-x="626" 
d="M587 72q-1 -3 -0.5 -5.5t-1.5 -3.5q-12 -14 -24.5 -29t-24.5 -31l-9 -9q-5 -1 -10.5 -1t-11.5 -1q-4 -1 -8.5 -2.5t-8.5 -3.5q-9 3 -16 6.5t-12 10.5q-1 4 -6 7q-15 11 -30 22.5t-32 19.5l-8 4t-9 5q-5 2 -11 5t-14 6q-4 4 -9.5 8.5t-10.5 9.5q-9 10 -23 17q-6 2 -11 6.5
t-10 8.5q-13 7 -25 11q-8 10 -13 17q-8 5 -18 2q-1 -1 -2 -2.5t-1 -3.5q-3 -22 -6.5 -45.5t-7.5 -46.5q2 -2 3.5 -5t3.5 -6q2 -9 0.5 -18.5t0.5 -18.5q1 -9 0.5 -18t-0.5 -18q0 -10 -9 -10q-11 1 -21 -0.5t-21 -3.5q-16 -1 -32.5 -1.5t-31.5 -1.5q-10 0 -19 3t-18 7
q-12 4 -13 14q-1 8 -1.5 16.5t-2.5 15.5q-1 8 1 15t3 14q-2 8 -4.5 15t-2.5 16q2 4 1 7l-2 6q-4 8 -4.5 17t0.5 17q1 11 0 21t-5 18q1 9 2.5 16.5t1.5 14.5q0 6 2 12.5t1 13.5t-1.5 14t-0.5 14q0 26 -0.5 50.5t-0.5 49.5q2 17 -4 31q6 8 9.5 15.5t11.5 13.5q3 3 -6 6
q-1 0 -1.5 0.5t-1.5 0.5q-4 7 -2 14.5t0 14.5q-1 8 2.5 14t3.5 13q-1 5 -1.5 9t-1.5 8q1 3 1.5 7.5t1.5 8.5q-6 23 -6.5 46t-0.5 46q0 6 3 12q0 4 2 6.5t4 4.5q15 6 30 11.5t31 4.5q8 -1 17 2q11 5 22 4.5t22 -2.5q8 -2 15 -4.5t13 -8.5q8 -1 14.5 2.5t13.5 3.5q1 -1 2.5 -1
t1.5 -2q8 -13 8 -28q-1 -6 0.5 -12.5t3.5 -14.5q-2 -6 -3 -13.5t-3 -15.5q-1 -11 0 -23q1 -8 1 -17v-17q0 -3 -1 -5.5t-1 -4.5q-5 -11 -6 -18v-11.5t1 -11.5q0 -1 -1 -4t0 -5q2 -10 2 -20.5t1 -21.5q0 -7 6 -10q6 1 11 5t12 4q11 9 21 15q4 2 7.5 3t7.5 2q6 3 8.5 9.5
t6.5 10.5q22 16 39 34q5 5 11.5 10.5t12.5 9.5q2 2 4 3.5t3 2.5q13 17 31 28t32 23q11 2 21 4.5t19 3.5q17 -2 21 -13q2 -4 4.5 -7t4.5 -7q11 -11 22 -23l22 -24q3 -3 5.5 -7t4.5 -8t0.5 -7t-3.5 -5l-12.5 -12.5t-15.5 -9.5q-2 -1 -4 -2.5t-4 -2.5q-5 -4 -8.5 -8.5
t-2.5 -11.5q-3 -4 -6 -6l-24 -21l-2 -2q-15 -7 -27.5 -16.5t-26.5 -17.5q-15 -7 -27.5 -17t-21.5 -24q-2 -5 -7 -8t-7 -9q0 -5 2 -6t5 -3l6 -4q9 -4 16 -10.5t13 -14.5q7 -10 16.5 -18.5t20.5 -16.5q3 -2 7 -5.5t8 -6.5q7 -10 16.5 -17t18.5 -14q6 -4 12.5 -9t13.5 -10
q5 -7 9 -16t15 -11q6 -11 11 -21t18 -12z" />
    <glyph glyph-name="L" unicode="L" horiz-adv-x="444" 
d="M404 132q1 -7 -0.5 -15.5t-1.5 -16.5q0 -7 -1 -15t-3 -16q-3 -7 -2 -14.5t0 -15.5l-4.5 -9t-5.5 -10q-1 -4 -3 -8.5t-4 -9.5q-7 -3 -13.5 -6.5t-12.5 -5.5q-13 -3 -27.5 -1t-28.5 -2q-2 -1 -4.5 -2t-6.5 -3q-4 -1 -9.5 -2t-10.5 -2h-7.5t-5.5 1q-6 3 -11.5 3t-10.5 -2
q-4 0 -8 1t-9 2q-5 -5 -13 -8t-17 -1.5t-16 -3.5q-6 3 -10.5 5t-9.5 3q-7 1 -13.5 -1t-14.5 -1q-8 2 -15.5 0t-15.5 -2q-8 1 -15 0.5t-13 -2.5q-1 3 -3 4.5t-2 2.5q-7 31 -7 67q2 10 1 19.5t-1 20.5q-7 20 -8.5 40t-0.5 41q1 20 2 41t2 43q0 8 1 17t3 17q4 10 5 20.5t1 21.5
v18.5t-1 19.5v9t-1 10q-2 8 -3 16t-1 15q1 5 0.5 10t-1.5 10q-1 4 0 9t0 9q-1 7 -1 13t2 12q1 6 -1 13q-1 8 -1.5 16.5t1.5 15.5q3 12 4 24.5t2 22.5q2 8 6.5 12.5t3.5 10.5t5 8.5t1 9.5q7 0 8 -1q19 -8 33 -2l12 -2t11 -1q5 -1 11 0t11 2q12 3 23.5 5.5t23.5 2.5q11 2 20 0
q3 0 9 -4q-1 -4 -1.5 -8t-1.5 -8q1 -5 2.5 -10.5t1.5 -11.5q1 -5 3.5 -10.5t4.5 -11.5q-3 -6 -6 -13.5t-6 -14.5q2 -4 3 -7.5t2 -7.5q-4 -18 -7.5 -36t-4.5 -37q-1 -5 -2.5 -10.5t-3.5 -12.5q2 -4 4 -8.5t3 -9.5l-4 -20v-8.5t-2 -7.5q-3 -7 -3.5 -14t-2.5 -15
q0 -13 -1 -26.5t0 -27.5q0 -9 -2.5 -16.5t-4.5 -17.5q2 -4 3 -8t2 -9q-1 -5 -2.5 -10.5t-3.5 -11.5l6 -14t6 -15q2 -4 3 -7.5t2 -7.5q3 -8 6.5 -10t10.5 -1q14 4 29 6t30 5q3 1 10 1q9 0 18.5 2t17.5 7q18 11 37 8q5 -1 10 0t10 -1q1 -1 2 -3.5t1 -4.5q3 -9 3.5 -17.5
t0.5 -17.5z" />
    <glyph glyph-name="M" unicode="M" horiz-adv-x="788" 
d="M746 118q1 -16 1.5 -31.5t-3.5 -31.5q-1 -5 -1.5 -10t-0.5 -10q0 -8 -4 -12t-9 -7l-6 -2t-7 -1q-8 1 -15 -2.5t-13 -7.5q-4 0 -8 1t-7 -1q-16 -3 -31 -9q-14 -3 -26 -2q-1 1 -2 1.5l-3 1.5q-4 5 -4 12t-2 13q-3 14 -4.5 27.5t-2.5 27.5q0 8 -1 15.5t-2 16.5q1 7 2 14.5
t-2 15.5q1 13 -3 24.5t-3 23.5q-1 7 -3.5 14t-4.5 14q1 17 0 34.5t-6 33.5q1 7 2.5 13t2.5 12q0 6 -5 13l-14 2t-10 8q-4 -1 -7 -2t-5 -3q-8 -7 -15 -15t-10 -20q-1 -7 -4 -13.5t-6 -12.5q-6 -9 -11.5 -18.5t-10.5 -19.5q-3 -7 -4 -15t-4 -16q-5 -10 -8.5 -20.5t-7.5 -21.5
q-4 -10 -9.5 -20t-10.5 -19q-7 -13 -13.5 -24.5t-11.5 -25.5q-1 -4 -5 -6.5t-8 -1.5q-11 4 -22.5 2.5t-22.5 2.5q-1 1 -3 0.5t-4 -0.5q-7 -3 -14 -1t-14 3t-9 9q-5 20 -14 38t-11 38q-4 5 -7.5 11t-7.5 10q-3 14 -6 28.5t-6 28.5q-4 5 -7 9.5t-8 9.5q-1 7 -2.5 14.5
t-3.5 15.5q-5 14 -13 24q-6 2 -8 -5q-1 -2 -1 -5v-5q-3 -4 -6.5 -7.5t-5.5 -7.5q-2 -32 -5 -62.5t-8 -60.5q2 -12 -0.5 -24t-1.5 -26q1 -9 -0.5 -18.5t-1.5 -19.5q-1 -12 -2.5 -22t-5.5 -21q-3 -7 -10 -8q-4 -1 -7 -2t-6 -3q-7 -3 -15.5 -7t-16.5 -9q-22 -1 -32.5 -1t-16 1
t-15.5 3q-3 3 -4 6.5t-2 6.5q0 18 -7 35q-5 13 -6 26.5t0 28.5q2 7 4 17q2 11 2 21.5t-2 20.5q-1 8 -1 15.5t-1 15.5q0 2 0.5 4.5t1.5 5.5q3 11 0 21q-2 6 -1 10q2 6 1 12t-2 11q3 5 6 7.5t5 6.5q2 3 1.5 6.5t-1.5 7.5q-2 8 -6 12q-1 6 -1.5 12t1.5 12q6 10 5 20q0 5 0.5 9
t1.5 8t1.5 7t-0.5 7q-2 11 -1 21.5t-1 20.5q-1 8 1.5 15.5t4.5 14.5q0 10 -3 19q0 3 2 6q2 4 3.5 8t1.5 8q2 7 3.5 13.5t1.5 13.5q2 9 1.5 17.5t-2.5 16.5q2 8 6.5 11t11.5 5q5 -1 10.5 -2t10.5 -2q7 2 14.5 4.5t14.5 3.5q6 -1 12.5 -1.5t11.5 -1.5q2 0 2.5 0.5t1.5 0.5
q4 4 7.5 7t6.5 6q11 2 20.5 3t18.5 2q5 2 10 0.5t10 -1.5q6 0 10 6q5 -2 6 -5q16 -21 29.5 -43.5t18.5 -50.5q3 -12 8 -23.5t12 -23.5q5 -9 16 -18q0 -8 0.5 -16t0.5 -17l6 -8t6 -9q4 -7 8.5 -14t9.5 -15q2 -2 5.5 -2t4.5 4q4 9 7.5 18t6.5 17q4 7 8.5 13.5t12.5 8.5
q9 3 12 15q5 13 11.5 23.5t15.5 20.5q8 11 15 23t15 23q2 4 5 8t7 7q16 11 20 27q1 4 2.5 7t2.5 6q8 11 17 21.5t16 20.5q13 9 27 9t27 1q12 -4 23.5 -8.5t24.5 -9.5q8 2 16.5 3.5t18.5 -0.5q12 -5 15 -16q5 -10 8.5 -20t3.5 -21q0 -4 2 -7q2 -6 4.5 -12.5t2.5 -13.5
q0 -13 1.5 -26t1.5 -26v-23.5t1 -22.5q0 -4 0.5 -8.5t0.5 -9.5q-1 -7 -2 -15t-3 -17q1 -9 1.5 -19.5t-0.5 -21.5q-2 -7 -1.5 -16.5t-1.5 -17.5q-1 -10 0 -21q4 -11 5 -22.5t2 -22.5l2 -12t-2 -12v-7q5 -18 6 -40q2 -4 4.5 -9.5t5.5 -10.5z" />
    <glyph glyph-name="N" unicode="N" horiz-adv-x="665" 
d="M623 542q-4 -11 -3 -22l2 -22v-5q-1 -5 -3 -11l-4 -12q3 -17 3 -33.5v-32.5q0 -8 -0.5 -15.5t0.5 -14.5q0 -7 1 -14t2 -15q-2 -10 -3.5 -22.5t-6.5 -24.5q0 -12 -3.5 -24t-0.5 -24q-1 -10 -1.5 -20t-1.5 -21q-1 -9 -1.5 -18t1.5 -18q0 -9 -3 -20q-5 -12 -2 -22
q-1 -19 -2.5 -39t-8.5 -39q-1 -4 -1 -10q0 -5 1 -7l-7 -7q-8 -1 -15.5 -2t-15.5 -2q-3 -1 -6.5 -3.5t-9.5 -6.5q-14 -4 -28 -6.5t-28 -5.5q-7 2 -12.5 2t-10.5 1q-4 1 -8.5 1.5t-9.5 1.5q-2 -1 -5 -2t-5 -2l-10 9q-4 8 -3.5 15t-0.5 14q-4 6 -10 8t-11 6q-7 8 -11 17t-12 16
q-7 6 -11.5 14t-11.5 14q-5 11 -11 21t-11 20q-5 9 -11 16q-6 5 -11.5 11.5t-11.5 12.5q-1 7 -5 12t-8 11q-8 14 -19 26t-20 26q-2 -1 -4 -1t-3 -2q-6 -9 -6 -23q0 -3 1 -6t-1 -6q-2 -2 -5 -4l-6 -4q-4 -10 -3 -21t-1 -22q-1 -10 -1 -21v-21l-10 -18q-4 -14 -2 -28t7 -28
q-3 -7 -5 -16q-1 -7 -2 -14.5t0 -15.5q1 -20 -20 -28q-2 0 -6 -1q-9 5 -20 6.5t-22 6.5q-10 5 -20 5.5t-19 0.5q-5 2 -10.5 5.5t-10.5 4.5q-5 2 -10 3t-10 3q-1 2 -1.5 5t-1.5 4q-1 17 -0.5 32.5t-0.5 30.5q0 11 0.5 22t0.5 22v10q-1 5 -4 10.5t-2 11.5t1 12v11q2 6 0.5 12
t-1.5 11q2 10 5 20t8 18v104q0 4 -1 6q-5 10 -4 19q1 5 1.5 10.5t1.5 10.5l-4 14l-4 14q2 6 -0.5 13t-1.5 14q2 6 7 10.5t6 11.5q-1 8 -7 15.5t-6 17.5q5 8 10 9q11 2 20.5 6.5t18.5 10.5q1 1 8 3q4 -1 8.5 -2t10.5 -2q8 3 16.5 4t18.5 1q8 0 15.5 1t17.5 2q5 -1 10.5 -2
t11.5 -2q8 -4 14.5 -9.5t9.5 -13.5q6 -14 15 -26t14 -25q5 -4 10.5 -7t8.5 -8q8 -8 18 -14t20 -11q9 -12 16.5 -24t18.5 -20q4 -8 7 -16t6 -14q4 -6 9.5 -6.5t9.5 -1.5q2 -1 3.5 -1.5t2.5 -1.5q8 -7 13 -15.5t10 -18.5q5 -3 9 -6.5t9 -6.5q2 -1 4.5 -0.5t3.5 0.5
q5 7 8.5 13.5t2.5 14.5q-1 3 0 6t1 7q2 12 5 24t4 25q1 9 2 18.5t-1 17.5q1 16 0 30.5t-2 29.5q-1 22 1 43t8 43q0 1 0.5 1t0.5 1q4 5 8.5 6.5t8.5 4.5q5 3 10 3t10 -2q6 -5 13 -10q2 0 3.5 -1t3.5 -1h33q7 -1 14 -2.5t14 -6.5q2 -1 3.5 -0.5t2.5 -0.5q5 2 9.5 4.5t9.5 3.5
q2 -1 3.5 -2.5t3.5 -4.5q4 -6 5.5 -13t-1.5 -14z" />
    <glyph glyph-name="O" unicode="O" horiz-adv-x="667" 
d="M482 63q-1 1 -1.5 1h-0.5l1 -1q-4 -2 -5.5 -9t-5.5 -10q-1 -3 -7 -9t-9 -5q-14 3 -33 0l-6 -6t-8 -7q-1 0 -2 -0.5t-3 -0.5q-3 -1 -9 -1q-32 1 -63 -12q-7 -2 -15 -2.5t-16 2.5q-6 3 -11.5 3.5t-11.5 -0.5q-13 0 -25 4q-5 -1 -10.5 -2t-10.5 -3t-10 -5.5t-11 -2.5
q-1 2 -3 4.5t-4 6.5l-5 2.5l-5 2.5q-13 2 -24 9q-15 10 -29 15q-7 2 -11.5 7.5t-9.5 9.5q-4 10 -7 19t-4 19q-3 2 -5 4.5t-4 4.5q-6 4 -6 7q-1 9 -6 14t-9 14q0 2 -0.5 6t-1.5 8v5.5t-1 5.5q-4 8 -8 15.5t-7 14.5q0 5 2 15q5 21 -1 41q-3 7 -4 14t-3 14q1 2 2.5 5.5t3.5 5.5
l-7 21q-2 5 -5.5 9.5t-6.5 8.5q-1 8 3.5 15t5.5 14q0 3 -0.5 6t-0.5 6q8 11 10.5 23t3.5 25q7 4 12 9t7 13q1 3 1.5 7t1.5 8q5 8 10.5 16.5t10.5 15.5q2 5 3.5 11t5.5 10q5 3 7.5 8t4.5 10q7 1 12 3t9 3q5 3 5 6q3 14 12.5 20.5t21.5 9.5q4 1 7 1.5t8 1.5q2 2 5 5.5t6 7.5
q6 2 11.5 4t9.5 4h7q8 -3 16.5 -5.5t18.5 -5.5q8 1 16.5 3.5t16.5 0.5q1 0 2 -0.5t2 0.5q7 0 14 2t14 1q6 0 12.5 1t12.5 4q5 1 9.5 1.5t9.5 -1.5q3 -3 6 -5.5t7 -6.5q8 -1 17.5 -3.5t19.5 -5.5q5 -1 9.5 -5t11.5 -6q6 -2 12.5 -2.5t13.5 -0.5q16 -16 38 -22l4 -2l4 -2
q8 -7 15.5 -14.5l14.5 -14.5q7 -8 8 -17q8 -7 9.5 -10.5t1.5 -19.5q6 -3 11 -6.5t6 -10.5q2 -4 4 -7.5t3 -7.5q3 -4 6.5 -6.5t7.5 -6.5q3 -7 5 -13.5t0 -14.5q-2 -7 -1 -15t0 -17q-1 -8 0 -17t2 -17q1 -4 1 -8.5t1 -7.5q4 -7 4.5 -14t-0.5 -14q0 -4 0.5 -7.5t0.5 -8.5
q-4 -13 -7 -26.5t-9 -25.5l-12 -22t-14 -21v-17q-5 -3 -9.5 -6.5t-7.5 -5.5q-7 -12 -8.5 -21.5t-4.5 -17.5l-8 -8t-9 -8t-11.5 -6.5t-14.5 0.5q-9 2 -15 -1l-8 -2t-7 -2zM466 289q-2 5 -2.5 9.5t-1.5 9.5q0 8 -1 13q-2 8 -5.5 17.5t-7.5 18.5q-1 4 -3.5 8.5t-4.5 8.5
q-8 16 -25 19q-3 1 -7 2.5t-7 3.5q-6 4 -12 6t-12 3q-8 2 -17 4.5t-17 3.5q-10 5 -19 -1q-27 -11 -49 -28.5t-38 -47.5q-3 -4 -5.5 -9t-4.5 -10q-4 -5 -7 -10.5t-5 -10.5q1 -8 7 -13t7 -13q0 -4 -3 -7.5t-4 -7.5q2 -4 5 -9t5 -10q3 -5 4.5 -10.5t2.5 -11.5q2 -5 3.5 -10
t2.5 -10l14 -11q3 -2 6.5 -5.5t7.5 -5.5q12 -3 21 -6q8 -2 14 -2h13h-0.5t-0.5 -1h2q-1 0 -1 1q2 2 5 2.5t5 0.5q6 0 12.5 -0.5t13.5 0.5q2 2 5.5 0.5t6.5 -2.5q4 0 6 2q0 4 -0.5 7t2.5 5q13 7 25 11q5 4 8.5 7t6.5 7q4 2 6.5 5t6.5 4q9 3 15.5 8.5t12.5 11.5q1 2 1.5 3.5
t1.5 3.5q11 23 5 46z" />
    <glyph glyph-name="P" unicode="P" horiz-adv-x="592" 
d="M552 430q1 -8 -1.5 -15.5t-5.5 -14.5q-6 0 -10 -1q-4 -2 -2.5 -7t-1.5 -9q-2 -4 -4 -9t-4 -8q-1 -7 3.5 -11t4.5 -10q1 -4 -0.5 -7.5t-3.5 -7.5t-4.5 -7t-4.5 -7q-3 -5 -6.5 -11t-6.5 -11q-4 -4 -9.5 -8t-10.5 -8q-2 -3 -4 -6.5t-4 -8.5l-32 -26t-33 -24q-12 -4 -25 -6.5
t-26 -4.5q-10 -1 -20 -3t-21 -5q-6 -1 -12 -1.5t-14 -0.5q-13 -1 -25.5 -1.5t-23.5 -0.5q-12 -5 -13 -12q-1 -6 -3 -12l-4 -12q0 -13 -1.5 -27t-0.5 -27q0 -5 -1 -7q0 -6 -0.5 -12.5t-0.5 -12.5t0.5 -11.5t1.5 -10.5q3 -19 -5 -38q0 -5 -2 -9q-3 -8 -11 -6q-15 5 -29.5 5.5
t-30.5 -1.5h-13q-14 -7 -29 -9t-31 -3q-9 0 -11 6l-0.5 0.5t-0.5 1.5q-2 25 -5 51t-2 51q0 5 -0.5 10t-1.5 9q-2 11 -3 22.5t-2 22.5v8t-2 8q-4 8 -3.5 17t0.5 16q3 7 4 11.5t2 10.5q-3 4 -2.5 7.5t-1.5 6.5q0 2 -1 3.5t-1 2.5q-1 25 -1.5 57t0 60t1.5 40q2 4 4.5 7t3.5 6
q0 3 -2 4.5t-4 2.5q2 9 4.5 18t4.5 18q-1 5 -2 9t-3 8q3 7 6 16q-1 8 -1.5 18t-2.5 21q2 3 3 8.5t3 10.5t0.5 10t1.5 9q6 2 10 1l5 -2.5l5 -2.5h7q12 4 24.5 7.5t23.5 8.5q7 4 16 2q6 -1 11.5 -1.5t10.5 1.5q7 1 13.5 1.5t13.5 0.5q19 0 38 3t38 7q8 3 17 2t17 0
q7 -2 14 -4.5t14 -4.5t14 -3.5t16 -3.5q15 4 32 3.5t33 -1.5q9 -1 17.5 -4t15.5 -8q10 -4 22 -13q5 -4 9.5 -8.5t8.5 -9.5q2 -1 3 -3.5t2 -4.5q2 -7 7 -11t9 -9q18 -27 18 -62q2 -6 5 -12.5t5 -11.5zM391 416q-1 6 -3.5 12t-4.5 12q-1 3 -2.5 5t-2.5 3q-2 5 -8 3
q-2 -2 -4 -3t-4 -3q-5 -1 -9.5 -1.5t-9.5 -1.5h-12q-3 2 -6.5 4.5t-8.5 5.5q-7 1 -15.5 1.5t-16.5 -0.5q-19 -4 -30 -15q-6 2 -10 2q-3 2 -6 1t-6 -1q-6 -3 -11 -7t-8 -11q-1 -4 -2.5 -8.5t-1.5 -9.5q-1 -10 -1.5 -20.5t-1.5 -21.5q0 -6 -0.5 -12.5t0.5 -12.5q0 -1 1 -4
t2 -5q14 2 26 2.5t23 -1.5q11 -3 22.5 -4t21.5 -4q5 -1 12 1q6 5 11.5 10t11.5 10q5 1 9.5 1.5t8.5 1.5q6 5 12 10.5t11 10.5q2 7 3.5 13t2.5 13q2 6 4.5 11.5t2.5 12.5z" />
    <glyph glyph-name="Q" unicode="Q" horiz-adv-x="685" 
d="M643 330q-1 -5 -1 -11t-1 -11q-2 -12 -5 -23.5t-10 -22.5q-10 -14 -17.5 -29.5t-15.5 -32.5q-7 -6 -13.5 -11.5t-12.5 -11.5q-10 -10 -6 -24q1 -1 2.5 -4l2.5 -5q5 -8 10 -15q5 -8 9.5 -16t6.5 -16l2 -4l2 -4q6 -19 9 -25t16 -20q-6 -8 -11 -17l-10 -18q-8 -16 -20 -30
t-26 -26q-6 -3 -11.5 -0.5t-11.5 2.5q-4 0 -8.5 -0.5t-9.5 0.5q-4 1 -7 3t-5 3q-6 8 -13 15t-12 17q-3 9 -13 15q-6 5 -9.5 11t-8.5 11q-6 3 -17 1q-10 -10 -23.5 -17.5t-22.5 -18.5q-10 3 -18 5t-17 3q-3 -1 -7 -2.5t-9 -3.5q-4 2 -7.5 3.5t-7.5 2.5l-12 -2t-13 -2
q-5 -1 -11 -1h-13q-4 2 -8.5 4t-8.5 5q-4 2 -9.5 4t-11.5 3q-4 3 -9.5 8t-10.5 10q-11 11 -24 14q-1 0 -7 2q-5 5 -9.5 10.5t-12.5 7.5q-2 0 -4 1.5t-4 2.5l-4.5 4.5t-4.5 3.5q-3 15 -6 23q-3 7 -8 8.5t-10 5.5q-4 5 -9 11.5t-12 10.5q-6 3 -8.5 9t-4.5 12q-3 9 -6.5 19
t-5.5 20q-14 12 -15 30q0 3 -1 5q-3 17 -4.5 25t-1 15t1.5 20l-6 17q1 5 4 8t6 5q0 2 0.5 3.5t-0.5 2.5q-4 6 -6 13.5t-4 15.5q2 3 3 8t2 9q0 5 -1 9q0 9 8 13q2 0 3.5 0.5t2.5 0.5q2 5 -2.5 7.5t-4.5 8.5q2 2 4.5 6.5t3.5 8.5v17q3 2 5.5 6t6.5 8q9 7 12 18q6 11 16 20
q4 3 6.5 7.5t4.5 8.5q2 5 4 9t5 8q3 3 7.5 5t8.5 4q5 6 8 12t10 10q4 2 5.5 5.5t4.5 7.5q8 3 13 11t11 14q2 3 4 5l3 3q8 4 15.5 5t15.5 1q3 2 7.5 4.5t8.5 4.5q11 5 16 6t22 -1q2 1 5 2l6 2q3 2 5 2.5l6 1.5h24q3 0 6 -0.5t6 -0.5q5 -2 10 -3t9 -2q5 -1 9.5 -1.5t9.5 -1.5
q3 0 4 1q1 0 4 3q2 0 2.5 0.5t1.5 0.5q6 -1 12 1t12 2q4 -3 6.5 -5t3.5 -5q12 -12 28 -16q5 -1 8 -5t8 -6q7 -3 14.5 -5.5t14.5 -4.5l1.5 -3l1.5 -3q2 -2 4 -6q4 -2 9.5 -4.5t9.5 -5.5q5 -4 10 -6t10 -5q6 -6 12.5 -12t13.5 -11q1 -1 2.5 -1.5t2.5 -2.5q5 -6 11 -11.5
t12 -10.5q6 -6 9.5 -14.5t1.5 -19.5q4 -2 6.5 -4.5l4.5 -4.5q8 -11 9.5 -23.5t2.5 -26.5q3 -4 5.5 -9t6.5 -10v-7q-1 -4 -2 -8.5t0 -9.5q2 -5 0 -9q-4 -8 -1.5 -15t3.5 -14zM503 332q-6 21 -9 44q-2 21 -9.5 40t-23.5 35q-2 2 -4 5t-4 4q-7 2 -15 4t-15 6q-2 2 -6 1.5
t-6 -0.5q-11 9 -15 10.5t-17 1.5q-2 0 -4.5 0.5t-5.5 -0.5q-9 0 -19.5 0.5t-21.5 -2.5q-14 -7 -19.5 -10.5t-11 -4.5t-19.5 -3q-1 -1 -2.5 -1t-2.5 -2q-9 -10 -17.5 -19t-19.5 -17q-8 -5 -15 -16q-1 -10 -2 -21t-6 -20q-1 -1 -1 -6q-1 -8 -2 -17.5t-2 -18.5q4 -8 1 -17
t-4 -17v-9.5t1 -10.5v-8.5t1 -9.5q1 -6 2.5 -11.5t2.5 -10.5t1 -9.5t1 -9.5q3 -2 6 -3t7 -3q2 -5 5.5 -10.5t4.5 -12.5q-1 -4 -1 -7.5v-7.5q2 -4 5 -7l5 -5q7 -3 10 -8q4 -2 7 -5l5 -5q7 2 13 0.5t13 -0.5q8 1 12 5.5t10 7.5q5 -2 8.5 -3t6.5 -2q6 1 11.5 2.5t8.5 7.5
q-1 4 -5 8q-9 13 -23 30q-13 32 -19 44.5t-16 28.5q1 2 2 4.5t2 3.5q9 10 18 18.5t18 18.5q5 5 10.5 9.5t11.5 8.5q9 7 18.5 12.5t19.5 11.5q1 1 3 1q8 -1 13 -7.5t11 -11.5q5 -10 8.5 -20t8.5 -18q10 -15 13 -29l2.5 -2.5t2.5 -3.5q5 -1 10 -1.5t11 3.5q3 3 5.5 7t4.5 6
q5 4 8.5 1t7.5 0q-1 4 -2 7t-2 5q3 11 5 21t5 20z" />
    <glyph glyph-name="R" unicode="R" horiz-adv-x="638" 
d="M597 440q-1 -12 0 -23.5t-1 -22.5q-3 -13 -4 -26l-2 -26q-4 -7 -6.5 -14.5t-6.5 -13.5t-8 -11.5t-9 -12.5q-2 -2 -2 -7q-9 -12 -19.5 -21.5t-23.5 -15.5q-7 -12 -14 -19q-2 -3 -7 -5q-13 -6 -29 -9q-20 -5 -28 -21v-18q1 -4 6.5 -5t9.5 -6q0 -1 2 -2t2 -3q4 -17 20 -22
q6 -8 11.5 -15.5t10.5 -14.5q5 -3 9.5 -5.5t9.5 -5.5q2 -4 5.5 -9.5t6.5 -10.5q4 -4 8 -6.5t5 -4.5q3 -13 -1 -17q-12 -14 -16 -26q-2 -3 -4 -4.5t-4 -3.5q-7 -4 -15 -5t-13 -6q-5 -4 -11 -4.5t-11 -4.5q-8 -6 -14.5 -13.5t-16.5 -12.5q-4 1 -10 1h-11l-20 14q-4 4 -4 5
q-2 5 -4 9.5t-4 8.5q-1 4 -5 7.5t-6 7.5v8q0 8 -7 8q-3 1 -5 1h-4q-15 11 -28 27q-10 10 -20 15q-9 6 -17 15l-16 18q-5 6 -10 12.5t-11 10.5q-9 1 -18 0t-16 -5q-2 0 -5 -5q-1 -7 -2 -13.5t-2 -13.5q4 -19 1 -39q-3 -11 -3.5 -22t-1.5 -22v-9t-2 -9q-2 -9 -11 -12h-4
q-4 1 -7.5 1.5t-8.5 1.5q-15 -4 -31 -1t-32 5t-31 5q-2 0 -3.5 0.5t-3.5 1.5q-4 4 -4 7q0 9 -1 18.5t-3 19.5q-5 18 2 31l-2 18t0 17q2 4 0.5 10t-5.5 4q-1 -1 -3 -0.5t-2 1.5q-1 2 -2 4.5t-2 3.5v11t-1 11v10t-2 9q-3 10 -3 21v21q-1 4 -2 6.5t-3 5.5q2 7 3.5 13.5
t-3.5 13.5q2 8 1 16.5t4 17.5q2 5 1 10t-2 12q2 8 5 15.5t5 17.5q-1 5 -3 17q-2 5 -3 9l-2 8q-1 5 1.5 9.5t0.5 9.5q-1 7 -0.5 9t4.5 8q-1 2 -1 3.5t-1 2.5q-9 12 -4 30q2 6 4.5 12t3.5 11q-1 4 -1.5 8t-1.5 8l7 24q-2 7 -3 14t-3 14q0 9 8 19q4 5 8.5 4t11.5 0q7 2 14.5 5
t16.5 4t17 8q8 5 16 8.5t16 5.5q16 -3 20.5 -2.5t15.5 7.5h18q5 1 10 2.5t11 2.5q2 2 6.5 5t8.5 5q6 1 13 2.5t14 2.5q3 -1 5.5 -2.5t5.5 -3.5q6 -3 10 -7q4 -2 7 -2q10 -1 19 -1.5t19 0.5q3 1 7.5 1h8.5q5 0 11 -0.5t11 -1.5q6 0 9.5 -4t6.5 -4q14 -4 26 -4t24 1
q5 -2 10.5 -4.5t10.5 -4.5q4 2 6.5 3.5t5.5 2.5q8 2 12 -1q3 -2 5.5 -4t5.5 -4l4 -6t6 -5h14q4 -1 9 -8q6 -7 11.5 -14t12.5 -15q7 -7 12 -15.5t12 -16.5q3 -2 4.5 -6t2.5 -8q0 -12 0.5 -23.5t4.5 -22.5zM105 564v1h-2zM450 385l-1 1t-1 2q0 9 -3 17.5t-11 14.5q-4 2 -6 5.5
t-5 6.5q-7 9 -16 15q-1 2 -4 2.5t-5 1.5q-5 -3 -17 -6q-8 5 -17 5t-19 -2q-10 0 -20.5 0.5t-20.5 -2.5q-11 1 -22 0l-22 -2q-9 0 -13 -1q-7 -4 -13.5 -3.5t-13.5 -1.5q-4 -4 -5 -10t-3 -11q6 -23 -2 -46q5 -7 7.5 -13.5t-0.5 -14.5q0 -1 0.5 -2t0.5 -2q2 -6 2 -12t-2 -12
q-2 -1 -4.5 -2.5t-4.5 -3.5q5 -5 12 -5q3 2 7 3.5t8 4.5q17 -5 34.5 -4t33.5 -6h7q4 0 9 1t9 1q4 3 11 5q22 6 39 20q7 5 14 6.5t14 2.5h6.5t7.5 1q3 8 10.5 13.5t12.5 13.5q-4 5 0.5 9t5.5 10z" />
    <glyph glyph-name="S" unicode="S" horiz-adv-x="452" 
d="M415 503q-6 -13 -16 -21.5t-17 -19.5q-8 -2 -15.5 -7t-13.5 -10q-10 -6 -18 0q-4 2 -6.5 4.5t-6.5 4.5q-8 7 -21 5q-1 -1 -3 1v10q-1 1 -2.5 3t-3.5 2q-20 8 -38 1q-6 -1 -12 -3l-12 -4q-4 -6 -7.5 -12t-7.5 -11q1 -8 1.5 -16t1.5 -16q5 -6 9.5 -12.5t8.5 -13.5
q9 -7 19 -13.5t19 -14.5q6 -4 12.5 -6.5t11.5 -7.5t9.5 -8.5t8.5 -8.5q3 -1 6 -3l6 -4q17 -11 26 -30q5 -8 10.5 -17t10.5 -17q7 -6 9.5 -14t5.5 -16q1 -1 1 -4q2 -12 6.5 -23t9.5 -22q3 -13 3.5 -25.5t-1.5 -24.5q0 -10 -2.5 -19.5t-6.5 -17.5q-1 -1 -1 -2t-2 -3
q-9 -9 -14.5 -20t-12.5 -22q-1 -1 -1 -2.5t-2 -2.5q-10 -7 -16.5 -15t-14.5 -16q-4 -4 -10 -7t-11 -7l-21 -10q-10 -1 -20.5 -3t-21.5 -7q-7 -4 -15.5 -6t-16.5 -4l-8 -2l-8 -2q-13 10 -29 10q-11 0 -19 4q-12 5 -23 10.5t-20 14.5q-6 5 -12 9t-11 8q-4 4 -9.5 5.5
t-10.5 3.5q-7 5 -8 11q1 8 6.5 15t9.5 15q0 6 3 15q9 12 19 24.5t20 25.5q4 3 9 6.5t11 7.5q20 -5 38 -11t37 -11q4 1 6 2.5t3 2.5q3 1 5 2t3 2h18q1 2 2.5 3.5t2.5 3.5q4 10 8 19t5 20q-2 8 -4.5 17t-9.5 18q-4 3 -9 7l-10 8q-17 2 -34.5 9t-34.5 7q-7 2 -11 6.5t-9 8.5
q-7 2 -15 3t-13 8q-16 9 -27 13q-5 6 -9.5 12t-9.5 11q-4 5 -7.5 12.5t-8.5 14.5q-4 5 -7 11.5t-6 13.5q-3 14 -6 30q2 11 3.5 22.5t2.5 23.5l-4 10q4 2 6 6l4 8q2 6 5 10t2 11q0 19 10 35l3.5 7t2.5 6q5 3 8.5 6.5l4.5 4.5q5 5 4 9.5t0 8.5q4 6 9 12t11 13q7 5 15 8.5
t15 10.5q2 3 5 4.5t7 2.5q5 3 11 5t12 5q10 2 20.5 3t20.5 2q1 0 2.5 0.5t3.5 -0.5q11 -4 22.5 0t23.5 3q11 0 21.5 -3t20.5 -5q11 -8 22 -14.5t24 -10.5q4 -4 7.5 -8.5t7.5 -9.5q4 -4 8 -7t7 -7q8 -15 15.5 -29.5t14.5 -28.5z" />
    <glyph glyph-name="T" unicode="T" horiz-adv-x="547" 
d="M506 581q-2 -12 -2.5 -23.5t-0.5 -23.5q0 -14 -0.5 -27t-2.5 -27q-1 -2 -1 -6q1 -10 3.5 -19.5t0.5 -17.5q-2 -5 -1 -10t-1 -10l-2 -4l-2 -4q-5 -1 -9.5 -1.5t-9.5 -0.5q-2 -1 -5.5 -3.5t-6.5 -4.5q-4 2 -6.5 4t-5.5 3q-2 0 -5 0.5t-5 -0.5q-7 -3 -18.5 -1.5t-19.5 1.5
q-10 0 -18.5 -2.5t-17.5 -6.5q-7 -4 -14.5 -4.5t-15.5 -3.5q-5 -7 -4 -13q2 -8 3.5 -17.5t-2.5 -19.5q0 -4 1 -5q4 -10 4 -20t-2 -21q-1 -10 -1 -19.5t-2 -20.5t1 -20q1 -6 1 -12v-11q-1 -7 -1 -3.5v3.5v-3q0 -1 -0.5 -1.5t-0.5 -1.5q1 -17 0.5 -25.5t-1.5 -15t-4 -19.5v-5
q4 -16 4 -32.5t-1 -32.5q0 -11 0.5 -22t4.5 -23q-1 -6 -3 -13.5t-5 -14.5q-1 -4 -3.5 -7t-7.5 -7q-24 2 -45 -4q-11 -4 -23 3l-2 2q-15 9 -29 3q-6 -3 -12 -2t-11 1q-7 0 -12 -5t-13 -1q-1 8 1.5 15t3.5 16q-1 7 -3.5 15t-4.5 16q2 5 3 9.5t1 8.5q1 5 0.5 10.5t-0.5 10.5
q1 16 0.5 30.5t-2.5 29.5q-2 12 -2.5 23.5t-1.5 24.5q3 4 5.5 8t6.5 8l1 8v0.5v9.5q-1 14 0 29.5t4 29.5q-1 11 -3 21.5t-7 20.5q2 5 4.5 10t3.5 9q-1 8 0.5 14t-1.5 13q-1 3 -5 5q-7 0 -14 1t-14 1t-13.5 2t-13.5 0q-6 -3 -11.5 -0.5t-11.5 1.5h-26l-25 4q-2 0 -5 3t-3 6v7
q2 6 3.5 12.5t-0.5 13.5q-1 1 -0.5 3.5t0.5 3.5q4 18 4 42t-2 42v12t2 11q5 5 10 5.5t10 1.5q5 2 9 4.5t9 3.5q23 8 43 0l7 -2q9 4 19 3.5t21 4.5q2 0 6.5 -0.5t9.5 -0.5q9 4 18.5 8t18.5 12q16 2 31.5 1t29.5 4q7 -1 12.5 -3.5t9.5 -4.5q7 0 11 4.5t12 5.5q8 2 23 -1
q6 -1 12.5 -5.5t13.5 -3.5q5 3 8.5 6t8.5 6q6 0 13 -2.5t13 -1.5q7 1 13.5 2.5t16.5 1.5q4 -1 8 -2.5t8 -3.5q6 2 12.5 3t13.5 2l4 -6t3 -5z" />
    <glyph glyph-name="U" unicode="U" horiz-adv-x="658" 
d="M619 520q-6 -19 -5 -36q1 -5 0 -10.5t-2 -10.5q-1 -4 -0.5 -10t-1.5 -10q-2 -7 0 -13.5t3 -12.5q-2 -7 -4 -15.5t-1 -18.5q0 -12 -3 -24q-1 -7 0 -14q4 -13 3 -25t-5 -24q-4 -7 -4 -14q1 -11 -3 -21t-9 -20q-1 -3 -4 -5t-5 -5q-7 -23 -11 -32.5t-15 -29.5q-1 -2 -4 -5
l-5 -5q-1 -2 -2.5 -3t-1.5 -2q-4 -13 -12 -22t-16 -17q-4 -4 -6.5 -8.5t-6.5 -9.5q-10 -7 -19 -14t-19 -14q-6 -4 -12 -7q-7 -2 -14 -5.5t-14 -5.5q-7 -4 -14 -6.5t-14 -6.5h-23q-5 -2 -10.5 -4.5t-11.5 -1.5t-11.5 -2.5t-11.5 -4.5q-3 1 -7 2t-8 1q-4 -3 -7.5 -5.5
t-7.5 -5.5q-1 0 -2.5 -0.5t-3.5 -0.5q-4 0 -8.5 -0.5t-8.5 0.5q-7 4 -13 3t-13 2q-8 2 -8 9q0 9 -10 11q-3 0 -5.5 -0.5t-5.5 -0.5q-4 1 -7 4t-7 5q-5 4 -11 7.5t-13 4.5q-6 1 -11.5 3.5t-10.5 3.5q-11 4 -16 18q-3 13 -11 21q-3 4 -5 7.5t-4 7.5q-2 2 -4 6t-4 5
q-10 6 -15.5 15t-9.5 19q-1 1 -1.5 3t-1.5 3q-7 4 -7 12t-2 15l-5 5t-6 7q-2 8 -5 16t-5 17q0 16 -0.5 23.5t-1.5 15t-5 21.5q0 8 3.5 16t1.5 19q-3 5 -5.5 12t-6.5 14q0 2 -0.5 5t-0.5 5q1 8 1 15v14q0 8 2 16.5t3 15.5q2 11 3.5 21.5t3.5 21.5q2 16 7 32t11 32
q11 7 20.5 13t19.5 13h43l11 -4q5 -1 10 0.5t10 2.5q5 -3 11.5 -6.5t13.5 -8.5q0 -2 1.5 -5t1.5 -5q0 -7 -0.5 -15t-3.5 -16q-2 -9 0 -19q1 -3 1 -10q-1 -8 -3 -17t-5 -17q-1 -4 -1 -7.5t1 -6.5q3 -8 0.5 -15t-0.5 -14q6 -12 4 -28q0 -8 3 -13q5 -9 5.5 -17.5t-0.5 -17.5
q-2 -8 -0.5 -16t4.5 -15q4 -6 6 -11.5t6 -12.5l11 -11t10 -14q1 -5 8 -12l3 -2q5 -1 10.5 -1h10.5q5 -4 9 -7l8 -6q6 3 11 6t10 7l14 3q1 0 2.5 0.5t2.5 -0.5q28 -9 43 19q2 6 6 12t6 13q2 5 5 9l6 8v14q3 2 6.5 5.5t7.5 5.5q2 5 3.5 10t4.5 10q2 4 3.5 7.5t4.5 7.5
q-1 5 -2 8t-2 7q7 16 8 31q1 5 0.5 10.5t-1.5 11.5q2 5 3.5 9.5t2.5 8.5q0 8 -1.5 15.5t0.5 14.5t1 10q-4 16 -2 31t6 28q-1 5 -1.5 10t-0.5 10q2 2 4 3t3 4q5 -2 8.5 -3.5t7.5 -2.5q14 -5 28 -8t29 1q17 -1 34.5 -1.5t34.5 -5.5q14 -4 17 -15z" />
    <glyph glyph-name="V" unicode="V" horiz-adv-x="690" 
d="M652 488q-5 -9 -10.5 -17t-8.5 -17q-4 -7 -9 -15.5t-10 -16.5q-1 -2 -2.5 -5.5t-3.5 -7.5q-6 -11 -8.5 -23t-10.5 -23q-9 -10 -15 -22.5t-14 -23.5l-14 -20t-15 -21q-1 -1 -1.5 -2.5t-2.5 -4.5q-8 -22 -16 -45t-13 -47q-3 -10 -6 -18t-8 -16q-6 -10 -12 -19t-11 -19
q-2 -5 -6 -8q-11 -12 -18.5 -26t-13.5 -30q-4 -12 -16 -20q-5 -4 -11 -8l-12 -8q-2 1 -9 1q-3 1 -5.5 1t-4.5 1q-3 -1 -5.5 -3.5t-6.5 -4.5q-7 1 -18 6l-14 -2t-13 -1q-15 -1 -30.5 -2t-30.5 -3q-8 -2 -14 2q-4 6 -4 13.5t-2 17.5q-4 7 -9.5 14t-7.5 16v11q-1 5 -6 9t-6 10
q-1 3 -1 6.5t-2 7.5q-1 8 -3.5 15.5t-8.5 14.5q-11 11 -14 27q-1 7 -3.5 14.5t-5.5 14.5q-7 17 -12.5 34.5t-12.5 35.5q-4 8 -5.5 16t-3.5 16l-4.5 4.5t-4.5 6.5q1 4 3 9.5t3 10.5q-2 8 -5 13.5t-2 13.5q-4 2 -7.5 4.5t-7.5 3.5q-16 17 -14 41q-2 8 -6.5 12.5l-8.5 8.5
l-6 16t-6 15q-4 4 -8 7t-8 7q-5 11 -5.5 21t1.5 21l4 8t5 6q14 10 27 21.5t27 20.5q8 4 15 8t15 5q8 2 14 5t12 5q4 1 8.5 1.5t8.5 1.5q2 0 5 -1t3 -4q1 -8 8 -12.5t8 -12.5q2 -5 4.5 -9.5t3.5 -8.5q1 -6 3.5 -11.5t4.5 -11.5q7 -13 15.5 -26t18.5 -25q7 -8 13 -18t7 -23
q0 -4 2 -6.5t3 -6.5q6 -16 11.5 -31.5t9.5 -32.5q1 -5 2.5 -11t0.5 -12q4 -20 12 -43q4 -6 9 -11.5t9 -11.5q2 0 5 -0.5t5 0.5q11 3 18 15q2 4 2.5 7t1.5 6q12 14 20.5 29t19.5 28v12q4 6 9 12t6 13q2 12 7.5 22.5t12.5 19.5q13 22 25 40q3 3 5.5 5t3.5 4q1 5 0.5 8t2.5 7
q6 8 8 18t8 17q2 16 9.5 28t13.5 25q0 -1 2 3q4 6 13 2q4 -3 8 -5.5t9 -7.5h10.5t11.5 -1t12.5 -3t12.5 -6q8 -4 15.5 -9t14.5 -9q5 -7 9.5 -12.5t8.5 -10.5q2 -8 4.5 -16t8.5 -14zM129 296l-0.5 -1t-0.5 -2q2 1 2.5 2t-1.5 1z" />
    <glyph glyph-name="W" unicode="W" horiz-adv-x="978" 
d="M938 492q-4 -3 -4 -14.5t-3 -16.5q-2 -4 -6.5 -7.5t-7.5 -8.5q1 -2 2 -5t2 -5l-8 -10t-9 -11q-3 0 -9 -2q-4 -1 -4 -6q0 -4 1.5 -8.5t1.5 -9.5l-8 -30t-13 -28q-1 -16 -9 -30.5t-14 -30.5q-3 -6 -4.5 -12t-3.5 -13q-4 -4 -7 -8t-8 -8q-3 -5 -5 -11l-4 -12q-4 -5 -6.5 -11
t-6.5 -11q-9 -16 -13.5 -33.5t-4.5 -34.5q-3 -7 -5.5 -12.5t-7.5 -10.5q-4 -7 -6.5 -14.5t-7.5 -14.5q-9 -15 -11 -20t-1.5 -10t-4.5 -21q-4 -5 -13 -10t-16 -7q-4 2 -13 1.5t-13 0.5q-5 1 -11 1h-11h-14.5t-14.5 1q-6 2 -9 6q-4 10 -6.5 18.5t0.5 17.5q1 4 -2.5 7t-5.5 4
q-3 6 -5.5 12.5t-7.5 12.5q-6 10 -12 19t-11 19q-1 4 -5.5 7t-4.5 7q0 8 -2.5 14t-5.5 13q-2 6 -4.5 12.5t-4.5 12.5q-4 11 -9 19q-10 14 -20.5 28t-21.5 27q-7 10 -16 10q-4 0 -4 -4q0 -7 0.5 -13t0.5 -12q0 -18 -10 -28q-7 -7 -9 -15.5t-4 -16.5q-3 -9 -7.5 -17t-6.5 -16
l-11 -11t-8 -12q-3 -9 -9 -16t-8 -17q-1 -9 -7.5 -16t-7.5 -17q-2 -6 -5.5 -11.5t-5.5 -11.5q-5 -6 -8 -16q-16 -7 -26.5 -9t-30.5 -6q-7 2 -15.5 5t-18.5 5l-6 -2t-7 -2q-2 -2 -4.5 -3t-4.5 -2q-7 1 -13 2.5t-13 -0.5q-5 9 -10.5 17.5t-7.5 18.5q-1 11 -7 18.5t-8 17.5
q-3 5 -6.5 8t-6.5 6q-4 10 -6 21t-2 22q-13 15 -13 32q-11 15 -13.5 19.5t-4.5 17.5q-10 13 -20.5 27t-21.5 27q-4 16 -7.5 31t-7.5 30q-5 20 -12 38.5t-12 37.5q-2 9 -5 16.5t-5 15.5q0 4 -1.5 7.5t-3.5 5.5q-4 5 -5 10.5t-2 10.5q-1 7 -3 12.5t-4 11.5q7 17 20 30
q5 3 9.5 3.5t8.5 2.5q15 4 22 8.5t21 11.5q24 14 50 20q5 -1 7 -4t3 -7q3 -10 6.5 -20.5t10.5 -19.5q5 -14 12.5 -28t13.5 -27q1 -1 5 -9.5t8.5 -17t5.5 -8.5q14 -12 20.5 -19t11.5 -15.5t11 -25.5l10 -22t9 -23q1 -7 1 -14t1 -15q3 -5 5.5 -11t4.5 -12q4 -2 7 -2
q0 -1 1.5 -0.5t1.5 1.5q7 11 12.5 21t7.5 21q1 8 4 13t4 11q-1 5 -1 11t-1 11q4 8 7.5 14t6.5 12q2 6 3.5 12.5t4.5 11.5q5 11 10 20.5t11 20.5q1 5 -1 10t-3 9q1 2 1.5 4.5t2.5 3.5q13 6 18 20q8 18 12.5 29.5t15.5 27.5q2 3 10 12.5t10 13.5q1 3 6 5q4 -1 6.5 -2.5
t6.5 -3.5q4 0 7 1q7 7 16 7q8 1 16.5 1.5t15.5 -1.5q8 -2 11 -7t10 -3q7 -9 9 -19t7 -18q4 -5 10.5 -6t8.5 -4q5 -7 5.5 -13.5t1.5 -11.5q2 -5 3.5 -10t0.5 -12q-1 -1 0.5 -4l2.5 -5q2 -3 5 -5.5t4 -4.5l7 -17l2.5 -2.5t1.5 -3.5q1 -4 1.5 -8.5t0.5 -9.5q0 -21 7 -36
q5 -13 8 -18.5t17 -17.5q2 -3 3.5 -7t3.5 -8q1 -2 4.5 -10.5t7.5 -15.5t6 -7q6 3 11 15t10 25t9 17q3 11 6.5 22t4.5 23t4.5 23.5t4.5 22.5q1 3 9.5 12.5t9.5 10.5q9 20 8.5 31.5t7.5 30.5q5 9 11 17t10 16q9 6 17 4.5t15 0.5q12 -3 20 -3t17 -6q5 -2 11.5 -5t11.5 -5
q4 -6 10 -10.5t10 -10.5q12 -8 18.5 -13t16.5 -17z" />
    <glyph glyph-name="X" unicode="X" horiz-adv-x="681" 
d="M639 68q2 -3 1 -6.5t-3 -6.5q-3 -2 -6 -5.5t-7 -5.5q-6 -4 -12 -9l-12 -10q-13 -10 -22.5 -19.5t-22.5 -25.5l-4.5 -4.5t-5.5 -4.5q-1 -1 -3.5 -2t-4.5 -2q-1 1 -3 1.5t-4 1.5q-8 8 -16.5 16t-17.5 15q-13 9 -23 20.5t-21 22.5q-3 3 -4.5 7.5t-3.5 8.5q-4 2 -8.5 4.5
t-8.5 5.5q-4 4 -7.5 9t-6.5 10q-5 8 -10 15t-12 14q-4 5 -6 11t-8 10q-6 2 -13 3.5t-13 2.5q-9 -2 -14 -13q-13 -28 -43 -46q-8 -5 -14 -13t-14 -16q-12 -19 -28.5 -33t-36.5 -26q-3 -3 -7 -6t-9 -7l-31 -10q-16 7 -26.5 20t-24.5 20q-8 12 -13 24t-8 24q5 11 9.5 20
t10.5 15q12 9 15 22q5 6 8 13q4 2 6.5 2t5.5 1q7 2 7 7q0 6 4 8.5t8 3.5q3 1 5.5 0.5t5.5 0.5q1 2 2 3.5t1 2.5q0 6 1 11.5t6 9.5q0 11 6.5 16t14.5 11l6 16t5 13q4 10 11 14t8 12q-1 1 -1 3l-10.5 10.5t-10.5 11.5t-9 12.5t-10 11.5q-4 4 -6 11t-5.5 9.5t-8.5 4.5
q-1 5 -2.5 9t-2.5 9q-1 1 -3 2.5t-4 2.5q-10 5 -18 13.5t-16 15.5q-4 3 -6 7q-6 14 -16 24.5t-21 22.5q-5 9 -10 19.5t-9 21.5q-4 8 -8.5 16.5t-7.5 17.5q-2 2 -2 9q8 11 19 17.5t17 17.5q6 1 11.5 0t9.5 3q3 3 9 3q13 3 26 7.5t26 6.5q2 1 5 2t5 1q14 2 22 -6
q2 -2 4.5 -3.5t3.5 -3.5q7 -10 15.5 -17.5t17.5 -13.5q7 -15 9 -20t5 -7.5t12 -8.5q1 -1 2 -2.5t1 -3.5q3 -15 17 -18q6 -2 7 -2q5 -4 5.5 -10.5t7.5 -11.5q6 0 10 -4q3 -1 5.5 -1.5t3.5 -0.5q9 -7 11.5 -17.5t10.5 -16.5h5l16 6l16 6q4 5 7 10t7 10q5 8 11 16.5t12 15.5
q6 8 9 17t8 16q5 8 10.5 14.5t12.5 14.5q7 21 20.5 40t31.5 35q11 -4 20 -7t18 -9q11 -10 30 -15q5 -1 9 -3t8 -3q7 -6 9.5 -12t4.5 -13q2 -1 4.5 -2t4.5 -2q2 -4 4.5 -8.5t4.5 -9.5q3 -4 7.5 -7.5t5.5 -9.5q-1 -5 -3.5 -10.5t-4.5 -10.5v-21q-4 -7 -9.5 -9.5t-10.5 -5.5
q-1 -2 -2.5 -3.5l-3.5 -3.5q-6 -11 -12.5 -21t-15.5 -20q-6 -7 -11 -15t-11 -16v-12l-8.5 -8.5t-7.5 -10.5q-4 -6 -9 -10t-7 -11q-3 -7 -9 -10.5t-10 -13.5q-1 -4 -1.5 -10t-2.5 -13q24 -31 42 -66v-12q5 -5 9.5 -9t7.5 -8q19 -24 40 -42q4 -4 7.5 -8.5t3.5 -10.5q1 -4 4 -8
t4 -7q8 -10 13 -22t12 -23z" />
    <glyph glyph-name="Y" unicode="Y" horiz-adv-x="616" 
d="M573 499q-1 -4 -2.5 -7.5t-3.5 -6.5q-5 -7 -8 -14t-5 -14q-6 -7 -13 -9.5t-14 -5.5q-8 -6 -11.5 -14.5t-8.5 -15.5q-6 -4 -11.5 -7.5t-10.5 -6.5l-20 -14q-3 0 -5.5 -0.5t-5.5 -0.5q-7 -7 -13.5 -15.5t-11.5 -16.5q-3 -6 -8 -10.5t-8 -9.5q-1 -3 -1 -9q-10 -4 -19.5 -8
t-17.5 -9q-6 -10 -5.5 -20.5t-0.5 -21.5q-1 -8 -5 -13t-3 -14q1 -1 1 -5.5t3 -6.5q2 -2 2.5 -7.5t0.5 -10.5q1 -5 3 -8.5t0 -8.5q-1 -4 -1 -8v-7q1 -13 1.5 -26t-1.5 -26q0 -4 1.5 -9t2.5 -10q2 -6 1.5 -11t-0.5 -11q1 -4 1.5 -9t1.5 -10q2 -4 2.5 -9t0.5 -9t1 -6.5t2 -6.5
l-5 -5t-5 -6q-3 -4 -4.5 -7.5t-3.5 -5.5q-4 -4 -9 -4t-10 -1q-4 -1 -8 -1h-7q-8 -3 -10.5 -5.5t-6.5 -7.5q-7 0 -10 1.5t-8 2.5q-5 2 -10 0.5t-10 -2.5q-7 0 -14 0.5t-13 4.5q-4 3 -7.5 4t-7.5 2q-4 0 -6.5 0.5t-6.5 0.5q-1 6 -3 11.5t-2 11.5q0 14 -3 26t-7 24q2 9 1 12
q-2 8 0.5 15t-1.5 14q-4 18 -3.5 36.5t0.5 37.5q0 2 1 5.5t2 6.5q-1 14 -3 27t-7 25q1 5 1 8.5t1 5.5q5 13 3 25.5t-7 25.5q-1 5 -3 10t-5 11q-2 2 -4 5.5t-6 6.5q-5 5 -11.5 10t-11.5 11q-5 5 -10.5 10t-10.5 10t-10.5 7t-10.5 6q-7 15 -14 33q-15 11 -30 24t-25 34
q2 9 6.5 18.5t10.5 18.5q2 2 4.5 5t3.5 4q8 8 14.5 16t12.5 16q5 -1 9 -1t8 -1q2 2 3.5 3t2.5 4q3 2 5 6t3 7q6 8 14 4q24 -10 51 -22q5 -5 10 -10.5t9 -10.5q6 -7 14 -13t12 -15q7 -5 14.5 -10.5t15.5 -11.5q3 -5 8 -12t11 -16q3 -2 8 -6t9 -7q7 -3 13 -6t12 -5t12 1
q6 4 12.5 7.5t13.5 5.5q2 0 4 2t4 3q3 4 7 8t8 9q7 13 23 21q4 3 8 5l8 4q8 11 15 21.5t13 21.5q2 3 4 5.5t4 3.5q8 4 12 10t10 10q11 3 18 -6q3 -4 6 -8.5l7 -10.5q9 -4 16.5 -11t14.5 -15q2 -3 3.5 -6.5t2.5 -8.5q12 -7 20 -15q0 -2 0.5 -4.5t-0.5 -5.5z" />
    <glyph glyph-name="Z" unicode="Z" horiz-adv-x="504" 
d="M462 466q0 -5 -1 -6q-12 -22 -22.5 -34t-22.5 -33q-5 -7 -15 -24.5t-12 -25.5q-15 -19 -23.5 -38t-21.5 -38q-3 -6 -7 -8q-9 -6 -15 -14.5t-11 -16.5q-7 -11 -16 -20.5t-20 -16.5q-11 -16 -14 -31q1 -5 3.5 -8t6.5 -5q9 -2 18.5 -2.5t19.5 -0.5q2 2 4.5 3.5t5.5 3.5
q5 4 13 2q17 -6 34.5 -6.5t35.5 0.5q10 0 19.5 -0.5t17.5 -1.5q5 -4 10.5 -6.5t9.5 -6.5q2 -4 2 -7q-2 -13 -3 -27t-3 -29v-4.5t-1 -7.5q-2 -7 -6 -15l-8 -16q-9 -4 -19 -6t-21 0q-7 -3 -14.5 -6.5t-17.5 -3.5q-11 0 -23 -3t-23 -8q-19 -7 -34 3q-2 1 -5 1q-5 -1 -11 -1.5
t-11 -2.5q-20 -6 -37 -1q-5 2 -10 0q-7 -3 -13 -2t-14 2q-4 -2 -8 -3t-9 -3q-3 2 -6.5 4.5t-8.5 3.5q-8 0 -19 -3q-4 2 -7.5 3.5t-8.5 2.5q-13 -1 -26 -1t-27 4q-1 2 -2.5 4.5t-2.5 4.5q-1 5 -2.5 11t-6.5 11q-1 22 -2.5 44t-1.5 44q0 5 0.5 9.5t1.5 8.5q1 5 3.5 10.5
t8.5 7.5q12 8 20 18q6 10 13.5 19t13.5 19q12 17 21.5 34.5t16.5 37.5q4 3 8 7l8 8q5 2 9.5 3t8.5 2l3.5 3.5l3.5 3.5q7 14 14.5 26.5t13.5 25.5q2 5 6.5 10t7.5 10l9 32v10q-1 2 -5 8q-6 0 -12.5 -0.5t-12.5 -0.5q-7 0 -13 -0.5t-13 -0.5q-6 0 -12.5 4t-12.5 2
q-1 -1 -3 -1.5t-3 -0.5q-10 4 -19 5t-18 5q-13 5 -27.5 6t-29.5 2q-4 1 -8 3l-8 4q-4 8 -3.5 14t1.5 12q6 10 4 23v17.5t1 15.5q2 9 3.5 17t2.5 18q2 7 3.5 13t3.5 13q2 -1 5 -2t5 -3q2 0 4 -0.5t3 0.5q13 4 26.5 4.5t26.5 -0.5q7 -1 13.5 -0.5t13.5 0.5h13.5t12.5 5
q1 1 4 -0.5t4 -0.5l10.5 -4.5t13.5 -2.5q16 -5 31 1q2 1 4 1t3 1h38q5 -2 8.5 -5t7.5 -5q11 -4 21 -3t19 -4q4 1 7 1.5t6 1.5q2 -1 3.5 -0.5t3.5 -0.5q6 -1 11.5 -2.5t11.5 -1.5q13 -1 25.5 -2t24.5 -1q3 -4 5.5 -7.5t5.5 -7.5q2 -2 5 -4t4 -4q5 -29 5 -44.5t-5 -35.5
q1 -4 1.5 -8t1.5 -8z" />
    <glyph glyph-name="bracketleft" unicode="[" horiz-adv-x="289" 
d="M241 61q-3 -10 -2.5 -19t1.5 -20v-6q1 -1 0.5 -3t-0.5 -5q-1 -4 -4.5 -8.5t-5.5 -9.5q-1 -4 -3.5 -9t-5.5 -9q-7 0 -13 1t-14 2q-6 0 -13 7q-7 -7 -18 -7q-7 0 -13.5 0.5t-12.5 1.5q-6 2 -11.5 1.5t-11.5 -1.5q-7 2 -13.5 5.5t-14.5 4.5q-14 2 -27 8q-10 7 -10 20
q0 8 -0.5 15.5t-1.5 14.5q-1 9 0.5 18.5t6.5 18.5q2 4 2 7q-1 2 -2 5.5t-2 5.5t-2 5t-1 5q0 6 0.5 12.5t-1.5 13.5q-1 7 -0.5 13t0.5 13q-1 6 -1 13v14q0 3 0.5 6t1.5 6q3 8 3.5 16.5t0.5 15.5q-1 21 0 42t1 40q0 12 0.5 23.5t4.5 22.5q2 5 1.5 10t-0.5 10v56v8t1 8
q2 8 1.5 16.5t-2.5 15.5q-5 11 -1 19q3 8 -2 16q-1 5 -2 8.5t-2 7.5q2 5 5 10.5t6 11.5v7t-1 8q0 2 1 3q4 5 7.5 10.5t7.5 10.5q5 6 12 11.5t15 11.5q7 -4 13.5 -7t13.5 -2q6 0 11.5 -2t11.5 -4q9 2 17.5 4t17.5 2q12 1 23.5 0t22.5 -3q5 -6 3 -12.5t-1 -13.5q0 -6 0.5 -13
t0.5 -15q-2 -2 -3.5 -9t-4.5 -11q-2 -4 -4.5 -8.5t-4.5 -6.5q-13 -10 -28 -8.5t-28 -2.5q-4 -4 -4 -8.5t-1 -9.5v-14t-1 -13q-1 -9 -1.5 -18.5t0.5 -20.5q2 -7 0.5 -15.5t-0.5 -16.5q1 -15 -2 -32q-1 -4 -1.5 -7t-0.5 -7q0 -8 1 -17.5t-1 -17.5q-1 -14 -1 -28v-28v-18
t-3 -17q-1 -4 -1.5 -7.5t-0.5 -6.5q1 -18 1.5 -35.5t1.5 -35.5q2 -7 0.5 -13.5t0.5 -13.5q2 -5 1.5 -11t-0.5 -11q8 -8 15 -8q21 0 43 3q2 -3 8 -6q3 0 7 0.5t8 0.5q8 -6 5 -15z" />
    <glyph glyph-name="backslash" unicode="\" horiz-adv-x="493" 
d="M451 75q0 -18 -2 -24t-14 -23q-6 -4 -14.5 -5t-15.5 -8q-2 -2 -4 -6l-4 -8q-6 -4 -13 -3.5t-13 -2.5q-17 -5 -22.5 -1.5t-13.5 16.5q-5 8 -10 15t-9 15q-1 5 -4.5 8.5t-5.5 7.5q-1 6 2 12t1 14q-3 7 -8 14t-8 17q-1 7 -6.5 12.5t-7.5 12.5q-1 6 -3 12t-7 13
q-2 5 -6.5 9.5t-9.5 8.5q-12 5 -18 10q-3 2 -5 7q-1 7 -3.5 13.5t-4.5 13.5q0 2 -0.5 4.5t-1.5 5.5q-3 5 -6 11l-6 12q-1 6 -5.5 10.5t-4.5 12.5q-7 12 -14.5 24t-14.5 24q-4 2 -7.5 4t-7.5 3l-4 4q-5 13 -13.5 23t-12.5 22q-6 11 -12.5 21.5t-13.5 20.5q-5 8 -10.5 17
t-10.5 18l-2 6t-3 6q-1 3 -1.5 6t-2.5 6q-4 3 -8 5t-8 5q-1 2 -2 3t-1 2q0 4 1 7.5t-1 5.5q-4 10 -5 19t-1 19q2 8 8 13t13 9q6 3 11.5 6t11.5 5q11 2 22.5 4.5t21.5 3.5q10 3 15 -4l8 -10t9 -9q4 -3 5.5 -8.5t5.5 -7.5q8 -2 12 -13q3 -7 6 -13.5t5 -13.5q5 -17 16 -28
q5 -4 7.5 -11t7.5 -13q5 -5 8 -11.5t7 -14.5q3 -3 7.5 -6.5t9.5 -8.5q8 -19 17.5 -38.5t15.5 -39.5q-2 -3 -4 -9q5 -3 12 -6q4 -6 7.5 -13t11.5 -11q5 -16 12 -30.5t16 -27.5q5 -4 11 -7.5t12 -8.5q8 -13 16 -26.5t15 -24.5q3 -8 2 -15.5t3 -15.5q16 -15 25 -34t19 -39z" />
    <glyph glyph-name="bracketright" unicode="]" horiz-adv-x="290" 
d="M245 583q2 -23 1 -46t-3 -46q-3 -19 -3.5 -38.5t-1.5 -39.5q0 -10 0.5 -21t-1.5 -22q-2 -5 0 -9q2 -12 2 -23.5t1 -22.5q0 -11 3 -19q3 -21 -2 -36q-1 -5 -2 -11t-3 -11q-4 -13 -4 -30q-1 -10 -1 -21t-3 -21q2 -10 1 -20.5t-2 -21.5q0 -6 0.5 -12t1.5 -11q5 -22 4 -43.5
t-4 -44.5q-1 -6 -2.5 -12t-2.5 -14q-1 -2 -4.5 -3.5t-5.5 -3.5h-1l-2 1.5t-4 -1.5q-13 -2 -18 -2t-21 1h-7q-7 -2 -15 -4t-16 -5h-4q-1 0 -1.5 -0.5t-1.5 -0.5q-10 2 -19 1t-20 -1q-4 0 -9 0.5t-9 0.5q-12 5 -20 15q-2 6 -2 12v46q0 14 8 25q5 4 15 2q14 -2 27.5 -1t27.5 3
q2 3 3.5 5t2.5 4q1 3 1 10q-1 14 0 28t2 27q1 9 0.5 18t0.5 18q-4 12 4 25q1 2 2 4.5t2 5.5q-2 8 -2 15q-1 5 -1.5 10t-0.5 10q0 11 0.5 22.5t0.5 23.5v19v20t1 20q2 14 2 29t-1 29q0 5 -0.5 8.5t0.5 7.5q3 14 2.5 28t-0.5 27q0 20 -15 28q-3 3 -9 6q-3 0 -7 0.5t-8 0.5h-17
q-20 0 -25 20l-2 4t-1 5q-1 12 -1 23.5v22.5q0 4 1 8t5 8l4 2t4 1q9 1 17.5 3t18.5 3q11 2 21 2t21 -1q3 0 6 -0.5t7 -0.5q6 1 12.5 2t12.5 -1q11 -3 22 -4.5t21 -7.5q3 -4 6.5 -9.5t7.5 -10.5q2 -4 2 -7z" />
    <glyph glyph-name="asciicircum" unicode="^" horiz-adv-x="377" 
d="M337 536q-1 -3 -2.5 -5.5t-3.5 -3.5q-12 -8 -23 -15.5t-22 -12.5q-11 -1 -17 5q-4 3 -7.5 7t-8.5 7q-4 3 -8.5 6t-8.5 5q-4 8 -7 16t-7 16q-7 8 -15.5 17t-19.5 15q-10 -2 -15.5 -10.5t-13.5 -16.5q-4 -4 -9.5 -8.5t-12.5 -6.5q-14 -4 -23.5 -13t-20.5 -17l-3 -3
q-16 -7 -27 5q-7 8 -12.5 17t-9.5 19q3 13 9 24t13 21q15 20 23 39q3 6 6.5 11t9.5 8q20 11 35.5 26.5t29.5 32.5q1 1 1.5 1t1.5 1q13 2 24 -4t24 -11q9 -11 17.5 -22.5t19.5 -20.5q5 -4 8.5 -9.5t7.5 -10.5q6 -7 13 -15.5t14 -16.5q12 -14 22 -30q7 -11 12 -22.5t6 -24.5z
" />
    <glyph glyph-name="underscore" unicode="_" horiz-adv-x="493" 
d="M447 32q6 -9 6.5 -19t-8.5 -21q-5 -4 -12.5 -6t-15.5 -4q-7 -3 -14 -2t-14 4q-6 -1 -12 -3t-14 -1q-2 2 -5.5 1t-6.5 -1q-12 -2 -25 -2.5t-26 -3.5h-9q-15 1 -29.5 -1t-28.5 -1h-8t-8 -2q-5 -1 -9.5 -1.5t-9.5 -0.5q-8 -1 -15.5 0.5t-15.5 2.5q-4 1 -6.5 2.5t-4.5 2.5
q-7 1 -13 -0.5l-14 -3.5q-4 0 -9.5 2.5t-12.5 0.5q-4 2 -8.5 4t-8.5 5q-10 -2 -18 -4q-7 5 -13 12t-14 10q-3 11 -4 20l-2 18l6 10l6 10q-2 8 -4 18q0 12 10 19q19 -2 37 1t37 3q3 -1 9 -6q8 3 18 3q4 0 8 -0.5t8 -0.5q5 1 11 1.5t12 1.5l19 7q4 -1 7.5 -2.5t7.5 -3.5
q11 4 24 5t26 -4q3 -1 9 0q2 0 4.5 0.5t4.5 0.5l22 -4t21 -7q10 1 19.5 1h19.5q8 0 16 -1l16 -2q2 -4 4.5 -8.5t4.5 -9.5q4 -4 7.5 -8.5t5.5 -9.5q3 -8 9 -16q2 -1 3 -6z" />
    <glyph glyph-name="grave" unicode="`" horiz-adv-x="223" 
d="M179 559q0 -8 -8 -8q-2 0 -5 0.5t-5 -0.5q-10 -4 -19.5 -3.5t-18.5 3.5q-6 -1 -10 -1.5t-8 -0.5q-10 -3 -10 9v6q-4 7 -8 13t-9 10q-7 7 -11.5 15t-6.5 18q-1 5 -1 8.5t-2 7.5q-2 10 -5 18.5t-5 18.5q-1 9 -1.5 19t-1.5 21v3.5t1 3.5q1 2 1.5 4.5t1.5 4.5q11 2 20.5 2.5
t18.5 -2.5q2 -1 4.5 -0.5t5.5 0.5q10 5 19.5 3.5t19.5 -2.5q6 -6 8 -12t3 -12q4 -17 8.5 -34.5t6.5 -34.5q2 -12 5.5 -23.5t7.5 -22.5q2 -6 2.5 -11.5t1.5 -10.5q2 -2 1 -5t-1 -5z" />
    <glyph glyph-name="a" unicode="a" horiz-adv-x="567" 
d="M524 49q3 -7 2 -13t-4 -12q-1 -1 -4 -2.5t-5 -3.5q-4 -1 -7 -1t-7 -2q-15 -3 -18 -16q-1 -2 -4 -5q-7 -1 -10 -2.5t-12 -6.5q-7 0 -14 -2t-13 -8q-2 0 -3 -0.5t-3 -0.5q-4 -2 -9 1.5t-5 8.5v6q-4 2 -9.5 0t-8.5 4v15q-3 2 -5.5 3.5t-5.5 2.5q-4 8 -9 17t-10 16q-4 3 -7 2
t-5 -3t-3 -4.5t-3 -4.5t-3 -5t-3 -5q-13 -6 -26 -10.5t-25 -7.5q-7 -5 -14 -9t-13 -8q-6 -1 -12 -3t-11 -3q-6 3 -11.5 1.5t-13.5 -3.5q-9 2 -19 4.5t-21 4.5q-3 -1 -6 -1t-5 -1q-4 2 -6.5 4t-6.5 3q-5 2 -9 0t-9 -4q-5 2 -11 2.5t-12 1.5q-5 5 -8.5 9t-4.5 10q-2 2 -4 3.5
t-3 2.5q-4 14 -9 24q-14 30 -19 66q-2 2 -4 4.5t-5 5.5q-1 9 -2 17.5t-3 18.5q2 6 2 11q-2 10 -4 18q4 12 8.5 24t2.5 25q2 4 5 7.5t5 6.5q9 10 13 23q3 11 10.5 19t16.5 13q11 5 21.5 10.5t20.5 9.5q2 0 5.5 -0.5t5.5 0.5q18 3 31 2q6 -1 12 0t11 1l21 4q6 -1 12 -3t12 1
q2 0 3.5 -0.5t2.5 -0.5q5 -2 9 -4.5t9 -2.5q11 -2 14 4q-1 17 -2.5 22t-6.5 16q-3 6 -4 12.5t-2 12.5q-1 4 -1.5 7.5t-4.5 7.5q-13 4 -32 6h-6q-9 -4 -19 -4t-21 -2q-7 -1 -14.5 -4t-15.5 -5q-8 -4 -16 4q-3 9 -2.5 18.5t1.5 19.5q-2 7 -5 16.5t-3 22.5l1 7q-1 2 -3.5 4
t-4.5 3q-3 3 -1 6q0 3 3 3q8 2 15 3l14 2l12 12q2 1 5 1q23 -4 33.5 -3t32.5 8q11 -1 21.5 -3t21.5 -1q3 -3 6.5 -5.5t7.5 -5.5q5 2 10 3.5t9 2.5q6 -4 13 -8q5 -1 8.5 2t7.5 3q9 -1 14.5 -8.5t12.5 -12.5q6 -4 11.5 -10t11.5 -11l4 -6t3 -6q5 -4 9 -6.5t7 -6.5
q5 -4 10.5 -6t8.5 -7q2 -5 4 -10.5t7 -9.5q3 -10 6 -20.5t1 -21.5q0 -5 -1 -9q2 -5 3 -11t3 -11v-5q0 -3 -0.5 -6.5t0.5 -5.5q2 -6 5 -9q0 -6 -5 -11q-2 -1 -5 -2t-5 -3q-12 -7 -3 -18l3.5 -3.5t3.5 -5.5q1 -4 1 -8.5t1 -9.5q-4 -19 -15 -36q3 -14 9.5 -27t11.5 -27
q5 -3 8 -6t7 -5q1 -3 1.5 -4t0.5 -3q0 -10 2.5 -20t6.5 -19t8 -17t10 -16q5 -4 8 -11t5 -12zM305 184q-6 15 -15 20q-11 5 -14 13q-1 4 -4 5l-6 2q-4 0 -9.5 -0.5t-10.5 -1.5q-6 0 -11.5 2t-10.5 3q-9 0 -17 -5q-4 -3 -7 -5.5t-6 -6.5l-13 -24q2 -6 5 -10.5t0 -12.5
q2 -9 4.5 -18.5t7.5 -18.5q2 -2 3 -2q11 -2 22 -2t21 1q4 0 6 1q11 6 27 11q6 1 11 9q4 9 8 19.5t9 20.5zM93 20h-0.5t-0.5 -2q2 2 1 2z" />
    <glyph glyph-name="b" unicode="b" horiz-adv-x="508" 
d="M467 265q-1 -4 -3.5 -7.5t-4.5 -7.5l3 -32q0 -7 -0.5 -13.5t-0.5 -14.5q-1 -4 -2.5 -6.5t-3.5 -6.5q2 -2 3.5 -5l2.5 -5q1 -16 -6 -30t-9 -31q-8 -4 -13.5 -9.5t-5.5 -15.5q-4 -5 -9 -10t-11 -8q-1 -1 -5 -3q-6 -7 -12.5 -13.5t-14.5 -11.5q-4 -4 -6.5 -9.5t-6.5 -10.5
q-7 -4 -14.5 -7t-13.5 -6q-7 -1 -10 1.5t-7 3.5q-4 -1 -7.5 -5.5t-10.5 -9.5q-1 -1 -4.5 -2t-6.5 -3q-4 -1 -8 -3.5t-9 -4.5q-10 3 -20 5.5t-21 -1.5q-7 2 -13 4.5t-13 2.5q-5 0 -14 7q-4 -2 -13 -2q-5 0 -8.5 4.5t-9.5 2.5q-10 3 -19.5 7.5t-17.5 8.5q-7 3 -12 8.5
t-10 10.5q-1 2 -2 3.5t-3 3.5q-2 8 -7 14l-10 12q-3 11 -7 20q-1 4 -4.5 8.5t-5.5 9.5q-1 11 -4.5 20.5t-11.5 16.5q1 4 1 7t1 7q-2 7 -6 17q2 8 2.5 17.5t1.5 19.5q-1 6 -2.5 12.5t1.5 13.5v23q-5 23 1 44q3 8 1 19q0 20 0.5 40.5t-1.5 40.5q-1 2 0 3q2 14 2 28.5v29.5v4.5
t1 3.5q4 7 4.5 14.5t0.5 14.5q2 8 1.5 17.5t0.5 19.5q4 6 7.5 13.5t1.5 15.5v4q2 2 2 4.5t1 3.5q5 11 7 22.5t5 22.5q4 6 8 15q11 3 22 3q5 0 10 -0.5t9 0.5q11 2 22.5 2t23.5 -1q3 -1 6.5 -0.5t6.5 1.5q4 0 7.5 -1t6.5 0q2 0 3.5 0.5t2.5 0.5q1 -4 2.5 -7.5t2.5 -8.5
q-3 -16 -4 -24t0.5 -15.5t3.5 -23.5q-2 -13 -4 -25.5t2 -26.5q-3 -17 -2 -33q0 -13 -0.5 -26t-3.5 -26q2 -5 -1.5 -8.5t-5.5 -8.5q0 -9 -2 -18.5t-4 -19.5q-1 -5 -1.5 -11t-2.5 -12q0 -1 2 -1.5t2 -1.5q12 5 20 14t13 20q11 3 21 7t20 11q4 -1 8.5 -2t8.5 0q5 0 8.5 -0.5
t7.5 -0.5q11 0 20 -3t19 -6q11 -4 22 -8.5t22 -7.5q9 -1 16 -12q2 -4 5.5 -8t8.5 -7q8 -4 14 -11t12 -15q2 -2 10 -6q5 -11 12 -23.5t8 -26.5zM332 213q-1 2 -1 4t-2 4q-8 6 -12 16t-16 8q-14 -3 -25 1q-6 2 -9 2q-9 -1 -17.5 -2t-16.5 -2l-4 -2t-5 -1q-7 -7 -16 -15
t-14 -19q-1 -13 -0.5 -20t3.5 -17q1 -1 2 -3.5t2 -4.5q5 -3 6.5 -9t6.5 -9q2 -2 3.5 -4.5t2.5 -4.5q1 -14 10 -23q2 -1 3.5 -1.5t2.5 -1.5q8 0 11 3q6 3 13.5 4.5t13.5 5.5q6 5 14.5 5t15.5 4q1 0 5 2q5 8 11 14.5t10 15.5v24q1 6 1.5 13t0.5 13z" />
    <glyph glyph-name="c" unicode="c" horiz-adv-x="486" 
d="M445 412q-5 -8 -9 -16.5t-4 -19.5q-8 -5 -14.5 -13t-11.5 -17q-4 -7 -7.5 -13.5t-8.5 -13.5q-1 -2 -3.5 0t-3.5 5q0 4 -4 4q-3 0 -5 -3q-2 -1 -4 -3.5t-4 -4.5q-1 -1 -3.5 -1.5t-4.5 -1.5q-4 4 -9 7.5t-10 7.5l-12 4t-11 3q-4 2 -3 2q-3 2 -5 5t-7 1q-3 -3 -2.5 -5.5
t-0.5 -6.5q-7 0 -10 -1l-4 -2t-5 -2q-3 1 -7 1.5t-9 1.5q-9 -1 -17.5 -5.5t-16.5 -8.5q-6 -1 -9 -8q-4 -10 -12 -19t-14 -19q-1 -2 -3 -5.5t-4 -6.5q-1 -3 -1.5 -5.5t-0.5 -5.5q2 -6 4 -8l-4 -6l-4 -6q1 -3 1 -6t1 -5q3 -10 8 -16q3 -4 5 -8.5t5 -10.5l8 -6t8 -7l7.5 -7.5
t6.5 -7.5q4 1 7.5 1t8.5 1q2 -1 4.5 -1.5t4.5 -1.5q7 -1 13.5 -2t12.5 2q8 2 17 4.5t16 3.5q7 -1 13.5 -3t13.5 -4q7 5 14.5 8.5t16.5 4.5q9 -3 13 -11q4 -5 6.5 -11t5.5 -12q2 -7 5.5 -13t7.5 -12q3 -4 6.5 -9t5.5 -9q3 -16 -2 -28q-7 -5 -14 -11l-14 -12q-2 -4 -4 -7.5
t-4 -7.5q-4 -1 -8 -2.5t-8 -4.5q-3 -1 -6.5 -1.5t-7.5 -2.5q-6 -4 -15 -9q-7 4 -16 5q-7 -5 -16 -5t-17 -2q-9 -1 -16.5 2.5t-15.5 5.5l-14 -7l-21 7q-4 -1 -8.5 -1t-9.5 -1q-4 2 -9 4t-10 3h-6.5t-7.5 -1q-6 4 -9 7q-4 3 -8 6.5t-9 4.5q-17 9 -29 23q-7 8 -14.5 15.5
t-17.5 14.5q-5 5 -11 14q-2 13 -9 24.5t-14 22.5q1 7 -2 12t-5 11q2 8 1.5 17.5t0.5 19.5q1 5 -6 12q0 4 2.5 5.5t3.5 4.5q5 3 5 10q-2 2 -3.5 5.5t-3.5 5.5q2 4 4 9t2 9v18q4 6 8 9q0 8 -5.5 9t-8.5 5q7 23 9.5 28.5t11.5 18.5q1 11 1 22t8 23q2 1 5 4l6 6q2 5 3.5 9.5
t2.5 8.5q6 5 12 9.5t13 9.5q2 2 4.5 3t6.5 2q5 1 9 4l8 6q2 -1 5 -1t6 -1q8 2 14 7t13 11q12 3 24.5 5.5t23.5 7.5q7 0 13.5 -3t13.5 1q2 2 5 0q10 0 20.5 -1t20.5 -2q15 -2 24 7l2 2l2 2q2 -1 4.5 -2t3.5 -2q25 -22 57 -25q5 0 10 -2t9 -4l21 -21q10 -8 7 -20q0 -2 0.5 -4
t0.5 -4z" />
    <glyph glyph-name="d" unicode="d" horiz-adv-x="498" 
d="M459 447q-5 -18 -6 -36.5t-2 -36.5t-1 -36.5v-36.5q0 -15 -2 -30t-3 -31q0 -4 -0.5 -9t-0.5 -10q0 -14 -4 -26q-3 -13 -3 -26q0 -7 -1 -15t-4 -16q-1 -5 -1 -15q-1 -8 -4 -16q-2 -7 -4 -13.5t-4 -14.5q-4 -6 -7.5 -12.5t-7.5 -12.5q-9 -5 -15 -13q-10 -8 -19.5 -17
t-18.5 -17q-12 -10 -24 -10q-1 0 -2.5 -1t-3.5 -1q-19 -2 -31 -12q-1 -1 -2.5 -1.5t-3.5 -2.5q-13 -2 -26.5 2t-24.5 10h-16q-4 0 -8 0.5t-9 1.5q-27 6 -52 23q-3 3 -7 4t-9 2q-6 1 -12 3l-12 4q-5 3 -8 8.5t-6 9.5q-5 10 -9 18.5t-9 18.5q-4 8 -9 16.5t-10 15.5q0 1 1 1
t1 1l-2 2q0 -1 -0.5 -1.5t-0.5 -1.5q-1 1 -2.5 1.5t-2.5 1.5q-4 2 -6 6.5t-4 8.5q3 6 3 16q2 13 -1 23q-4 15 -3.5 30t1.5 31q0 5 4 13q7 17 8 30q10 14 16 30t14 30q5 2 8.5 4t7.5 3q2 2 3 5t4 5t7 3.5t9 2.5q2 3 3.5 6t3.5 6q3 3 4 3q23 8 48 12q4 1 8.5 1.5t8.5 1.5
q13 4 26 3t26 0q3 0 6.5 -1t6.5 -2q3 0 8 -2t6 0q10 2 14.5 -2l4.5 -4q2 -1 8.5 -0.5t7.5 0.5q9 2 10.5 8.5t-0.5 6.5l-2 2q1 13 -0.5 26t-0.5 26q1 5 1 10.5v10.5q-1 5 0 9.5t1 9.5t0.5 9.5t-1.5 7.5q-3 8 -2.5 16t2.5 16q3 11 4.5 22t-0.5 24v5q4 10 4.5 20t1.5 18
q5 7 12.5 9.5t11.5 6.5q16 1 30 0t28 3q7 -3 13.5 -4.5t11.5 -2.5q11 -8 11 -21v-11t-1 -12q1 -4 3 -7t3 -8q-1 -2 -1.5 -5.5t-1.5 -7.5q1 -4 2 -10t2 -11q0 -16 0.5 -31t-0.5 -30q0 -16 0.5 -21t4.5 -20zM313 195q-3 8 -4.5 15.5t-3.5 13.5q-3 7 -7.5 13t-7.5 13
q-10 5 -15 10q-5 2 -9.5 3t-9.5 2q-4 2 -7.5 3.5t-7.5 2.5q-7 -3 -13.5 -6t-12.5 -6q-16 -7 -22 -26q-1 -4 -1 -8t-1 -9q-1 -3 -3.5 -6t-4.5 -8v-18q2 -13 7.5 -24.5t18.5 -19.5q3 -1 5.5 -3.5t6.5 -4.5q6 -6 12 -6q16 2 31 3.5t29 7.5q6 5 9 10q3 4 5 7.5t5 7.5v17v9t1 7z
" />
    <glyph glyph-name="e" unicode="e" horiz-adv-x="518" 
d="M475 353q-1 -10 -1.5 -20.5t-2.5 -20.5q-1 -10 -1 -21.5t-4 -23.5q-2 -3 -5 -6.5t-6 -8.5q0 -4 0.5 -7t1.5 -7q-2 -5 -6 -8.5t-8 -5.5q-10 -3 -18.5 -6t-17.5 -5q-14 -2 -29 -0.5t-30 0.5q-13 0 -27.5 -0.5t-29.5 -0.5h-56q-4 -3 -8.5 -2t-8.5 -1q-4 2 -9 0.5t-10 0.5
q-4 -1 -7.5 -1.5t-8.5 -1.5q-4 1 -7 2.5t-7 -1.5q2 -3 4.5 -6.5t3.5 -8.5q3 -4 5 -8t4 -9q2 -4 3 -8.5t2 -8.5q5 -5 11 -10l12 -10q5 -1 10.5 -2t10.5 -2l12 -2t13 0q7 2 13 -0.5t13 -3.5q9 1 18.5 2t18.5 2q4 3 8.5 5.5t8.5 5.5q13 3 26 -1q3 -5 7.5 -10t8.5 -11
q6 -9 12 -17.5t8 -19.5q2 -5 6 -10t6 -9q1 -5 -0.5 -9t-2.5 -9q-4 -4 -10 -7q-1 0 -2 -2t-3 -3l-12 -8t-11 -8q-14 -12 -29 -12q-6 0 -9 -1q-5 -1 -10 -4t-11 -5q-5 0 -10 -1.5t-10 -2.5q-3 0 -7 0.5t-8 0.5q-9 -1 -18 1t-18 2l-6 2t-6 1q-17 -1 -32 5.5t-30 13.5
q-12 3 -17 11q-7 8 -15.5 13.5t-18.5 9.5q-6 2 -12 5.5t-13 7.5q-1 4 -3 8l-4 8q-2 3 -5.5 6t-6.5 6t-5 7q-5 17 -10 33.5t-13 32.5q1 7 1.5 14.5t-1.5 16.5q-1 2 -1 5v5q0 5 0.5 8.5t-0.5 6.5l-2 16t1 15l4 16t5 17q-1 2 -1 6t-1 8l4 22t5 21q3 6 6.5 11.5t7.5 11.5
q7 12 11 23q12 6 14.5 7.5t4.5 4.5t13 12q-1 3 5 9t4 10q9 17 26 27q6 4 11.5 8.5t9.5 8.5q5 3 9.5 2.5t8.5 -0.5q3 1 6.5 1.5t7.5 1.5q2 1 5 2t5 3l4 2t4 1q9 1 17 5t15 8q15 -6 31 -4q10 1 19.5 -1t17.5 -5l14 4q8 -1 15 -5l14 -8h9q1 -1 2 -1.5t2 -1.5q11 -10 21 -18.5
t21 -17.5q15 -10 19 -24q4 -6 7 -9q12 -10 21 -27q0 -2 0.5 -5.5t0.5 -6.5q-1 -5 2 -10t4 -11zM348 320v25q0 5 -1 6q-1 3 -2.5 6t-2.5 4v17l-3 3q-4 0 -10 2q-2 9 -5 14q-3 4 -8 5t-11 3q-13 -4 -28 -7t-29 -8q-7 -1 -13 -1t-12 -1q-10 -4 -17.5 -12.5t-14.5 -16.5
q-4 -5 -7 -11t-7 -11q-1 -1 -1 -6q3 -8 9 -10q6 -1 12 -3t13 -4q3 1 5.5 1t5.5 1q12 5 20 1q8 -1 14.5 0t13.5 2q6 -3 12.5 -4t12.5 -3q13 -4 25 -4t24 3q5 5 5 9z" />
    <glyph glyph-name="f" unicode="f" horiz-adv-x="483" 
d="M443 277q-1 -5 -2.5 -9.5t-2.5 -11.5q0 -7 4 -12q-3 -12 -12 -17q-7 -3 -14.5 -4.5t-18.5 -8.5q-4 -4 -8 -10q-7 -2 -12 -3t-10 -3q-15 3 -24 -4q-4 -3 -8.5 -2.5t-9.5 -1.5q-1 -2 -2.5 -4.5t-3.5 -6.5l-8 -2t-7 -2q-5 -1 -9.5 0t-9.5 -1q-2 -1 -6 -0.5t-8 -0.5
q-1 -2 -2.5 -4.5t-3.5 -4.5l2 -8t2 -9q1 -3 1 -7t1 -8q8 -19 0 -38q2 -7 3.5 -13.5t-0.5 -13.5q-1 -3 -0.5 -5.5t1.5 -5.5q2 -11 -1 -20q-1 -4 -0.5 -7.5t0.5 -6.5q1 -6 -0.5 -11.5t-6.5 -10.5q-9 -1 -18 -1.5t-19 -3.5q-4 -1 -8.5 -1t-8.5 -1q-11 0 -22 -3q-8 -4 -17 1
q-4 -2 -6.5 -4t-6.5 -4t-8.5 1t-5.5 6t-2 6.5t-1 6.5v16.5t1 16.5q2 9 0.5 18.5t-1.5 17.5q0 7 -3 10q-4 6 -4 13t-2 14q-1 2 -0.5 4.5t0.5 3.5q2 9 2 17.5t-1 17.5q0 7 -4 10q-1 3 -4 4.5l-5 2.5q-7 1 -12.5 -3t-10.5 -5q-13 -1 -25 2.5t-23 2.5l-4 4l-3 31v17t-2 15v8
q2 18 1.5 23.5t-4.5 19.5q3 5 4 5q13 0 24.5 4.5t22.5 8.5q4 4 7 5q14 11 20.5 14.5t22.5 8.5q11 23 14 47.5t-2 49.5q1 2 1.5 4t1.5 4q11 17 12 35q1 6 3 12.5t2 13.5q-1 5 0 11t2 13q3 6 7.5 13t9.5 14q2 4 1.5 9t1.5 9q3 4 5 8t5 8q2 2 5.5 4.5t6.5 5.5q4 2 6.5 4.5
t4.5 5.5q5 7 11.5 11.5t13.5 9.5h22q2 2 5 3.5l5 2.5q3 1 7 5q7 1 14 3t14 -1q4 1 7.5 2t7.5 2q20 9 41 3q10 -4 18 0q3 -3 6 -5.5t7 -5.5l8 -4t8 -5q0 -2 1 -5t1 -6q2 -9 4 -17t6 -17q2 -7 2 -13.5t-2 -13.5q-1 -4 -2.5 -8.5t-1.5 -9.5q0 -3 -1 -5q-6 -7 -7.5 -15t-3.5 -16
l-3 -3h-5q-15 11 -28 6q-7 -1 -14 0q-22 6 -40 -11q-1 -1 -2.5 -3t-3.5 -4q-1 -6 -1.5 -12t-0.5 -12q-3 -4 -6 -6t-6 -5q-4 -3 -8 -8q-4 -6 4 -9q3 -1 1.5 -5t-1.5 -8q0 -5 -1 -7.5t-4 -10.5l-0.5 -4t-1.5 -9q-3 -3 -5 -7l-4 -8q-4 -19 7 -33q6 -2 10.5 -0.5t9.5 1.5
t9.5 0.5t8.5 1.5q4 2 8.5 4t8.5 4q13 2 25 1.5t24 -2.5q5 -1 9.5 -2.5t5.5 -5.5q5 -5 10 -9t10 -9v-30q3 -8 8 -14z" />
    <glyph glyph-name="g" unicode="g" horiz-adv-x="527" 
d="M486 237q-1 -1 -0.5 -2.5t-0.5 -3.5q-3 -10 -2 -19q0 -11 -6 -23q2 -4 3.5 -8.5t2.5 -9.5q-2 -11 -4.5 -23t4.5 -23q-1 -6 -3 -12t-4 -11q-1 -5 -2.5 -10t-3.5 -13q0 2 -0.5 1t0.5 -3q4 -16 0 -31t-10 -30q-1 -1 -2 -3.5t-3 -4.5q-11 -19 -20.5 -39t-19.5 -40
q-1 -4 -4 -9t-5 -10q-4 -6 -7 -9q-7 -6 -15 -12.5t-16 -12.5q-10 -4 -17 -11t-13 -17q-7 -2 -13 -6q-6 -2 -11 -8q-2 -4 -7 -4q-5 -1 -8.5 -5t-8.5 -6q-9 -3 -16 -10q-9 -6 -19 -9q-5 -1 -10 -4.5t-9 -5.5q-2 1 -3 1h-1l-30 30q-2 18 -3.5 26.5t-5 15t-12.5 17.5q1 2 1 3
t1 2q3 2 7 5t8 4q8 5 14 10.5t13 10.5q6 5 13 9.5t14 8.5q7 5 13.5 10.5t11.5 12.5q3 4 6 7l6 6q1 4 1 7.5t1 6.5q4 10 -1 23v2l7 10q0 -1 1.5 5l1.5 6q0 9 -0.5 14.5t-0.5 13.5q-4 5 -5.5 5.5t-3.5 -1.5q-4 -4 -10 -6l-12 -4q-1 0 -4 -2t-5 -1l-13 -9q-1 0 -1.5 -0.5
t-1.5 -0.5h-25q-3 4 -7 7t-7 7q-7 2 -10.5 0.5t-8.5 -1.5l-17 3h-14q-7 5 -13 9.5t-13 8.5q-17 -1 -22 -0.5t-17 7.5q-2 3 -3 6t-3 6q-3 6 -4.5 12.5t-4.5 11.5q-4 4 -4 11q1 8 -2 14.5t-5 13.5q-1 7 -5 13t-6 12q1 11 -6 20q-2 14 -6 26q5 18 5 30q0 8 1.5 14.5t2.5 13.5
q-1 2 -2 4.5t-3 3.5h1l6 6q3 2 5 10q-1 4 -2 7.5t-2 7.5q0 5 1 6q10 8 12 12t6 17q1 1 3.5 2t3.5 2l6 4q2 5 4.5 10.5t4.5 12.5q8 8 17.5 15t19.5 13q13 8 17 11.5t15 14.5q7 3 14.5 6.5t14.5 9.5l10 6t9 5q5 -1 8.5 -1h6.5q6 1 9 5.5t7 7.5q10 3 22 1q5 0 10.5 -0.5
t10.5 -0.5q11 0 21.5 0.5t19.5 3.5q8 -5 14.5 -10.5t13.5 -7.5q2 -3 4 -5t3 -4q4 -6 8 -1l3 3t3 2l2.5 2.5l2.5 2.5q5 -4 11 -8.5t11 -8.5t10.5 -8.5t10.5 -7.5q4 -4 13 -6l4 -8l4 -8q5 -9 9.5 -18t10.5 -17q11 -14 14 -31q0 -7 -2.5 -14t-0.5 -18q2 -5 4.5 -11.5t4.5 -13.5
q2 -10 0.5 -18.5t-3.5 -17.5q2 -4 3 -7.5t3 -8.5zM343 237q-5 7 -8 14q-1 5 -2.5 10t-1.5 9q-1 5 -1 10.5t-1 10.5t-1 10.5t-5 9.5q-3 2 -7.5 3t-9.5 3q-4 4 -8.5 7.5t-8.5 5.5q-4 1 -7 1q-9 -1 -17.5 -2.5t-17.5 -1.5q-2 0 -5 -1t-5 -2q-5 -5 -11.5 -6.5t-12.5 -3.5
q-4 -1 -9 -4t-7 -8q-3 -6 -7.5 -8.5t-8.5 -4.5q-4 -4 -4.5 -7.5t-1.5 -6.5q-1 -4 -3 -6.5t-4 -5.5q6 -19 11 -31.5t12 -24.5q1 -4 0.5 -6.5t1.5 -5.5q7 -1 13 0t11 5q1 1 3 0.5t3 -0.5q4 -4 7 -7.5t6 -6.5q8 -3 15 -5t14 1q6 4 10 10.5t11 8.5q4 0 8.5 -0.5t9.5 -0.5
q2 2 5.5 4t5.5 4q5 5 9.5 9t10.5 7q7 5 8 13z" />
    <glyph glyph-name="h" unicode="h" horiz-adv-x="500" 
d="M458 164q-4 -13 -2.5 -25.5t-0.5 -25.5q-1 -7 0 -14t-1 -15q-1 -6 -0.5 -12.5t0.5 -12.5q-1 -4 -1 -10q-2 -7 -2.5 -13.5t-2.5 -14.5q0 -1 -0.5 -2.5t-0.5 -3.5q0 -7 -8 -7q-1 1 -5 1q-7 3 -12 1l-10 -4l-6 -6t-6 -7q-11 -6 -20.5 -3.5t-19.5 8.5q-6 0 -9 -1h-3
q-1 1 -3 1q-4 3 -7.5 6t-7.5 6q-8 8 -6 16q1 4 2.5 7.5t0.5 7.5q-1 5 -2.5 10t-1.5 10t1.5 10t2.5 10q-2 8 -6 16t-6 17q-1 8 -2.5 16.5t-1.5 16.5q-1 9 -1.5 17.5t-0.5 18.5q-2 12 -10 19q-7 8 -12 15t-9 16q-5 4 -13 7l-2 4t-3 3q-1 1 -1 2.5t-1 2.5l-6 6q-4 2 -8 0t-7 -2
q-4 -1 -7 -1t-8 -1q-4 -2 -6.5 -4.5t-7.5 -4.5q-3 -3 -7 -4.5t-8 -3.5q-4 -9 -1 -17q2 -10 2.5 -21t2.5 -22q1 -10 -2 -23q0 -3 -1 -6.5t-1 -7.5q1 -16 -2 -31.5t-8 -31.5q1 -10 2 -19.5t2 -19.5v-21q0 -13 -14 -15h-21q-10 -1 -19.5 -2t-17.5 -6q-4 -1 -7.5 -3t-8.5 -4
l-7 -7q-2 0 -4.5 -0.5t-4.5 0.5q-10 5 -19 8q-10 13 -12 28t-7 28q1 6 2.5 11.5t-0.5 10.5q-1 3 -1 11q0 3 0.5 5.5t-0.5 4.5q-3 19 2 33q2 9 -1 19q-4 18 -3 37q3 16 -1 32q-3 3 0 8q0 5 0.5 10.5t1.5 9.5t4 6.5t5 4.5l3 18q2 3 -3 10q-1 2 -3 0.5t-4 -2.5l-1 1
q0 11 0.5 20.5t-0.5 19.5q-1 4 0 7t1 7q0 3 -1 7t-1 8v5t1 6l2 10t3 11q-4 8 -3.5 17t-1.5 19q-1 3 0.5 7t2.5 9q-4 9 -3 20.5t0 22.5q2 6 1 11.5t-1 11.5q1 10 0 19t1 18q1 3 0.5 5t-0.5 4q-2 19 1 35q1 3 1 8v9q-1 4 -1.5 7t0.5 7q3 6 2.5 12.5t3.5 12.5l0.5 1t0.5 2l2 1
q0 1 3 1q5 2 9.5 3.5t9.5 2.5l6 -4t7 -4h16q2 2 4 3t3 2l10 7q4 2 8.5 2.5t7.5 -2.5q9 -6 17.5 -10t17.5 -5q5 -8 7.5 -15t5.5 -15q3 -10 9 -23q0 -5 -3.5 -8t-4.5 -9q0 -2 0.5 -6t1.5 -9q0 -4 -1 -8t0 -9q2 -16 1 -32t-3 -31v-14q0 -10 5 -20q4 -4 7.5 -8.5t6.5 -9.5
q6 -6 13 -6q14 0 28.5 -2.5t28.5 -0.5q3 1 5 0.5t5 -0.5q3 -2 7.5 -3t8.5 -2q11 -2 9 -13l1 -0.5t2 -1.5q2 1 4 1t3 1q13 5 23 -2q6 -5 14 -7.5t15 -10.5q7 -12 18 -22.5t22 -22.5q2 -3 5 -5.5t5 -4.5q9 -9 10 -18q3 -14 7 -22q3 -11 9 -25v-10q1 -4 2 -8.5t1 -9.5l2 -24
l2 -24q0 -1 0.5 -2.5t-0.5 -3.5z" />
    <glyph glyph-name="i" unicode="i" horiz-adv-x="260" 
d="M216 534q3 -7 2 -14.5t-3 -14.5q-1 -6 -4 -11.5t-5 -10.5q-4 -6 -8.5 -11t-8.5 -10q-3 -1 -5 -3.5t-5 -4.5q-7 -5 -22 -9.5t-24 -4.5q-5 0 -8 2q-6 0 -12 0.5t-11 0.5q-3 2 -6.5 4t-5.5 4q-5 2 -10.5 2h-10.5q-4 3 -9.5 5.5t-10.5 4.5l-6 18q1 8 2 17.5t-2 19.5q-3 2 0 5
q3 7 0 14t0 14q1 2 1 6q-3 6 0 11.5t5 9.5q-1 3 -1 6.5v5.5q1 1 1.5 2.5t2.5 2.5q8 2 13.5 7.5t12.5 8.5q7 6 15.5 10t16.5 8h14t12 -2q3 -1 7 -1h8q14 2 22 -11q2 -5 7 -6t9 -3q10 -9 13 -23q2 -6 4.5 -12t3.5 -12q2 -6 3.5 -12.5t2.5 -12.5zM210 304q-2 -6 -2 -13.5v-15.5
q1 -7 0 -14.5t-1 -14.5l-7 -10q5 -5 6 -11t1 -13v-14.5t-1 -15.5q-1 -7 -4 -15t-5 -17q0 -10 -0.5 -23.5t0.5 -26.5q1 -19 -2 -38.5t-12 -36.5q0 -8 2 -15.5t4 -15.5q0 -1 -1 -2.5t-1 -3.5q-5 -7 -12 -12q-1 0 -2 -1h-4q-11 0 -22.5 -1.5t-25.5 1.5q-4 2 -8.5 5t-9.5 5
q-4 0 -9.5 0.5t-10.5 1.5q-8 9 -16 19q-3 2 -7 3t-8 3q-7 5 -5 16t5 19q3 13 -1 25l-4 14q0 8 -1 15t0 14q1 10 0.5 19t-0.5 19q1 14 1 27.5v26.5q0 5 1 6q5 8 5 15.5v15.5q-1 8 0.5 16.5t-0.5 15.5v17.5t1 17.5q1 5 1.5 10.5t-1.5 12.5q9 4 15.5 6t12.5 2h8.5t8.5 1
q10 2 17 4q5 -1 8.5 -3.5t7.5 -4.5q7 0 14 3q7 1 12.5 -1t8.5 -10q1 -1 1.5 -2t1.5 -2l7 -4q7 -1 12 2.5t10 4.5q6 0 7 -5q3 -7 4 -21z" />
    <glyph glyph-name="j" unicode="j" horiz-adv-x="424" 
d="M365 531q-1 -7 -2.5 -14t-3.5 -14q-1 -4 -3.5 -7t-3.5 -6q-3 -7 -7.5 -13.5t-12.5 -10.5q-13 -4 -17 -6t-13 -9q-4 -2 -7.5 -1t-6.5 2q-7 0 -14 0.5t-15 -0.5q-18 -3 -31 10l-14 11q-1 3 -2.5 6.5t-1.5 6.5q0 11 -1.5 21t-3.5 20q-2 7 -4.5 13.5t-5.5 12.5q-3 9 2 14
q5 8 10.5 17t12.5 16q5 5 9.5 10.5t9.5 11.5l24 5q14 -1 26 -2t25 -2l21 -13q4 0 7.5 0.5t7.5 0.5q3 -1 3 -5q-1 -3 -1 -8q3 -7 6 -10q1 -2 1 -3t1 -3v-10t1 -10q4 -7 4.5 -15t-0.5 -16zM382 154q-4 -3 -6.5 -6.5t-6.5 -7.5q0 -1 -0.5 -1.5t-0.5 -1.5q1 -3 2.5 -14
t3.5 -22.5t2 -14.5q2 -5 -0.5 -9t-4.5 -10q2 -2 2 -12.5t1 -14.5q-2 -6 -4.5 -12.5t-1.5 -14.5q-2 -6 -5.5 -22.5t-7.5 -23.5q-2 -6 -5 -11.5t-6 -11.5q-4 -6 -6.5 -13t-7.5 -12q1 -4 1 -7v-5l-2 -5q-7 -2 -10.5 -7.5t-5.5 -11.5q-1 -7 -4 -15l-8.5 -8.5l-9.5 -9.5
q-4 -4 -9 -8.5t-9 -9.5q-4 -2 -6 -6t-6 -8q-7 -6 -16.5 -9t-20.5 -6q-8 -1 -17.5 -1.5t-19.5 -0.5q-2 1 -4.5 2.5t-5.5 2.5q-8 2 -16.5 4t-16.5 5q-4 1 -8.5 0.5t-9.5 -0.5q-7 -1 -10 1.5t-6 10.5q-4 2 -8.5 3.5t-9.5 2.5q-7 11 -11 14t-18 12q-4 8 -11.5 16t-10.5 20
q8 20 20 37q8 11 9 21q1 5 3 9t3 8q2 4 5 7t5 6q6 1 10 -1.5t6 -5.5q7 -7 13 -15l3 -1.5t3 -2.5q6 -4 12.5 -5.5t13.5 0.5q11 2 22 3l22 2q9 0 15 8q4 8 15 12q5 2 8.5 14.5t7.5 17.5q2 11 4 30.5t-1 31.5q0 3 -0.5 5.5t0.5 4.5q4 6 3.5 21.5t-1.5 31t-1 21.5q2 4 1.5 6.5
t0.5 5.5q2 7 1 21.5t-3 20.5q2 7 4.5 26t1.5 27q-2 5 -6 8q3 20 3 26t-4 23q1 3 3 5l4 4q17 10 37 16q13 2 21 10q14 -1 26 -4t24 -4q2 0 2.5 -0.5l0.5 -0.5l2 -2q3 -3 3 -5q2 -7 5 -14.5t3 -16.5q0 -5 3.5 -8.5t4.5 -8.5q2 -7 -1 -13t-3 -12q2 -3 3 -5.5t3 -5.5
q-2 -3 -3 -18t-2 -19q6 -15 7 -30t-1 -33z" />
    <glyph glyph-name="k" unicode="k" horiz-adv-x="484" 
d="M439 67q-11 -17 -28 -23q-11 -4 -21 -10t-20 -13q-2 -4 -8 -5q-3 1 -7 2t-9 2l-17 3q-7 5 -12 10.5t-10 11.5q-10 12 -14 15t-18 10q-5 11 -9 22.5t-3 12.5q4 2 0.5 8.5t-5.5 7.5q-6 4 -7 4q-6 1 -13 1h-14q-4 3 -8 5t-9 4q-7 -1 -10 -6.5t-5 -10.5q-1 -3 -1 -9
q0 -7 0.5 -15t-1.5 -16q-2 -7 -2.5 -14t-0.5 -15q-1 -4 -2 -9t-3 -10q-4 -7 -5.5 -15t-6.5 -14q-24 -6 -30.5 -7t-21.5 0l-4 -2t-5 -2q-7 3 -15 7.5t-16 8.5q-7 4 -7 11q-1 17 -4.5 33.5t-2.5 33.5q-3 12 -2.5 25t-1.5 26q-1 4 -1 7.5v7.5q2 8 3 18q-1 2 -2.5 5.5t-3.5 5.5
q-3 10 -2 18t1.5 15.5t-1.5 16.5q0 5 0.5 8.5t1.5 7.5q5 12 -1 25q-2 8 -5 16l-6 16v9t1 10q0 11 0.5 21.5t-0.5 20.5v6q2 7 2.5 14.5t1.5 14.5q3 8 3.5 17t1.5 16q0 17 3 32q2 4 2 7.5v6.5q0 5 -1.5 9t-1.5 8q0 5 1.5 9.5t1.5 8.5v34q1 10 1 20t1 21q-1 1 -2 3t-3 5
q-2 6 3 6q20 8 39 18q2 0 3 0.5t2 0.5q9 2 17.5 3.5t15.5 6.5q2 3 9 3q11 0 19 4q7 2 12 0.5t10 -3.5v-8q0 -5 1 -6q0 -2 2 -2q15 -12 15 -34q0 -4 0.5 -8t1.5 -9v-8q-1 -9 -3 -17t-3 -16q2 -10 3.5 -20.5t-2.5 -20.5v-9q2 -7 1 -14t-1 -15v-11q3 -10 1.5 -20t-3.5 -19
q1 -5 1.5 -9.5t1.5 -9.5q-1 -5 -2 -10.5t-2 -10.5q0 -7 0.5 -13.5t1.5 -14.5q-1 -5 -2 -11.5t-3 -12.5q0 -3 4 -5h0.5t1.5 1q4 0 5 3q8 9 19 17q5 3 9 7t10 7q3 1 9 7l16 12t17 9q9 11 13 19q5 2 9 4.5t6 3.5q3 3 5 6l4 12t5 12q7 6 13.5 12t13.5 13q6 1 11 -1.5t11 -4.5
q10 -16 23.5 -29t27.5 -25q5 -1 8 -10t0 -15q-3 -1 -6.5 -4t-8.5 -5q-7 -14 -15.5 -28t-16.5 -29q-3 -6 -6 -11.5t-8 -9.5q-4 -2 -5 -5t-3 -7q-4 -10 -9 -17t-12 -14q-3 -2 -6 -6t-5 -7q-1 -1 -1 -3q1 -10 7 -15.5t7 -13.5q5 -2 9.5 -5t8.5 -5q9 -12 20 -23.5t21 -22.5
q10 -10 18 -21.5t13 -24.5q2 -4 2.5 -8t-1.5 -8z" />
    <glyph glyph-name="l" unicode="l" horiz-adv-x="353" 
d="M309 81q0 -9 -8 -15q-8 -8 -4 -19q2 -7 2 -15v-16q-1 -2 -2.5 -4.5t-3.5 -4.5q-4 -2 -5 -2q-8 -1 -16 -1.5t-16 -0.5h-5q-14 4 -27.5 4.5t-26.5 2.5q-8 2 -15 2t-14 -2q-10 5 -19.5 10.5t-20.5 10.5q-7 11 -17.5 18.5t-18.5 18.5q-2 5 -4.5 10t-5.5 9q-10 15 -13 33
q0 7 -5 12q-8 15 -4 28q1 2 0.5 4.5t0.5 3.5q-4 5 -6 8l-4 6q0 7 1 10l-8 10q2 11 3.5 22.5t3.5 21.5l-7 10q0 4 3 6.5t5 6.5q4 11 5 21q3 12 3 23q-2 22 0 43t1 43q5 22 4 44t3 43v5q-3 12 0 23t7 20q-1 2 -1 5t-2 5q2 7 6 11.5t7 8.5q2 4 3.5 8.5t2.5 8.5l7 7q9 2 19 1
q3 -1 6.5 -3t7.5 -4q7 -4 13.5 -6.5t14.5 -1.5q11 -4 21.5 -5t20.5 0h4l0.5 -0.5t1.5 -0.5q5 -1 9 -5t2 -9q-2 -15 -2.5 -30t-2.5 -30q-2 -14 -4 -28.5t-5 -28.5q-1 -22 -3.5 -43.5t-2.5 -42.5q0 -3 0.5 -5t0.5 -4q-5 -10 -7.5 -20t-5.5 -21q-2 -8 0 -17q3 -12 2.5 -24
t-2.5 -25v-6l4.5 -9t4.5 -10q-1 -3 -2 -6.5t-2 -6.5q2 -5 2.5 -11t1.5 -11q4 -5 8 -9.5t5 -10.5q0 -2 2 -5t3 -5q2 -5 6.5 -8t8.5 -5q7 -1 13 -3t13 -4q4 0 6.5 0.5t5.5 0.5q2 -1 5.5 -2t6.5 -2q1 -1 2 -2.5t2 -2.5q2 -8 11 -17q5 -4 9.5 -8.5t6.5 -10.5z" />
    <glyph glyph-name="m" unicode="m" horiz-adv-x="757" 
d="M713 187q-1 -8 -1.5 -17.5t-1.5 -18.5q-1 -8 -1 -15t-3 -15q-2 -5 -2 -10.5v-11.5v-10.5t-1 -10.5q-1 -8 -2.5 -16.5t-3.5 -16.5q-1 -4 -3 -8.5t-4 -7.5l-7 -7q-6 -6 -14 -4q-5 2 -9.5 3t-9.5 -3q-7 5 -17 8h-11q-2 0 -4 1t-4 1l-6 -2t-5 -2q-6 0 -8 1q-11 9 -11 22
q-1 11 -4 21.5t-6 21.5q2 8 1.5 17t0.5 18q1 5 0.5 10.5t3.5 10.5q0 12 3 27q1 4 0 9q-1 10 -3.5 19.5t-7.5 18.5q-2 4 -4.5 7.5t-7.5 4.5q-4 3 -9 5t-9 4q-7 -3 -12 -4q-2 1 -5 2t-5 2q-1 -1 -2.5 -1t-2.5 -1q-6 -9 -15 -15q-4 -1 -8 -4.5t-8 -6.5q-3 -3 -7.5 -4t-9.5 -3
q-1 -3 -1.5 -6t-2.5 -6l-2.5 -5l-2.5 -5q-5 -14 -6 -26q-1 -3 -1 -6q2 -6 -0.5 -9.5t-4.5 -7.5q-1 -17 -1.5 -34t-1.5 -34q0 -6 -1 -10q-2 -6 -3.5 -12.5t-3.5 -13.5l-21 4h-11t-12 1h-20h-14t-14 1q-11 0 -16 8q-4 12 -7 24.5t-3 25.5q0 4 0.5 8t2.5 7q2 8 2.5 14t0.5 13
q-1 14 0.5 29t0.5 29q-1 4 -1 7v6q-1 5 -3 9t-1 8q0 5 0.5 10t0.5 10q-3 4 -5.5 7t-6.5 7q-3 0 -6.5 0.5t-7.5 1.5q-4 2 -9.5 5t-10.5 5q-4 2 -8.5 4t-7.5 3q-8 -3 -17 -8q-3 -1 -6.5 -1.5t-7.5 -1.5q-5 -5 -10.5 -10t-11.5 -11q-2 -4 -4 -8.5t-4 -9.5q-6 -14 -9.5 -28.5
t-3.5 -31.5v-33q0 -17 -2 -33.5t-5 -33.5q-1 -7 -3.5 -13t-4.5 -14q-5 -7 -11 -12.5t-14 -7.5q-14 1 -18.5 0.5t-18.5 -5.5q-4 -1 -7.5 -2t-8.5 -2t-9 0t-14 4q-4 6 -9.5 13t-10.5 14q1 3 1.5 6t1.5 5q2 13 0 25q-3 12 -5 24t-5 22q0 8 3.5 13t4.5 13q2 7 2.5 16.5t1.5 18.5
v19.5t2 17.5q0 7 -1 9q-3 20 2 39q2 5 2.5 8.5t1.5 5.5q3 6 8 8t9 6q5 9 2.5 18t-3.5 19q2 5 4 10.5t3 11.5q8 8 14.5 17t12.5 17q2 2 2 7t4 7q2 1 4.5 1.5t3.5 1.5l34 10t33 12q18 8 36 8q2 0 4 0.5t5 0.5q13 5 26.5 6t27.5 1h12q5 -1 10.5 -2.5t10.5 -5.5q8 -4 15.5 -7.5
t16.5 -4.5q4 -1 6.5 -3.5t5.5 -4.5q5 -4 8.5 -9t7.5 -10q2 -4 3.5 -8.5t2.5 -9.5l8 -8t11 -3q5 5 10 9.5t9 9.5q3 -1 9 -1l25 17q2 5 4 8t3 7q5 1 10 1.5t10 1.5q7 4 13 6.5t12 6.5q5 0 10.5 -0.5t10.5 -0.5q4 -1 8.5 -0.5t8.5 -1.5q13 -4 26 -4.5t26 -2.5q2 -2 8 -2l22 -21
q0 -1 1 -2t1 -2q9 -26 30 -37q1 -2 1.5 -5.5t1.5 -5.5q6 -6 13 -6q12 -2 11 -11q0 -12 3.5 -24t7.5 -23l7 -25q0 -7 0.5 -16t0.5 -17q0 -4 0.5 -7.5t1.5 -7.5q3 -13 0 -28z" />
    <glyph glyph-name="n" unicode="n" horiz-adv-x="483" 
d="M439 147q0 -8 0.5 -16.5t-1.5 -16.5q-2 -5 -1 -9q2 -5 0.5 -10.5t-0.5 -10.5q2 -7 1 -15.5t0 -16.5q-4 -7 -13 -7q-10 0 -21.5 -1t-22.5 -5q-6 -2 -13 -2h-14q-6 4 -9 7q-12 -4 -20 9q-4 6 -6.5 13t-2.5 15q1 8 0 16t0 17q2 15 -4 29l-2 6t-1 6q0 11 -1 22.5t-4 21.5
q-1 5 -1.5 9.5t-0.5 8.5q-3 12 -13 19q-1 8 -2 14.5t-3 14.5q-2 2 -8 6q-4 3 -9.5 5t-10.5 5q-2 2 -4.5 5.5t-5.5 6.5h-6q-4 -1 -7 -1.5t-8 0.5q-2 1 -5 0.5t-5 -0.5q-5 -7 -10 -15q-4 -3 -7.5 -5.5t-5.5 -4.5q-3 -3 -3 -6l-7 -21q2 -6 0 -11.5t1 -11.5q1 -3 0 -6t-2 -5
q-3 -4 -1 -6t3 -5q1 -1 2 -4v-23t-4 -22q1 -4 1.5 -7.5t1.5 -8.5q-1 -6 -2.5 -13.5t-0.5 -15.5q1 -5 0.5 -11t-2.5 -12q-1 -3 0 -6q3 -12 0 -21t-11 -19q-1 -1 -4 -2t-5 -2q-2 -2 -4 -2.5t-4 -1.5q-4 0 -8 0.5t-7 0.5q-4 -1 -6.5 -2.5l-7.5 -4.5q-13 2 -26.5 5t-26.5 -2
q-6 1 -10 5t-7 9q-4 6 -5 13.5t-3 14.5q2 17 2 23.5t-3 29.5q3 16 4 32.5t1 32.5v43t1 44q0 6 1 12t2 11q2 11 4 21t5 19q2 7 7 12t7 12q2 14 8.5 24.5t13.5 20.5q5 14 18 11q2 0 2 1q3 3 1.5 8t2.5 9q9 8 21 12.5t22 8.5q9 0 12 -2q13 -4 25 0q9 2 16 -5q10 -2 19 -4t19 -4
q4 1 8 1.5t8 1.5q10 -4 16.5 -11.5t13.5 -15.5q5 -4 11 -3t13 -1q5 -5 10.5 -11t11.5 -11q1 -4 2.5 -7.5t2.5 -7.5q5 -1 7 -5t3 -7q10 -4 20 -6q5 -5 9 -11.5t13 -6.5q2 -10 4 -18l4 -16q2 -15 7 -26q4 -8 7 -16.5t3 -18.5q1 -6 4.5 -11t5.5 -11q-1 -4 -1.5 -8t-0.5 -9
q0 -4 0.5 -7t1.5 -8q0 -2 0.5 -5.5t-0.5 -5.5q-2 -7 -1 -14t1 -13z" />
    <glyph glyph-name="o" unicode="o" horiz-adv-x="528" 
d="M484 273q3 -12 -1 -22q-2 -5 -3 -10t0 -10q1 -1 0.5 -2.5t-0.5 -3.5q-4 -8 -3.5 -17t1.5 -17l-10 -14v-13q-2 -2 -5 -4.5t-8 -6.5q-2 -7 -5.5 -15t-5.5 -15v-10q-4 -4 -10 -7t-10 -9q-4 -3 -8 -5t-9 -5q-2 -1 -4.5 -0.5t-4.5 -0.5q-15 0 -15 -14q-11 -7 -21.5 -15
t-21.5 -16q-17 -13 -44 -18q-9 -1 -17 -4.5t-17 -5.5q-2 0 -5 1t-5 0q-12 -1 -25 2q-4 1 -8 0t-7 -2l-14 2t-15 2q-9 4 -16.5 9t-15.5 9q-6 2 -11 7t-8 10q-1 2 -2.5 3.5l-3.5 3.5q-3 2 -6 3.5t-6 4.5q-16 11 -28.5 24t-18.5 32q-5 13 -12 23q-2 4 -4.5 7.5t-4.5 7.5
q1 2 3 8l-4 6t-2 7q0 3 -0.5 6.5t0.5 7.5q2 7 1 14t0 14q1 6 -0.5 13t1.5 13q2 7 3 13t3 12t4 11.5t4 10.5l4 12t6 13v5t1 4q4 8 6 15t1 14q4 5 7 8t5 7q2 5 4.5 9.5t5.5 8.5q3 8 9 14q4 5 7 8.5t5 5.5q3 6 2 10.5t-1 7.5q2 5 3 6q3 1 5.5 3t5.5 3q8 5 17 10t18 8
q9 6 18.5 8.5t19.5 5.5h16t15 -1h9q11 -4 22.5 -4t22.5 1q5 0 10.5 0.5t10.5 0.5q5 -4 8.5 -6.5t7.5 -6.5q3 -1 6 -3t7 -3q14 -1 25.5 -9t21.5 -16v-5.5t1 -6.5q0 -5 6 -9q3 -1 7 -1t8 -2q2 -4 5.5 -9t6.5 -10l8 -8t6 -9q2 -2 3.5 -5l2.5 -5l6 -6t4 -8q2 -7 6 -14t6 -15
q1 -3 3.5 -6t5.5 -7q2 -9 3.5 -19t5.5 -19zM344 237q1 7 -2 12.5t-2 11.5q0 2 -3 5q-1 2 -1 8q1 2 1 5.5v4.5q-7 11 -13 20.5t-13 18.5q0 2 -2 2.5t-4 3.5q-17 0 -37 9q-12 6 -29 1q-1 0 -2.5 -1t-3.5 -3h-5q-16 3 -21 -12q-2 -4 -4.5 -8.5t-3.5 -9.5q-1 -4 -4 -8.5t-5 -8.5
q-4 -5 -7 -11t-7 -11q-1 -10 -4.5 -20t-4.5 -19q3 -5 6 -10.5t5 -10.5q6 -13 5 -25q0 -2 1 -4l2 -4q9 -2 17.5 -4t16.5 -5q7 -2 14 -3t14 2h3q8 -2 15.5 -0.5t16.5 3.5q7 5 14.5 11t15.5 10q7 14 17 25t14 25z" />
    <glyph glyph-name="p" unicode="p" horiz-adv-x="519" 
d="M481 223q-1 -1 -0.5 -3t-0.5 -3q-3 -7 -5.5 -13.5t-5.5 -13.5q-5 -14 -14 -24q-7 -10 -13.5 -19.5t-12.5 -18.5q-10 -8 -20.5 -14.5t-22.5 -11.5q-6 -2 -9 -5q-5 -6 -12 -8q-5 -2 -10 -4.5t-10 -7.5q-10 -4 -19.5 -9t-20.5 -6q-3 0 -5.5 -0.5t-6.5 -1.5q-4 2 -9 3.5
t-10 4.5q-9 -1 -18 -2.5t-19 -3.5q-4 2 -7.5 4t-7.5 3l-7 3.5t-8 -0.5q-4 -4 -7 -9t-6 -11q-1 -4 -1 -8v-7l4 -17q0 -7 -2 -11q-4 -11 -1 -23q4 -13 3.5 -27t-0.5 -28q-4 -10 -4 -21t-2 -22q0 -3 -1 -5q-8 -11 -20 -11h-22.5t-22.5 5q-3 1 -7 1h-8q-9 -1 -18 -0.5t-18 4.5
q-4 2 -9.5 2h-10.5q-1 2 -2 2.5t-1 1.5q-3 8 -5 16t-3 15q0 5 -2 10t-3 10q0 8 3 15.5t4 14.5q-1 7 -1.5 13.5t0.5 12.5q0 6 -1.5 12t-3.5 13q2 3 4.5 8t3.5 9q2 7 -1 13t-2 16q2 4 3.5 8.5t3.5 9.5q-2 12 -3 38.5t-1.5 51.5t0.5 33q-2 14 0 26.5t6 25.5q1 5 2.5 8.5
t3.5 7.5q2 7 4.5 19.5t3.5 13.5q4 16 5 22.5t4.5 12t13.5 18.5t18 32l1.5 3t2.5 8l3 3l2 2l7 14q9 19 29 27q6 2 12.5 6.5t15.5 9.5q13 3 27 8t30 9q6 2 13 2t14 1q5 -1 10 -1.5t11 -0.5q9 -1 17.5 -2t16.5 -6q4 -1 8.5 -1.5t8.5 -1.5h15t15 -2q3 -2 13.5 -7t11.5 -5
q4 -2 5 -4q2 -2 4 -5t5 -5q14 -10 24.5 -22.5t20.5 -26.5q5 -9 11 -13q3 -3 5.5 -6.5t5.5 -7.5v-12.5t1 -12.5q0 -4 1.5 -9t2.5 -10q-1 -3 -1 -16.5t1 -18.5q5 -14 0 -25q-2 -6 2 -12q1 -4 0.5 -15t0.5 -15zM351 261q-1 17 -6.5 30.5t-16.5 25.5q-9 10 -17.5 16.5
t-19.5 12.5q-18 3 -32 -1q-4 -4 -14.5 -5t-13.5 -5q-4 -8 -11.5 -17.5t-9.5 -10.5q-6 -13 -7.5 -29t1.5 -28q2 -10 4 -19t4 -17q0 -3 2 -5q2 -1 3 -8t4 -9q2 -6 7 -7.5t12 -6.5q3 0 6 -0.5t7 -0.5q8 0 15 -0.5t14 -2.5q10 -5 24 1q2 2 6.5 3.5t6.5 4.5q6 1 6.5 6.5t2.5 7.5
q13 16 17.5 32.5t5.5 31.5z" />
    <glyph glyph-name="q" unicode="q" horiz-adv-x="509" 
d="M469 216q-4 -4 -7 -8q-1 -5 -1 -10.5v-11.5q-1 -6 -2 -11.5t-2 -11.5q2 -3 3.5 -7t2.5 -8q0 -4 -3 -6t-6 -6q1 -4 1 -13q-5 -16 -6 -21t-1 -21q-2 -2 -4 -4.5t-4 -5.5q0 -1 1 -3.5t1 -4.5q7 -19 -5 -32q-1 -1 -2 -3.5t-3 -4.5q2 -5 3.5 -11t2.5 -11q-2 -5 2 -2q6 -4 0 -8
q-2 -3 -8 -7q-2 -5 -1 -6q2 -14 -1 -26q-1 -5 -0.5 -10t1.5 -12q-1 -4 -2.5 -9.5t-3.5 -11.5q-1 -4 -3.5 -8.5t-5.5 -9.5l4 -8t4 -7q-4 -5 -4.5 -11.5t-4.5 -12.5q-1 -5 -4.5 -10t-5.5 -10q-4 -4 -8 -3.5t-8 -1.5q-4 -1 -8.5 -2t-9.5 -3q-4 2 -8.5 4t-9.5 5q-1 -1 -3.5 -1
t-4.5 -1q-10 -4 -23 1q-6 2 -11.5 5t-11.5 5q-4 4 -4.5 7t-0.5 7q2 6 2.5 12t1.5 13q-1 5 -2 12t0 15q0 8 -1 17t-1 17q0 5 -0.5 10.5t-0.5 11.5q8 41 -1 82q2 6 2 11q-2 7 -8 11t-13 8q-10 -3 -19.5 -8.5t-20.5 -10.5q-2 2 -4.5 3.5t-5.5 2.5q-4 -1 -9 -1.5t-10 -0.5h-20
l-18 9q-5 2 -10 3t-8 6q-4 -1 -7 -2.5t-8 -0.5q-2 0 -5 -1t-6 -1q-5 2 -7 7t-6 8l-6 6t-6 7q-2 6 -6.5 11t-3.5 12q-6 6 -9 8q-1 5 1 8t-2 7q-2 1 -5 1h-5l-6 12t-6 11q1 11 0 16t-8 22q1 4 1 9t1 11q-1 3 -3.5 8l-4.5 9q-1 5 -0.5 11t4.5 10v7t-1 8t-2 8.5t-2 8.5q4 5 7 13
v12q3 5 6 9.5t4 9.5q2 7 6.5 10.5t8.5 8.5l4 8t5 8q2 5 4.5 7.5t5.5 6.5q2 8 4.5 17t5.5 16q5 4 10 7t7 8q5 7 10 7q8 3 16 8.5t18 6.5l52 23q2 0 6.5 -1.5t8.5 -0.5q8 3 16.5 2.5t17.5 -2.5q9 -1 18.5 -3t18.5 -3q3 0 5.5 0.5t6.5 1.5q6 -2 12.5 -4.5t13.5 -4.5
q8 -1 14.5 -4t13.5 -5q5 -5 9 -11t13 -6q1 -4 1.5 -7t1.5 -6q4 -1 6.5 -2.5t6.5 -3.5q2 -2 4 -5.5t5 -5.5q3 -1 7 -3l8 -4q2 -4 2 -6v-8q0 -3 2 -6q8 -7 11.5 -17.5t9.5 -20.5q1 -1 1 -3t1 -5q2 -8 3.5 -17.5t3.5 -18.5q11 -38 -1 -71q-1 -1 -1 -3q0 -5 4 -7t5 -7zM329 286
q-3 11 -8.5 19.5t-12.5 15.5q-3 2 -7 3t-8 4q-4 2 -7.5 6t-7.5 6h-3q-1 0 -2.5 -0.5t-3.5 -0.5q-8 -1 -8 6q0 2 -1.5 1.5t-1.5 1.5t-6.5 0l-6.5 -2q-1 1 -5.5 -6t-15.5 -10q-2 0 -4 -2q-16 -9 -35 -22q-9 -8 -12 -18q-1 -5 -2.5 -10t-3.5 -10q5 -9 4 -18.5t3 -18.5
q5 -7 9.5 -14t9.5 -15q3 -4 5.5 -8t6.5 -8q11 -14 30 -11q7 5 15.5 7.5t18.5 4.5q7 6 14.5 10.5t13.5 7.5q4 7 8 13t8 11q11 15 14 37q1 6 1 11.5t1 8.5z" />
    <glyph glyph-name="r" unicode="r" horiz-adv-x="437" 
d="M396 422q2 -16 -5 -23q-5 -6 -6.5 -13t-2.5 -15q-2 -3 -3.5 -6t-3.5 -6q-4 -4 -7.5 -9t-6.5 -10q-2 -4 -3 -9t-3 -10q-1 -1 -1.5 -2.5t-1.5 -2.5t-2.5 -1t-2.5 -1h-5q-22 9 -43 1q-4 -1 -7 -1h-7q-3 -1 -5.5 -1t-4.5 -1q-12 -5 -21 -13t-17 -17q-4 -12 -8.5 -24.5
t-4.5 -27.5q0 -1 -1 -3.5t-2 -4.5q-1 -4 -2.5 -6.5t-3.5 -6.5q-2 -6 -5 -12t-5 -12q2 -7 -0.5 -13t-2.5 -12q2 -9 0.5 -16.5t-3.5 -15.5q-3 -9 -2.5 -18.5t0.5 -18.5q-1 -11 -0.5 -23t0.5 -23q0 -7 -1 -15t-1 -16q-3 -6 -5 -8q-7 -11 -17 -15.5t-22 -3.5q-8 1 -16.5 2
t-16.5 2l-10 2.5t-11 3.5q-4 -1 -6.5 -1.5t-5.5 -1.5q-13 4 -24 15q1 7 1 14t1 14q-1 3 -1.5 7.5t-2.5 8.5q-1 6 -3 12t-1 13q-1 15 -6 35q2 2 3.5 5.5t2.5 6.5t1.5 5.5t0.5 5.5q0 2 1 3.5t-1 3.5q-1 3 -1.5 6.5t-1.5 6.5q-1 10 0 20q1 4 1.5 7.5t1.5 7.5q2 5 1.5 11
t-5.5 10q-1 1 -1.5 2.5t-2.5 2.5q-1 5 -1.5 11t-2.5 11q-1 7 -2.5 13t-1.5 13q2 12 1 23.5t2 23.5q0 2 -0.5 5t-0.5 5q-1 11 -1.5 22t3.5 22q2 4 2 9v10q0 9 0.5 17.5t4.5 16.5q0 3 -3 10q2 5 3.5 10.5t2.5 10.5q2 5 3 9.5t2 8.5q6 6 11 5q10 -3 20.5 -0.5t20.5 1.5
q3 0 6 1.5t6 2.5q17 5 28 -1q7 -12 8 -18t2 -29q3 -11 11 -21q2 -2 6.5 -2.5t6.5 1.5q4 3 7 5.5t6 6.5q6 5 11.5 10.5l9.5 9.5q11 5 21.5 10t23.5 10h23l2 1q1 0 1.5 0.5t1.5 -0.5l3 1q12 -6 21 -3q16 5 31 -4q9 -4 17 -8t17 -9q3 -4 7 -8t7 -8z" />
    <glyph glyph-name="s" unicode="s" horiz-adv-x="398" 
d="M357 405q-3 -13 -12 -22q-4 -4 -6.5 -8.5t-6.5 -6.5q-4 -4 -6 -7t-4 -8q-5 -10 -17 -2q-6 4 -8 8l-12 1q-2 0 -3 1q-5 2 -7 6.5t-7 7.5q-15 7 -30 10t-31 -2q-10 -13 -13 -18.5t-7 -19.5q0 -7 2.5 -13.5t4.5 -14.5q5 -8 13 -11q4 0 8 -0.5t8 -1.5q4 -3 7 -5.5t6 -4.5
q7 -4 13.5 -10.5t13.5 -9.5q8 -4 15 -7t14 -7q6 -1 10.5 -5t8.5 -9q3 -6 7.5 -12t8.5 -13q3 -11 5.5 -22.5t2.5 -24.5q0 -9 1 -17.5t2 -17.5q1 -5 1.5 -11t-0.5 -13q-3 -6 -6 -13t-5 -15q-4 -15 -11 -28q-4 -5 -9 -10l-10 -10q-3 -2 -5 -5t-4 -5q-10 -6 -16 -14t-11 -17
q-7 -1 -14 -2.5t-15 -3.5q-6 -1 -12 -3.5t-11 -4.5h-24q-11 5 -21 4t-21 -4q-10 -2 -14 2q-7 5 -14.5 7.5t-14.5 3.5q-10 10 -21 19t-20 20q0 3 -0.5 6.5t-0.5 6.5q0 8 0.5 14.5t0.5 13.5q3 14 10.5 27t14.5 26q6 -1 11 -2t11 -3q5 -4 12 -7l14 -6q9 -5 14 -4q4 0 7 -1t7 -2
q12 -5 23 3q5 3 9.5 6.5t7.5 9.5v13.5t1 14.5q0 3 -1 6t-2 6.5t-2 6.5l-14 11q-4 5 -6 10.5t-7 8.5l-24 7q-6 3 -10 7t-8 7q-2 2 -4 3l-4 2l-8 2t-9 3q-6 5 -16 9q-6 7 -8 14t-7 13q-4 5 -8 11t-9 12q-3 11 -5.5 22.5t-5.5 22.5q-5 15 -1 29q2 9 4.5 19t6.5 20q6 12 15 33
q10 16 26.5 29.5t32.5 27.5q4 2 9 3.5t9 2.5q12 4 18 6.5t13.5 3.5t22.5 1h2q14 5 27.5 3t26.5 -6q3 0 6.5 -0.5t4.5 -0.5q9 -5 15.5 -12t14.5 -13q5 -3 11 -5.5t11 -5.5q10 -8 17.5 -18t14.5 -19q2 -7 3 -14t3 -15z" />
    <glyph glyph-name="t" unicode="t" horiz-adv-x="413" 
d="M370 72q-5 -10 -9 -20t-9 -20l-21 -20q-19 -21 -45 -25q-13 -2 -26.5 -1.5t-27.5 4.5q-8 2 -16.5 5.5t-16.5 7.5q-6 3 -13 4.5t-15 2.5q-3 2 -7 4.5t-9 5.5q-7 12 -16.5 22t-14.5 25q0 12 -1 16.5t-6 18.5v66q0 8 -0.5 15.5t-2.5 14.5q-1 7 -0.5 12t1.5 12q3 12 0 25
q3 12 7 24q0 6 -3 17t-7 21q-5 0 -10 1t-11 2q-6 -2 -12.5 -4t-14.5 -4q-3 -2 -9 -2q-1 0 -3.5 2.5t-2.5 3.5q-1 3 -1 6v6q-1 8 -1 17v17t-1 15.5t-3 14.5q1 5 2 9.5t2 8.5v19q0 8 2.5 14t10.5 11q6 2 13.5 2h16.5q8 -1 16.5 0.5t15.5 8.5q2 2 5.5 2h5.5q20 -1 35 16
q1 6 6 17q-3 7 -5 15.5t-5 16.5l4 6t3 7q2 5 0 9.5t-1 7.5q-2 5 -2 7t-2 7q1 2 2 4.5t2 4.5q1 4 2 6.5t2 6.5h11q5 -1 10.5 -1.5t10.5 0.5q2 0 5 -0.5t6 -0.5q17 -2 33.5 -5t32.5 -3q2 0 4.5 -1t3.5 -2q4 -2 7 -5q-1 -4 -3 -7.5t-3 -6.5q-1 -4 -1.5 -9t-1.5 -10l-2 -14
t-3 -16q1 -1 1 -5t1 -7q-1 -7 -2.5 -13t-2.5 -14q13 -10 28.5 -17t37.5 -13q11 -7 13 -23q0 -23 -3 -46l-2 -18t0 -18q-13 -8 -31 -8q-3 0 -6 -1t-5 -1q-16 -1 -24.5 -3t-26.5 -10q-3 -4 -3 -11q-1 -6 -1.5 -12t0.5 -13v-0.5t-2 -1.5l-9 -18t-3.5 -12t-0.5 -20v-48
q0 -5 1 -6q1 -9 9 -15q4 -1 7.5 -2t5.5 -5q9 -12 20.5 -12.5t24.5 3.5l8 4t8 3q8 -2 10 -9t7 -12t8.5 -11t7.5 -12q2 -6 5 -13.5t5 -16.5z" />
    <glyph glyph-name="u" unicode="u" horiz-adv-x="506" 
d="M462 368q2 -6 1.5 -12t-2.5 -11q-2 -7 -2.5 -14.5t-0.5 -15.5q0 -10 -0.5 -19.5t-0.5 -19.5v-15t-2 -17q-4 -16 -9 -33t-8 -35q-1 -2 -1.5 -5.5t-2.5 -7.5q-9 -19 -18 -42q-4 -5 -8.5 -11t-9.5 -11q-4 -3 -8.5 -5t-8.5 -4q-2 0 -3 -4q2 -2 3.5 -5l2.5 -5q-8 -12 -24 -23
q-4 -1 -9.5 -2.5t-11.5 -2.5q-10 -6 -23 -16q-1 -2 -3 -5.5t-4 -5.5q-7 -4 -13.5 -3t-14.5 2q-3 -1 -5.5 -2.5t-5.5 -3.5q-2 -1 -4.5 -3.5t-4.5 -3.5q-12 -5 -24 -3t-24 -1q-5 3 -10.5 5t-10.5 4q0 2 0.5 4t1.5 5q-2 7 -9 8q-7 2 -13.5 4t-13.5 0q-7 0 -7 10q-2 9 -7 9h-4
q-7 -3 -13.5 -0.5t-12.5 7.5q-4 4 -4.5 11t-4.5 14q-3 5 -9.5 8.5t-11.5 7.5q-6 15 -12 28.5t-11 26.5q-3 6 -2.5 10.5t0.5 11.5l-3 5l-2 4q-7 20 -9 40t4 41q-1 3 -2.5 6t-3.5 5q-2 5 0.5 10t2.5 9q-2 14 1 23q2 5 1 10t0 9q3 12 4 23.5t2 22.5q1 22 6 43q2 8 6 14l8 12
q2 2 5 3l6 2q6 1 12.5 2t15.5 2q5 -1 11.5 -2t13.5 -1q7 -1 14 -1.5t15 -1.5q1 -3 2 -5l2 -4q0 -7 -0.5 -13.5t-0.5 -13.5q1 -3 2.5 -5.5t2.5 -6.5q-1 -4 -2.5 -9t-3.5 -10q3 -16 3 -33.5t2 -34.5q2 -11 3 -21.5t4 -21.5q-1 -7 1 -14l4 -14q3 -7 4.5 -14t3.5 -15
q5 -16 15 -29q6 -6 9 -8q2 -1 4.5 -1t4.5 -1q7 0 11 4t9 5q11 5 21 8q5 -1 10 -1h7l16 10q5 8 7 18t9 17q5 8 9 16t10 13q2 14 3 26t5 24q1 3 0.5 6.5t-0.5 6.5q-1 6 -1.5 11.5t-0.5 7.5q1 11 1 20t1 17t1 16.5t1 15.5q2 16 14 22l7 3.5t7 2.5t8 1t10 1q5 -1 10.5 -3
t11.5 -4q6 -1 11.5 0t11.5 3q4 -1 7 -2t7 -3q1 -1 2 -2.5t1 -3.5q1 -5 2 -11t1 -12q1 -12 1.5 -24t3.5 -24z" />
    <glyph glyph-name="v" unicode="v" horiz-adv-x="543" 
d="M497 400q-2 -7 -3.5 -15.5t-3.5 -16.5q-1 -6 -4.5 -12t-5.5 -12q-4 -10 -8 -18.5t-9 -18.5q-3 -8 -7.5 -16.5t-10.5 -16.5q-6 -9 -9 -18t-7 -19l-5.5 -5.5t-6.5 -4.5q-4 -9 -9 -17.5t-10 -18.5q-4 -6 -6.5 -12t-7.5 -12l-4 -6t-3 -7q-6 -16 -18 -26q-5 -13 -10 -25
t-13 -22v-15q-4 -5 -9 -10.5t-8 -10.5q-4 -5 -8.5 -8.5t-8.5 -8.5q-1 -4 -1.5 -8.5t-4.5 -7.5q-9 -7 -17 -6t-17 1t-17 2q-6 2 -12 1.5t-12 -0.5q-6 2 -12.5 2t-14.5 1q-4 0 -10 4q-1 5 -3 10t-3 9q-5 5 -10 5.5t-9 3.5l-5 4q-4 14 -7.5 26.5t-7.5 25.5q-3 11 -7.5 22
t-7.5 22q-1 11 -4.5 22t-7.5 22q-4 13 -10 25t-10 25q0 2 -1 4l-2 4q-3 16 -8.5 31t-10.5 30q-4 13 -7.5 27.5t-5.5 27.5q-1 2 -2 4.5t-2 3.5q-14 20 2 38q4 5 8 8t8 5q5 2 10 4.5l9 4.5q19 12 36.5 15.5t36.5 8.5q4 -1 5.5 -3.5t2.5 -5.5q5 -5 11 -2l7 3l2 -2
q2 -7 4.5 -14.5t3.5 -14.5v-7q0 -16 8 -34q1 -4 2 -7.5t1 -7.5q5 -19 9 -38t5 -39q1 -4 5 -8q6 -13 11.5 -26.5t6.5 -27.5q1 -1 3.5 -7.5t3.5 -6.5q1 -6 5 -1.5t8 11.5l4 7q8 10 11.5 19t10.5 19q2 2 2.5 4t1.5 4q1 4 1.5 8t2.5 6q5 6 7 14t7 13q3 2 2 5.5t0 5.5q5 14 14 25
t12 27q2 2 4 3t5 2q5 8 4.5 15.5t1.5 16.5q2 4 5.5 9t6.5 10t5.5 10.5t6.5 11.5q5 4 9 7t9 6q9 -2 14.5 -4.5t15.5 -1.5q7 -4 12.5 -8t8.5 -12q0 -1 1 -2t1 -3q7 -3 12 -4q2 -4 4.5 -7t4.5 -7q5 -5 12 -6.5t11 -9.5z" />
    <glyph glyph-name="w" unicode="w" horiz-adv-x="750" 
d="M707 348q-2 -9 -3.5 -18t-6.5 -17q-4 -9 -6 -18l-4 -18q2 -7 -2 -12.5t-4 -12.5q-6 -10 -9.5 -20t-5.5 -19q-10 -21 -21 -39q-5 -9 -10.5 -18t-11.5 -20q-8 -3 -16 -5q-6 -8 -10.5 -18t-5.5 -21q0 -1 -1 -3.5t-2 -4.5q-1 -4 -2.5 -7l-3.5 -7q-3 -2 -6 -5t-6 -5
q-2 -5 -4 -11t-4 -13q-4 -4 -8.5 -9t-8.5 -10q-2 0 -3.5 -0.5t-3.5 -0.5q-7 1 -15 1.5t-16 -1.5q-4 -1 -8 -1h-9q-7 2 -13 4.5t-11 3.5q-12 8 -13 18q0 3 -0.5 6t-2.5 6q-2 1 -3.5 1t-3.5 1q-8 3 -6 11q0 2 1 4t1 4v10q-10 8 -18 15q-5 16 -10.5 30.5t-10.5 29.5
q-1 2 -3 3.5t-4 3.5l-5 5q-1 4 -0.5 7.5t-1.5 5.5q-1 8 -10 11q-3 0 -5 -1q-1 -2 -2 -5t-3 -5q-1 -7 -5 -11q-12 -16 -14 -41l-2 -7q-2 -3 -5 -7t-6 -9q-4 -18 -5.5 -23t-9.5 -17q-2 -11 -2 -23.5t-11 -25.5q1 1 -0.5 -1t-3.5 -2q-4 -1 -9 -1.5t-10 -2.5l-9 -4.5t-9 -5.5
q-4 0 -9 1t-10 1q-4 -1 -7.5 -2.5t-7.5 -3.5q-3 -1 -6.5 -1t-8.5 -1q-1 -3 -2.5 -5.5t-3.5 -4.5q-2 2 -3.5 2.5t-2.5 1.5q-3 5 -5.5 11t-5.5 11q-4 15 -16 28q-10 11 -11 21q-6 19 -18 31q-1 15 -8.5 28t-10.5 32l0.5 5t-0.5 10q-1 13 -5 25.5t-9 23.5q-7 16 -16 30t-18 27
q-7 19 -15 37t-21 32q-6 14 0 26l11 12q4 4 7.5 6.5t6.5 5.5l10 10t10 11l9 4.5t10 5.5q8 5 16.5 8.5t17.5 7.5q7 -2 12 -6t11 -9q5 -8 11 -17t12 -17q-1 -7 2.5 -11t5.5 -10l2 -16q2 -7 7 -12t0 -13q11 -7 18 -16t11 -20q2 -4 3.5 -8t4.5 -9q11 -18 13 -43q0 -1 1 -1.5
t1 -1.5q2 -1 2.5 -2t1.5 -1q5 0 5 2q6 14 12.5 29t13.5 30q4 7 6 17q5 11 8 23t9 23q1 2 2 4.5t1 3.5q3 23 12 41q2 3 2.5 6t1.5 5q3 5 7.5 5.5t8.5 3.5q3 2 6 3.5t6 3.5q22 -5 43.5 -4.5t43.5 1.5q1 -1 2.5 -1.5t1.5 -1.5q7 -24 22 -40q4 -8 6.5 -15t5.5 -13t6.5 -11.5
t5.5 -10.5q5 -22 10 -43t9 -41q2 -4 5 -5.5t6 -2.5q4 4 2 8q-1 4 2.5 11.5t6.5 8.5q6 6 6 17q2 5 3 9t3 8q4 6 6 14t3 15q2 10 4.5 19t5.5 19q3 5 6 9.5t5 8.5q5 10 11 18.5t6 18.5q8 5 13.5 6t12.5 2q5 -4 11.5 -7.5t11.5 -9.5q3 -4 7.5 -6.5t8.5 -6.5q5 -4 8.5 -10t9.5 -9
t11 -7.5t10 -7.5q4 -10 3 -19z" />
    <glyph glyph-name="x" unicode="x" horiz-adv-x="558" 
d="M514 396q-1 -3 -1 -5t-1 -5q-4 -8 -9.5 -17t-13.5 -15q-10 -8 -18.5 -19.5t-16.5 -22.5q-5 -10 -10 -15t-10 -8.5t-7 -7.5q-5 -7 -11 -10.5t-12 -8.5q-3 -3 -6 -7t-5 -8q1 -13 8 -24t11 -23q10 -7 17.5 -16.5t13.5 -20.5q8 -11 17.5 -21t19.5 -20q4 -4 8.5 -9t8.5 -10
q3 -9 6.5 -18t5.5 -17q-9 -16 -20 -30q0 -1 -0.5 -3t-0.5 -4q-3 -8 -10 -11q-2 -2 -5 -3t-5 -2q-4 -4 -7.5 -8.5t-7.5 -8.5q-7 -2 -13.5 -3.5t-12.5 -3.5q-8 1 -10.5 6t-7.5 9l-9 4.5t-11 4.5q-4 7 -12.5 12t-16.5 9q-1 2 -2 5t-3 5q-3 1 -6.5 2t-5.5 4q-2 2 -6 7
q-7 4 -11.5 11t-9.5 12q-6 6 -12 11.5t-11 11.5q-1 2 -1.5 3.5t-2.5 3.5q-4 6 -12 6q-2 0 -2 -1q-6 -5 -10 -10.5t-5 -13.5q-1 -1 -1 -2t-1 -2q-7 -4 -10.5 -10.5t-8.5 -11.5q-3 -5 -7.5 -10.5t-8.5 -10.5q-6 -7 -12 -14.5t-13 -13.5q-5 -3 -8 -8q-4 -5 -7 -9t-9 -7
q-5 -2 -9.5 -5.5t-10.5 -5.5q-2 0 -5 -1.5t-5 -3.5q-3 -1 -5 -2.5t-6 -1.5q-8 2 -11 6q-8 10 -13 17q-4 8 -9 16t-13 15q-7 8 -10.5 17t-8.5 17q4 14 6.5 21t6 14t11.5 20q8 8 15.5 17t13.5 19q7 12 14.5 24.5t17.5 22.5q5 6 10 13l10 14q2 2 5.5 4.5t5.5 6.5q2 2 2 5.5
t-2 4.5l-22 22t-25 20q-5 2 -9 5.5t-8 4.5q-10 5 -16 11.5t-11 15.5q-2 4 -5 9t-5 9q-10 7 -18.5 13.5t-18.5 10.5q-2 4 -2 6q0 5 0.5 9t0.5 8q5 3 8 6l6 6q4 5 4.5 11.5t-0.5 13.5q3 2 5 4t4 3q10 3 18.5 9t12.5 15q10 2 19 4.5t18 2.5q6 0 11.5 1.5t11.5 2.5
q20 -13 27.5 -20t19.5 -26q5 -3 12 -8q1 -3 1.5 -6t1.5 -6q5 -4 10 -7t8 -9q17 -20 39 -32q2 0 6 2q2 1 3 3t2 3q17 13 29 32q5 8 15 5q4 -2 6 0q3 0 3 3q0 13 11 24q4 5 7.5 10t9.5 8q6 4 8 15q1 9 6 14.5t12 7.5q6 -1 12 -3.5t11 -3.5t10 -2.5t10 -3.5q4 -4 9 -8t9 -8v-12
q7 -11 17 -14q5 -1 8.5 -2.5t7.5 -3.5v-1l2.5 -4.5t3.5 -9.5q3 -2 6.5 -5.5t7.5 -6.5z" />
    <glyph glyph-name="y" unicode="y" horiz-adv-x="530" 
d="M488 407q3 -14 -3 -29q-2 -5 -3.5 -10.5t-3.5 -10.5q-6 -18 -17 -34q-8 -12 -15 -24t-12 -26q-2 -5 -4.5 -9.5t-4.5 -9.5q-1 -2 -2 -5t-3 -5q-1 -3 -1 -6t-2 -5q-4 -4 -8.5 -9t-7.5 -11q-4 -8 -8 -15.5t-11 -12.5q-7 -11 -13 -21.5t-12 -20.5q-2 -10 -8.5 -18t-10.5 -18
q0 -3 -3 -5q-12 -10 -19.5 -24t-17.5 -27q-1 -4 -2.5 -7.5t-3.5 -5.5q-2 -6 -4.5 -11.5t-4.5 -10.5q-6 -12 -13 -22.5t-18 -18.5q-4 -4 -7 -7.5t-6 -7.5q-7 -10 -15 -19.5t-15 -19.5q-16 -23 -39 -43q-5 -1 -9.5 0t-9.5 -1q-4 2 -6.5 4.5t-7.5 4.5q-4 0 -7.5 1t-8.5 1
q-8 2 -12 8.5t-10 11.5q-10 8 -20 11q-6 3 -9 7q-1 5 0 14q1 4 5 5q9 7 13 12t9 15q4 11 8 15q15 16 20 31q5 9 9.5 17t8.5 17q5 8 9.5 15.5t10.5 15.5q1 2 2.5 3.5t2.5 3.5q5 10 11 18.5t14 15.5q5 11 8.5 23t11.5 21q-2 4 -2.5 6t-2.5 3q-3 5 -6.5 8t-8.5 7q-1 2 -3.5 4
t-4.5 4q-8 13 -20.5 23.5t-25.5 20.5q-3 2 -6.5 5t-7.5 5q-4 7 -9 14.5t-10 14.5q-4 2 -8 5t-7 6q-4 4 -5.5 8t-3.5 7q2 4 -1.5 7.5t-2.5 6.5q-4 4 -5.5 3t-5.5 3l-2.5 2.5t-1.5 3.5q-1 7 -2 10t1 8l-5 5q-4 0 -3.5 1.5t-2.5 2.5q-3 0 -10 7q2 3 2.5 5t1.5 3q2 4 3 5
q26 16 35 48q3 4 6.5 6.5t5.5 6.5q3 3 5.5 6.5t4.5 5.5q5 3 8.5 2t6.5 -3q8 -7 15.5 -14.5t16.5 -15.5q12 -9 24 -19.5t23 -21.5q5 -6 12 -10t13 -10q23 -13 43 -33l5 -2.5t6 -0.5q6 3 9 9t7 10t5 8q1 2 1.5 4t0.5 4q1 8 4.5 13.5t7.5 12.5q7 10 11 20q4 11 7.5 14.5
t15.5 9.5l4 8t4 7q5 5 9 10t6 11q8 13 20 16q6 -1 11 -3.5t8 -9.5q5 -6 11.5 -9.5t10.5 -9.5q6 -3 11.5 -1t10.5 0q4 -2 6 -4.5t4 -4.5q13 -11 16 -15.5t9 -19.5z" />
    <glyph glyph-name="z" unicode="z" horiz-adv-x="459" 
d="M415 32q-1 -7 -4 -12.5t-7 -10.5q-4 -2 -7 -2h-8t-7 1q-11 2 -20 -1q-8 -1 -17 -2.5t-17 -2.5q-4 -1 -7 -0.5t-8 0.5q-3 -1 -5.5 -0.5t-6.5 -1.5q-3 2 -6.5 2t-5.5 1q-16 -1 -21 -1t-16 3q-7 -2 -14.5 -3t-14.5 -3q-4 -1 -8 -1h-8q-7 0 -15 -3q-6 2 -12 3t-13 1
q-4 0 -9 -1t-10 -3q-2 2 -6 2.5t-9 1.5q-4 2 -8.5 2t-9.5 1q-2 0 -5.5 -0.5t-7.5 -1.5q-12 -2 -15 10q0 4 -0.5 6.5t-0.5 5.5q0 5 -2 15q0 3 -1 6.5t-2 7.5q-1 9 -2 18.5t-2 17.5v9.5t-1 9.5q2 5 4.5 9t4.5 8q8 13 16 26.5t16 25.5q6 9 13.5 18.5t14.5 18.5q21 24 33 54
q6 11 12 21t15 20v2q-2 5 -5.5 10t-7.5 9q-10 5 -21 3q-14 -2 -29.5 -1t-29.5 0h-6.5t-5.5 1q-8 4 -17 4.5t-17 0.5q-10 0 -18 9q-3 5 -2.5 10t-0.5 10q0 4 0.5 8.5t-0.5 8.5q0 5 -0.5 9.5t-0.5 9.5q1 3 2 5.5t2 5.5q1 5 0.5 9.5t0.5 9.5q2 5 2 9v8q0 5 -0.5 10.5t2.5 11.5
q2 1 3.5 3t4.5 3q6 3 12 5.5t12 6.5q11 -3 20 -3q5 0 10 1.5t10 2.5q4 -1 8 -2.5t8 -0.5q8 2 14 2t12 -2q8 -1 16.5 -1t15.5 1q7 3 14 0q3 0 6 -0.5t5 0.5q11 5 21 4.5t20 -0.5h5.5t6.5 -1q4 -2 8.5 -4.5t8.5 -4.5q5 -1 11 -1.5t11 -2.5q5 -1 9.5 -5t8.5 -6h11q7 -3 14 -3.5
t15 -0.5q13 0 23 -10q2 -4 2.5 -8t1.5 -8q-1 -6 -2 -11.5t-2 -11.5v-20q0 -23 -11 -48q-1 -4 -3.5 -6t-4.5 -6l-20 -24q-4 -2 -6 -6t-4 -9q-2 -10 -8 -19t-13 -18q-4 -4 -6.5 -8.5t-6.5 -9.5q-2 -4 -4 -6.5t-3 -6.5q-2 -7 -6 -13t-8 -13q-4 -6 -7 -12t-8 -12
q-4 -6 -8.5 -11.5t-10.5 -12.5q3 -4 -2 -10.5t-4 -10.5q2 -3 11.5 -2.5t12.5 -3.5q15 -2 28 4q19 6 42 4q14 -1 26.5 -1.5t25.5 -1.5l1.5 -3l1.5 -3q2 -7 3.5 -15t2.5 -16q0 -1 -0.5 -3.5t0.5 -4.5q7 -13 6.5 -26.5t0.5 -25.5z" />
    <glyph glyph-name="braceleft" unicode="{" horiz-adv-x="340" 
d="M294 -8q0 -1 -2.5 -4.5t-5.5 -4.5q-2 0 -5 -0.5t-5 -0.5q-7 1 -13 -1t-11 -3l-22 2t-22 3q-5 2 -10.5 5t-10.5 4l-8 4t-9 3q-8 7 -15.5 15t-11.5 18q-1 3 -3.5 5.5t-4.5 5.5q-7 6 -9.5 13t-4.5 15q-1 6 -2.5 13t-1.5 13t-1.5 11.5t-2.5 11.5q-1 5 -2.5 11t-3.5 10
q-4 5 -5.5 12t-3.5 13q-4 9 -8.5 19t-8.5 20q-6 8 -7 15q-4 13 -9.5 24.5t-11.5 22.5q-10 17 -7 26t11 19q4 3 8 7t5 8q4 6 8.5 10t8.5 6q5 8 6 16t8 12q4 8 7.5 16.5t3.5 17.5q0 11 2.5 20t3.5 19q2 8 3 17.5t2 18.5q2 17 3 34q5 3 7.5 5t4.5 3q2 5 -0.5 10t-2.5 12l5 18
q8 9 15.5 17t17.5 14q10 4 20.5 9.5t22.5 9.5q6 1 11.5 2t11.5 0q5 -1 11 -0.5t12 1.5q6 -2 13.5 -3.5t13.5 -6.5q2 -7 0.5 -13t-0.5 -14v-23q0 -6 1.5 -12t0.5 -12q-9 -6 -17.5 -4.5t-19.5 -0.5q-6 -4 -15 -7l-8 -8t-9 -7q-1 -4 -3 -8t-3 -7q-1 -13 -3.5 -26t-2.5 -26
q-1 -18 -4 -36t-5 -36q-2 -12 -8 -21q-7 -14 -14.5 -28t-15.5 -28q-1 -7 0 -15.5t5 -16.5q10 -17 14 -36t5 -38q2 -16 7.5 -29.5t11.5 -27.5q6 -9 14 -12q16 -8 32.5 -14.5t35.5 -8.5q5 -5 5 -13q1 -7 1 -15.5v-16.5q0 -13 -0.5 -26t0.5 -27z" />
    <glyph glyph-name="bar" unicode="|" horiz-adv-x="321" 
d="M238 543q-2 -4 -4.5 -7t-4.5 -8q1 -4 2 -8.5t2 -8.5q0 -5 -2 -8t-2 -5q-1 -9 0.5 -14t2.5 -11l-2 -14t-1 -15q0 -6 1 -12t0 -13q0 -6 2.5 -12.5t0.5 -13.5q-1 -5 -1 -11v-11q0 -6 -1.5 -12.5t0.5 -12.5q-1 -6 -2.5 -12.5t-3.5 -12.5q-7 -16 4 -30q1 -1 2 -3.5t2 -4.5
q0 -17 1.5 -33.5t-3.5 -33.5q1 -6 2 -11.5t2 -11.5q-5 -10 -6 -18l-6 -28t-2 -29q0 -8 -3 -16q-1 -9 -3 -18.5t-1 -19.5q1 -9 0 -19t0 -20v-5q-1 -16 -3.5 -32t-3.5 -33q0 -3 -3.5 -6t-6.5 -4q-10 -1 -20 0.5t-19 -0.5q-10 -1 -19.5 -1.5t-20.5 0.5l-10 7q-2 2 -5 3.5
t-5 4.5q-3 9 -5.5 19t-5.5 20l6 32l-10 17q2 5 3.5 10.5t2.5 11.5q0 5 -1 9.5t-1 8.5q0 5 1.5 8.5t1.5 6.5q-1 4 -2.5 6t-2.5 5q0 4 3 8.5t3 8.5q0 12 4.5 22t9.5 19q0 10 -7 15q-2 1 -3.5 3t-3.5 3q-4 2 -2.5 6t5.5 6q1 1 4 1q5 9 0.5 19t-3.5 21q2 2 2.5 6t1.5 8
q0 5 -0.5 9t-1.5 9q1 3 2.5 5.5t2.5 6.5q-1 7 -4 13.5t1 13.5q0 2 -0.5 4t-0.5 3q-7 19 2 37q-1 5 -1.5 8.5t-1.5 7.5q-1 2 -1.5 5.5t-0.5 7.5q0 5 0.5 11t2.5 11q3 13 2.5 25.5t-2.5 25.5q2 5 3.5 10t3.5 10q0 6 -2.5 11.5t-1.5 11.5q3 6 1.5 12t-5.5 11q1 7 2 13t2 13v3
t1 3q6 10 9 19.5t5 19.5q1 5 3 10.5t3 11.5q2 5 1.5 10t-0.5 10q2 0 5 1t4 1h19.5t19.5 -2q8 -2 16.5 -3t18.5 -2q8 -3 15 -16q2 -4 3 -7t1 -8q-1 -13 2.5 -25t4.5 -26q1 -4 6 -11z" />
    <glyph glyph-name="braceright" unicode="}" horiz-adv-x="359" 
d="M313 305q0 -3 -0.5 -6t-1.5 -7q-4 -13 -8.5 -24.5t-12.5 -22.5q-17 -21 -23 -47q-3 -9 -7.5 -16.5t-12.5 -15.5q-3 -16 -6.5 -30.5t-7.5 -28.5q-4 -21 -13 -40t-20 -36q-16 -12 -32.5 -21t-27.5 -25q-7 -3 -14 -3q-4 -2 -9 -3l-10 -2q-9 2 -16.5 -0.5t-15.5 -1.5
q-5 0 -10 0.5t-11 4.5q-4 8 -5 17t-3 19q2 10 1 18.5t-1 18.5l10 21q5 2 9.5 4t8.5 4q3 2 6.5 2t5.5 1q12 4 21.5 10t14.5 17q3 6 7.5 10.5t8.5 10.5q5 11 9.5 21.5t7.5 21.5q5 14 8.5 28t7.5 28q4 9 7.5 18t6.5 16q5 7 10 12t9 10q5 5 1 12q-1 3 -2.5 6t-3.5 6
q-7 6 -13.5 12t-11.5 12q-4 8 -5 16.5t-6 15.5q-1 4 -2.5 7.5t-2.5 7.5q-1 14 -4 26.5t-3 25.5q0 12 -4 23t-10 20q-3 5 -6.5 8.5t-8.5 4.5q-15 1 -23 2t-15 3t-22 7q-4 4 -5.5 9.5t-3.5 9.5q-1 18 0.5 35.5t2.5 34.5l8 8q17 7 34 4q3 -1 7.5 0t10.5 2q7 -1 16 -2t19 -3
q6 -3 12 -7.5t13 -9.5q12 -8 28 -16q8 -13 12.5 -26.5t7.5 -26.5q3 -9 6 -17t9 -16q2 -1 3 -3.5t2 -4.5q1 -18 5.5 -35.5t6.5 -36.5q9 -9 14 -18q0 -1 0.5 -4t0.5 -5q2 -7 2 -13v-11q3 -12 12 -23q5 -3 11 -5.5t11 -5.5q6 -4 6 -12z" />
    <glyph glyph-name="asciitilde" unicode="~" horiz-adv-x="519" 
d="M469 271q1 -7 -2 -17q-7 -10 -17.5 -13.5t-20.5 -10.5t-20 -11t-20 -9q-10 -4 -21.5 -5.5t-22.5 -5.5q-13 2 -26.5 7.5t-25.5 10.5q-7 4 -12.5 9t-10.5 10q-6 1 -11.5 2.5t-10.5 8.5q-1 3 -3.5 5t-4.5 4q-1 0 -1.5 1.5t-2.5 2.5q-12 2 -24 5.5t-26 3.5q-7 -6 -13.5 -13
t-13.5 -13q-7 -5 -12.5 -12.5t-13.5 -13.5q-7 -7 -13.5 -12.5t-14.5 -12.5q-9 -2 -14 2q-1 5 -4 11t-5 12q-3 5 -5.5 11t-6.5 12q-4 5 -9.5 10t-9.5 9q-4 9 1 14q5 6 8.5 13.5t5.5 14.5q6 6 10.5 12t10.5 11q5 5 9.5 10.5t8.5 12.5q2 5 6 9l7 7q4 2 7.5 2t6.5 1q8 3 15 8.5
t14 9.5q6 -6 9 -8q3 0 5.5 0.5t5.5 1.5q2 0 5.5 -0.5t5.5 -0.5q2 2 5.5 4.5t7.5 3.5q3 1 7.5 1.5t8.5 1.5q5 0 11 6q8 -3 14 -10t12 -13q5 -3 10.5 -3.5t9.5 -5.5l8 -8t8 -9q8 -1 14.5 -2.5t13.5 -3.5q7 -1 13.5 1t12.5 -2q11 6 21.5 10.5t20.5 11.5q16 11 35 7
q7 -7 13 -14.5t10 -14.5q2 -7 4 -13t3 -12q8 -10 10 -20.5t4 -21.5z" />
    <glyph glyph-name="uni00A0" unicode="&#xa0;" horiz-adv-x="230" 
 />
    <glyph glyph-name="exclamdown" unicode="&#xa1;" horiz-adv-x="258" 
d="M213 561q5 -18 -3 -41q-1 -4 -3.5 -8t-6.5 -8v-19q-4 -11 -13 -17q-4 -2 -6 -2q-8 -2 -15 -5q-17 -3 -29 -2q-8 2 -16 1.5t-16 -0.5q-5 5 -10.5 8.5t-13.5 5.5q-4 6 -9 11.5t-10 11.5l-8 22t-11 20v41q3 11 6 24l21 27q14 10 29.5 14t30.5 11q5 -2 10 -3l10 -2
q8 -2 16 -2q7 -8 14 -15t14 -15q4 -4 6.5 -9t5.5 -9q2 -10 2.5 -20t4.5 -20zM207 214q0 -16 -0.5 -32t-0.5 -32q-1 -3 -2 -3q-4 -4 -8.5 -7.5t-5.5 -9.5q-1 -11 0 -23q1 -9 3 -17t2 -18q0 -7 1.5 -15t2.5 -16q4 -15 -2 -32q-8 -15 -22 -15h-11q-4 0 -10 0.5t-11 0.5
q-17 0 -24 -1t-24 -6q-3 2 -6 3.5l-5 2.5q-4 3 -6.5 6t-6.5 5q-3 2 -6.5 3.5t-5.5 3.5q-7 8 -6.5 17t-1.5 17q-3 10 -1.5 19.5t1.5 19.5q0 9 2 17.5t3 17.5q-1 3 -3 7t-4 9q2 3 2.5 6t1.5 4q-8 24 -1 45q2 4 0 9q-1 5 1.5 8t3.5 7q-1 2 -1.5 4.5t-1.5 3.5q-1 2 -1 3.5
t-2 3.5q6 25 1 58l4 24q3 4 5.5 8t5.5 8q2 3 2 6.5t1 7.5q3 3 7 3q9 1 17.5 1h17.5q8 -1 17 -1h18q12 1 24 -1t23 -6q9 -2 13 -11q2 -16 1.5 -33.5t-1.5 -35.5q-1 -4 -1.5 -9t0.5 -10q2 -6 1.5 -12.5t-0.5 -12.5z" />
    <glyph glyph-name="cent" unicode="&#xa2;" horiz-adv-x="491" 
d="M451 396q-5 -9 -9.5 -17.5t-9.5 -16.5q-5 -7 -8.5 -15t-7.5 -17q-1 -8 -7 -15q-2 -5 -8 -8q-6 6 -13 8q-9 3 -17.5 5.5t-17.5 4.5q-1 0 -5 -2q-2 -2 -2 -4q-1 -6 -2.5 -12.5t-3.5 -12.5q-1 -4 -1.5 -9t-1.5 -10q-1 -13 -1 -17.5t3 -19.5q-1 -7 -2.5 -15t-0.5 -16
q0 -7 -1 -15.5t-3 -16.5q-1 -4 -1 -7v-7q0 -9 9 -11q13 2 23.5 8t22.5 12q8 0 18 3l3.5 -7t4.5 -5q2 -2 5 -4.5t5 -6.5q0 -6 1 -14l2 -12q3 -3 3 -4q2 -7 2 -14t4 -13q-3 -2 -4.5 -4.5t-4.5 -4.5l-14 -10l-14 -10q-13 -1 -24.5 -5t-22.5 -8q-3 -1 -4 -2.5t-2 -2.5
q-4 -5 -2.5 -10t0.5 -10q-3 -9 -3 -19t1 -20q3 -15 -6 -28q-16 -7 -28 -10.5t-41 -8.5q-4 1 -8.5 3.5t-9.5 4.5q-7 7 -3 15q1 4 1.5 6.5t1.5 5.5q-3 13 -3 17t1 14q-2 4 -6 4q-8 2 -16 4.5t-16 5.5q-4 0 -7.5 -1t-8.5 1q-6 3 -9 4q-5 3 -10.5 5t-10.5 3t-10 1.5t-10 1.5
q-4 3 -8 6.5t-8 6.5q-1 4 -2 7t-3 7q-4 2 -8 2.5t-6 5.5q-2 3 -4 5.5t-4 5.5q-11 11 -20 24t-14 28q-1 7 -7 15q-1 3 -2 5.5t0 5.5q0 9 -3.5 17.5t-4.5 17.5l-1 15q-1 0 -1.5 4t-1.5 4q-3 2 -3 5q0 7 3 11q1 3 1 5.5t1 5.5q-2 4 -5 7q-1 4 1 7t3 7v13q0 8 2 14t5 13
q6 16 16 32q2 6 6 12t5 12q1 5 3.5 8t5.5 6q5 2 8 7t5 10q10 8 18.5 16.5t14.5 18.5h11q5 2 7.5 7.5t7.5 9.5q14 5 29.5 10.5t31.5 8.5l10 4l10 4q9 6 5 14l-7 11q2 2 4.5 5.5t4.5 6.5v21q2 14 12 24q18 8 38 -3q3 1 11 5q17 0 21 -0.5t14 -5.5q2 -4 2 -7q1 -11 1.5 -23
t-0.5 -25q-2 -13 1 -24q0 -2 7 -8q5 5 7 8q17 -1 27 -5t32 -15q2 -4 8 -13q5 -1 9.5 -4t9.5 -5q0 -2 1.5 -3.5t1.5 -3.5q1 -6 1 -12.5v-12.5zM235 236q0 6 -1.5 12t-1.5 12q1 14 1 29v28q0 9 -6 13q-5 -1 -10.5 -2.5t-10.5 -3.5q-13 -8 -19 -23q-2 -8 -7 -15.5t-10 -15.5
q-1 -2 -1 -5t-1 -5q-1 -12 0.5 -23.5t0.5 -23.5q0 -6 5 -9q8 -8 15 -11q1 -2 1.5 -3.5t0.5 -3.5q3 -7 8 -13t14 -11q5 -1 10 -7q5 0 7 5q2 11 3.5 22.5t-1.5 23.5v8q0 5 1.5 11t1.5 11z" />
    <glyph glyph-name="sterling" unicode="&#xa3;" horiz-adv-x="531" 
d="M485 503q-3 -10 -10.5 -12.5t-15.5 -4.5q-5 -3 -10.5 -7t-10.5 -8q-11 -6 -22 -11q-7 4 -11.5 9.5t-12.5 6.5q-4 0 -4 4q-10 16 -26 22t-30 14q-9 7 -25 3l-17 -7q-12 -8 -20 -22q-4 -7 -7.5 -15t-11.5 -13q-8 -26 -8.5 -32.5t3.5 -17.5q11 -5 23 -7l24 -4
q17 -8 35 -13.5t37 -4.5q8 -1 14.5 -5.5t14.5 -3.5q3 -10 3 -20.5t-1 -21.5q-2 -10 -4.5 -20t-5.5 -21q0 -5 1 -10.5t2 -11.5q-3 -2 -5.5 -4.5t-5.5 -4.5q-4 1 -9 1h-10l-14 -7q-3 0 -6 1q-12 3 -24 3t-24 -2q-1 0 -3 -1.5t-4 -2.5q-1 -3 -1.5 -5.5t0.5 -5.5q3 -20 -1 -41
q-2 -6 -1.5 -12.5t-1.5 -12.5l-6 -24q1 -1 1 -2t1 -1q6 -3 12.5 -2.5t12.5 -1.5q10 -5 25 -5q4 0 6 -1q8 -1 14 -7t14 -9q8 -4 13.5 -9.5t11.5 -10.5q3 -1 5 -3.5t4 -4.5l10 -6t9 -7q5 -8 16 -15q5 -7 6.5 -15t3.5 -16q-1 -7 -6 -13t-8 -14q1 -2 1 -8q0 -7 2 -9
q-1 -2 -1.5 -3.5t-1.5 -3.5q-1 -1 -1.5 -2.5t-1.5 -3.5q-6 -5 -11.5 -10.5l-10.5 -10.5q-19 -6 -32 3q-10 5 -16 11q-4 3 -7 6.5t-6 6.5q-12 6 -23.5 12t-24.5 7q-12 5 -24.5 4t-26.5 2q-4 4 -14 9q-7 2 -15.5 1t-16.5 -1q-5 -1 -9.5 -4t-10.5 -5q-4 -1 -9 -1.5t-11 -1.5
q-4 -4 -9.5 -7t-10.5 -8q-7 -4 -16 0q-3 2 -6.5 3t-7.5 3q-4 6 -7.5 12.5t-3.5 13.5q0 5 -1 11t-1 11q-1 6 -2 12.5t-1 12.5v23q3 5 5.5 11t5.5 12q2 1 3.5 2.5t4.5 2.5q15 8 20 11.5t19 17.5q2 4 4 9t3 11q2 6 3.5 12t2.5 12t-0.5 11.5t-1.5 11.5q-2 4 -4 7.5t-4 6.5
q2 3 2 5.5t1 3.5q2 8 2 14t-2 12q-4 8 -7.5 16t-5.5 15q-6 5 -13 5q-7 -1 -14 -0.5t-14 -0.5q-6 -1 -11.5 -1t-11.5 1q-3 0 -6 -1t-6 -1q-7 5 -10.5 12t-5.5 14q0 8 -0.5 14t0.5 13q4 14 3.5 29.5t2.5 29.5q2 4 9 4h3q5 1 10.5 3t10.5 3t11 1h12l9 9q4 -1 8 -1.5t7 -2.5
q11 4 13 9q2 4 2 7q-1 11 -0.5 21t1.5 20q3 8 2 13q-3 6 -1 11.5t3 11.5q-1 3 -1.5 7.5t-2.5 8.5q2 2 2 4t1 3q3 7 6.5 13t6.5 12q3 5 5 9t6 7q5 5 8 10.5t7 11.5q6 14 18 27q6 2 13 5t14 4q4 1 7.5 2t7.5 3q11 8 27 10q20 3 37 7q15 2 29.5 2t27.5 -6q5 -1 10.5 -4t9.5 -6
q8 -4 16 -9t17 -11q3 -1 6.5 -5t7.5 -9q19 -15 24 -36q1 -4 3.5 -7.5t3.5 -6.5q10 -15 13.5 -31t2.5 -32z" />
    <glyph glyph-name="currency" unicode="&#xa4;" horiz-adv-x="489" 
d="M442 431q1 -11 -4.5 -19t-13.5 -15q-7 -8 -14.5 -16.5t-12.5 -19.5q2 -16 4 -30.5t4 -30.5t-1.5 -31t-7.5 -30q4 -9 7.5 -18.5t7.5 -18.5q3 -7 7.5 -14t6.5 -12q2 -11 -0.5 -19.5t-4.5 -17.5q-2 -6 -3.5 -13t-5.5 -13q-8 -6 -15.5 -12t-14.5 -11q-12 -1 -23 5
q-15 11 -29.5 21.5t-29.5 21.5q-19 -7 -38 -12.5t-39 -4.5q-12 0 -23.5 8t-27.5 6q-19 -15 -36.5 -34t-37.5 -34q-22 4 -30 20q-9 13 -16 30q-10 21 3 37q10 11 15 23.5t10 22.5q0 23 -5 40t-4 36q0 11 5 26t7 26q1 9 3.5 18.5t5.5 16.5q-1 15 -8 26.5t-12 23.5
q-2 6 -5.5 12t-5.5 13q-9 23 2 44q2 2 4 4.5t4 3.5q12 7 23.5 14.5t24.5 15.5q4 -1 8 -3t7 -4q11 -10 22.5 -20.5t19.5 -24.5q2 -4 5.5 -6t5.5 -4q16 -6 31 -8.5t30 1.5q21 -2 38.5 -12t37.5 -10q1 0 3 0.5t3 0.5q19 11 35 27t35 26q11 -2 14.5 -10t8.5 -15q6 -6 11 -13.5z
M289 292q0 10 -4 19t-10 16q-8 10 -20 11q-21 3 -40.5 -3t-35.5 -26q2 -8 -1.5 -19t-2.5 -21q2 -12 3.5 -23t11.5 -18q8 -6 24.5 -7t29.5 -3q3 2 6 2.5t5 1.5q15 5 23 16t10 25q1 8 1 15v14z" />
    <glyph glyph-name="yen" unicode="&#xa5;" horiz-adv-x="516" 
d="M469 561q2 -5 -2 -9t-9 -6.5t-8 -6.5q-18 3 -29 -9q-1 -4 -2.5 -9t-3.5 -10q-5 -3 -9 -5.5t-9 -5.5q-5 -6 -8 -16q-10 -8 -20 -16.5t-17 -19.5q-2 -4 2 -8q1 0 2 -0.5t2 -0.5q2 0 5 -0.5t4 -0.5q26 4 44 5t39 1q2 0 3.5 -0.5t3.5 -0.5q4 0 7 -3t2 -8q-7 -33 -4 -70
q0 -9 -10 -9h-10q-3 -1 -5.5 -3t-6.5 -4q-5 1 -10.5 1.5t-11.5 -0.5q-8 -1 -17 -3t-17 -4l-8 -2t-7 -3q-9 -7 -18.5 -9.5t-20.5 -3.5q-1 -2 -2.5 -4t-2.5 -4q-1 -5 -2.5 -11t-3.5 -11q-1 -6 3 -10.5t10 -3.5q4 0 6.5 0.5t6.5 0.5q4 -1 9 -1.5t9 0.5q3 1 5.5 2t3.5 -1
q8 -1 15 0t14 3q11 2 18 -5q3 -2 5.5 -5t5.5 -6q5 -6 2 -13q-7 -21 -9 -43.5t-8 -43.5q-1 -2 -2 -3.5t-2 -3.5q-1 -1 -3 -2.5t-4 -1.5l-14 -4t-15 -5q-10 2 -21 2t-22 -1q-12 0 -23 -8q-9 -6 -9 -16q1 -7 1.5 -13t1.5 -12q-1 -11 -1.5 -22.5t-1.5 -22.5q0 -10 -0.5 -20.5
t-1.5 -19.5q-3 -7 -6 -13t-9 -9q-4 0 -6.5 1.5t-5.5 2.5q-6 4 -9 5q-14 2 -25 -1q-7 -1 -13.5 -2t-13.5 -3q-2 -1 -5 -4t-6 -5q-4 -3 -10 -1q-6 0 -6 6q-1 13 -2.5 25t-1.5 25q0 2 0.5 4t0.5 3q6 14 6 29.5t2 29.5q-2 8 -6.5 15t-5.5 16q-1 2 -5 5t-8 2q-6 -1 -11.5 -2.5
t-11.5 -2.5q-16 5 -32 4t-30 3q-4 2 -5.5 4.5t-2.5 5.5v7q5 20 6 40l2 40l13 10q1 7 4 7.5l9 1.5q8 5 16 0q6 -1 14 -7q7 0 13 0.5t13 -1.5q11 -3 20.5 -0.5t19.5 8.5l2 3q0 2 0.5 4t0.5 5q1 11 2 22.5t4 22.5q1 3 -6 13q-5 2 -10.5 3.5t-11.5 -0.5q-3 -1 -6 -1.5t-6 0.5
q-12 4 -22 -2q-5 -1 -11 -1.5t-11 -0.5h-19.5t-17.5 -3q-3 2 -5.5 2.5t-4.5 1.5q-7 4 -7 11q1 10 0 20.5t2 20.5q2 5 1 8.5t-1 7.5q-3 11 7 21l12 8l12 8q11 1 22 3.5t21 6.5q3 2 3 6t-2 6q-2 4 -6 8q-19 18 -32 39q-2 5 -7 8.5t-10 7.5q-5 8 -11 18l-6 10t-5 10l-2 10
q-3 3 -3.5 4.5t-2.5 3.5q-8 8 -5 18q5 2 10.5 4.5t10.5 6.5l22 13q2 2 3 5t4 4q8 5 15 10t15 9q1 2 2.5 2t2.5 1q17 -10 21.5 -13t11.5 -13l2 -4l2 -4q3 -8 6.5 -14.5t10.5 -12.5q2 -1 3.5 -4.5t2.5 -7.5q1 -2 2 -5t5 -5q5 -2 8 -7l6 -10q5 -10 12 -20t14 -21q2 -1 4.5 -3.5
t5.5 -4.5q7 -5 15 -1l1.5 1.5l1.5 1.5q2 2 5 3q7 7 15 12t14 12q7 8 12 16l10 16t11 12.5t13 10.5q4 5 8 10.5t7 11.5l5 5q5 3 8 6t7 6t7 5t7 5q14 5 24 -4q6 -5 12.5 -11t13.5 -12q2 -4 3.5 -8t2.5 -9q2 -4 4.5 -7t4.5 -7q2 -3 4 -7t3 -8z" />
    <glyph glyph-name="brokenbar" unicode="&#xa6;" horiz-adv-x="224" 
d="M181 616q-2 -2 -3.5 -5.5t-3.5 -7.5q-3 -5 -2 -10.5t-1 -11.5q-1 -5 -1 -11t-1 -11q-1 -15 2 -27q-1 -8 -1.5 -15.5t-0.5 -15.5q0 -27 -0.5 -55t0.5 -56q0 -7 -1 -9q-2 -12 -10 -12q-8 -1 -14.5 -4.5t-12.5 -5.5q-8 -4 -17.5 -7.5t-19.5 -4.5q-5 -1 -11 -1.5t-12 -1.5
q-2 2 -6 3.5t-8 3.5q-3 6 -6 15q0 3 0.5 7.5t0.5 8.5q-1 5 -2.5 9t-2.5 9l-2 12t0 13q2 5 -0.5 10.5t1.5 10.5q1 12 1 24t1 24q-3 14 -1 26.5t2 24.5q0 11 2.5 21.5t2.5 20.5q0 2 1 3q5 12 5.5 25t0.5 26q1 3 1.5 6t1.5 6q0 2 1.5 3t1.5 2q15 13 32 15t36 0l8 -2l8 -2
q17 -2 20 -7t4 -19q0 -7 2 -13t4 -14zM171 91q-1 -9 -1 -17.5v-17.5q0 -11 -1.5 -22t-6.5 -21q-1 -4 -1.5 -9.5t-1.5 -10.5q-2 -11 -14 -11h-22q-13 0 -21 8q-6 6 -15 -2q-1 -1 -2 -1.5t-2 -1.5q-4 -4 -9.5 -2t-7.5 5q-3 5 -5 10.5t-5 10.5q2 17 0 34t0 33q-1 5 -2.5 8
t-2.5 7q-3 11 -3 19q0 10 0.5 19.5t0.5 18.5q0 7 2 11q5 14 4 28.5t0 27.5v22q4 6 6.5 11t5.5 10q2 4 3.5 8.5t7.5 8.5h8.5t8.5 1q5 1 10 1.5t9 1.5q18 5 38 0q6 0 10 -6q5 -10 6 -19.5t1 -18.5v-83q0 -14 -0.5 -27.5t2.5 -26.5q3 -4 0 -7z" />
    <glyph glyph-name="section" unicode="&#xa7;" horiz-adv-x="482" 
d="M442 560q-1 -4 -1.5 -6.5t-1.5 -4.5q-9 -10 -19 -20t-22 -17q-3 -1 -5.5 -1t-7.5 -2q-16 11 -34 21t-35 23q-12 11 -28 17q-28 16 -52 -2q-9 -5 -16.5 -11.5t-13.5 -13.5q-10 -11 -13.5 -24t0.5 -28q6 -20 11.5 -31.5t16.5 -18t34 -11.5q14 -2 29 -4.5t35 -4.5
q12 -4 25 -14t26 -17q17 -17 27 -36t15 -40q5 -18 9 -37t-1 -39q-1 -2 0 -5t1 -6q9 -39 -21 -72q-7 -7 -11.5 -15.5t-5.5 -22.5q4 -11 9 -23t8 -26q4 -14 5.5 -27.5t3.5 -27.5q-2 -12 -5 -24.5t-6 -26.5q-9 -10 -18 -21.5t-20 -22.5q-18 -16 -38 -29t-40 -24
q-17 -8 -34.5 -12t-35.5 -1q-10 1 -19.5 3.5t-18.5 4.5q-7 2 -14 3l-14 2q-22 11 -41 24.5t-36 29.5q-2 3 -5 6.5t-5 6.5q-7 10 -4 21q5 17 13.5 30.5t23.5 23.5q2 2 5 3l6 2q5 -4 10.5 -8.5t11.5 -6.5q8 -4 16 -6t17 -4q12 -3 23.5 -7t23.5 -6q5 -2 11 -2.5t11 -0.5
q13 9 26 17.5t24 18.5q1 1 4 7q-2 14 -7.5 28t-11.5 27q-6 12 -14 21t-20 13q-11 5 -22 11.5t-22 13.5q-8 5 -17.5 8t-19.5 4q-20 5 -39 14.5t-36 21.5q-4 5 -9 10.5t-10 11.5q-4 23 -7 45.5t-6 44.5q7 29 16 54.5t25 47.5q-4 17 -14.5 28t-11.5 28q1 7 3 16t-2 19
q-1 5 -1 11t-1 12q-3 31 12 58q10 20 21.5 39.5t27.5 36.5q23 12 49.5 22t51.5 22q10 -2 19 -4.5t19 -4.5q5 -2 10.5 -1.5t11.5 0.5q23 2 46 -3.5t45 -14.5q11 -3 18 -12q14 -21 30.5 -40t26.5 -42zM314 244q-6 17 -13.5 32t-15.5 28q-19 14 -40 21.5t-41 14.5q-16 7 -31 -5
q-3 -3 -6.5 -5.5t-6.5 -5.5q-10 -8 -12 -18.5t0 -21.5q4 -14 12 -24t23 -15q6 -1 11.5 -3t10.5 -3q8 -1 16 -2.5t12 -3.5q16 -7 28 -18t27 -14q11 1 18 13q5 17 8 30z" />
    <glyph glyph-name="dieresis" unicode="&#xa8;" horiz-adv-x="382" 
d="M174 649q0 -5 -0.5 -11t-0.5 -11q-5 -10 -11 -20t-14 -19q-11 -7 -24.5 -12t-29.5 -8q-8 3 -18 5t-20 11q-5 11 -7.5 23.5t-4.5 26.5q2 8 4 16.5t5 17.5q5 14 17 23q8 7 19 13q9 5 20 8q12 2 22 -4q5 -2 8.5 -4.5t7.5 -5.5q26 -21 27 -49zM338 643q-1 -16 -8.5 -28.5
t-13.5 -25.5q-20 -8 -32.5 -10.5t-27.5 -1.5q-12 0 -20 8l-10 10l-10 10l-4 19q-1 4 -2 8.5t-2 9.5q3 11 6.5 19.5t8.5 18.5q16 14 35 26q16 9 34 2q9 -3 17 -8t15 -11q5 -4 7 -9.5t3 -10.5q2 -7 2.5 -14t1.5 -12z" />
    <glyph glyph-name="copyright" unicode="&#xa9;" horiz-adv-x="695" 
d="M652 309q-1 -15 0.5 -31t-3.5 -32q-4 -8 -6 -17.5t-4 -19.5q-8 -19 -20.5 -35.5t-13.5 -36.5q-7 -9 -14 -16t-11 -15q-14 -23 -34 -39t-38 -34q-7 -7 -16 -10q-46 -27 -83 -38t-92 -13q-19 -1 -38 0.5t-39 1.5q-9 5 -19 10t-19 11q-14 11 -29 21t-33 12q-6 5 -12.5 9.5
t-10.5 10.5q-17 33 -38 63.5t-32 66.5q0 22 0.5 44t1.5 44q2 18 -1.5 32.5t-4.5 33.5q4 11 4.5 22t3.5 20t7.5 16t7.5 16q12 44 40 79q26 35 68 58q20 11 40 20t41 14q16 5 30 12t27 14q23 2 45.5 5t50.5 6q30 -3 62 -16.5t66 -33.5q17 -14 32.5 -33.5t36.5 -33.5
q10 -7 14.5 -17t7.5 -21q7 -27 13.5 -52.5t5.5 -53.5q-1 -11 -0.5 -22t6.5 -22zM562 315q-5 19 -10.5 37t-6.5 38q-1 17 -8 30.5t-18 26.5q-20 23 -44 40.5t-55 24.5q-10 2 -19.5 4.5t-18.5 4.5q-28 -7 -55.5 -14.5t-56.5 -13.5q-32 -6 -56 -26q-18 -25 -34 -50.5t-33 -51.5
q-6 -10 -9 -20.5t-5 -21.5q-10 -99 40 -190q12 -8 23 -16.5t20 -16.5q23 -7 43 -13t39 -12q23 -7 45 -7t43 4q33 9 64 22t54 41q2 3 6 6l8 6q10 20 20 39t17 35q8 26 7 49t0 45zM430 251q16 -19 -1 -41q-11 -13 -25 -24t-34 -19q-5 0 -12 -0.5t-15 -0.5q-10 0 -20 1t-19 3
q-8 3 -16.5 8.5t-19.5 6.5q-14 24 -29 47l-4 13q-8 11 -9.5 27t1.5 33q2 13 6 25.5t7 26.5q8 8 16 17.5t17 19.5q20 11 36 17t42 12q15 -1 31.5 -4t30.5 -13q2 -4 4.5 -6t3.5 -7q2 -6 2.5 -13t-2.5 -12q-4 -5 -5.5 -11.5t-3.5 -10.5q-8 -5 -17.5 -2t-20 7t-20.5 0
q-25 -7 -30.5 -20t-16.5 -26q-2 -15 1.5 -26t4.5 -19q8 -10 17 -13.5t18 -5.5q17 2 30.5 11t26.5 16q9 0 14.5 -5.5t10.5 -11.5z" />
    <glyph glyph-name="ordfeminine" unicode="&#xaa;" horiz-adv-x="371" 
d="M330 463q-1 -2 -1 -5.5t-2 -5.5q-7 -10 -14 -18.5t-15 -17.5q-1 -2 -4.5 -4t-7.5 -4q-3 0 -4 -1q-7 2 -9 4q-22 8 -28.5 6.5t-23.5 -18.5q-2 -1 -3.5 -3t-3.5 -4q-25 -10 -50.5 -8t-51.5 4q-7 0 -12.5 2.5t-10.5 5.5q-6 2 -11 6.5t-12 8.5q-5 8 -11 16t-12 17
q0 5 -1.5 8.5t-0.5 7.5q2 11 3 22.5t2 22.5q1 3 2 7t4 6q8 7 12.5 15.5t10.5 15.5q11 11 21.5 20.5t23.5 19.5q5 5 12 7.5t14 6.5q9 0 17.5 -0.5t17.5 1.5q5 0 13 2q6 1 9.5 8.5t-1.5 11.5q-7 8 -13.5 16t-13.5 16q-10 -1 -19 -1h-18q-7 -1 -15.5 -2.5t-16.5 -2.5
q-5 5 -5.5 10.5t-0.5 9.5v25t5 24l2 4q5 4 11.5 4h12.5q15 1 29.5 1.5t30.5 0.5h6.5t7.5 -1q11 -3 21.5 -6.5t21.5 -7.5q15 -15 25.5 -32.5t9.5 -40.5q0 -7 4.5 -14.5t6.5 -21.5q-1 -18 1.5 -38t-3.5 -37q2 -24 14.5 -38.5t23.5 -30.5zM186 481q2 10 1.5 19.5t-6.5 18.5
q-5 8 -13 13t-16 3q-20 -5 -28 -19t-9 -33q-2 -16 10 -26q11 -14 28 -11q19 13 33 35z" />
    <glyph glyph-name="guillemotleft" unicode="&#xab;" horiz-adv-x="475" 
d="M294 437q-4 -16 -14 -25.5t-20 -20.5q-10 -16 -18.5 -32.5t-18.5 -31.5q-7 -11 -16.5 -22t-17.5 -22q-4 -5 -8.5 -10.5t-7.5 -11.5q-4 -7 -8.5 -13t-9.5 -13l-2 -6t-3 -6q6 -32 26 -60q5 -7 9.5 -14.5t5.5 -16.5t9 -18q10 -16 20 -30.5t18 -31.5q10 -18 23 -29
q-4 -2 -7.5 -4t-7.5 -4q-10 -7 -20.5 -15.5t-19.5 -17.5q-7 -7 -12 2q-1 1 -1 1.5t-1 1.5q-4 6 -8.5 12t-10.5 11q-13 10 -22 22.5t-16 27.5l-14 28t-14 27q-5 11 -11 19.5t-13 18.5q-4 5 -9.5 10t-9.5 11q-3 5 -6.5 11.5t-8.5 11.5q-4 4 -4.5 10.5t-3.5 13.5q12 13 22 22
q15 15 20 32q3 12 15 23q4 2 7 7t5 9q10 13 18 27.5t20 24.5q3 5 5 10t5 9l4 8t5 7q13 11 23 24t19 26q4 4 7 7.5t7 7.5q6 0 11.5 0.5t10.5 0.5l12 -6t13 -5q9 -1 14.5 -6t9.5 -12zM434 413q-2 -6 -4.5 -11.5t-5.5 -13.5q-7 -9 -14.5 -19t-15.5 -21l-12 -14t-8 -17
q-6 -9 -12 -18.5t-16 -16.5q-5 -5 -8 -11q-1 -1 -2.5 -3.5t-4.5 -4.5q-5 -4 -8.5 -9t-8.5 -11q-7 -11 -10 -26q-3 -3 -5 -8l21 -34q6 -5 12 -11t13 -11q12 -9 22.5 -19t17.5 -22q5 -7 10.5 -14t9.5 -15q5 -7 10.5 -12.5t7.5 -13.5q-11 -37 -45 -52q-3 -3 -7 -5.5t-6 -4.5
q-3 2 -5 2q-14 7 -25 23q-2 2 -2.5 6t-2.5 6q-13 10 -24 22.5t-20 26.5q2 3 -0.5 7t-1.5 7q-12 8 -17 16.5t-16 18.5q-2 2 -3.5 5.5t-3.5 5.5q-7 14 -14 27.5t-14 28.5q-1 4 -1.5 9.5t-2.5 10.5q-1 6 -3 8t-4 7q1 1 1 2.5v1.5q2 1 4.5 6.5t5.5 7.5l1.5 1t2.5 2q9 15 19 28.5
t23 25.5q12 11 23 23.5t19 27.5q1 2 2.5 4t2.5 4q14 14 24 30t21 32q6 8 13 15.5t15 15.5q1 1 6 1q4 -2 7.5 -4.5t6.5 -5.5q5 -5 11.5 -10t13.5 -10q11 -5 7 -17z" />
    <glyph glyph-name="logicalnot" unicode="&#xac;" horiz-adv-x="355" 
d="M312 7q-2 -4 -3 -7.5t-3 -8.5q-3 -5 -5 -10.5t-4 -10.5q-2 -4 -5 -7l-6 -6q-16 6 -24.5 8.5t-17.5 3.5t-28 1q-6 6 -7.5 15t-3.5 16q2 16 2.5 23t-2 13.5t-8.5 17.5q-3 1 -5.5 3.5t-4.5 1.5q-19 -3 -39 -0.5t-40 -4.5q-12 -3 -27 -3q-4 -1 -8.5 0t-9.5 2q-7 2 -13.5 9
t-6.5 15q0 16 0.5 31.5t1.5 30.5q5 3 8 6.5t7 3.5q31 1 62.5 1t62.5 1q23 0 45.5 -4t44.5 -11q2 -1 4.5 -3t6.5 -4q5 -10 11.5 -21t13.5 -23q2 -19 2.5 -38.5t-1.5 -40.5z" />
    <glyph glyph-name="uni00AD" unicode="&#xad;" horiz-adv-x="575" 
 />
    <glyph glyph-name="registered" unicode="&#xae;" horiz-adv-x="718" 
d="M676 296q-3 -23 -6.5 -46.5t-9.5 -45.5q-7 -25 -12 -40.5t-11 -27t-15.5 -26t-26.5 -38.5q-9 -9 -14 -20q-5 -6 -7 -13q-7 -4 -14.5 -8.5t-15.5 -9.5q-6 -4 -12 -9t-11 -9q-26 -11 -52 -15.5t-52 -11.5q-8 1 -17.5 2t-18.5 2q-10 2 -20.5 -1.5t-22.5 -0.5q-10 4 -21 4
t-20 1q-5 2 -9 5t-9 4q-2 2 -5.5 3t-6.5 2q-13 1 -27 -1t-31 5q-2 2 -6.5 5.5t-9.5 7.5q-15 19 -21.5 25.5t-15 10t-28.5 11.5q-6 7 -13 15.5t-14 16.5q-1 19 -12.5 34.5t-22.5 31.5q-2 9 -3 20t-4 21q-9 23 -11.5 48t-7.5 50q-3 20 3 39.5t16 36.5q3 5 6.5 10.5t5.5 11.5
q2 5 3 11.5t2 12.5q6 8 12.5 17.5t10.5 19.5q12 26 31.5 45.5t37.5 41.5q2 2 7 2t9 3l8 11q13 11 21.5 17.5t21.5 17.5q26 3 52.5 6.5t51.5 6.5q20 -5 38 -1t36 4q24 1 46 -5.5t42 -17.5q5 -3 9 -6.5t8 -4.5q26 -7 46 -23.5t41 -32.5q10 -13 14 -27.5t14 -27.5
q9 -13 15.5 -26.5t12.5 -24.5q4 -16 6 -30t6 -28q9 -31 3 -61zM600 271q5 22 -1.5 43t-9.5 41q0 5 -5 12q-15 28 -34 51.5t-49 38.5q-4 2 -11 8q-4 10 -12 19.5t-21 16.5q-13 4 -27.5 7.5t-29.5 6.5q-13 -2 -24.5 -5t-23.5 -5q-13 -3 -26 -2.5t-24 -3.5q-12 -4 -24 -2t-25 0
q-22 -14 -41 -33l-39 -39q-8 -16 -14 -31q-9 -14 -14 -30.5t-8 -33.5q-6 -24 -5 -48t13 -47q8 -16 11 -29q5 -29 21 -52t40 -45q16 -2 31.5 -11t29.5 -20q15 -10 31.5 -19t33.5 -15q21 5 43 5.5t41 11.5q32 11 47.5 17.5t28 16t35.5 29.5q1 1 2.5 2t2.5 2q29 30 46 65t11 78
zM494 325q-2 -10 -7 -23t-13 -21q-10 -10 -21 -15.5t-19 -12.5q-4 -10 3.5 -15t9.5 -11q4 -7 5 -9.5t5 -10.5q6 -12 6 -24q-1 -10 -7 -12.5t-14 -9.5q-7 1 -14.5 2t-14.5 3q-8 6 -11.5 11t-8.5 15q-7 20 -30 33q-1 2 -8.5 2.5t-8.5 0.5q-7 -6 -3.5 -17t1.5 -18
q-1 -7 -1.5 -14t-3.5 -15q-5 -13 -19 -13q-6 0 -12.5 0.5t-11.5 1.5q-4 1 -7.5 4.5t-5.5 6.5q-3 5 -3.5 10t-0.5 9q-1 22 -1 43t-3 43q-2 10 1 24q2 10 0.5 19.5t-3.5 17.5q-4 14 -1.5 31.5t5.5 32.5q11 14 20 18t23 7q17 3 33 5t33 -1q14 -1 26 -1.5t24 -2.5q27 -5 40 -27
q5 -7 9.5 -15.5t8.5 -16.5v-35zM417 338q-10 14 -26 14q-11 0 -23 -0.5t-22 -5.5q-2 -1 -4.5 -4.5t-4.5 -5.5q-1 -10 0 -21t7 -22q17 -3 34 1t30 7q10 3 13.5 16.5t-4.5 20.5z" />
    <glyph glyph-name="macron" unicode="&#xaf;" horiz-adv-x="391" 
d="M351 569q1 -8 0.5 -17t-4.5 -17q-2 -5 -4 -10.5t-4 -10.5q1 -4 1.5 -8t1.5 -8q-3 -4 -6 -6.5t-7 -5.5q-5 0 -10.5 1t-11.5 -1q-4 0 -9 -1t-9 -2q-16 -2 -31 -2h-30h-33t-34 1h-26t-26 -2q-7 -2 -13.5 -2.5t-14.5 -1.5q-14 0 -25 7q-8 10 -9.5 22t-6.5 23v26q8 15 17 21
q11 1 21 1t20 1q7 3 13 5.5t12 5.5q11 -3 21 -3.5t19 3.5q22 1 44 3t43 -6q2 0 3 -1q5 0 11 -0.5t11 -1.5t9.5 -3t6.5 -3q8 -1 11.5 3t8.5 5q6 -1 12 -1h13q13 -2 15 -14z" />
    <glyph glyph-name="degree" unicode="&#xb0;" horiz-adv-x="398" 
d="M352 581q-7 -22 -1 -49q-2 -7 -4 -17t-4 -18q-6 -11 -12 -21t-11 -21q-19 -16 -28.5 -24.5t-22.5 -12t-44 -5.5q-19 -5 -38 -5.5t-40 3.5q-7 4 -16 9.5t-17 9.5q-40 22 -54 64q-4 11 -8.5 21.5t-7.5 19.5q-1 30 5.5 58t16.5 54q4 8 9 15.5t9 14.5q6 11 15 17.5t19 10.5
q20 8 39.5 12.5t40.5 4.5h33.5t29.5 -3l28 -13q2 -1 5 -1t5 -1q11 -5 18.5 -13.5t13.5 -18.5q14 -21 21 -43.5t0 -47.5zM266 582q0 35 -30 48q-7 4 -14.5 6t-13.5 5q-13 -4 -25.5 -6.5t-23.5 -6.5q-16 -16 -18.5 -33.5t4.5 -37.5l4 -10t3 -10q11 -24 34 -29q11 2 22 4.5
t21 5.5q13 1 22 12l6 8l6 8q0 10 1.5 18.5t1.5 17.5z" />
    <glyph glyph-name="plusminus" unicode="&#xb1;" horiz-adv-x="435" 
d="M391 370q0 -10 -0.5 -20t-1.5 -21q-1 -6 -3.5 -12t-4.5 -11q-18 -10 -37 -5q-4 1 -7.5 2.5t-5.5 2.5h-45q-6 -1 -9.5 -3.5t-5.5 -4.5l-3 -7q-1 -10 -2.5 -19t-3.5 -19l-2 -12t0 -13q1 -8 -4 -19q-3 -10 -13 -11h-26q-24 6 -39 16q-7 3 -14 2.5t-13 5.5l2 12l2 12v25
q1 8 3 14t3 12q0 4 -1.5 7.5t-6.5 7.5q-6 1 -12.5 2.5t-12.5 2.5q-25 -3 -43 -3.5t-41 2.5q0 6 1 8q0 5 1 9t1 7q-2 16 1 26q-1 7 0.5 13t2.5 12q1 7 1 14.5t1 14.5q0 2 1 4l2 4q8 4 20 2q4 -2 7 -5.5t7 -5.5q8 2 14.5 3.5t13.5 4.5q3 -2 6 -3l6 -2q4 -1 6.5 -2t4.5 -3
q8 2 14 7t12 6l1.5 4.5t1.5 2.5q1 6 1.5 12.5t1.5 12.5t-0.5 13.5t-1.5 16.5q2 5 3 13.5t3 16.5t2.5 16t4.5 15q2 0 4 1t3 0q5 -2 10 -5q3 2 6 3.5t7 2.5q3 -1 7 -2t8 -1q2 0 5.5 0.5t6.5 -0.5l8 -2t7 -3q7 -3 10 -8.5t7 -9.5q1 -2 1 -3.5t1 -3.5q2 -19 1 -38.5t-2 -38.5
q-1 -7 -2 -14.5t-1 -14.5q0 -1 1.5 -3t2.5 -4q12 -1 23.5 -2t22.5 -1q10 0 19 -1t19 -5q3 -1 7 -1h8q9 -4 17 -17q0 -2 0.5 -5t-0.5 -7zM366 107q0 -15 -3 -29q-1 -6 -1 -12.5t1 -12.5q-7 -5 -13.5 -2.5t-12.5 0.5l-28 -4q-7 -1 -13 -1.5t-14 -2.5q-6 1 -11 1.5t-10 1.5
q-4 -1 -7.5 -2t-7.5 -3q-4 -1 -8.5 -2t-9.5 0q-4 1 -8.5 0.5t-7.5 -0.5q-14 -2 -27.5 -2.5t-26.5 1.5q-8 -4 -15.5 -6t-16.5 1q-7 3 -15 3t-16 -1q-8 -4 -13 0l-8 10l-8 10q-3 15 1 28l8 26q1 7 8 9q5 2 9.5 3t8.5 2q14 2 25 7q14 8 30 11t31 6q8 -1 16 1t17 2q28 0 58 11
q5 0 8 1q8 -1 22 -6q4 2 8.5 3t10.5 2q12 0 28 -7q6 -16 8.5 -25.5t2.5 -21.5z" />
    <glyph glyph-name="uni00B2" unicode="&#xb2;" horiz-adv-x="309" 
d="M267 352q1 -13 -2.5 -27t-4.5 -27q-10 -15 -25 -15q-10 -1 -21 -2t-22 -4q-19 -3 -40 -3t-42 1q-8 1 -15 4l-14 6q-4 5 -4.5 9t-0.5 8q0 14 -0.5 26t-5.5 24q3 2 4.5 5t3.5 4q8 7 15 10q26 17 44 42q6 12 9 24.5t7 25.5q4 24 -6 46q-2 5 -9 8t-13 1q-2 -1 -5.5 -3
t-5.5 -4q-5 -5 -9.5 -11t-9.5 -11q-7 -10 -18 -1q-1 2 -2 3t-3 2q-4 0 -8.5 1t-7.5 5q-12 12 -13 24q3 7 7 13t4 14q1 4 4 9t4 10q13 9 26 17t22 21q5 1 9.5 2.5t8.5 2.5q9 5 20 5.5t21 0.5q11 -1 21.5 -4.5t17.5 -10.5q5 -4 10 -9.5t10 -11.5q3 -6 7.5 -13.5t8.5 -16.5
q2 -17 3.5 -35t4.5 -37q-1 -4 -4 -8.5t-5 -9.5q0 -4 0.5 -8t1.5 -9q-7 -16 -14.5 -31t-14.5 -31q-1 -4 1 -8.5t7 -5.5q6 -1 12 -2.5t12 -3.5q5 -1 10 -3t9 -8z" />
    <glyph glyph-name="uni00B3" unicode="&#xb3;" horiz-adv-x="271" 
d="M230 366q-4 -12 -8.5 -25t-9.5 -25q-4 -9 -10 -18t-17 -14q-6 -2 -9.5 -7.5t-8.5 -10.5q-12 -5 -22 -8q-10 2 -18.5 3t-18.5 1q-13 1 -26.5 4t-25.5 7q-4 4 -7 8t-5 11q1 2 1.5 4.5t1.5 4.5q6 9 8.5 19.5t7.5 19.5q2 5 4 7t9 6q2 -1 5 -1t5 -1q11 -5 22.5 -5t22.5 1
q9 1 14.5 11t0.5 17q-7 11 -14 21q-3 5 -8 7.5t-10 3.5q-4 0 -8.5 0.5t-8.5 1.5q-11 11 -16 28q-1 10 0 18.5t4 17.5q3 8 14 10h6.5t7.5 1q8 1 15.5 2.5t14.5 5.5q5 5 7 11t3 12q-1 9 -6.5 13t-13.5 8q-7 2 -14.5 3t-15.5 3q-8 -1 -15.5 -4.5t-15.5 -6.5q-5 0 -6 3
q-10 9 -17 18q-17 24 4 48q3 5 7 8q8 5 17 7t14 9q5 3 10 5t9 5q42 -4 80 -22q17 -14 23 -36q2 -7 5 -12q18 -30 4 -59l-2 -4q-3 -7 -3 -15t-4 -16q-4 -6 -6.5 -12.5t-6.5 -13.5q5 -5 9.5 -10.5t8.5 -10.5q8 -13 8 -28t4 -29z" />
    <glyph glyph-name="acute" unicode="&#xb4;" horiz-adv-x="253" 
d="M210 719q-1 -9 -3.5 -16.5t-7.5 -14.5q-11 -14 -14 -31q-3 -13 -10.5 -23.5t-13.5 -21.5q-2 -4 -6 -7t-8 -7q-6 -12 -15 -24q-4 -6 -7.5 -11t-8.5 -11q-10 -4 -19 -3t-18 0q-15 -3 -31 -3l-2 2l-2 2q-2 13 1 23q2 11 5.5 23t6.5 23l7 10q4 4 6 8l4 8q3 11 7 21t8 18
q9 17 16 35q2 3 4.5 6.5t6.5 5.5q2 0 4 1t4 1q10 -3 19 0q13 3 21 0q10 -4 19.5 -6t18.5 -5q2 0 4 -1z" />
    <glyph glyph-name="uni00B5" unicode="&#xb5;" horiz-adv-x="527" 
d="M483 322q6 -57 2.5 -113.5t-26.5 -111.5q-9 -21 -22 -38t-33 -28q-12 -7 -23.5 -13.5t-23.5 -11.5q-16 -8 -31.5 -14t-27.5 -10q-25 -9 -49 -6.5t-45 -8.5q-4 -28 -1.5 -56t-5.5 -56q-5 -19 -10 -37.5t-10 -38.5q0 -4 -4 -8q-2 -3 -4.5 -6.5t-6.5 -8.5q-13 -10 -29.5 -15
t-33.5 -10q-7 -3 -16.5 3t-11.5 14q-2 9 -4 17.5t-4 17.5q-1 8 -3.5 17t-0.5 17q3 23 -2.5 44t-5.5 42v72q0 65 1 131.5t-4 131.5q-1 33 -5 65.5t-4 66.5q0 2 1.5 4.5t3.5 8.5q5 2 8 3.5t4 -0.5q25 -2 49 -5.5t47 -5.5q14 -13 19 -30t6 -34q4 -31 6 -61t4 -59
q14 -22 32.5 -34.5t35.5 -23.5q15 -2 28.5 -1t27.5 8q2 5 6.5 10t6.5 10q5 14 9 29.5t10 28.5q7 13 10 25.5t0 25.5v4.5t1 3.5q5 15 8 30t9 30q5 12 2 25.5t6 26.5q7 0 13 0.5t13 -0.5q35 -3 54.5 -19t23.5 -48z" />
    <glyph glyph-name="paragraph" unicode="&#xb6;" horiz-adv-x="681" 
d="M635 237q4 -31 -15 -52q-3 -2 -4.5 -5.5t-3.5 -6.5q3 -5 6.5 -10t7.5 -12q5 -45 5 -90.5t-9 -90.5q-5 -4 -8 -6.5t-7 -2.5q-24 -3 -47.5 -2.5t-48.5 8.5q-4 12 -6 23q-1 18 -3.5 36t-3.5 36q0 18 1 36t1 37q0 14 2 28.5t5 27.5q7 17 2 32q-7 38 -7 76t-2 77v8
q-1 11 -3.5 20.5t-11.5 15.5q-17 11 -38 0q-1 -4 -4.5 -9.5t-4.5 -10.5q-2 -7 -2.5 -15.5t-1.5 -16.5q-2 -22 -5 -44t1 -45q4 -20 -5 -39t-8 -40q2 -22 2 -44.5v-45.5q-1 -25 0.5 -51.5t-5.5 -51.5q-10 -21 -27.5 -28t-35.5 -12q-10 8 -20.5 17t-21.5 17q2 8 4.5 16.5
t0.5 14.5q-7 18 -2 36.5t-1 36.5q-4 11 0.5 20l9.5 19q-3 8 -6 17.5t-8 19.5q3 13 5.5 26.5t3.5 27.5q2 16 1.5 32t-1.5 32q-1 41 -1.5 81t-2.5 79q-12 13 -18.5 15t-22.5 -6q-10 -5 -15 -17q-2 -4 -5 -21t-6.5 -38t-5.5 -38t-1 -22q5 -22 3 -44t3 -44q2 -12 0.5 -24
t-3.5 -25q0 -4 -1.5 -7.5t-3.5 -6.5q-6 -4 -7 -3l-34 16l-34 16q-4 2 -16.5 12t-27.5 23.5t-27 24.5t-15 15q-24 38 -32 78t5 83l16 46t17 47l20.5 20.5t23.5 20.5q14 9 29 17.5t29 16.5q18 6 29.5 5.5t23 -3t27.5 -2.5q8 5 15 8t13 6q14 -1 27 -3.5t26 -3.5q11 -1 22.5 -1
h22.5q36 -17 73.5 -27t79.5 -8q21 -13 44 -27t36 -40q2 -35 6.5 -68.5t2.5 -68.5q-1 -12 3 -24q13 -39 1 -80q-4 -10 -2.5 -19.5t2.5 -20.5z" />
    <glyph glyph-name="periodcentered" unicode="&#xb7;" horiz-adv-x="206" 
d="M168 279q1 -16 -7 -33q-7 -4 -15 -9.5t-17 -11.5q-12 -1 -23.5 -1.5t-23.5 -2.5q-10 5 -18 12.5t-16 14.5q-1 5 -2.5 10t-4.5 9q-4 11 -3 22.5t2 21.5q0 2 1 3q0 1 1 1.5l1 0.5q3 8 6.5 15t6.5 14q6 5 12 9t11 8q8 1 15 2l14 2q21 1 31 -15q4 -7 9 -13t10 -13q1 -7 1 -13
t1 -13q2 -4 4.5 -9.5t3.5 -10.5z" />
    <glyph glyph-name="cedilla" unicode="&#xb8;" horiz-adv-x="314" 
d="M268 -107q-1 -4 -4.5 -7t-8.5 -7l-12 2t-13 2h-11.5t-11.5 -1q-16 -1 -31 -1.5t-31 1.5q-6 1 -12.5 0.5t-14.5 -0.5q-3 0 -7 -0.5t-8 0.5q-4 0 -7.5 0.5t-8.5 1.5q-6 7 -12.5 14t-11.5 15q-8 8 -8 17q-1 8 -2 15.5t-4 14.5q-2 7 -1 11q2 16 -1 27q-1 2 -1 5.5v5.5
q2 11 1 22t-1 21q2 4 4.5 8.5t4.5 8.5q-1 5 -3 9t-4 7q19 20 51 24q7 -2 13 -7t12 -11q1 -3 3 -6t3 -7q16 -30 13 -63v-15q6 -10 12 -13.5t12 -7.5h3q5 4 9 8t10 5q8 -1 15 -2.5t14 -2.5q8 0 14 1.5t13 1.5q5 -6 10 -13l10 -14q1 -5 2 -11.5t1 -11.5q-2 -6 -5 -9q2 -9 3 -18
t2 -20z" />
    <glyph glyph-name="uni00B9" unicode="&#xb9;" horiz-adv-x="283" 
d="M239 299q-1 -7 -4.5 -10.5t-7.5 -5.5q-13 -1 -25.5 -4t-26.5 -4h-14.5t-14.5 1q-10 2 -21 0q-4 -2 -8 -1q-9 2 -18.5 2t-19.5 -1q-13 -2 -19 9q2 8 2.5 16t1.5 16q0 8 -0.5 16t-1.5 17l4 4l3 3q4 1 7.5 1h7.5q8 0 13 4.5t8 11.5q4 13 1 22q-5 14 -4.5 29.5t4.5 29.5
q0 2 0.5 4t-0.5 3q0 5 -1 10t-6 9l-12 -4q-1 -6 -6.5 -7t-11.5 -3h-4t-4 1q-3 8 -5.5 16t-4.5 15q-3 9 -4 17.5t-3 17.5q-4 22 12 41q14 8 28.5 16.5t24.5 21.5q18 4 32 4t36 -4q8 -4 8 -15q0 -24 0.5 -48t-1.5 -50q0 -3 -0.5 -6.5t-0.5 -7.5q1 -13 3.5 -27.5t0.5 -28.5
q3 -7 5 -15.5t5 -16.5q-1 -3 -1.5 -5.5t-1.5 -4.5q0 -20 18 -29q4 -4 9 -5.5t11 -3.5q1 -4 2 -7.5t2 -6.5q2 -10 1.5 -19.5t1.5 -17.5z" />
    <glyph glyph-name="ordmasculine" unicode="&#xba;" horiz-adv-x="389" 
d="M347 581q-5 -22 -1 -49q-1 -7 -3.5 -17l-4.5 -18q-6 -11 -12 -21t-11 -21q-19 -16 -28.5 -24.5t-22 -12t-43.5 -5.5q-19 -5 -38.5 -5.5t-39.5 3.5q-8 4 -16.5 9.5t-17.5 9.5q-41 23 -54 64q-4 11 -8 21.5t-8 19.5q-1 30 5.5 58t16.5 54q5 8 9.5 15.5t8.5 14.5
q6 11 15.5 17.5t19.5 10.5q19 8 39 12.5t40 4.5h33.5t29.5 -3l28 -13q3 -1 5.5 -1t4.5 -1q11 -5 19 -13.5t14 -18.5q14 -21 21 -43.5t-1 -47.5zM261 582q0 35 -30 48q-7 4 -14 6t-13 5q-13 -4 -26 -6.5t-24 -6.5q-16 -16 -18.5 -33.5t4.5 -37.5q4 -9 7 -20q5 -11 13.5 -18.5
t21.5 -10.5q10 2 21 4.5t21 5.5q13 1 22 12q4 4 6.5 8t6.5 8q0 10 1 18.5t1 17.5z" />
    <glyph glyph-name="guillemotright" unicode="&#xbb;" horiz-adv-x="432" 
d="M392 207q-1 -1 -1.5 -4t-2.5 -5q-13 -17 -22.5 -36.5t-19.5 -39.5q-1 -1 -1.5 -2.5t-1.5 -3.5q-4 -10 -10.5 -19t-11.5 -20q-4 -10 -10 -19.5t-11 -19.5q-6 -10 -11.5 -19t-6.5 -18q-19 -21 -44 -14q-7 6 -15.5 14t-17.5 14q-2 5 -1 8.5t2 6.5q5 8 9 16.5t10 15.5
q6 8 11 16.5t11 15.5q4 5 7 10.5t7 9.5q4 3 7.5 6.5t7.5 5.5q1 18 3 23t15 17q3 4 5 9t5 9q2 4 5 7t4 7l-4 17q-14 22 -26 44.5t-21 47.5q-11 7 -18.5 18t-15.5 21q-2 11 -6 19q-1 4 -3.5 7.5t-4.5 6.5q-7 11 -13.5 21.5t-9.5 21.5v7q2 7 7 10.5t9 6.5q5 4 10 7t8 6
q11 3 15 0q6 -4 12.5 -8t13.5 -8q5 -10 10 -18t9 -17q6 -10 12 -20.5t16 -18.5q13 -22 27.5 -42t21.5 -45q4 -9 11 -17q1 -3 -0.5 -5.5t-1.5 -5.5l5 -16l2 -2q5 -7 9 -14t5 -15zM252 233q1 -7 -0.5 -15t-3.5 -16q-9 -15 -19 -31t-20 -33q-1 -1 -3 -3.5t-4 -3.5
q-7 -6 -11.5 -13t-8.5 -15q-4 -6 -7 -12.5t-6 -12.5q-5 -12 -12 -22.5t-13 -22.5l-22 -45q-7 -4 -16 -1q-15 9 -29 14q-17 8 -29 23q-2 2 -2 6q0 5 1 7q5 8 11 17.5t11 17.5q2 3 4.5 5.5t3.5 6.5q7 14 13.5 27.5t16.5 26.5q8 13 16.5 26.5t16.5 26.5q2 2 3.5 4.5t2.5 3.5
q8 12 8 30q-2 8 -2 14q-8 13 -11.5 15.5t-5 4t-4.5 11.5q-1 0 -3 8t-3 6q-3 -4 -7 0q-4 6 -8 12.5t-7 13.5q-6 14 -14 25.5t-20 21.5q-9 6 -14 14.5t-9 18.5q-1 8 -6 17q9 14 22.5 24t27.5 18q2 1 6.5 0t5.5 -3q9 -10 17 -20t14 -21q5 -7 9.5 -14t11.5 -14q11 -11 13 -28
q1 -4 1.5 -7t0.5 -6q5 -7 10 -13l10 -12q8 -8 14.5 -18t12.5 -21q12 -21 29 -35q2 -1 4 -3.5t3 -4.5z" />
    <glyph glyph-name="onequarter" unicode="&#xbc;" horiz-adv-x="704" 
d="M232 312q-2 -11 -15 -20q-2 -1 -7 -2t-10 -1l-28 -2t-28 -1q-14 2 -27.5 0.5t-27.5 -4.5q-5 -2 -10 -1.5t-10 0.5q-10 5 -13.5 12.5t-6.5 14.5q-3 11 -3.5 22.5t-4.5 21.5q9 7 16 10q11 3 22 7t21 16q5 24 4 47.5t-2 47.5q0 7 -7 12q-8 7 -16.5 3.5t-16.5 0.5
q-13 13 -21 32q-1 6 1.5 11.5t5.5 9.5q16 18 32 35.5t37 30.5q24 9 56 3q2 -4 5.5 -8t6.5 -9q3 -2 5.5 -5.5t4.5 -6.5q0 -3 1.5 -6t1.5 -6q-1 -7 -2 -15.5t-2 -16.5q-1 -10 -2.5 -19.5t-1.5 -19.5q1 -16 0 -32.5t-7 -33.5q-4 -10 -2.5 -21t4.5 -22q9 -12 22.5 -16.5
t23.5 -14.5q8 -13 6 -26.5t-5 -27.5zM491 434q-5 -9 -14 -8.5t-16 -4.5q-4 -4 -7.5 -9t-2.5 -10q1 -7 2 -13.5t2 -13.5q-16 -15 -28 -31.5t-20 -36.5q-4 -13 -10 -19q-18 -20 -32 -42.5t-35 -39.5q-5 -5 -10 -10.5t-11 -11.5q-3 -10 -6 -17t-6 -15q-15 -15 -28.5 -31.5
t-27.5 -35.5q-10 -16 -23.5 -30t-31.5 -24q-13 -7 -21.5 -17.5t-16.5 -21.5q-7 -4 -15 -6.5t-17 -6.5q-9 2 -15 6q-13 10 -23.5 23t-22.5 24q17 30 36 57.5t38 47.5q5 6 11.5 12t10.5 13q14 20 30.5 39t33.5 37q11 11 19.5 23.5t17.5 24.5q16 22 31.5 44t32.5 41q5 5 6 10
q6 18 17 32t22 27q12 14 22.5 29t23.5 27q1 8 2.5 14t2.5 13q20 -7 32.5 -16t28.5 -29q8 -9 13.5 -20t4.5 -24zM662 57q-7 -6 -15.5 -5.5t-16.5 -2.5q-26 -6 -26 -31l-2 -22t-1 -21q-4 -6 -9 -8q-24 -1 -35 -1t-17 2.5t-16 8.5q-6 8 -3.5 16.5t0.5 15.5q-1 8 -3 16.5
t-4 15.5q-24 29 -55 20q-16 -4 -32.5 -2.5t-33.5 1.5q-25 27 -15 62q5 11 9.5 23t9.5 23t7.5 23.5t3.5 25.5q5 10 10.5 19.5t9.5 19.5q5 9 8 17.5t7 17.5q2 2 5 4t5 2q8 2 16 4.5t15 2.5q19 -16 24 -33q-1 -26 -11 -50t-20 -47q10 -12 21.5 -12.5t22.5 -1.5q2 3 4 6.5t3 7.5
q2 9 2 18.5t4 19.5q18 10 24.5 11.5t26.5 0.5q14 -19 16.5 -43t17.5 -44q7 -4 13.5 -8t13.5 -7q8 -15 11 -23t4 -16.5t1 -25.5z" />
    <glyph glyph-name="onehalf" unicode="&#xbd;" horiz-adv-x="674" 
d="M225 339q-1 -8 -2.5 -16t-2.5 -15q-4 -9 -11 -15t-15 -11q-7 -1 -15 -2.5t-16 -2.5q-13 0 -25 1t-25 0q-23 -3 -43 -9q-1 0 -2.5 0.5t-3.5 0.5q-7 4 -9.5 10.5t-5.5 13.5q2 9 2.5 18.5t1.5 18.5q2 12 7 21t18 13q7 2 9 4q3 4 6.5 7.5t1.5 6.5q-3 19 -3.5 38.5t-0.5 36.5
q-5 8 -13 8t-14 3q-9 14 -14.5 28.5t-5.5 28.5q0 20 16 33q8 7 18.5 11.5t18.5 12.5q7 9 12.5 19t15.5 14q6 5 13.5 5t14.5 -1q15 -1 27 -13t13 -26q2 -18 2.5 -36.5t-3.5 -36.5q-6 -30 -7 -60t0 -62q0 -8 2 -12q6 -13 18.5 -16.5t19.5 -18.5zM497 465l-16 -22t-16 -23
q-6 -10 -11.5 -21.5t-11.5 -23.5q-6 -4 -12.5 -9.5t-10.5 -8.5q-20 -31 -38 -59t-36 -57q-11 -18 -23.5 -36.5t-24.5 -37.5q-10 -16 -22 -32t-20 -34q-2 -6 -7 -8q-11 -7 -17 -17.5t-14 -21.5l-12 -14t-10 -12q-9 -5 -16 -6t-15 -1q-18 -2 -32 9q-9 7 -19 14.5t-20 15.5
q1 5 1 9t1 8q11 21 23 42t25 44q18 15 33.5 36t32.5 40q12 15 23.5 31t21.5 32t19 31.5t19 29.5q6 9 12 16.5t8 17.5q0 1 2 5q23 27 39.5 57.5t38.5 58.5q17 2 33.5 2.5t34.5 -2.5q7 -5 15 -10.5t15 -10.5q7 -7 8 -15.5t-1 -16.5zM629 -10l-7 -10.5t-6 -8.5q-4 -1 -7 -2
t-5 -2q-15 0 -30 -1t-31 -1q-23 0 -46.5 1t-48.5 1l-20 8l-20 8q-1 3 -2.5 5.5t-1.5 4.5q-2 11 -2 22.5t4 24.5q14 13 32 23.5t31 25.5q12 12 20 26.5t20 25.5q5 5 7.5 12.5t3.5 13.5q4 14 -8 25q-3 2 -5 3.5t-4 2.5q-16 7 -27 -4q-5 -6 -10.5 -12.5t-11.5 -11.5
q-7 -7 -18 -11q-4 -2 -9 -1t-7 2q-10 8 -18.5 17t-18.5 18q15 40 42 73q7 5 13.5 10t13.5 10q47 31 106 14q31 -8 48 -35q4 -6 7 -12t6 -11q6 -46 -9 -89l-8 -24t-9 -23q-4 -10 -11 -19t-12 -19q-1 -2 1 -7.5t5 -6.5l8 -2t8 -1q6 -1 13.5 -1.5t13.5 -2.5q2 0 4 -1.5t5 -3.5
q5 -14 2 -27.5t-1 -26.5z" />
    <glyph glyph-name="threequarters" unicode="&#xbe;" horiz-adv-x="749" 
d="M237 504q-5 -21 -12 -38.5t-18 -31.5q5 -19 10.5 -34.5t9.5 -31.5q5 -19 -1 -37.5t-19 -32.5q-2 -4 -8 -8q-6 -6 -12.5 -11.5t-13.5 -10.5q-9 -7 -18 -10t-20 0q-7 2 -14 1t-16 -3l-35 11q-16 9 -21 27q-1 6 -0.5 12.5t0.5 13.5q3 19 25 22q14 0 27 -3t25 -5q19 12 21 24
t-12 33q-13 8 -29.5 10t-30.5 13q-6 8 -6 16.5t2 15.5q6 11 15 13t17.5 3.5t17.5 5.5q17 5 18 22q1 10 -2 18t-12 13q-4 3 -13 3q-5 0 -10 -1l-10 -2q-12 -3 -25 2q-8 6 -15 12.5t-12 16.5q3 10 8.5 17t12.5 14q20 10 47 22h15.5t17.5 1q19 3 35.5 -2t33.5 -16
q5 -7 10.5 -14.5t10.5 -15.5q1 -9 1.5 -16.5t0.5 -14.5q2 -7 2.5 -13t1.5 -10zM500 436q-10 -20 -22 -40.5t-20 -44.5q-14 -11 -25.5 -26t-20.5 -32q-13 -23 -27.5 -45.5t-29.5 -45.5q-1 -2 -2.5 -6t-4.5 -6q-10 -9 -14 -21t-9 -25q-4 -5 -8.5 -11t-9.5 -11
q-13 -16 -25 -32.5t-20 -34.5q-9 -20 -23.5 -36t-29.5 -32q-7 -7 -18.5 -7.5t-19.5 3.5q-19 13 -40 45q3 10 11 17t13 18q3 16 11 30.5t20 29.5q7 9 14 17.5t13 18.5q6 8 10 18t9 20q6 5 12 11t12 10q6 21 9.5 30.5t9 18.5t16.5 25q8 14 17.5 27.5t16.5 28.5q5 12 17 19
q10 6 16 15.5t10 19.5q8 21 20 35q8 11 15.5 23t16.5 23l5 5l5 5q12 -2 21 -10t19 -13q8 -3 14 -10t13 -12q2 -2 2 -4q1 -2 1 -8zM707 128q1 -11 1 -23t-6 -24q-20 -12 -34 -21q-13 -16 -14.5 -32.5t-9.5 -30.5q-13 -10 -29.5 -14t-36.5 1q-7 17 -7 31.5t-2 28.5
q-1 7 -3 10.5t-13 13.5q-13 3 -27 2.5t-28 -2.5q-15 -3 -28.5 0t-25.5 7q-9 8 -12 18t-8 19q0 8 1 11q8 25 16 49.5t18 48.5q7 17 12.5 35t11.5 35q1 4 4 7t5 7q14 1 26.5 -3t24.5 -8q10 -3 19 -10q-1 -16 -8.5 -37.5t-27.5 -64.5q3 -8 9 -11t14 -5t16 -1t17 11q4 11 8 24.5
t8 27.5q2 5 4.5 10.5t4.5 9.5q7 14 23 14q12 1 22.5 -3.5t17.5 -17.5v-60q0 -25 21 -31q3 -1 5.5 -3t5.5 -4q2 -4 3 -7.5t2 -7.5z" />
    <glyph glyph-name="questiondown" unicode="&#xbf;" horiz-adv-x="541" 
d="M369 628l-2 -14q0 -4 -0.5 -8t-0.5 -9q-3 -3 -5 -6t-4 -7l-11 -11t-11 -12q-7 -7 -15.5 -11.5t-17.5 -8.5q-3 -2 -7 -3t-7 -2q-8 -1 -16 -1.5t-19 -2.5q-5 2 -12.5 4.5t-15.5 5.5q-7 2 -13 5.5t-12 7.5q-4 8 -8 13.5t-8 12.5q-1 6 -3.5 13.5t-4.5 15.5q-1 12 1 24t8 23
q5 10 13.5 19t16.5 17q10 9 21.5 12t23.5 7q11 1 21.5 -1t20.5 1q5 -1 8.5 -3t6.5 -4q3 -4 4.5 -7.5t5.5 -6.5q20 -18 27.5 -28.5t14.5 -34.5zM494 167q-6 -10 -11 -21.5t-13 -22.5q-3 -5 -6 -11l-6 -12q-4 -7 -8 -15.5t-10 -15.5q-3 -4 -5 -9.5t-4 -10.5q-1 -6 -4.5 -9.5
t-7.5 -8.5q-6 -4 -13.5 -5.5t-12.5 -7.5q-4 -4 -8 -4q-8 -1 -14 -6.5t-11 -10.5q-6 -3 -11 -2l-10 2q-4 -2 -8.5 -4t-9.5 -5q-14 0 -28.5 1t-29.5 -2q-5 -2 -11 -4.5t-12 -4.5q-4 0 -12 2q-3 -1 -6 -1.5t-6 -0.5q-4 2 -8 5t-9 4q-9 2 -14.5 7t-10.5 11q-11 5 -22.5 10
t-23.5 10q-7 11 -15.5 21.5t-14.5 22.5q-3 5 -6.5 7.5t-6.5 4.5q-5 8 -9.5 14.5t-9.5 12.5q-5 7 -6 12q-1 7 -4.5 12t-6.5 11q-5 33 -2 61q6 22 16.5 40t23.5 34q5 8 10.5 15t12.5 12q16 13 22 31q5 2 8.5 4t6.5 3q17 5 30 12q2 3 5.5 3.5t6.5 1.5q7 4 9 13q2 8 2 16v28
q-1 22 20 31h18q10 0 22 5q2 1 9 1q9 -1 17.5 -0.5t17.5 0.5q4 -1 7.5 -3t5.5 -4q3 -3 2.5 -6.5t-0.5 -6.5q1 -4 3 -7.5t3 -7.5q3 -10 3 -25v-18.5t1 -20.5v-10.5t-2 -10.5q-3 -7 -2.5 -13.5t0.5 -13.5q-8 -6 -13 -11l-14 -17q-10 -2 -18.5 -4t-19.5 -2q-13 -6 -26 -14.5
t-25 -17.5q-14 -12 -16 -29q-1 -6 -1 -11.5v-11.5q0 -9 4 -16.5t9 -14.5q2 -4 5.5 -6.5t6.5 -4.5q6 -3 13.5 -6t14.5 -6q10 -1 20.5 -2.5t20.5 -3.5q8 2 15 5t13 5q6 3 12 5l12 4q6 9 12 17.5t11 17.5t9 19.5t4 22.5q0 -1 -1 -1l1 1l16 3.5t27 2.5h22t21 2q8 -2 16.5 -4
t14.5 -7q2 -12 3.5 -23t-0.5 -32z" />
    <glyph glyph-name="Agrave" unicode="&#xc0;" horiz-adv-x="725" 
d="M405 695q5 -8 3.5 -14.5t-6.5 -12.5q-6 -6 -12 -10q-11 -7 -21 -2q-7 1 -14 3t-15 3q-8 11 -18.5 20t-21.5 16q-3 3 -6 5.5t-5 6.5q-4 4 -7 11q-12 6 -23.5 12.5t-22.5 12.5q-4 6 0 9t3 6q0 9 -4 17t-2 18q6 5 13 10.5t14 9.5q8 3 17.5 6t15.5 9q8 -1 12 -4.5t8 -5.5
q3 -1 7 -3.5t8 -4.5q14 -22 31 -43t34 -41q1 -3 2 -5.5t1 -4.5q1 -12 9 -24zM685 59q-4 -5 -9.5 -11t-10.5 -12q-3 -1 -5 -2.5t-4 -2.5q-8 -4 -15.5 -8t-13.5 -11q-6 -5 -13 -9t-16 -4q-5 -1 -9 -3t-9 -4q-8 -4 -15.5 -8t-17.5 -6q-15 8 -19 21q-1 5 -4.5 8.5t-4.5 7.5
q0 4 0.5 7t0.5 7q-4 11 -9.5 19.5t-11.5 18.5q-2 4 -5 8.5t-5 8.5q-2 2 -3.5 6t-3.5 8q-9 -2 -17.5 -2t-17.5 -5q-1 -1 -2 -1q-19 -4 -38 -7l-38 -6q-6 3 -11.5 5t-10.5 4q-7 -1 -13.5 -2.5t-13.5 -0.5h-12t-11 -2q-10 -4 -20 -5t-19 -1q-4 -4 -7.5 -6t-6.5 -5q-6 3 -9 4
q-4 -1 -6.5 -5t-6.5 -9q-1 -8 -3.5 -18t-4.5 -22q-3 -8 -12 -22q-3 -5 -5 -11t-8 -11q-8 2 -15.5 3.5t-13.5 2.5q-6 -1 -9.5 -3.5t-6.5 -5.5t-9 -7q-4 1 -6.5 1t-4.5 1q-17 6 -35 11t-36 6q-16 2 -14 19q2 8 2 12q-3 8 0 14.5t4 13.5q2 12 7 22q2 3 3.5 7t1.5 8q3 15 12 25
q15 23 21 47q1 7 7 14q5 10 9 19.5t7 20.5q0 5 -3 12q-1 6 -0.5 12.5t4.5 12.5q6 15 8 30q2 8 4.5 16t5.5 15q5 14 11 28t11 28q3 9 10 16q15 17 21 40q5 10 8 21t6 21q3 13 10 21q5 5 7.5 10.5t4.5 11.5q2 10 5.5 20t6.5 20q4 8 9 17t9 17q2 6 3 8q5 2 8.5 2h6.5
q6 4 8 10.5t6 6.5q6 0 8.5 0.5t4.5 -0.5q10 -1 20.5 -2t20.5 1h13q6 -1 12.5 -2.5t12.5 -1.5t11.5 0.5t11.5 0.5q5 -2 8.5 -4.5t7.5 -4.5t7.5 -4t7.5 -4q4 0 7.5 0.5t7.5 1.5q6 -1 9 -3.5t6 -7.5q1 -2 1.5 -5.5t1.5 -7.5q2 -3 3.5 -7t3.5 -6q7 -9 11 -18.5t8 -18.5
q6 -19 15 -37.5t19 -35.5q5 -4 8 -9.5t7 -10.5q3 -4 6.5 -8.5t6.5 -9.5q1 -5 1 -10v-9q3 -3 6.5 -5t7.5 -4l4.5 -4.5t3.5 -5.5q4 -7 7.5 -13.5t7.5 -14.5l6 -20t5 -21q1 -3 0.5 -7t-0.5 -8q10 -16 19.5 -32t14.5 -34q0 -2 2 -6q8 -13 14 -28t13 -30q6 -11 10 -23t5 -25
q2 -3 4 -5.5t3 -5.5zM411 243v4q-8 14 -16.5 28t-19.5 27q-4 4 -5.5 8.5t-3.5 8.5q-3 5 -4.5 11t-3.5 10t-4.5 6.5t-5.5 6.5q-9 10 -16 -1q-3 -7 -6 -13l-6 -12q-12 -23 -22 -46.5t-17 -48.5q3 -6 11 -4q5 0 11 0.5t11 1.5q7 2 13 0.5t12 -0.5q8 2 16 2.5t15 4.5q1 1 3 1
t3 1q5 1 10.5 0.5t10.5 -3.5q9 -6 14 7z" />
    <glyph glyph-name="Aacute" unicode="&#xc1;" horiz-adv-x="734" 
d="M448 791q7 -14 -3 -26q-10 -11 -21 -21t-22 -18q-15 -10 -25 -22l-17 -7q-6 -9 -13 -17t-15 -14q-6 -3 -9.5 -1t-7.5 2q-17 0 -32 13q-3 2 -6 2.5t-6 1.5q-1 14 0 18t5 17q9 9 16.5 18.5t14.5 16.5q5 12 10 22.5t10 20.5q4 8 9.5 16.5t10.5 15.5q4 0 7.5 0.5t5.5 -0.5
q8 -3 17 -4t16 -5q14 -4 26.5 -8.5t24.5 -13.5q1 -1 2 -3zM690 54l-21 -21q-4 -4 -8 -5q-20 -13 -38 -23q-5 -3 -9.5 -5.5t-9.5 -5.5q-17 -9 -22 -13t-17 -19q-8 -2 -12.5 1.5t-9.5 8.5q-1 8 -3 16t-4 17q-6 7 -11 16t-13 16q-5 3 -7.5 9.5t-5.5 12.5q-4 8 -9.5 14.5
t-12.5 12.5q-1 2 -3.5 2.5t-4.5 1.5q-7 3 -8 10l-1 1q-5 1 -11 2t-11 2q-7 2 -10.5 0t-6.5 -11h1l-1 -1v1q-5 -3 -11 -4.5t-13 -0.5h-35q-2 1 -12 5q-7 3 -10 2t-5 -10q-2 -3 -4.5 -4t-5.5 -3q-9 2 -18.5 4.5t-18.5 3.5q-5 2 -11 2h-11q-4 1 -7.5 0.5t-5.5 -0.5
q-7 -3 -10 -7q-5 -9 -6 -12q-3 -14 -10 -19q-3 -3 -5 -10q-1 -6 -4 -12t-6 -11q-4 -7 -9 -14.5t-10 -15.5q-3 -4 -6.5 -9.5t-7.5 -10.5q-3 0 -6 -0.5t-5 0.5q-7 3 -15.5 7.5t-17.5 8.5q-10 0 -19.5 2t-20.5 5q-14 5 -21 12q-6 9 -14 14t-16 12q0 2 -0.5 5t0.5 4
q2 8 5.5 16.5t5.5 16.5q3 8 5 16t2 15q0 8 2.5 15t6.5 12q11 12 12 23q0 2 1 3q11 22 17 44.5t12 44.5q2 6 5 12t5 11q2 6 4 11.5t3 10.5q4 2 8 3.5t8 3.5q8 11 15.5 23.5t9.5 25.5q2 2 2.5 5t1.5 4q8 18 14 36t13 37l4 8t6 8q6 6 9 13.5t6 14.5q2 5 2 10.5t1 11.5
q2 2 3 4.5t3 3.5q4 5 8 11.5t6 13.5q2 6 3.5 11.5t4.5 9.5q5 13 10.5 25.5t12.5 23.5q8 5 16 8t17 4q13 2 25.5 5t25.5 5q5 1 10.5 1.5t10.5 -1.5q14 -2 26.5 -3t25.5 -2q3 -1 5 -1t5 -1q2 -3 4 -5t3 -6q2 -3 3.5 -6.5t2.5 -8.5q3 -6 6.5 -12t9.5 -11q8 -6 12 -14.5
t11 -16.5q4 -4 4.5 -9.5t3.5 -10.5q4 -4 6.5 -7.5t5.5 -7.5q2 -4 3.5 -8t2.5 -7q1 -4 1 -8t1 -7q2 -2 5.5 -2.5t4.5 -2.5q4 -5 3.5 -8.5t-0.5 -8.5q0 -7 0.5 -15t4.5 -16q3 -5 4.5 -10.5t2.5 -11.5q3 -4 6 -7t7 -8v-4t1 -5q0 -14 11 -22q8 -4 13 -14q4 -5 7.5 -10.5
t7.5 -13.5q2 -12 7 -25t15 -24q2 -5 1 -11t1 -11q2 -4 1.5 -9t1.5 -10q4 -10 6 -22q5 -9 10 -16q-2 -7 1.5 -11t6.5 -10q0 -3 -0.5 -6t-0.5 -6v-3q4 -9 7.5 -18.5t8.5 -17.5q6 -10 10 -21.5t8 -22.5q1 -1 0.5 -4t-0.5 -5zM435 232q-1 1 -1 3t-2 3q-5 7 -10 13.5t-13 13.5
q-6 6 -9.5 14t-8.5 15q-6 8 -12.5 16t-13.5 17q-3 3 -7.5 2.5t-6.5 -2.5q-5 -8 -10 -15.5t-10 -14.5q-7 -7 -10 -16.5t-8 -17.5q-5 -6 -7.5 -13t-5.5 -15q-1 -6 -2.5 -11.5t-3.5 -10.5q-1 -2 -0.5 -3t0.5 -3q4 -5 9.5 -6.5t11.5 -3.5q16 4 37 4q11 1 20.5 5t20.5 4
q7 2 14 3.5t14 2.5q13 3 14 16z" />
    <glyph glyph-name="Acircumflex" unicode="&#xc2;" horiz-adv-x="742" 
d="M520 695q-4 -7 -10 -11t-11 -9q-5 -4 -10.5 -7.5t-10.5 -8.5q-6 -4 -11.5 -8.5t-11.5 -9.5q-1 1 -3.5 1.5t-4.5 1.5q-11 11 -23 22t-23 23q-3 5 -9 9q-15 10 -25 28q-1 2 -2.5 2t-3.5 1q-13 -5 -17.5 -8t-14.5 -11q-4 -3 -7 -6t-8 -6q-10 -7 -18 -15t-15 -19
q0 -1 -1 -1.5t-1 -1.5q-3 -3 -9 -1q-2 2 -8 6q-8 12 -17.5 23t-20.5 21q-8 6 -10 18q6 8 12 14.5t15 10.5q3 2 5.5 5.5t5.5 7.5q5 2 11 5t12 5q5 3 9 6.5t9 6.5q14 10 27.5 19.5t25.5 20.5q5 5 10.5 6t19.5 1q9 -7 18.5 -12.5t16.5 -16.5q8 -4 15 -9l14 -10q16 -10 29.5 -22
t22.5 -29q7 -12 17 -23q4 -4 6 -9t5 -10zM700 32q5 -14 -11 -18q-6 -1 -12 -3t-12 -2q-8 0 -15 -1t-15 -5q-3 -2 -6 -5.5t-7 -7.5q-13 -5 -23 -8l-14 3q-1 -1 -3 -2t-4 -3l-4.5 -4.5t-4.5 -5.5q-7 -10 -19 -3q-1 1 -2.5 2t-1.5 2q-3 9 -7 17t-7 17q-3 16 -11 28
q-4 8 -8.5 16t-7.5 17q-1 3 -4.5 6t-7.5 6v7.5t-1 7.5q-3 17 -19 15q-4 0 -7.5 -0.5t-5.5 0.5q-11 2 -20 -1q-12 -6 -25 0q-11 7 -23 -5q-1 -1 -3 -2q-7 2 -15 3t-16 3h-13l-17 -7q-8 1 -15 1.5t-14 -0.5t-13 -3l-12 -4q-4 0 -8.5 0.5t-9.5 0.5q-2 -2 -6 -5t-6 -5l-2 -2
t-1 -3q-1 -13 -6.5 -25.5t-13.5 -23.5q-3 -4 -5 -7.5t-4 -8.5q-1 -4 -3 -8t-4 -7q-4 -5 -7.5 -10.5t-5.5 -11.5q-2 -5 -3 -11t-3 -11q-4 -1 -8 0l-8 2q-7 4 -14.5 8t-17.5 5q-9 1 -17 4t-18 4q-1 0 -3.5 1.5t-5.5 2.5q-2 4 -5.5 8.5t-6.5 9.5q-9 1 -17.5 2.5t-17.5 2.5
q-3 2 -4.5 5l-2.5 5q3 11 4.5 22t8.5 18q1 8 1.5 15t1.5 14q3 6 5.5 12.5t5.5 12.5q4 11 8 15q5 6 8 14t6 15q1 6 6 14q10 18 14 35q1 8 3 14l4 12q11 20 17.5 41t13.5 43q6 17 10 34t11 32q0 13 7 24q5 15 11 27q3 5 5.5 11.5t5.5 11.5q4 11 11 23q7 11 13.5 22.5
t14.5 21.5q5 7 9.5 14.5t8.5 15.5q2 5 4.5 10t3.5 10q2 4 4 7t4 7q5 5 7.5 9.5t5.5 8.5q2 5 5.5 8t7.5 6h19q8 -1 13 -6.5t11 -9.5q9 -1 16 2q8 3 16 4t15 1q9 0 16.5 -1t14.5 -6q2 -1 4 -1q11 -6 22 -9.5t24 -3.5q4 -4 8 -10l12 -24t13 -25l6 -4t7 -4q9 -9 9 -20
q2 -15 10 -27q8 -8 12.5 -17.5t9.5 -17.5q4 -8 9 -15.5t4 -16.5q4 -8 6.5 -15t4.5 -15q2 -4 3.5 -9.5t2.5 -10.5q5 -5 9 -12t6 -14t4 -13t3 -13q1 -4 2 -8.5t3 -9.5q3 -8 6.5 -16.5t5.5 -16.5q0 -8 3 -15.5t4 -15.5q2 -10 5 -18.5t9 -16.5q2 -2 4 -5.5t3 -5.5q2 -4 3.5 -7.5
t2.5 -7.5q3 -10 8.5 -18.5t7.5 -19.5q1 -10 6 -18.5t6 -18.5q0 -4 4 -8q3 -6 5 -12t2 -12l2 -10zM427 233q4 5 -1 9t-10.5 10t-4.5 16q-28 29 -43 69q-1 2 -2.5 5.5t-4.5 4.5q-1 2 -3.5 2.5t-4.5 1.5q-1 -4 -5 -6q-10 -16 -18.5 -33t-20.5 -33q-3 -4 -5 -9.5t-4 -10.5
q-2 -10 -2 -15q0 -6 3 -9q16 -20 34 -11q8 4 17 4t17 1q3 -1 5.5 1.5t6.5 1.5q5 2 23 1t23 0z" />
    <glyph glyph-name="Atilde" unicode="&#xc3;" horiz-adv-x="744" 
d="M578 754q6 -12 -1 -21q-6 -9 -12 -19t-16 -19q-4 -1 -9 -3l-10 -4q-2 -3 -5.5 -5.5t-6.5 -6.5q-4 -1 -9 -1.5t-10 -2.5q-4 -1 -8.5 -2.5t-9.5 -3.5q-4 1 -9 2t-10 1t-9.5 -0.5t-9.5 -0.5q-10 6 -20 11.5t-21 8.5q-5 0 -14 7q-7 3 -14 6.5t-14 6.5q-13 7 -28 -2
q-1 -1 -3.5 -2.5t-4.5 -3.5h-10q-1 -1 -3.5 -1.5t-4.5 -2.5q-10 -8 -21 -11.5t-23 -3.5h-4q-4 5 -7.5 10t-6.5 9q-4 3 -7 3q-5 11 -13 23q0 6 0.5 12t5.5 13q19 10 36.5 23t38.5 23q2 0 5.5 -1t5.5 -1q8 0 14.5 3t13.5 6q17 -1 33 -6.5t32 -4.5q14 -8 27 -16t29 -13
q7 1 13 2t11 2q11 4 21.5 8t17.5 12q1 1 6 3q6 4 15 0q3 -3 7 -6.5t6 -7.5q5 -5 9 -11t7 -12zM702 66q1 -5 -1.5 -9t-4.5 -6q-10 -10 -19 -14q-18 -9 -33 -24q-13 -15 -34 -15q-4 0 -8 -1.5t-6 -1.5l-6 3t-6 2q-4 -1 -9 -3.5t-11 -4.5q-4 2 -8.5 4.5t-8.5 3.5q-3 3 -4 6
q-10 12 -15 25.5t-8 29.5q-1 2 -0.5 3.5t-0.5 2.5q-7 9 -8.5 21t-9.5 22q-1 2 -4.5 3.5t-5.5 2.5q-7 3 -12.5 2t-11.5 -2q-5 0 -11 0.5t-13 1.5q-1 0 -2.5 1.5t-3.5 2.5q-6 2 -16.5 2.5t-15.5 -0.5q-21 -5 -41.5 -3.5t-43.5 2.5q-8 -4 -17.5 -9t-21.5 -4q-5 0 -9 -2.5
t-9 -6.5q-8 -9 -19 -15q-7 -25 -21 -47t-25 -44q-2 -1 -3.5 -2t-3.5 -1l-14 -2t-15 -3q-7 9 -15 14q-11 5 -23.5 8.5t-22.5 12.5q-8 1 -14.5 1.5t-12.5 1.5q-7 4 -13.5 8t-11.5 6q-3 5 -5 10t-1 12q6 21 17 42q8 20 18 41t21 40l4 10t3 11q3 16 16 31q3 4 6.5 8.5t7.5 8.5
q4 14 11.5 27t11.5 26q1 2 2 4.5t2 4.5q11 17 21.5 34t20.5 35q9 18 18.5 36.5t15.5 38.5q5 14 11 28t15 27q3 5 5 10.5t5 9.5q8 12 15.5 24.5t18.5 22.5q5 3 7 8t8 8q5 1 11 1t11 1h11.5t10.5 1q7 -2 12.5 -4t12.5 1q5 2 10 1t9 1q6 -2 12 -5t12 -5q6 -1 12.5 -1.5
t11.5 -2.5q13 -5 17 -15q4 -6 7 -12.5t8 -11.5q7 -8 8 -17q3 -8 8 -16t7 -16q0 -3 1 -4q9 -8 13.5 -19t9.5 -22q5 -10 9 -20.5t7 -20.5l4 -8t3 -7q4 -8 7.5 -16.5t4.5 -17.5q2 -13 10 -23q3 -4 5.5 -8t5.5 -8q8 -10 14.5 -20.5t10.5 -24.5q7 -9 12 -20t11 -22
q7 -12 12.5 -25.5t9.5 -27.5l4 -12l4 -12q3 -7 3 -15q0 -9 2 -16.5t5 -14.5q6 -11 10.5 -23t8.5 -24zM437 240q-3 11 -9 16q-4 5 -7 10.5t-5 12.5q-1 11 -2 23.5t-6 22.5q-1 14 -5.5 25t-10.5 24q-3 -1 -5.5 -1t-4.5 -2q-11 -5 -14 -17q-1 -4 -2.5 -8t-5.5 -9
q-8 -11 -13 -29q-1 -2 -1.5 -5.5t-2.5 -5.5l-8 -14l-8 -14q-5 -7 -9 -16.5t-6 -17.5q1 -5 4.5 -7.5t6.5 -3.5q6 -1 12.5 -2t12.5 -2h33q6 2 12 3l12 2q7 2 13.5 2.5t13.5 1.5q7 3 5 11z" />
    <glyph glyph-name="Adieresis" unicode="&#xc4;" horiz-adv-x="718" 
d="M574 743q1 -30 -6 -61q-3 -13 -15 -21l-5 -2.5t-5 -4.5q-6 -8 -15 -13.5t-19 -9.5l-6 -2t-5 -2q-10 0 -17.5 3t-12.5 7q-7 5 -13.5 10t-14.5 10q-6 9 -9 20.5t-7 22.5q-1 6 0 13q3 8 6 16.5t1 16.5q0 7 5 12q9 12 20 21t26 13q5 0 9.5 -0.5t8.5 -1.5l9 -8l16 -4l16 -4
q11 -4 20 -10.5t13 -20.5zM343 716q3 -11 -5 -20q-7 -9 -13.5 -16.5t-11.5 -14.5q-8 -4 -15 -7t-12 -8q-13 -10 -28 -13q-7 3 -13.5 2t-13.5 -3q-6 12 -17 23q-4 5 -9 8.5t-8 7.5q-6 8 -6.5 16.5t-3.5 15.5q2 5 2.5 9.5t1.5 9.5v9t1 9q5 10 12.5 17t11.5 14q11 8 22 11l22 6
q5 -2 10.5 -4t10.5 -4q5 -1 10.5 -3t12.5 -4q7 -7 14 -13.5t16 -13.5q1 -5 1.5 -9.5t1.5 -9.5q2 -7 6 -15zM682 28v-6t-3 -7q-4 -2 -10 -4.5t-11 -5.5q-6 -3 -12.5 -4t-12.5 -3q-10 -2 -19.5 -6.5t-17.5 -9.5q-20 -3 -39 -6.5t-37 -11.5q-6 1 -13 8q-1 5 0 8.5t2 7.5
q-1 5 -5 8l-8 6q-2 6 -3.5 12t-3.5 12q-1 4 0 8.5t1 9.5q-4 14 -6.5 30.5t-12.5 30.5q-7 5 -19 3q-4 -1 -9 -1.5t-9 0.5t-8 1h-9q-14 1 -28.5 1t-28.5 4h-7q-14 -3 -29.5 -3t-30.5 -1q-19 0 -32 -4q-8 -4 -12.5 -11.5t-7.5 -16.5q-1 -4 -1.5 -7.5t-1.5 -8.5q-1 -3 -1 -6
t-1 -7q-4 -10 -7.5 -20t-3.5 -21q-5 -4 -9 -6.5t-8 -6.5q-3 -2 -6 -6t-5 -6q-14 -4 -24 1q-10 2 -19.5 3.5t-18.5 4.5q-16 4 -34 -1q-5 0 -8 3t-9 6q-9 3 -21 2.5t-25 7.5q-3 5 -2 13q6 19 13 38t19 35q1 8 1.5 15t1.5 14q5 6 8 12.5t4 14.5q0 12 11 25q6 8 13 16.5t11 16.5
q8 12 14.5 24t7.5 26v19q4 5 7.5 10.5t6.5 11.5q8 11 14 23.5t9 26.5q1 7 8 17q3 3 5 11q2 11 5 21t5 20q3 8 6.5 16t9.5 16q2 0 8 2q3 0 3 2v6t-2 7q2 2 3 4.5t2 3.5q5 10 11 18.5t9 18.5q2 8 7.5 17t9.5 17q2 5 4.5 10.5t5.5 9.5q5 8 10.5 17.5t6.5 18.5q5 4 9.5 3t8.5 -1
q3 1 7 2t8 1q13 -2 25.5 -0.5t25.5 -1.5q5 -1 11 0t11 1q15 2 25 -2q7 -3 13 -5.5t12 -4.5q3 -2 6 -4.5t6 -5.5l11 -9q-1 0 -1.5 -1l-0.5 -1q2 -1 2.5 -3t1.5 -2q6 1 12.5 2t12.5 2q4 -7 6.5 -14t8.5 -12q7 -13 14 -26.5t8 -29.5q0 -5 3 -9t5 -9q-1 -1 -1.5 -3t-2.5 -4
l18 -28q8 -18 11 -36q3 -10 5.5 -21t6.5 -22q2 -4 3 -9l2 -10q2 -7 3 -15t2 -17q2 -2 4.5 -5.5t4.5 -6.5q9 -8 13 -19q6 -12 15 -24q-1 -4 -2.5 -9t-3.5 -9q8 -7 12 -15t6 -16q1 -5 2.5 -10.5t2.5 -11.5q5 -10 6 -21q-1 -6 -1.5 -11.5t-1.5 -10.5q6 -12 10 -24t7 -25
q2 -16 7 -31.5t9 -30.5zM445 253q0 5 -2 9q-4 11 -8.5 22.5t-9.5 22.5q-3 11 -7.5 22.5t-12.5 20.5q-4 4 -6.5 9t-4.5 10q0 2 -3 5q-4 0 -7 -3q-7 -15 -15.5 -30t-22.5 -25l-7.5 -15t-7.5 -13q-3 -11 -4 -16.5t-6 -13.5q-3 -2 -5.5 -9t-4.5 -9q2 -2 4 -2q2 -1 3.5 -1t2.5 -1
q33 -16 68 -1q9 3 19.5 5.5t21.5 0.5q2 0 4.5 1t4.5 2q3 0 5 4t1 5z" />
    <glyph glyph-name="Aring" unicode="&#xc5;" horiz-adv-x="749" 
d="M471 738q-2 -9 -2.5 -19.5t-1.5 -19.5q-10 -20 -25.5 -30.5t-29.5 -18.5q-4 -1 -6 -1t-5 -2q-31 -2 -58.5 3t-46.5 27q-19 17 -20.5 35.5t-5.5 34.5q3 13 5.5 24.5t9.5 19.5q8 9 14.5 18t12.5 19q17 11 34 19.5t35 12.5q9 -2 18.5 -4.5t17.5 -5.5q11 -4 21.5 -10.5
t21.5 -11.5q11 -22 15 -43t-4 -47zM420 769q-2 6 -5.5 13.5t-10.5 13.5q-5 2 -11.5 4.5t-13.5 4.5q-15 -4 -26 -12t-16 -25q-4 -13 -1 -25.5t16 -23.5q13 -2 25.5 -6.5t27.5 3.5q7 11 12 23.5t3 29.5zM705 36q-7 -10 -16 -19.5t-22 -14.5q-11 -5 -22.5 -11.5t-21.5 -14.5
q-33 -32 -69 -5q-6 10 -4 21t-3 22q-16 16 -34 31.5t-30 39.5q-13 -14 -29 -15t-32 -4q-18 -7 -35.5 -11.5t-31.5 -10.5q-11 -3 -18.5 0t-13.5 5q-16 -1 -31.5 -2.5t-31.5 -3.5q-4 0 -8.5 -0.5t-8.5 -2.5q-4 -1 -9 -4.5t-10 -6.5q-6 -12 -9.5 -26t-8.5 -26
q-5 -10 -10.5 -21.5t-8.5 -23.5q-4 0 -7.5 -0.5t-5.5 0.5q-17 13 -36 17.5t-39 7.5q-15 3 -27 11t-23 11q-6 14 -5.5 24t1.5 20q11 16 16.5 35t13.5 38t23 33q5 33 16 64t24 61q11 23 22 44t21 42q5 13 10 22.5t15 13.5q5 11 3.5 20t-2.5 16q5 10 10 19t10 19l21 16
q3 17 11.5 30.5t16.5 28t8 33.5q14 6 27.5 7.5t26.5 1.5q24 -1 46 4.5t43 21.5q9 -13 20.5 -23t14.5 -28l3 -6q8 -6 7 -13t3 -16q10 -13 19.5 -26.5t19.5 -27.5v-21q17 -16 29.5 -38t30.5 -39q5 -3 7 -10q8 -21 19 -39.5t23 -36.5q14 -19 19.5 -41t10.5 -45q6 -22 12.5 -44
t19.5 -41q3 -4 5.5 -8.5t1.5 -7.5q-2 -14 5 -23.5t8 -22.5zM442 215q0 14 -6 25.5t-12 22.5t-5 23l-10.5 10.5t-9.5 8.5q-4 11 -5 21.5t-16 11.5q-8 -8 -15 -19.5t-18 -19.5q-4 -4 -6.5 -9.5t-4.5 -10.5q-7 -22 -13.5 -43.5t-9.5 -43.5q6 -7 12 -7.5t12 0.5q19 8 37.5 13.5
t39.5 1.5q17 -2 30 15z" />
    </font>
</defs>
</svg>
